<svg width="261" height="140" viewBox="0 0 261 140" fill="none" xmlns="http://www.w3.org/2000/svg">
<rect width="261" height="139.222" rx="15" fill="white"/>
<path d="M17.9026 24.5635V23.4035H24.7724V24.5635H21.9755V32.7222H20.7124V24.5635H17.9026ZM26.6596 32.8768C25.3063 32.8768 24.5072 32.1164 24.5072 30.9693C24.5072 29.8093 25.3707 29.0875 26.8529 28.9715L28.8378 28.8168V28.6364C28.8378 27.5795 28.2063 27.2057 27.3556 27.2057C26.3374 27.2057 25.7574 27.6568 25.7574 28.4173H24.7005C24.7005 27.1026 25.7832 26.2391 27.4072 26.2391C28.9667 26.2391 30.0236 27.0639 30.0236 28.7653V32.7222H28.9925L28.8636 31.7039C28.5414 32.4257 27.6778 32.8768 26.6596 32.8768ZM27.0076 31.9359C28.1547 31.9359 28.8507 31.1884 28.8507 30.0026V29.6675L27.2396 29.7964C26.1698 29.8995 25.7316 30.3119 25.7316 30.9306C25.7316 31.6008 26.2214 31.9359 27.0076 31.9359ZM31.1859 30.8919H32.3459C32.3459 31.5364 32.8357 31.9231 33.6348 31.9231C34.4855 31.9231 34.9753 31.5751 34.9753 30.9951C34.9753 30.5697 34.769 30.3119 34.1117 30.1444L33.0033 29.8866C31.8819 29.6159 31.3535 29.0617 31.3535 28.1337C31.3535 26.9737 32.333 26.2391 33.725 26.2391C35.1041 26.2391 36.0064 27.0124 36.0321 28.2111H34.8721C34.8464 27.5795 34.421 27.1799 33.6864 27.1799C32.9259 27.1799 32.5006 27.5151 32.5006 28.0951C32.5006 28.5204 32.8099 28.8039 33.4286 28.9586L34.537 29.2293C35.6068 29.4871 36.1353 29.9768 36.1353 30.9177C36.1353 32.1164 35.1041 32.8768 33.609 32.8768C32.1268 32.8768 31.1859 32.0906 31.1859 30.8919ZM38.7162 32.7222H37.5046V23.2359H38.7162V29.3839L41.513 26.4195H43.0339L40.6237 28.9328L43.021 32.7222H41.629L39.7859 29.8093L38.7162 30.9306V32.7222ZM49.3269 32.7222H48.1154V27.4377H46.878V26.4195H48.1154V24.4475H49.3269V26.4195H50.5643V27.4377H49.3269V32.7222ZM52.2445 24.9244C51.8062 24.9244 51.4453 24.5635 51.4453 24.1253C51.4453 23.6742 51.8062 23.3262 52.2445 23.3262C52.6827 23.3262 53.0436 23.6742 53.0436 24.1253C53.0436 24.5635 52.6827 24.9244 52.2445 24.9244ZM51.6516 32.7222V26.4195H52.8631V32.7222H51.6516ZM56.4007 32.7222H55.1892V27.4377H53.9518V26.4195H55.1892V24.4475H56.4007V26.4195H57.6381V27.4377H56.4007V32.7222ZM59.9627 32.7222H58.7511V23.2359H59.9627V32.7222ZM64.4657 32.8768C62.6097 32.8768 61.3337 31.5364 61.3337 29.5773C61.3337 27.6053 62.584 26.2391 64.4142 26.2391C66.2057 26.2391 67.3786 27.4764 67.3786 29.3453V29.7964L62.5066 29.8093C62.5969 31.1368 63.2929 31.8715 64.4915 31.8715C65.4324 31.8715 66.0511 31.4848 66.2573 30.7631H67.3915C67.0822 32.1164 66.0253 32.8768 64.4657 32.8768ZM64.4142 27.2573C63.3573 27.2573 62.6871 27.8888 62.5324 28.9973H66.1671C66.1671 27.9533 65.484 27.2573 64.4142 27.2573Z" fill="#1C2434"/>
<rect x="18.1249" y="52.9582" width="15.3056" height="15.3056" rx="2.81944" fill="white" stroke="#E2E8F0" stroke-width="0.805556"/>
<path d="M46.355 65.6111H45.427V56.3826H46.355V60.4942H51.343V56.3826H52.2581V65.6111H51.343V61.3578H46.355V65.6111ZM56.9378 65.7658C55.1076 65.7658 53.8831 64.4511 53.8831 62.492C53.8831 60.5458 55.0947 59.2053 56.8733 59.2053C58.5618 59.2053 59.7089 60.404 59.7089 62.1698V62.608H54.7467C54.8111 64.1289 55.6102 65.0053 56.9507 65.0053C57.9689 65.0053 58.6262 64.5671 58.8582 63.7422H59.7089C59.3738 65.0569 58.4071 65.7658 56.9378 65.7658ZM56.8733 59.9658C55.7004 59.9658 54.9271 60.7391 54.7724 61.9635H58.8196C58.8196 60.7649 58.0462 59.9658 56.8733 59.9658ZM64.3917 59.2955V60.0946H63.9019C62.7548 60.0946 62.0201 60.868 62.0201 62.0538V65.6111H61.1308V59.3729H61.9686L62.033 60.3395C62.2779 59.6693 62.9352 59.2311 63.8117 59.2311C64.005 59.2311 64.1726 59.244 64.3917 59.2955ZM67.9512 65.7658C66.121 65.7658 64.8966 64.4511 64.8966 62.492C64.8966 60.5458 66.1081 59.2053 67.8868 59.2053C69.5752 59.2053 70.7223 60.404 70.7223 62.1698V62.608H65.7601C65.8246 64.1289 66.6237 65.0053 67.9641 65.0053C68.9823 65.0053 69.6397 64.5671 69.8717 63.7422H70.7223C70.3872 65.0569 69.4206 65.7658 67.9512 65.7658ZM67.8868 59.9658C66.7139 59.9658 65.9406 60.7391 65.7859 61.9635H69.833C69.833 60.7649 69.0597 59.9658 67.8868 59.9658ZM76.1571 57.6586C75.7962 57.6586 75.4998 57.3622 75.4998 57.0013C75.4998 56.6404 75.7962 56.3311 76.1571 56.3311C76.518 56.3311 76.8274 56.6404 76.8274 57.0013C76.8274 57.3622 76.518 57.6586 76.1571 57.6586ZM75.7189 65.6111V59.3729H76.6082V65.6111H75.7189ZM77.9344 63.8582H78.7851C78.7851 64.58 79.3264 65.0311 80.2028 65.0311C81.1695 65.0311 81.7366 64.6186 81.7366 63.9484C81.7366 63.4329 81.4788 63.1364 80.7442 62.956L79.6744 62.6853C78.5917 62.4146 78.0633 61.8475 78.0633 60.9969C78.0633 59.9013 78.9784 59.2053 80.3188 59.2053C81.6335 59.2053 82.4842 59.9271 82.5228 61.0871H81.6593C81.6335 60.3653 81.1308 59.94 80.2931 59.94C79.4166 59.94 78.9268 60.3138 78.9268 60.984C78.9268 61.4609 79.2619 61.796 79.9451 61.9635L81.0148 62.2342C82.0975 62.5049 82.5873 63.0075 82.5873 63.9098C82.5873 65.0311 81.6335 65.7658 80.2157 65.7658C78.8108 65.7658 77.9344 65.0182 77.9344 63.8582ZM89.0567 65.6111H88.1803V60.1204H86.93V59.3729H88.1803V57.4009H89.0567V59.3729H90.3069V60.1204H89.0567V65.6111ZM93.1559 65.7658C91.8283 65.7658 91.0421 65.0182 91.0421 63.9226C91.0421 62.7755 91.9185 62.0538 93.375 61.9378L95.4372 61.7702V61.564C95.4372 60.3395 94.7025 59.9529 93.7874 59.9529C92.7048 59.9529 92.0603 60.4426 92.0603 61.2804H91.2483C91.2483 60.0173 92.2794 59.2053 93.8132 59.2053C95.2568 59.2053 96.3136 59.9271 96.3136 61.5769V65.6111H95.5661L95.4501 64.5155C95.0634 65.3018 94.2128 65.7658 93.1559 65.7658ZM93.3621 65.044C94.6768 65.044 95.4372 64.1289 95.4372 62.7755V62.4404L93.5941 62.5822C92.4212 62.6853 91.9443 63.2009 91.9443 63.8969C91.9443 64.6573 92.5114 65.044 93.3621 65.044ZM97.5698 63.8582H98.4205C98.4205 64.58 98.9618 65.0311 99.8383 65.0311C100.805 65.0311 101.372 64.6186 101.372 63.9484C101.372 63.4329 101.114 63.1364 100.38 62.956L99.3098 62.6853C98.2271 62.4146 97.6987 61.8475 97.6987 60.9969C97.6987 59.9013 98.6138 59.2053 99.9543 59.2053C101.269 59.2053 102.12 59.9271 102.158 61.0871H101.295C101.269 60.3653 100.766 59.94 99.9285 59.94C99.052 59.94 98.5623 60.3138 98.5623 60.984C98.5623 61.4609 98.8974 61.796 99.5805 61.9635L100.65 62.2342C101.733 62.5049 102.223 63.0075 102.223 63.9098C102.223 65.0311 101.269 65.7658 99.8511 65.7658C98.4463 65.7658 97.5698 65.0182 97.5698 63.8582ZM104.615 65.6111H103.725V56.2151H104.615V62.5951L107.708 59.3729H108.829L106.432 61.8604L108.842 65.6111H107.811L105.826 62.492L104.615 63.7422V65.6111ZM113.041 62.492C113.041 60.5844 114.382 59.2053 116.212 59.2053C118.042 59.2053 119.382 60.5844 119.382 62.492C119.382 64.3866 118.042 65.7658 116.212 65.7658C114.382 65.7658 113.041 64.3866 113.041 62.492ZM113.943 62.4791C113.943 63.9484 114.871 64.9666 116.212 64.9666C117.539 64.9666 118.48 63.9484 118.48 62.4791C118.48 61.0355 117.539 60.0044 116.212 60.0044C114.871 60.0044 113.943 61.0355 113.943 62.4791ZM121.694 65.6111H120.805V59.3729H121.578L121.707 60.4555C122.12 59.6564 122.944 59.2053 123.847 59.2053C125.561 59.2053 126.27 60.2235 126.27 61.796V65.6111H125.38V61.9893C125.38 60.5329 124.723 60.0173 123.692 60.0173C122.416 60.0173 121.694 60.9453 121.694 62.3502V65.6111ZM130.659 65.7658C128.828 65.7658 127.604 64.4511 127.604 62.492C127.604 60.5458 128.816 59.2053 130.594 59.2053C132.283 59.2053 133.43 60.404 133.43 62.1698V62.608H128.468C128.532 64.1289 129.331 65.0053 130.672 65.0053C131.69 65.0053 132.347 64.5671 132.579 63.7422H133.43C133.095 65.0569 132.128 65.7658 130.659 65.7658ZM130.594 59.9658C129.421 59.9658 128.648 60.7391 128.493 61.9635H132.54C132.54 60.7649 131.767 59.9658 130.594 59.9658Z" fill="#64748B"/>
<rect x="17.7222" y="77.9998" width="16.1111" height="16.1111" rx="3.22222" fill="#3C50E0"/>
<path fill-rule="evenodd" clip-rule="evenodd" d="M29.5694 83.0689C29.7206 83.22 29.8056 83.4248 29.8056 83.6384C29.8056 83.8521 29.7206 84.0569 29.5694 84.208L25.5366 88.236C25.3853 88.3871 25.1802 88.4719 24.9663 88.4719C24.7525 88.4719 24.5474 88.3871 24.3961 88.236L21.9764 85.8192C21.8295 85.6673 21.7482 85.4638 21.75 85.2525C21.7519 85.0413 21.8367 84.8393 21.9862 84.6899C22.1358 84.5405 22.3381 84.4558 22.5496 84.454C22.761 84.4521 22.9648 84.5333 23.1169 84.6801L24.9663 86.5273L28.4289 83.0689C28.5802 82.9179 28.7853 82.833 28.9992 82.833C29.213 82.833 29.4182 82.9179 29.5694 83.0689Z" fill="white"/>
<path d="M46.3582 90.0554H45.253V81.9016H46.3582V85.409H50.3957V81.9016H51.5009V90.0554H50.3957V86.4353H46.3582V90.0554ZM55.5911 90.1908C53.9671 90.1908 52.8506 89.0179 52.8506 87.3036C52.8506 85.5781 53.9446 84.3827 55.546 84.3827C57.1136 84.3827 58.1399 85.4654 58.1399 87.1006V87.4954L53.8769 87.5066C53.9558 88.6683 54.5648 89.3111 55.6137 89.3111C56.4369 89.3111 56.9783 88.9728 57.1587 88.3412H58.1512C57.8805 89.5254 56.9557 90.1908 55.5911 90.1908ZM55.546 85.2736C54.6212 85.2736 54.0348 85.8263 53.8994 86.7961H57.0798C57.0798 85.8826 56.4821 85.2736 55.546 85.2736ZM62.4817 84.4955V85.4654H62.0081C61.0044 85.4654 60.3841 86.0744 60.3841 87.1345V90.0554H59.324V84.5519H60.3164L60.3841 85.3864C60.6096 84.8113 61.1622 84.4278 61.9179 84.4278C62.1096 84.4278 62.2675 84.4504 62.4817 84.4955ZM65.6574 90.1908C64.0334 90.1908 62.9169 89.0179 62.9169 87.3036C62.9169 85.5781 64.0109 84.3827 65.6123 84.3827C67.1799 84.3827 68.2062 85.4654 68.2062 87.1006V87.4954L63.9432 87.5066C64.0221 88.6683 64.6311 89.3111 65.68 89.3111C66.5032 89.3111 67.0446 88.9728 67.225 88.3412H68.2175C67.9468 89.5254 67.022 90.1908 65.6574 90.1908ZM65.6123 85.2736C64.6875 85.2736 64.1011 85.8263 63.9657 86.7961H67.1461C67.1461 85.8826 66.5484 85.2736 65.6123 85.2736ZM72.9928 83.2324C72.6094 83.2324 72.2936 82.9166 72.2936 82.5331C72.2936 82.1384 72.6094 81.8339 72.9928 81.8339C73.3763 81.8339 73.692 82.1384 73.692 82.5331C73.692 82.9166 73.3763 83.2324 72.9928 83.2324ZM72.474 90.0554V84.5406H73.5341V90.0554H72.474ZM74.6221 88.454H75.6371C75.6371 89.0179 76.0656 89.3562 76.7649 89.3562C77.5092 89.3562 77.9378 89.0517 77.9378 88.5442C77.9378 88.172 77.7573 87.9465 77.1822 87.7999L76.2123 87.5743C75.2311 87.3375 74.7687 86.8525 74.7687 86.0405C74.7687 85.0255 75.6258 84.3827 76.8438 84.3827C78.0505 84.3827 78.84 85.0594 78.8625 86.1082H77.8475C77.825 85.5556 77.4528 85.206 76.81 85.206C76.1446 85.206 75.7724 85.4992 75.7724 86.0067C75.7724 86.3789 76.0431 86.627 76.5844 86.7623L77.5543 86.9991C78.4904 87.2247 78.9528 87.6533 78.9528 88.4765C78.9528 89.5254 78.0505 90.1908 76.7423 90.1908C75.4454 90.1908 74.6221 89.5028 74.6221 88.454ZM84.7685 90.0554H83.7084V85.4315H82.6257V84.5406H83.7084V82.8151H84.7685V84.5406H85.8511V85.4315H84.7685V90.0554ZM88.3492 90.1908C87.165 90.1908 86.4658 89.5254 86.4658 88.5216C86.4658 87.5066 87.2214 86.8751 88.5183 86.7736L90.2551 86.6383V86.4804C90.2551 85.5556 89.7025 85.2285 88.9582 85.2285C88.0672 85.2285 87.5597 85.6233 87.5597 86.2886H86.635C86.635 85.1383 87.5823 84.3827 89.0033 84.3827C90.3679 84.3827 91.2927 85.1045 91.2927 86.5931V90.0554H90.3905L90.2777 89.1645C89.9957 89.796 89.2401 90.1908 88.3492 90.1908ZM88.6537 89.3675C89.6574 89.3675 90.2664 88.7134 90.2664 87.6758V87.3826L88.8567 87.4954C87.9206 87.5856 87.5372 87.9465 87.5372 88.4878C87.5372 89.0743 87.9657 89.3675 88.6537 89.3675ZM92.3097 88.454H93.3247C93.3247 89.0179 93.7533 89.3562 94.4525 89.3562C95.1968 89.3562 95.6254 89.0517 95.6254 88.5442C95.6254 88.172 95.4449 87.9465 94.8698 87.7999L93.8999 87.5743C92.9187 87.3375 92.4563 86.8525 92.4563 86.0405C92.4563 85.0255 93.3134 84.3827 94.5314 84.3827C95.7381 84.3827 96.5276 85.0594 96.5501 86.1082H95.5351C95.5126 85.5556 95.1404 85.206 94.4976 85.206C93.8322 85.206 93.46 85.4992 93.46 86.0067C93.46 86.3789 93.7307 86.627 94.272 86.7623L95.2419 86.9991C96.178 87.2247 96.6404 87.6533 96.6404 88.4765C96.6404 89.5254 95.7381 90.1908 94.4299 90.1908C93.133 90.1908 92.3097 89.5028 92.3097 88.454ZM98.8987 90.0554H97.8385V81.755H98.8987V87.1345L101.346 84.5406H102.677L100.568 86.7398L102.665 90.0554H101.447L99.8347 87.5066L98.8987 88.4878V90.0554ZM108.183 90.0554H107.123V85.4315H106.04V84.5406H107.123V82.8151H108.183V84.5406H109.266V85.4315H108.183V90.0554ZM111.401 90.0554L109.597 84.5406H110.691L111.604 87.4051C111.728 87.8111 111.841 88.2284 111.943 88.7134C112.033 88.2284 112.179 87.766 112.304 87.4051L113.228 84.5406H114.311L115.224 87.4051C115.315 87.6758 115.495 88.3186 115.585 88.7134C115.676 88.2735 115.777 87.8901 115.935 87.4051L116.86 84.5406H117.965L116.082 90.0554H115.078L114.119 87.1006C113.939 86.548 113.826 86.1195 113.77 85.815C113.713 86.0856 113.612 86.4465 113.409 87.1119L112.45 90.0554H111.401ZM118.26 87.2924C118.26 85.5894 119.478 84.394 121.135 84.394C122.782 84.394 124 85.5894 124 87.2924C124 88.9953 122.782 90.1908 121.135 90.1908C119.478 90.1908 118.26 88.9953 118.26 87.2924ZM119.331 87.2924C119.331 88.4427 120.064 89.2434 121.135 89.2434C122.195 89.2434 122.94 88.4427 122.94 87.2924C122.94 86.142 122.195 85.3413 121.135 85.3413C120.064 85.3413 119.331 86.142 119.331 87.2924Z" fill="#64748B"/>
<path d="M44.3057 86.6721H124.406V87.236H44.3057V86.6721Z" fill="#64748B"/>
<rect x="18.1249" y="103.847" width="15.3056" height="15.3056" rx="2.81944" fill="white" stroke="#E2E8F0" stroke-width="0.805556"/>
<path d="M46.355 116.5H45.427V107.272H46.355V111.383H51.343V107.272H52.2581V116.5H51.343V112.247H46.355V116.5ZM56.9378 116.655C55.1076 116.655 53.8831 115.34 53.8831 113.381C53.8831 111.435 55.0947 110.094 56.8733 110.094C58.5618 110.094 59.7089 111.293 59.7089 113.059V113.497H54.7467C54.8111 115.018 55.6102 115.894 56.9507 115.894C57.9689 115.894 58.6262 115.456 58.8582 114.631H59.7089C59.3738 115.946 58.4071 116.655 56.9378 116.655ZM56.8733 110.855C55.7004 110.855 54.9271 111.628 54.7724 112.852H58.8196C58.8196 111.654 58.0462 110.855 56.8733 110.855ZM64.3917 110.184V110.984H63.9019C62.7548 110.984 62.0201 111.757 62.0201 112.943V116.5H61.1308V110.262H61.9686L62.033 111.228C62.2779 110.558 62.9352 110.12 63.8117 110.12C64.005 110.12 64.1726 110.133 64.3917 110.184ZM67.9512 116.655C66.121 116.655 64.8966 115.34 64.8966 113.381C64.8966 111.435 66.1081 110.094 67.8868 110.094C69.5752 110.094 70.7223 111.293 70.7223 113.059V113.497H65.7601C65.8246 115.018 66.6237 115.894 67.9641 115.894C68.9823 115.894 69.6397 115.456 69.8717 114.631H70.7223C70.3872 115.946 69.4206 116.655 67.9512 116.655ZM67.8868 110.855C66.7139 110.855 65.9406 111.628 65.7859 112.852H69.833C69.833 111.654 69.0597 110.855 67.8868 110.855ZM76.1571 108.548C75.7962 108.548 75.4998 108.251 75.4998 107.89C75.4998 107.529 75.7962 107.22 76.1571 107.22C76.518 107.22 76.8274 107.529 76.8274 107.89C76.8274 108.251 76.518 108.548 76.1571 108.548ZM75.7189 116.5V110.262H76.6082V116.5H75.7189ZM77.9344 114.747H78.7851C78.7851 115.469 79.3264 115.92 80.2028 115.92C81.1695 115.92 81.7366 115.508 81.7366 114.837C81.7366 114.322 81.4788 114.025 80.7442 113.845L79.6744 113.574C78.5917 113.304 78.0633 112.736 78.0633 111.886C78.0633 110.79 78.9784 110.094 80.3188 110.094C81.6335 110.094 82.4842 110.816 82.5228 111.976H81.6593C81.6335 111.254 81.1308 110.829 80.2931 110.829C79.4166 110.829 78.9268 111.203 78.9268 111.873C78.9268 112.35 79.2619 112.685 79.9451 112.852L81.0148 113.123C82.0975 113.394 82.5873 113.896 82.5873 114.799C82.5873 115.92 81.6335 116.655 80.2157 116.655C78.8108 116.655 77.9344 115.907 77.9344 114.747ZM89.0567 116.5H88.1803V111.009H86.93V110.262H88.1803V108.29H89.0567V110.262H90.3069V111.009H89.0567V116.5ZM93.1559 116.655C91.8283 116.655 91.0421 115.907 91.0421 114.812C91.0421 113.664 91.9185 112.943 93.375 112.827L95.4372 112.659V112.453C95.4372 111.228 94.7025 110.842 93.7874 110.842C92.7048 110.842 92.0603 111.332 92.0603 112.169H91.2483C91.2483 110.906 92.2794 110.094 93.8132 110.094C95.2568 110.094 96.3136 110.816 96.3136 112.466V116.5H95.5661L95.4501 115.404C95.0634 116.191 94.2128 116.655 93.1559 116.655ZM93.3621 115.933C94.6768 115.933 95.4372 115.018 95.4372 113.664V113.329L93.5941 113.471C92.4212 113.574 91.9443 114.09 91.9443 114.786C91.9443 115.546 92.5114 115.933 93.3621 115.933ZM97.5698 114.747H98.4205C98.4205 115.469 98.9618 115.92 99.8383 115.92C100.805 115.92 101.372 115.508 101.372 114.837C101.372 114.322 101.114 114.025 100.38 113.845L99.3098 113.574C98.2271 113.304 97.6987 112.736 97.6987 111.886C97.6987 110.79 98.6138 110.094 99.9543 110.094C101.269 110.094 102.12 110.816 102.158 111.976H101.295C101.269 111.254 100.766 110.829 99.9285 110.829C99.052 110.829 98.5623 111.203 98.5623 111.873C98.5623 112.35 98.8974 112.685 99.5805 112.852L100.65 113.123C101.733 113.394 102.223 113.896 102.223 114.799C102.223 115.92 101.269 116.655 99.8511 116.655C98.4463 116.655 97.5698 115.907 97.5698 114.747ZM104.615 116.5H103.725V107.104H104.615V113.484L107.708 110.262H108.829L106.432 112.749L108.842 116.5H107.811L105.826 113.381L104.615 114.631V116.5ZM114.91 116.5H114.034V111.009H112.783V110.262H114.034V108.29H114.91V110.262H116.16V111.009H114.91V116.5ZM118.208 116.487H117.318V107.104H118.208V111.344C118.607 110.597 119.368 110.094 120.412 110.094C122.049 110.094 122.783 111.112 122.783 112.685V116.5H121.894V112.878C121.894 111.422 121.211 110.906 120.244 110.906C118.904 110.906 118.208 111.899 118.208 113.097V116.487ZM127.817 110.184V110.984H127.327C126.18 110.984 125.445 111.757 125.445 112.943V116.5H124.556V110.262H125.393L125.458 111.228C125.703 110.558 126.36 110.12 127.237 110.12C127.43 110.12 127.597 110.133 127.817 110.184ZM131.376 116.655C129.546 116.655 128.321 115.34 128.321 113.381C128.321 111.435 129.533 110.094 131.312 110.094C133 110.094 134.147 111.293 134.147 113.059V113.497H129.185C129.249 115.018 130.049 115.894 131.389 115.894C132.407 115.894 133.065 115.456 133.297 114.631H134.147C133.812 115.946 132.845 116.655 131.376 116.655ZM131.312 110.855C130.139 110.855 129.365 111.628 129.211 112.852H133.258C133.258 111.654 132.485 110.855 131.312 110.855ZM138.186 116.655C136.355 116.655 135.131 115.34 135.131 113.381C135.131 111.435 136.343 110.094 138.121 110.094C139.81 110.094 140.957 111.293 140.957 113.059V113.497H135.995C136.059 115.018 136.858 115.894 138.199 115.894C139.217 115.894 139.874 115.456 140.106 114.631H140.957C140.622 115.946 139.655 116.655 138.186 116.655ZM138.121 110.855C136.948 110.855 136.175 111.628 136.02 112.852H140.067C140.067 111.654 139.294 110.855 138.121 110.855Z" fill="#64748B"/>
<g clip-path="url(#clip0_508_3428)">
<path d="M236.833 20.9444C237.723 20.9444 238.444 20.2231 238.444 19.3333C238.444 18.4435 237.723 17.7222 236.833 17.7222C235.943 17.7222 235.222 18.4435 235.222 19.3333C235.222 20.2231 235.943 20.9444 236.833 20.9444Z" fill="#64748B"/>
<path d="M241.667 20.9444C242.557 20.9444 243.278 20.2231 243.278 19.3333C243.278 18.4435 242.557 17.7222 241.667 17.7222C240.777 17.7222 240.056 18.4435 240.056 19.3333C240.056 20.2231 240.777 20.9444 241.667 20.9444Z" fill="#64748B"/>
<path d="M246.5 20.9444C247.39 20.9444 248.111 20.2231 248.111 19.3333C248.111 18.4435 247.39 17.7222 246.5 17.7222C245.61 17.7222 244.889 18.4435 244.889 19.3333C244.889 20.2231 245.61 20.9444 246.5 20.9444Z" fill="#64748B"/>
</g>
<defs>
<clipPath id="clip0_508_3428">
<rect width="12.8889" height="12.8889" fill="white" transform="translate(235.222 12.8889)"/>
</clipPath>
</defs>
</svg>
