<svg width="217" height="94" viewBox="0 0 217 94" fill="none" xmlns="http://www.w3.org/2000/svg">
<rect width="217" height="94" rx="15" fill="white"/>
<circle cx="50.4362" cy="47.383" r="27.2906" stroke="#E4E6EE" stroke-width="7.66956"/>
<mask id="path-3-inside-1_508_3486" fill="white">
<path d="M24.0461 39.6794C21.9349 39.0771 19.7063 40.2939 19.3685 42.4633C18.5712 47.5849 19.0693 52.8451 20.8474 57.7626C23.0778 63.9307 27.209 69.247 32.6561 72.9588C38.1031 76.6706 44.59 78.5897 51.1983 78.4444C57.8066 78.2992 64.2013 76.0969 69.477 72.1494C74.7528 68.2019 78.6422 62.7093 80.5945 56.4493C82.5469 50.1892 82.4632 43.4789 80.3555 37.2686C78.2477 31.0583 74.2226 25.6626 68.8501 21.8455C64.5542 18.7934 59.571 16.8743 54.3671 16.2362C52.1982 15.9702 50.4246 17.7715 50.4302 19.9566C50.4358 22.1415 52.2235 23.8746 54.379 24.2319C57.9043 24.8163 61.2669 26.1929 64.2002 28.2769C68.2113 31.1267 71.2165 35.1552 72.7901 39.7918C74.3638 44.4285 74.4262 49.4383 72.9686 54.1121C71.511 58.7859 68.6071 62.8867 64.6683 65.8339C60.7294 68.7811 55.9551 70.4253 51.0213 70.5337C46.0876 70.6422 41.2445 69.2094 37.1777 66.4382C33.1109 63.667 30.0265 59.6978 28.3613 55.0927C27.1532 51.7514 26.7365 48.1983 27.12 44.704C27.3612 42.5072 26.1713 40.2856 24.0461 39.6794Z"/>
</mask>
<path d="M24.0461 39.6794C21.9349 39.0771 19.7063 40.2939 19.3685 42.4633C18.5712 47.5849 19.0693 52.8451 20.8474 57.7626C23.0778 63.9307 27.209 69.247 32.6561 72.9588C38.1031 76.6706 44.59 78.5897 51.1983 78.4444C57.8066 78.2992 64.2013 76.0969 69.477 72.1494C74.7528 68.2019 78.6422 62.7093 80.5945 56.4493C82.5469 50.1892 82.4632 43.4789 80.3555 37.2686C78.2477 31.0583 74.2226 25.6626 68.8501 21.8455C64.5542 18.7934 59.571 16.8743 54.3671 16.2362C52.1982 15.9702 50.4246 17.7715 50.4302 19.9566C50.4358 22.1415 52.2235 23.8746 54.379 24.2319C57.9043 24.8163 61.2669 26.1929 64.2002 28.2769C68.2113 31.1267 71.2165 35.1552 72.7901 39.7918C74.3638 44.4285 74.4262 49.4383 72.9686 54.1121C71.511 58.7859 68.6071 62.8867 64.6683 65.8339C60.7294 68.7811 55.9551 70.4253 51.0213 70.5337C46.0876 70.6422 41.2445 69.2094 37.1777 66.4382C33.1109 63.667 30.0265 59.6978 28.3613 55.0927C27.1532 51.7514 26.7365 48.1983 27.12 44.704C27.3612 42.5072 26.1713 40.2856 24.0461 39.6794Z" stroke="#3056D3" stroke-width="13.1478" mask="url(#path-3-inside-1_508_3486)"/>
<path d="M40.2307 49.1343C40.2307 48.3104 40.6947 47.6476 41.4144 47.3729C40.8084 47.0983 40.4769 46.5775 40.4769 45.9051C40.4769 44.8067 41.4523 44.0491 42.8822 44.0491C44.3027 44.0491 45.2591 44.7972 45.2591 45.9241C45.2591 46.5964 44.9182 47.1173 44.3027 47.3729C45.0318 47.6286 45.5053 48.301 45.5053 49.1343C45.5053 50.3843 44.4731 51.2081 42.8633 51.2081C41.2629 51.2081 40.2307 50.3937 40.2307 49.1343ZM41.5754 46.0093C41.5754 46.587 42.0773 46.9563 42.8633 46.9563C43.6398 46.9563 44.1322 46.5964 44.1322 46.0188C44.1322 45.4411 43.6398 45.0813 42.8633 45.0813C42.0773 45.0813 41.5754 45.4411 41.5754 46.0093ZM41.4144 49.0491C41.4144 49.7214 41.9731 50.1381 42.8727 50.1381C43.7534 50.1381 44.3121 49.7214 44.3121 49.0491C44.3121 48.3767 43.7534 47.96 42.8633 47.96C41.9731 47.96 41.4144 48.3767 41.4144 49.0491ZM48.656 51.2081C47.2072 51.2081 46.2507 50.2801 46.2507 48.8786H47.4534C47.4534 49.6646 47.9174 50.1286 48.6844 50.1286C49.4988 50.1286 50.0196 49.5983 50.0196 48.7555C50.0196 47.9506 49.5367 47.4013 48.7033 47.4013C48.1731 47.4013 47.6901 47.6665 47.4439 48.0263L46.3738 47.7991L47.2261 44.1722H50.834V45.2896H48.0973L47.728 46.729C48.0594 46.5112 48.4761 46.3881 48.9496 46.3881C50.3321 46.3881 51.2507 47.3256 51.2507 48.6892C51.2507 50.1854 50.1995 51.2081 48.656 51.2081ZM55.4799 45.8578C55.4799 46.9279 54.7223 47.676 53.6712 47.676C52.6201 47.676 51.8625 46.9279 51.8625 45.8578C51.8625 44.7972 52.6201 44.0396 53.6712 44.0396C54.7223 44.0396 55.4799 44.7972 55.4799 45.8578ZM59.2772 44.1817L54.0216 51.0945H52.8663L58.1219 44.1817H59.2772ZM54.5613 45.8578C54.5613 45.3086 54.2015 44.9298 53.6712 44.9298C53.1409 44.9298 52.7905 45.3086 52.7905 45.8578C52.7905 46.407 53.1504 46.7858 53.6712 46.7858C54.2015 46.7858 54.5613 46.407 54.5613 45.8578ZM60.2904 49.3994C60.2904 50.46 59.5423 51.2176 58.4912 51.2176C57.4306 51.2176 56.6825 50.46 56.6825 49.3994C56.6825 48.3388 57.4306 47.5813 58.4912 47.5813C59.5423 47.5813 60.2904 48.3388 60.2904 49.3994ZM59.3719 49.3994C59.3719 48.8502 59.012 48.4714 58.4912 48.4714C57.9609 48.4714 57.6011 48.8502 57.6011 49.3994C57.6011 49.9487 57.9609 50.3274 58.4912 50.3274C59.012 50.3274 59.3719 49.9487 59.3719 49.3994Z" fill="#212B36"/>
<path d="M97.4918 43H96.114L98.849 35.4268H100.206L102.941 43H101.543L100.931 41.2492H98.1031L97.4918 43ZM99.3566 37.6853L98.4968 40.1303H100.548L99.6778 37.6853C99.6156 37.4885 99.5431 37.2606 99.5224 37.1052C99.4913 37.2502 99.4292 37.4781 99.3566 37.6853ZM104.77 43L102.74 37.8822H104.087L104.978 40.2339C105.195 40.8451 105.371 41.3735 105.433 41.6532C105.506 41.332 105.692 40.7933 105.91 40.2339L106.842 37.8822H108.148L106.014 43H104.77ZM110.144 43.1347C109.056 43.1347 108.393 42.5027 108.393 41.5392C108.393 40.5965 109.077 40.006 110.289 39.9127L111.823 39.7988V39.6848C111.823 38.9907 111.408 38.711 110.766 38.711C110.02 38.711 109.606 39.0218 109.606 39.5605H108.528C108.528 38.452 109.44 37.7268 110.828 37.7268C112.206 37.7268 113.055 38.4727 113.055 39.892V43H111.947L111.854 42.2437C111.636 42.7721 110.942 43.1347 110.144 43.1347ZM110.559 42.1816C111.336 42.1816 111.833 41.7154 111.833 40.928V40.6586L110.766 40.7415C109.978 40.814 109.678 41.073 109.678 41.4874C109.678 41.9536 109.989 42.1816 110.559 42.1816ZM114.929 36.8565C114.494 36.8565 114.152 36.5146 114.152 36.0899C114.152 35.6651 114.494 35.3336 114.929 35.3336C115.343 35.3336 115.685 35.6651 115.685 36.0899C115.685 36.5146 115.343 36.8565 114.929 36.8565ZM114.297 43V37.8822H115.561V43H114.297ZM118.141 43H116.888V35.2922H118.141V43ZM120.99 43.1347C119.902 43.1347 119.239 42.5027 119.239 41.5392C119.239 40.5965 119.923 40.006 121.135 39.9127L122.668 39.7988V39.6848C122.668 38.9907 122.254 38.711 121.611 38.711C120.866 38.711 120.451 39.0218 120.451 39.5605H119.374C119.374 38.452 120.285 37.7268 121.674 37.7268C123.051 37.7268 123.901 38.4727 123.901 39.892V43H122.792L122.699 42.2437C122.482 42.7721 121.788 43.1347 120.99 43.1347ZM121.404 42.1816C122.181 42.1816 122.679 41.7154 122.679 40.928V40.6586L121.611 40.7415C120.824 40.814 120.524 41.073 120.524 41.4874C120.524 41.9536 120.834 42.1816 121.404 42.1816ZM126.313 43H125.143V35.2922H126.407V38.6281C126.738 38.0583 127.422 37.7164 128.199 37.7164C129.66 37.7164 130.551 38.856 130.551 40.4722C130.551 42.0469 129.587 43.1347 128.116 43.1347C127.349 43.1347 126.697 42.7928 126.396 42.2023L126.313 43ZM126.417 40.4204C126.417 41.3424 126.987 41.9744 127.857 41.9744C128.748 41.9744 129.276 41.332 129.276 40.4204C129.276 39.5087 128.748 38.856 127.857 38.856C126.987 38.856 126.417 39.4983 126.417 40.4204ZM132.831 43H131.578V35.2922H132.831V43ZM136.447 43.1347C134.924 43.1347 133.857 42.0262 133.857 40.4411C133.857 38.8353 134.903 37.7268 136.405 37.7268C137.938 37.7268 138.912 38.7524 138.912 40.3478V40.7312L135.058 40.7415C135.152 41.6428 135.628 42.0987 136.467 42.0987C137.161 42.0987 137.617 41.8293 137.762 41.3424H138.933C138.715 42.4613 137.783 43.1347 136.447 43.1347ZM136.416 38.7628C135.67 38.7628 135.214 39.1668 135.089 39.9334H137.659C137.659 39.229 137.172 38.7628 136.416 38.7628ZM142.468 37.5403C142.468 36.2142 143.566 35.2922 145.161 35.2922C146.694 35.2922 147.668 36.1417 147.71 37.5092H146.384C146.353 36.8565 145.886 36.4732 145.14 36.4732C144.322 36.4732 143.794 36.8669 143.794 37.4988C143.794 38.0376 144.084 38.338 144.716 38.483L145.907 38.742C147.202 39.0218 147.834 39.6848 147.834 40.814C147.834 42.223 146.736 43.1347 145.068 43.1347C143.452 43.1347 142.395 42.2748 142.364 40.9176H143.69C143.7 41.56 144.218 41.9433 145.068 41.9433C145.949 41.9433 146.508 41.56 146.508 40.928C146.508 40.4204 146.249 40.1199 145.627 39.9852L144.426 39.7159C143.141 39.4362 142.468 38.7006 142.468 37.5403ZM150.588 43H149.324V38.9389H148.34V37.8822H149.324V36.2867H150.588V37.8822H151.582V38.9389H150.588V43ZM152.017 40.4307C152.017 38.8353 153.167 37.7371 154.752 37.7371C156.337 37.7371 157.487 38.8353 157.487 40.4307C157.487 42.0262 156.337 43.1243 154.752 43.1243C153.167 43.1243 152.017 42.0262 152.017 40.4307ZM153.281 40.4307C153.281 41.3631 153.882 41.9951 154.752 41.9951C155.622 41.9951 156.223 41.3631 156.223 40.4307C156.223 39.4983 155.622 38.8664 154.752 38.8664C153.882 38.8664 153.281 39.4983 153.281 40.4307ZM161.701 37.8614V39.0321H161.234C160.323 39.0321 159.753 39.519 159.753 40.5136V43H158.489V37.8925H159.68L159.753 38.6384C159.97 38.1308 160.457 37.7889 161.141 37.7889C161.317 37.7889 161.493 37.8096 161.701 37.8614ZM163.877 43.1347C162.789 43.1347 162.126 42.5027 162.126 41.5392C162.126 40.5965 162.81 40.006 164.022 39.9127L165.555 39.7988V39.6848C165.555 38.9907 165.141 38.711 164.498 38.711C163.752 38.711 163.338 39.0218 163.338 39.5605H162.26C162.26 38.452 163.172 37.7268 164.56 37.7268C165.938 37.7268 166.788 38.4727 166.788 39.892V43H165.679L165.586 42.2437C165.368 42.7721 164.674 43.1347 163.877 43.1347ZM164.291 42.1816C165.068 42.1816 165.565 41.7154 165.565 40.928V40.6586L164.498 40.7415C163.711 40.814 163.41 41.073 163.41 41.4874C163.41 41.9536 163.721 42.1816 164.291 42.1816ZM167.739 40.3271C167.739 38.8353 168.713 37.7164 170.174 37.7164C170.941 37.7164 171.541 38.0376 171.842 38.5866L171.914 37.8822H173.085V42.741C173.085 44.4504 172.059 45.5175 170.402 45.5175C168.931 45.5175 167.926 44.6783 167.77 43.3108H169.034C169.117 43.9738 169.625 44.3675 170.402 44.3675C171.272 44.3675 171.832 43.8184 171.832 42.9689V42.1194C171.51 42.596 170.878 42.8964 170.143 42.8964C168.692 42.8964 167.739 41.8086 167.739 40.3271ZM169.014 40.296C169.014 41.1559 169.563 41.7982 170.392 41.7982C171.262 41.7982 171.8 41.187 171.8 40.296C171.8 39.4258 171.272 38.8249 170.392 38.8249C169.552 38.8249 169.014 39.4569 169.014 40.296ZM176.683 43.1347C175.16 43.1347 174.093 42.0262 174.093 40.4411C174.093 38.8353 175.139 37.7268 176.641 37.7268C178.175 37.7268 179.148 38.7524 179.148 40.3478V40.7312L175.294 40.7415C175.388 41.6428 175.864 42.0987 176.703 42.0987C177.398 42.0987 177.853 41.8293 177.998 41.3424H179.169C178.952 42.4613 178.019 43.1347 176.683 43.1347ZM176.652 38.7628C175.906 38.7628 175.45 39.1668 175.326 39.9334H177.895C177.895 39.229 177.408 38.7628 176.652 38.7628Z" fill="#212B36"/>
<path d="M97.4167 52.7446H96.2651V52.078H98.1288V57.5552H97.4167V52.7446ZM100.942 57.6461C99.8208 57.6461 99.0935 56.934 99.0935 55.8431H99.8284C99.8284 56.5476 100.26 56.9794 100.957 56.9794C101.7 56.9794 102.177 56.487 102.177 55.7446C102.177 55.0401 101.73 54.5173 100.965 54.5173C100.503 54.5173 100.078 54.737 99.8284 55.0476L99.1996 54.8885L99.8663 52.078H102.609V52.7598H100.404L100.04 54.2143C100.328 53.9946 100.692 53.881 101.101 53.881C102.215 53.881 102.934 54.6613 102.934 55.7143C102.934 56.8506 102.124 57.6461 100.942 57.6461ZM103.577 54.8204C103.577 53.1234 104.456 51.9719 105.835 51.9719C107.206 51.9719 108.084 53.1234 108.084 54.8204C108.084 56.5249 107.244 57.6537 105.835 57.6537C104.418 57.6537 103.577 56.5249 103.577 54.8204ZM104.312 54.8204C104.312 56.1688 104.872 56.987 105.835 56.987C106.797 56.987 107.35 56.1688 107.35 54.8204C107.35 53.4567 106.797 52.6386 105.835 52.6386C104.872 52.6386 104.312 53.4567 104.312 54.8204Z" fill="#212B36"/>
<path d="M112.981 53.239C111.947 53.239 111.324 54.0013 111.324 55.1348C111.324 56.2948 112 56.9643 112.987 56.9643C113.803 56.9643 114.459 56.5467 114.459 55.5789V55.4397H112.855V54.863H115.069V57.5078H114.525L114.479 56.8582C114.22 57.2758 113.637 57.5808 112.934 57.5808C111.576 57.5808 110.641 56.5997 110.641 55.1215C110.641 53.6632 111.582 52.6291 112.994 52.6291C114.041 52.6291 114.857 53.2323 115.016 54.1537H114.326C114.148 53.5439 113.617 53.239 112.981 53.239ZM115.995 57.5012V52.7087H117.824C118.759 52.7087 119.329 53.1859 119.329 53.9747C119.329 54.5249 119.09 54.8961 118.613 55.095C119.143 55.2673 119.415 55.6518 119.415 56.2219C119.415 57.0173 118.838 57.5012 117.89 57.5012H115.995ZM117.784 53.2854H116.644V54.8232H117.824C118.361 54.8232 118.666 54.5316 118.666 54.0344C118.666 53.5571 118.348 53.2854 117.784 53.2854ZM117.877 55.3867H116.644V56.9245H117.877C118.434 56.9245 118.746 56.6395 118.746 56.1423C118.746 55.6651 118.427 55.3867 117.877 55.3867Z" fill="#637381"/>
<path d="M123.372 57H122.659L124.822 51.4626H125.543L123.372 57Z" fill="#637381"/>
<path d="M131.356 57.6461C130.234 57.6461 129.507 56.934 129.507 55.8431H130.242C130.242 56.5476 130.674 56.9794 131.371 56.9794C132.113 56.9794 132.59 56.487 132.59 55.7446C132.59 55.0401 132.144 54.5173 131.378 54.5173C130.916 54.5173 130.492 54.737 130.242 55.0476L129.613 54.8885L130.28 52.078H133.022V52.7598H130.818L130.454 54.2143C130.742 53.9946 131.106 53.881 131.515 53.881C132.628 53.881 133.348 54.6613 133.348 55.7143C133.348 56.8506 132.537 57.6461 131.356 57.6461ZM134.903 52.7446H133.751V52.078H135.615V57.5552H134.903V52.7446ZM140.291 57.5476L136.594 57.5552V56.987L138.359 55.4643C139.246 54.6991 139.496 54.3279 139.496 53.7446C139.496 53.0552 139.102 52.6461 138.443 52.6461C137.768 52.6461 137.329 53.1386 137.314 53.9189H136.571C136.594 52.7446 137.337 51.9795 138.45 51.9795C139.549 51.9795 140.253 52.6461 140.253 53.6992C140.253 54.4795 139.867 55.0325 138.897 55.8734L137.761 56.8582H140.291V57.5476Z" fill="#212B36"/>
<path d="M146.041 53.239C145.007 53.239 144.384 54.0013 144.384 55.1348C144.384 56.2948 145.06 56.9643 146.048 56.9643C146.863 56.9643 147.519 56.5467 147.519 55.5789V55.4397H145.915V54.863H148.129V57.5078H147.585L147.539 56.8582C147.28 57.2758 146.697 57.5808 145.995 57.5808C144.636 57.5808 143.701 56.5997 143.701 55.1215C143.701 53.6632 144.642 52.6291 146.054 52.6291C147.102 52.6291 147.917 53.2323 148.076 54.1537H147.387C147.208 53.5439 146.677 53.239 146.041 53.239ZM149.055 57.5012V52.7087H150.884C151.819 52.7087 152.389 53.1859 152.389 53.9747C152.389 54.5249 152.15 54.8961 151.673 55.095C152.203 55.2673 152.475 55.6518 152.475 56.2219C152.475 57.0173 151.898 57.5012 150.95 57.5012H149.055ZM150.844 53.2854H149.704V54.8232H150.884C151.421 54.8232 151.726 54.5316 151.726 54.0344C151.726 53.5571 151.408 53.2854 150.844 53.2854ZM150.937 55.3867H149.704V56.9245H150.937C151.494 56.9245 151.806 56.6395 151.806 56.1423C151.806 55.6651 151.487 55.3867 150.937 55.3867Z" fill="#637381"/>
<path d="M201 31.8348C201 29.7169 202.717 28 204.835 28H217V66H204.835C202.717 66 201 64.2831 201 62.1652V31.8348Z" fill="#13C296"/>
<path d="M211.977 54.92C211.977 56.4806 210.856 57.5185 209.159 57.5185C207.47 57.5185 206.326 56.4503 206.326 54.8822C206.326 53.6473 207.061 52.7004 208.182 52.4958L208.182 53.2913C207.47 53.4958 207.038 54.1094 207.038 54.9049C207.038 56.0109 207.871 56.7382 209.152 56.7382C210.432 56.7382 211.265 56.0109 211.265 54.9049C211.265 54.1019 210.833 53.4655 210.159 53.261L210.159 52.4731C211.25 52.7079 211.977 53.6852 211.977 54.92ZM211.894 50.9937L211.894 51.7058L206.318 51.7058L206.318 50.9937L211.894 50.9937ZM211.985 48.347C211.985 49.4379 211.197 50.1879 210.046 50.1879C208.887 50.1879 208.083 49.453 208.083 48.3773C208.083 47.3243 208.811 46.6349 209.909 46.6349L210.174 46.6349L210.182 49.4985C210.962 49.4454 211.394 49.0364 211.394 48.3318C211.394 47.7788 211.167 47.4152 210.743 47.2939L210.743 46.6273C211.538 46.8091 211.985 47.4303 211.985 48.347ZM208.682 48.3773C208.682 48.9985 209.053 49.3924 209.705 49.4833L209.705 47.347C209.091 47.347 208.682 47.7485 208.682 48.3773ZM211.985 44.7932C211.985 45.5886 211.538 46.0583 210.864 46.0583C210.182 46.0583 209.758 45.5507 209.69 44.6795L209.599 43.5129L209.493 43.5129C208.871 43.5129 208.652 43.8841 208.652 44.3841C208.652 44.9825 208.917 45.3234 209.364 45.3234L209.364 45.9447C208.591 45.9447 208.083 45.3083 208.083 44.3538C208.083 43.4371 208.568 42.8159 209.568 42.8159L211.894 42.8159L211.894 43.422L211.296 43.4977C211.72 43.6871 211.985 44.1947 211.985 44.7932ZM211.432 44.5886C211.432 43.9144 210.993 43.5053 210.296 43.5053L210.099 43.5053L210.174 44.4522C210.235 45.081 210.477 45.3386 210.841 45.3386C211.235 45.3386 211.432 45.0507 211.432 44.5886ZM211.894 41.1176L211.894 41.8297L208.19 41.8297L208.19 41.1858L208.758 41.11C208.333 40.8752 208.083 40.4055 208.083 39.8828C208.083 38.9055 208.682 38.4585 209.629 38.4585L211.894 38.4585L211.894 39.1706L209.788 39.1706C209.038 39.1706 208.735 39.5191 208.735 40.0646C208.735 40.7312 209.212 41.1176 209.932 41.1176L211.894 41.1176Z" fill="white"/>
</svg>
