<svg width="198" height="106" viewBox="0 0 198 106" fill="none" xmlns="http://www.w3.org/2000/svg">
<rect y="0.0930176" width="198" height="105.907" rx="15" fill="white"/>
<rect x="19.7341" y="15.2227" width="30.2591" height="30.2591" rx="15.1296" fill="#EFF2F7"/>
<g clip-path="url(#clip0_508_3042)">
<path d="M41.5115 34.9877L40.3809 25.2419C40.2678 24.2469 39.4312 23.5007 38.4136 23.5007H31.2908C30.2959 23.5007 29.4592 24.2469 29.3236 25.2419L28.1929 34.9877C28.1251 35.553 28.306 36.0957 28.6904 36.5253C29.0748 36.9549 29.5949 37.1811 30.1602 37.1811H39.5442C40.1095 37.1811 40.6522 36.9323 41.014 36.5253C41.3758 36.1183 41.5793 35.553 41.5115 34.9877ZM40.2678 35.847C40.0869 36.0505 39.8382 36.1635 39.5668 36.1635H30.1602C29.8889 36.1635 29.6401 36.0505 29.4592 35.847C29.2783 35.6434 29.1879 35.3721 29.2331 35.1008L30.3411 25.3775C30.3863 24.9027 30.7933 24.5409 31.2908 24.5409H38.4362C38.9111 24.5409 39.3181 24.9027 39.386 25.3775L40.5166 35.1234C40.5392 35.3947 40.4487 35.6434 40.2678 35.847Z" fill="#3C50E0"/>
<path d="M37.0568 26.5985C36.7855 26.6664 36.6046 26.9377 36.6724 27.2091C36.695 27.3447 36.7176 27.4804 36.7176 27.5935C36.7176 28.611 35.881 29.4477 34.8634 29.4477C33.8459 29.4477 33.0092 28.611 33.0092 27.5935C33.0092 27.4578 33.0319 27.3447 33.0545 27.2091C33.1223 26.9377 32.9414 26.6664 32.6701 26.5985C32.3987 26.5307 32.1274 26.7116 32.0595 26.9829C32.0143 27.1864 31.9917 27.39 31.9917 27.5935C31.9917 29.1763 33.2806 30.4652 34.8634 30.4652C36.4463 30.4652 37.7352 29.1763 37.7352 27.5935C37.7352 27.39 37.7126 27.1864 37.6673 26.9829C37.5995 26.7116 37.3282 26.5533 37.0568 26.5985Z" fill="#3C50E0"/>
</g>
<path d="M147.682 86.4586L143.188 86.4678V85.7771L145.333 83.926C146.411 82.9959 146.715 82.5446 146.715 81.8355C146.715 80.9974 146.236 80.5001 145.435 80.5001C144.615 80.5001 144.081 81.0988 144.063 82.0473H143.16C143.188 80.6199 144.09 79.6897 145.444 79.6897C146.779 79.6897 147.636 80.5001 147.636 81.7802C147.636 82.7288 147.166 83.4011 145.987 84.4233L144.606 85.6205H147.682V86.4586ZM149.413 86.5783C149.054 86.5783 148.75 86.2836 148.75 85.9336C148.75 85.5745 149.054 85.2798 149.413 85.2798C149.763 85.2798 150.067 85.5745 150.067 85.9336C150.067 86.2836 149.763 86.5783 149.413 86.5783ZM153.179 86.5783C151.816 86.5783 150.931 85.7126 150.931 84.3865H151.825C151.825 85.2429 152.35 85.7679 153.197 85.7679C154.099 85.7679 154.68 85.1693 154.68 84.2668C154.68 83.4103 154.136 82.7748 153.206 82.7748C152.644 82.7748 152.129 83.0419 151.825 83.4195L151.06 83.2261L151.871 79.8094H155.205V80.6383H152.525L152.083 82.4065C152.433 82.1394 152.875 82.0013 153.372 82.0013C154.726 82.0013 155.601 82.9498 155.601 84.2299C155.601 85.6113 154.615 86.5783 153.179 86.5783ZM160.205 84.3588L158.649 86.4678H157.599L159.266 84.2575C159.035 84.3496 158.796 84.3957 158.566 84.3957C157.184 84.3957 156.254 83.4011 156.254 82.0749C156.254 80.6935 157.304 79.6897 158.676 79.6897C160.058 79.6897 161.126 80.7304 161.126 82.0841C161.126 82.8669 160.886 83.4287 160.205 84.3588ZM160.205 82.0749C160.205 81.1632 159.579 80.5001 158.676 80.5001C157.792 80.5001 157.166 81.1632 157.166 82.0749C157.166 82.9867 157.792 83.6313 158.676 83.6313C159.579 83.6313 160.205 82.9867 160.205 82.0749ZM165.255 81.3842C165.255 82.3696 164.555 83.0788 163.569 83.0788C162.593 83.0788 161.893 82.3696 161.893 81.3842C161.893 80.3896 162.593 79.6805 163.569 79.6805C164.555 79.6805 165.255 80.3896 165.255 81.3842ZM168.763 79.8187L163.707 86.4678H162.823L167.879 79.8187H168.763ZM164.545 81.3842C164.545 80.7856 164.149 80.3712 163.569 80.3712C162.998 80.3712 162.602 80.7856 162.602 81.3842C162.602 81.9736 162.998 82.3881 163.569 82.3881C164.14 82.3881 164.545 81.9736 164.545 81.3842ZM169.712 84.893C169.712 85.8784 169.003 86.5875 168.027 86.5875C167.05 86.5875 166.341 85.8784 166.341 84.893C166.341 83.8984 167.05 83.1985 168.027 83.1985C169.003 83.1985 169.712 83.8984 169.712 84.893ZM168.994 84.893C168.994 84.2944 168.607 83.88 168.027 83.88C167.456 83.88 167.06 84.2944 167.06 84.893C167.06 85.4824 167.456 85.8968 168.027 85.8968C168.598 85.8968 168.994 85.4824 168.994 84.893Z" fill="#10B981"/>
<path d="M176.241 81.2526L173.973 83.4579L173.375 82.8765L176.664 79.6788L179.953 82.8765L179.355 83.4579L177.087 81.2526L177.087 86.2568L176.241 86.2568L176.241 81.2526Z" fill="#10B981"/>
<path d="M28.4645 73.0687L20.4604 73.0845V71.5689L24.2335 68.3798C25.7965 67.0537 26.3175 66.2959 26.3175 65.1908C26.3175 63.8804 25.607 63.1384 24.3914 63.1384C23.1284 63.1384 22.339 64.0225 22.3233 65.5065H20.3183C20.3341 62.9806 21.9444 61.3387 24.3914 61.3387C26.8542 61.3387 28.3856 62.7437 28.3856 65.0803C28.3856 66.6906 27.5015 67.9062 25.7491 69.406L23.6652 71.19H28.4645V73.0687ZM31.5358 73.2739C30.8412 73.2739 30.257 72.7056 30.257 72.0267C30.257 71.3321 30.8412 70.7637 31.5358 70.7637C32.2305 70.7637 32.8146 71.3321 32.8146 72.0267C32.8146 72.7056 32.2305 73.2739 31.5358 73.2739ZM43.3168 70.89H41.9117V73.0845H40.0014V70.89H34.1443V69.1218L39.3699 61.5439H41.9117V69.1218H43.3168V70.89ZM36.2914 69.1218H40.0014V63.7226L36.2914 69.1218ZM48.4733 73.2739C46.0579 73.2739 44.4633 71.7268 44.4633 69.3902H46.4683C46.4683 70.7006 47.2419 71.4742 48.5207 71.4742C49.8784 71.4742 50.7467 70.5901 50.7467 69.185C50.7467 67.8431 49.9415 66.9274 48.5523 66.9274C47.6682 66.9274 46.863 67.3694 46.4525 67.9694L44.6686 67.5905L46.0894 61.5439H52.1044V63.4068H47.5419L46.9262 65.8065C47.4787 65.4434 48.1734 65.2381 48.9627 65.2381C51.2677 65.2381 52.7991 66.8011 52.7991 69.0745C52.7991 71.5689 51.0467 73.2739 48.4733 73.2739ZM53.9612 67.3379C53.9612 63.7541 55.8872 61.3229 58.8395 61.3229C61.7917 61.3229 63.7335 63.7541 63.7335 67.3379C63.7335 70.9058 61.9022 73.2897 58.8395 73.2897C55.7767 73.2897 53.9612 70.9058 53.9612 67.3379ZM55.9504 67.3379C55.9504 70.0059 57.0239 71.5057 58.8395 71.5057C60.6708 71.5057 61.7443 70.0059 61.7443 67.3379C61.7443 64.6067 60.6708 63.1069 58.8395 63.1069C57.0239 63.1069 55.9504 64.6067 55.9504 67.3379Z" fill="#212B36"/>
<path d="M19.8631 82.4781V81.6493H24.7716V82.4781H22.7732V88.3076H21.8707V82.4781H19.8631ZM24.5084 86.0513C24.5084 84.6607 25.503 83.6845 26.8568 83.6845C28.2014 83.6845 29.196 84.6607 29.196 86.0513C29.196 87.4419 28.2014 88.4181 26.8568 88.4181C25.503 88.4181 24.5084 87.4419 24.5084 86.0513ZM25.3833 86.0513C25.3833 86.9907 25.9819 87.6445 26.8568 87.6445C27.7225 87.6445 28.3303 86.9907 28.3303 86.0513C28.3303 85.112 27.7225 84.4581 26.8568 84.4581C25.9819 84.4581 25.3833 85.112 25.3833 86.0513ZM31.3802 88.3076H30.5145V84.5318H29.6304V83.8043H30.5145V82.3952H31.3802V83.8043H32.2642V84.5318H31.3802V88.3076ZM34.3041 88.4181C33.3371 88.4181 32.7662 87.8748 32.7662 87.0552C32.7662 86.2263 33.3832 85.7106 34.4422 85.6277L35.8605 85.5172V85.3883C35.8605 84.6331 35.4092 84.366 34.8014 84.366C34.0739 84.366 33.6595 84.6884 33.6595 85.2317H32.9043C32.9043 84.2924 33.6779 83.6753 34.8382 83.6753C35.9526 83.6753 36.7077 84.2647 36.7077 85.4804V88.3076H35.971L35.8789 87.5801C35.6487 88.0958 35.0316 88.4181 34.3041 88.4181ZM34.5528 87.7458C35.3724 87.7458 35.8697 87.2117 35.8697 86.3645V86.125L34.7185 86.2171C33.9542 86.2908 33.641 86.5855 33.641 87.0275C33.641 87.5064 33.991 87.7458 34.5528 87.7458ZM38.7907 88.3076H37.925V81.5296H38.7907V88.3076ZM45.3184 85.9316H43.6331V88.3076H42.7305V81.6493H45.3184C46.6261 81.6493 47.4641 82.5058 47.4641 83.7858C47.4641 85.0291 46.6169 85.9316 45.3184 85.9316ZM45.1618 82.4597H43.6331V85.1212H45.125C46.0183 85.1212 46.5156 84.5963 46.5156 83.7766C46.5156 82.9386 46.0091 82.4597 45.1618 82.4597ZM50.9176 83.7674V84.5594H50.5308C49.7112 84.5594 49.2047 85.0567 49.2047 85.9224V88.3076H48.339V83.8135H49.1494L49.2047 84.495C49.3889 84.0253 49.8401 83.7122 50.4572 83.7122C50.6137 83.7122 50.7426 83.7306 50.9176 83.7674ZM51.273 86.0513C51.273 84.6607 52.2676 83.6845 53.6213 83.6845C54.9659 83.6845 55.9605 84.6607 55.9605 86.0513C55.9605 87.4419 54.9659 88.4181 53.6213 88.4181C52.2676 88.4181 51.273 87.4419 51.273 86.0513ZM52.1479 86.0513C52.1479 86.9907 52.7465 87.6445 53.6213 87.6445C54.487 87.6445 55.0948 86.9907 55.0948 86.0513C55.0948 85.112 54.487 84.4581 53.6213 84.4581C52.7465 84.4581 52.1479 85.112 52.1479 86.0513ZM58.7238 88.4181C57.4161 88.4181 56.6241 87.4419 56.6241 86.0698C56.6241 84.6884 57.4253 83.6753 58.7606 83.6753C59.4513 83.6753 60.0315 83.9792 60.3354 84.5318V81.5296H61.1919V88.3076H60.4183L60.3446 87.488C60.0499 88.105 59.4421 88.4181 58.7238 88.4181ZM58.8988 87.6353C59.7829 87.6353 60.3262 86.9815 60.3262 86.0421C60.3262 85.1212 59.7829 84.4581 58.8988 84.4581C58.0147 84.4581 57.499 85.1212 57.499 86.0421C57.499 86.9723 58.0147 87.6353 58.8988 87.6353ZM65.5535 83.8043H66.41V88.3076H65.6364L65.5443 87.6261C65.2864 88.0958 64.6878 88.4181 64.0248 88.4181C62.9749 88.4181 62.3855 87.709 62.3855 86.6039V83.8043H63.2512V86.3184C63.2512 87.2854 63.6656 87.6538 64.3287 87.6538C65.1207 87.6538 65.5535 87.1472 65.5535 86.1803V83.8043ZM67.2813 86.0605C67.2813 84.6515 68.1746 83.6753 69.4916 83.6753C70.6243 83.6753 71.4163 84.32 71.5729 85.3238H70.7072C70.5598 84.7528 70.0994 84.4489 69.5192 84.4489C68.6996 84.4489 68.1378 85.0752 68.1378 86.0513C68.1378 87.0183 68.6627 87.6445 69.4823 87.6445C70.0994 87.6445 70.5598 87.3222 70.7164 86.7881H71.5821C71.4071 87.7643 70.569 88.4181 69.4823 88.4181C68.1562 88.4181 67.2813 87.4788 67.2813 86.0605ZM73.7663 88.3076H72.9007V84.5318H72.0166V83.8043H72.9007V82.3952H73.7663V83.8043H74.6504V84.5318H73.7663V88.3076Z" fill="#637381"/>
<defs>
<clipPath id="clip0_508_3042">
<rect width="14.4718" height="14.4718" fill="white" transform="translate(27.6277 23.1162)"/>
</clipPath>
</defs>
</svg>
