<svg width="224" height="240" viewBox="0 0 224 240" fill="none" xmlns="http://www.w3.org/2000/svg">
<rect width="224" height="239.194" rx="15" fill="white"/>
<rect x="196.217" y="182.543" width="15.3411" height="9.60465" rx="2.17054" fill="#3C50E0"/>
<path d="M199.999 185.537H199.207V185.079H200.489V188.845H199.999V185.537ZM201.178 186.964C201.178 185.798 201.782 185.006 202.73 185.006C203.673 185.006 204.277 185.798 204.277 186.964C204.277 188.137 203.699 188.913 202.73 188.913C201.756 188.913 201.178 188.137 201.178 186.964ZM201.683 186.964C201.683 187.892 202.068 188.454 202.73 188.454C203.392 188.454 203.772 187.892 203.772 186.964C203.772 186.027 203.392 185.464 202.73 185.464C202.068 185.464 201.683 186.027 201.683 186.964ZM206.654 185.969C206.654 186.527 206.259 186.928 205.701 186.928C205.149 186.928 204.753 186.527 204.753 185.969C204.753 185.407 205.149 185.006 205.701 185.006C206.259 185.006 206.654 185.407 206.654 185.969ZM208.639 185.084L205.779 188.845H205.279L208.139 185.084H208.639ZM206.253 185.969C206.253 185.631 206.029 185.396 205.701 185.396C205.378 185.396 205.154 185.631 205.154 185.969C205.154 186.303 205.378 186.537 205.701 186.537C206.024 186.537 206.253 186.303 206.253 185.969ZM209.176 187.954C209.176 188.512 208.775 188.913 208.222 188.913C207.67 188.913 207.269 188.512 207.269 187.954C207.269 187.392 207.67 186.996 208.222 186.996C208.775 186.996 209.176 187.392 209.176 187.954ZM208.769 187.954C208.769 187.616 208.551 187.381 208.222 187.381C207.899 187.381 207.675 187.616 207.675 187.954C207.675 188.288 207.899 188.522 208.222 188.522C208.545 188.522 208.769 188.288 208.769 187.954Z" fill="white"/>
<circle cx="16.4961" cy="187.391" r="2.60465" fill="white" stroke="#3C50E0" stroke-width="1.73643"/>
<path d="M24.6919 189.891H24.0251V184.87H24.6919L26.4214 189.093L28.1509 184.87H28.8315V189.891H28.1648V187.905C28.1648 186.967 28.1717 186.627 28.2064 186.273L26.7409 189.891H26.1019L24.6433 186.287C24.678 186.53 24.6919 187.044 24.6919 187.745V189.891ZM29.6675 188.19C29.6675 187.141 30.4176 186.405 31.4386 186.405C32.4527 186.405 33.2029 187.141 33.2029 188.19C33.2029 189.238 32.4527 189.975 31.4386 189.975C30.4176 189.975 29.6675 189.238 29.6675 188.19ZM30.3273 188.19C30.3273 188.898 30.7788 189.391 31.4386 189.391C32.0915 189.391 32.55 188.898 32.55 188.19C32.55 187.481 32.0915 186.988 31.4386 186.988C30.7788 186.988 30.3273 187.481 30.3273 188.19ZM34.516 189.891H33.9256V184.779H34.5785V187.078C34.8008 186.634 35.2592 186.398 35.8148 186.398C36.7872 186.398 37.3707 187.162 37.3707 188.21C37.3707 189.238 36.7594 189.975 35.7732 189.975C35.2383 189.975 34.7869 189.739 34.5646 189.273L34.516 189.891ZM34.5854 188.183C34.5854 188.891 34.9883 189.384 35.6551 189.384C36.3219 189.384 36.7178 188.884 36.7178 188.183C36.7178 187.488 36.3219 186.988 35.6551 186.988C34.9883 186.988 34.5854 187.488 34.5854 188.183ZM38.4098 185.689C38.1737 185.689 37.9792 185.495 37.9792 185.259C37.9792 185.015 38.1737 184.828 38.4098 184.828C38.646 184.828 38.8405 185.015 38.8405 185.259C38.8405 185.495 38.646 185.689 38.4098 185.689ZM38.0903 189.891V186.495H38.7432V189.891H38.0903ZM40.3579 189.891H39.705V184.779H40.3579V189.891ZM42.7845 189.975C41.7844 189.975 41.0967 189.252 41.0967 188.197C41.0967 187.134 41.7705 186.398 42.7568 186.398C43.7222 186.398 44.3543 187.064 44.3543 188.072V188.315L41.7288 188.322C41.7774 189.037 42.1525 189.433 42.7984 189.433C43.3055 189.433 43.6389 189.225 43.75 188.836H44.3612C44.1945 189.565 43.625 189.975 42.7845 189.975ZM42.7568 186.946C42.1872 186.946 41.826 187.287 41.7427 187.884H43.7014C43.7014 187.321 43.3333 186.946 42.7568 186.946Z" fill="black"/>
<rect x="194.915" y="199.473" width="16.3411" height="9.60465" rx="2.17054" fill="#80CAEE"/>
<path d="M200.405 205.77L197.863 205.775V205.384L199.077 204.337C199.687 203.811 199.859 203.556 199.859 203.155C199.859 202.681 199.588 202.4 199.134 202.4C198.671 202.4 198.369 202.738 198.358 203.275H197.848C197.863 202.467 198.374 201.941 199.14 201.941C199.895 201.941 200.379 202.4 200.379 203.124C200.379 203.66 200.114 204.04 199.447 204.619L198.666 205.296H200.405V205.77ZM200.875 203.895C200.875 202.728 201.48 201.936 202.428 201.936C203.371 201.936 203.975 202.728 203.975 203.895C203.975 205.067 203.397 205.843 202.428 205.843C201.454 205.843 200.875 205.067 200.875 203.895ZM201.381 203.895C201.381 204.822 201.766 205.384 202.428 205.384C203.089 205.384 203.47 204.822 203.47 203.895C203.47 202.957 203.089 202.394 202.428 202.394C201.766 202.394 201.381 202.957 201.381 203.895ZM206.352 202.9C206.352 203.457 205.956 203.858 205.399 203.858C204.847 203.858 204.451 203.457 204.451 202.9C204.451 202.337 204.847 201.936 205.399 201.936C205.956 201.936 206.352 202.337 206.352 202.9ZM208.337 202.014L205.477 205.775H204.977L207.837 202.014H208.337ZM205.951 202.9C205.951 202.561 205.727 202.327 205.399 202.327C205.076 202.327 204.852 202.561 204.852 202.9C204.852 203.233 205.076 203.467 205.399 203.467C205.722 203.467 205.951 203.233 205.951 202.9ZM208.873 204.884C208.873 205.442 208.472 205.843 207.92 205.843C207.368 205.843 206.967 205.442 206.967 204.884C206.967 204.322 207.368 203.926 207.92 203.926C208.472 203.926 208.873 204.322 208.873 204.884ZM208.467 204.884C208.467 204.546 208.248 204.311 207.92 204.311C207.597 204.311 207.373 204.546 207.373 204.884C207.373 205.218 207.597 205.452 207.92 205.452C208.243 205.452 208.467 205.218 208.467 204.884Z" fill="white"/>
<circle cx="16.4961" cy="204.322" r="2.60465" fill="white" stroke="#80CAEE" stroke-width="1.73643"/>
<path d="M23.5389 202.425V201.8H27.241V202.425H25.7337V206.822H25.0531V202.425H23.5389ZM28.258 206.905C27.5287 206.905 27.098 206.495 27.098 205.877C27.098 205.252 27.5634 204.863 28.3622 204.801L29.4318 204.717V204.62C29.4318 204.05 29.0915 203.849 28.633 203.849C28.0843 203.849 27.7718 204.092 27.7718 204.502H27.2022C27.2022 203.793 27.7857 203.328 28.6608 203.328C29.5013 203.328 30.0708 203.773 30.0708 204.689V206.822H29.5152L29.4457 206.273C29.2721 206.662 28.8067 206.905 28.258 206.905ZM28.4455 206.398C29.0637 206.398 29.4388 205.995 29.4388 205.356V205.176L28.5705 205.245C27.994 205.301 27.7579 205.523 27.7579 205.856C27.7579 206.217 28.0218 206.398 28.4455 206.398ZM31.5654 206.822H30.975V201.71H31.6279V204.009C31.8502 203.564 32.3086 203.328 32.8642 203.328C33.8367 203.328 34.4201 204.092 34.4201 205.141C34.4201 206.169 33.8089 206.905 32.8226 206.905C32.2878 206.905 31.8363 206.669 31.614 206.204L31.5654 206.822ZM31.6349 205.113C31.6349 205.822 32.0377 206.315 32.7045 206.315C33.3713 206.315 33.7672 205.815 33.7672 205.113C33.7672 204.419 33.3713 203.918 32.7045 203.918C32.0377 203.918 31.6349 204.419 31.6349 205.113ZM35.8065 206.822H35.1536V201.71H35.8065V206.822ZM38.2332 206.905C37.233 206.905 36.5454 206.183 36.5454 205.127C36.5454 204.064 37.2191 203.328 38.2054 203.328C39.1709 203.328 39.8029 203.995 39.8029 205.002V205.245L37.1774 205.252C37.2261 205.967 37.6011 206.363 38.2471 206.363C38.7541 206.363 39.0875 206.155 39.1987 205.766H39.8099C39.6432 206.495 39.0736 206.905 38.2332 206.905ZM38.2054 203.877C37.6359 203.877 37.2747 204.217 37.1913 204.814H39.15C39.15 204.252 38.7819 203.877 38.2054 203.877ZM41.4568 206.822H40.8039V203.974H40.1371V203.425H40.8039V202.363H41.4568V203.425H42.1236V203.974H41.4568V206.822Z" fill="black"/>
<rect x="195.349" y="216.403" width="16.3411" height="9.60465" rx="2.17054" fill="#0FADCF"/>
<path d="M198.471 218.939H201.101V219.408L199.674 222.705H199.143L200.586 219.408H198.471V218.939ZM201.309 220.825C201.309 219.658 201.913 218.866 202.862 218.866C203.804 218.866 204.409 219.658 204.409 220.825C204.409 221.997 203.83 222.773 202.862 222.773C201.887 222.773 201.309 221.997 201.309 220.825ZM201.814 220.825C201.814 221.752 202.2 222.315 202.862 222.315C203.523 222.315 203.903 221.752 203.903 220.825C203.903 219.887 203.523 219.324 202.862 219.324C202.2 219.324 201.814 219.887 201.814 220.825ZM206.786 219.83C206.786 220.387 206.39 220.788 205.833 220.788C205.281 220.788 204.885 220.387 204.885 219.83C204.885 219.267 205.281 218.866 205.833 218.866C206.39 218.866 206.786 219.267 206.786 219.83ZM208.771 218.944L205.911 222.705H205.411L208.271 218.944H208.771ZM206.385 219.83C206.385 219.491 206.161 219.257 205.833 219.257C205.51 219.257 205.286 219.491 205.286 219.83C205.286 220.163 205.51 220.398 205.833 220.398C206.156 220.398 206.385 220.163 206.385 219.83ZM209.307 221.815C209.307 222.372 208.906 222.773 208.354 222.773C207.802 222.773 207.401 222.372 207.401 221.815C207.401 221.252 207.802 220.856 208.354 220.856C208.906 220.856 209.307 221.252 209.307 221.815ZM208.901 221.815C208.901 221.476 208.682 221.242 208.354 221.242C208.031 221.242 207.807 221.476 207.807 221.815C207.807 222.148 208.031 222.382 208.354 222.382C208.677 222.382 208.901 222.148 208.901 221.815Z" fill="white"/>
<circle cx="16.4961" cy="221.252" r="2.60465" fill="white" stroke="#0FADCF" stroke-width="1.73643"/>
<path d="M25.6851 223.752H24.0251V218.73H25.6573C27.1576 218.73 28.1717 219.744 28.1717 221.245C28.1717 222.738 27.1715 223.752 25.6851 223.752ZM25.6087 219.355H24.7058V223.12H25.6365C26.7548 223.12 27.4632 222.398 27.4632 221.245C27.4632 220.078 26.7548 219.355 25.6087 219.355ZM30.3921 223.835C29.3919 223.835 28.7043 223.113 28.7043 222.057C28.7043 220.994 29.378 220.258 30.3643 220.258C31.3298 220.258 31.9618 220.925 31.9618 221.932V222.175L29.3364 222.182C29.385 222.898 29.76 223.294 30.406 223.294C30.913 223.294 31.2464 223.085 31.3576 222.696H31.9688C31.8021 223.426 31.2325 223.835 30.3921 223.835ZM30.3643 220.807C29.7948 220.807 29.4336 221.147 29.3502 221.745H31.3089C31.3089 221.182 30.9408 220.807 30.3643 220.807ZM32.4133 222.766H33.0384C33.0384 223.113 33.3023 223.321 33.733 223.321C34.1914 223.321 34.4553 223.134 34.4553 222.821C34.4553 222.592 34.3442 222.453 33.9899 222.363L33.3926 222.224C32.7883 222.078 32.5036 221.779 32.5036 221.279C32.5036 220.654 33.0314 220.258 33.7816 220.258C34.5248 220.258 35.011 220.675 35.0249 221.321H34.3997C34.3859 220.981 34.1566 220.765 33.7607 220.765C33.3509 220.765 33.1217 220.946 33.1217 221.258C33.1217 221.488 33.2884 221.64 33.6218 221.724L34.2192 221.87C34.7957 222.009 35.0804 222.273 35.0804 222.78C35.0804 223.426 34.5248 223.835 33.7191 223.835C32.9203 223.835 32.4133 223.412 32.4133 222.766ZM36.4713 223.752H35.8184V218.64H36.4713V221.953L37.9785 220.355H38.7981L37.4992 221.71L38.7911 223.752H38.041L37.0478 222.182L36.4713 222.786V223.752ZM40.2901 223.752H39.6372V220.904H38.9704V220.355H39.6372V219.293H40.2901V220.355H40.9569V220.904H40.2901V223.752ZM41.2867 222.05C41.2867 221.001 42.0368 220.265 43.0578 220.265C44.0719 220.265 44.822 221.001 44.822 222.05C44.822 223.099 44.0719 223.835 43.0578 223.835C42.0368 223.835 41.2867 223.099 41.2867 222.05ZM41.9465 222.05C41.9465 222.759 42.398 223.252 43.0578 223.252C43.7107 223.252 44.1691 222.759 44.1691 222.05C44.1691 221.342 43.7107 220.849 43.0578 220.849C42.398 220.849 41.9465 221.342 41.9465 222.05ZM45.5448 225.273V220.355H46.1352L46.1838 220.967C46.413 220.501 46.8714 220.258 47.4132 220.258C48.3856 220.258 48.9899 220.988 48.9899 222.029C48.9899 223.064 48.4203 223.842 47.4132 223.842C46.8714 223.842 46.4199 223.613 46.1977 223.196V225.273H45.5448ZM46.2046 222.057C46.2046 222.752 46.6075 223.252 47.2743 223.252C47.9411 223.252 48.337 222.752 48.337 222.057C48.337 221.356 47.9411 220.856 47.2743 220.856C46.6075 220.856 46.2046 221.349 46.2046 222.057Z" fill="black"/>
<path d="M13.749 20.4732V16.0419H14.9715V20.3968C14.9715 21.3996 15.5158 21.9535 16.5091 21.9535C17.5023 21.9535 18.0562 21.3901 18.0562 20.3968V16.0419H19.2787V20.4732C19.2787 22.1064 18.2091 23.1378 16.5091 23.1378C14.8187 23.1378 13.749 22.1159 13.749 20.4732ZM20.1823 21.5906H21.2901C21.2996 22.0013 21.6053 22.2592 22.1401 22.2592C22.6845 22.2592 22.9805 22.0395 22.9805 21.6957C22.9805 21.4569 22.8564 21.285 22.4361 21.1895L21.5862 20.989C20.7362 20.798 20.3255 20.3968 20.3255 19.6424C20.3255 18.716 21.1086 18.162 22.1974 18.162C23.2575 18.162 23.9738 18.7733 23.9833 19.6901H22.8755C22.8659 19.289 22.5985 19.0311 22.1496 19.0311C21.6912 19.0311 21.4238 19.2412 21.4238 19.5946C21.4238 19.862 21.6339 20.0339 22.035 20.1294L22.885 20.33C23.6777 20.5114 24.0788 20.8744 24.0788 21.6002C24.0788 22.5552 23.267 23.1473 22.1019 23.1473C20.9272 23.1473 20.1823 22.517 20.1823 21.5906ZM27.0766 23.1473C25.6727 23.1473 24.689 22.1255 24.689 20.6642C24.689 19.1839 25.6536 18.162 27.0384 18.162C28.4518 18.162 29.3496 19.1075 29.3496 20.5783V20.9317L25.7968 20.9412C25.8828 21.7721 26.3221 22.1923 27.0957 22.1923C27.7356 22.1923 28.1558 21.944 28.2895 21.4951H29.3687C29.1681 22.5266 28.3086 23.1473 27.0766 23.1473ZM27.0479 19.1171C26.3603 19.1171 25.9401 19.4895 25.8255 20.1963H28.194C28.194 19.5469 27.7451 19.1171 27.0479 19.1171ZM32.2208 23.1473C30.8551 23.1473 30.0051 22.1446 30.0051 20.6833C30.0051 19.2126 30.8647 18.162 32.2877 18.162C32.9466 18.162 33.5292 18.439 33.8253 18.907V15.9177H34.9809V23.0232H33.9112L33.8348 22.2878C33.5483 22.8322 32.9371 23.1473 32.2208 23.1473ZM32.4787 22.0777C33.2905 22.0777 33.8157 21.4951 33.8157 20.6451C33.8157 19.7952 33.2905 19.203 32.4787 19.203C31.6669 19.203 31.1703 19.8047 31.1703 20.6451C31.1703 21.4856 31.6669 22.0777 32.4787 22.0777ZM41.4529 23.0232H38.9412V16.0419H41.3861C43.4489 16.0419 44.8719 17.4649 44.8719 19.5469C44.8719 21.6002 43.4776 23.0232 41.4529 23.0232ZM41.2714 17.1688H40.1636V21.8962H41.3383C42.7327 21.8962 43.5826 20.9985 43.5826 19.5469C43.5826 18.0665 42.7136 17.1688 41.2714 17.1688ZM47.9494 23.1473C46.5455 23.1473 45.5618 22.1255 45.5618 20.6642C45.5618 19.1839 46.5264 18.162 47.9112 18.162C49.3247 18.162 50.2224 19.1075 50.2224 20.5783V20.9317L46.6697 20.9412C46.7556 21.7721 47.1949 22.1923 47.9685 22.1923C48.6084 22.1923 49.0286 21.944 49.1623 21.4951H50.2415C50.0409 22.5266 49.1814 23.1473 47.9494 23.1473ZM47.9208 19.1171C47.2331 19.1171 46.8129 19.4895 46.6983 20.1963H49.0668C49.0668 19.5469 48.6179 19.1171 47.9208 19.1171ZM52.2868 23.0232L50.4149 18.3053H51.6565L52.4778 20.4732C52.6783 21.0367 52.8407 21.5238 52.898 21.7816C52.9649 21.4856 53.1368 20.989 53.3373 20.4732L54.1969 18.3053H55.4002L53.4328 23.0232H52.2868ZM56.6526 17.3598C56.2515 17.3598 55.9363 17.0447 55.9363 16.6531C55.9363 16.2615 56.2515 15.9559 56.6526 15.9559C57.0346 15.9559 57.3497 16.2615 57.3497 16.6531C57.3497 17.0447 57.0346 17.3598 56.6526 17.3598ZM56.07 23.0232V18.3053H57.2351V23.0232H56.07ZM58.162 20.6547C58.162 19.1935 59.1266 18.162 60.5209 18.162C61.8102 18.162 62.6889 18.8783 62.813 20.0148H61.6479C61.5142 19.48 61.1226 19.203 60.5687 19.203C59.8237 19.203 59.3271 19.7665 59.3271 20.6547C59.3271 21.5429 59.7855 22.0968 60.5305 22.0968C61.1131 22.0968 61.5237 21.8103 61.6479 21.2946H62.8226C62.6793 22.3929 61.7625 23.1473 60.5305 23.1473C59.0979 23.1473 58.162 22.1541 58.162 20.6547ZM65.8004 23.1473C64.3965 23.1473 63.4128 22.1255 63.4128 20.6642C63.4128 19.1839 64.3774 18.162 65.7622 18.162C67.1757 18.162 68.0734 19.1075 68.0734 20.5783V20.9317L64.5207 20.9412C64.6066 21.7721 65.0459 22.1923 65.8195 22.1923C66.4594 22.1923 66.8796 21.944 67.0133 21.4951H68.0925C67.892 22.5266 67.0324 23.1473 65.8004 23.1473ZM65.7718 19.1171C65.0841 19.1171 64.6639 19.4895 64.5493 20.1963H66.9178C66.9178 19.5469 66.469 19.1171 65.7718 19.1171ZM68.643 21.5906H69.7509C69.7604 22.0013 70.066 22.2592 70.6008 22.2592C71.1452 22.2592 71.4413 22.0395 71.4413 21.6957C71.4413 21.4569 71.3171 21.285 70.8969 21.1895L70.0469 20.989C69.1969 20.798 68.7863 20.3968 68.7863 19.6424C68.7863 18.716 69.5694 18.162 70.6581 18.162C71.7182 18.162 72.4345 18.7733 72.4441 19.6901H71.3362C71.3267 19.289 71.0593 19.0311 70.6104 19.0311C70.152 19.0311 69.8846 19.2412 69.8846 19.5946C69.8846 19.862 70.0947 20.0339 70.4958 20.1294L71.3458 20.33C72.1384 20.5114 72.5396 20.8744 72.5396 21.6002C72.5396 22.5552 71.7278 23.1473 70.5626 23.1473C69.3879 23.1473 68.643 22.517 68.643 21.5906Z" fill="#212B36"/>
<path d="M137.47 18.2243C137.47 17.363 138.165 16.7795 139.199 16.7795C140.158 16.7795 140.776 17.3144 140.832 18.1826H140.144C140.109 17.6825 139.755 17.3908 139.192 17.3908C138.56 17.3908 138.151 17.7103 138.151 18.2034C138.151 18.6063 138.38 18.8494 138.852 18.9605L139.679 19.155C140.498 19.3425 140.915 19.787 140.915 20.4955C140.915 21.3985 140.214 21.975 139.144 21.975C138.123 21.975 137.442 21.4401 137.4 20.5789H138.095C138.109 21.0581 138.512 21.3637 139.144 21.3637C139.811 21.3637 140.234 21.0512 140.234 20.5511C140.234 20.1552 140.019 19.9051 139.54 19.794L138.713 19.6065C137.894 19.4189 137.47 18.9466 137.47 18.2243ZM142.451 21.8916H141.77V16.8698H142.451V19.03H144.938V16.8698H145.618V21.8916H144.938V19.662H142.451V21.8916ZM151.312 19.3772C151.312 20.9053 150.311 21.975 148.888 21.975C147.471 21.975 146.484 20.9053 146.484 19.3772C146.484 17.8561 147.478 16.7795 148.894 16.7795C150.318 16.7795 151.312 17.8492 151.312 19.3772ZM150.596 19.3772C150.596 18.2104 149.916 17.4394 148.894 17.4394C147.873 17.4394 147.2 18.2104 147.2 19.3772C147.2 20.5441 147.873 21.3221 148.894 21.3221C149.916 21.3221 150.596 20.5372 150.596 19.3772ZM152.863 21.8916H152.182V16.8698H154.078C155.155 16.8698 155.794 17.4394 155.794 18.3771C155.794 19.0716 155.447 19.5717 154.822 19.7732L155.843 21.8916H155.086L154.148 19.9051H152.863V21.8916ZM152.863 17.4811V19.3008H154.085C154.717 19.3008 155.079 18.9605 155.079 18.384C155.079 17.8006 154.704 17.4811 154.078 17.4811H152.863ZM156.173 17.495V16.8698H159.875V17.495H158.368V21.8916H157.687V17.495H156.173ZM162.458 21.8916V16.8698H164.375C165.355 16.8698 165.952 17.3699 165.952 18.1965C165.952 18.773 165.702 19.1619 165.202 19.3703C165.758 19.5509 166.042 19.9537 166.042 20.5511C166.042 21.3846 165.438 21.8916 164.445 21.8916H162.458ZM164.334 17.4741H163.139V19.0855H164.375C164.938 19.0855 165.258 18.7799 165.258 18.259C165.258 17.7589 164.924 17.4741 164.334 17.4741ZM164.431 19.6759H163.139V21.2873H164.431C165.014 21.2873 165.341 20.9887 165.341 20.4677C165.341 19.9676 165.007 19.6759 164.431 19.6759ZM167.913 19.8496L166.211 16.8698H166.975L168.093 18.8772C168.163 18.9952 168.204 19.0925 168.26 19.2105C168.322 19.0855 168.336 19.0438 168.427 18.8772L169.538 16.8698H170.281L168.593 19.8496V21.8916H167.913V19.8496ZM170.9 19.3703C170.629 19.3703 170.4 19.148 170.4 18.891C170.4 18.6202 170.629 18.3979 170.9 18.3979C171.164 18.3979 171.393 18.6202 171.393 18.891C171.393 19.148 171.164 19.3703 170.9 19.3703ZM170.9 21.975C170.629 21.975 170.4 21.7527 170.4 21.4887C170.4 21.2179 170.629 20.9956 170.9 20.9956C171.164 20.9956 171.393 21.2179 171.393 21.4887C171.393 21.7527 171.164 21.975 170.9 21.975Z" fill="#1C2434"/>
<path d="M178.117 21.8916L176.623 16.8698H177.332L178.249 19.9398C178.318 20.2038 178.388 20.4677 178.457 20.8497C178.54 20.4469 178.617 20.2038 178.693 19.9398L179.645 16.8698H180.381L181.326 19.9398C181.409 20.2107 181.479 20.4747 181.555 20.8497C181.638 20.4261 181.708 20.1691 181.777 19.9468L182.701 16.8698H183.396L181.881 21.8916H181.228L180.013 17.9186L178.784 21.8916H178.117ZM184.996 21.975C183.996 21.975 183.308 21.2526 183.308 20.1968C183.308 19.1341 183.982 18.3979 184.968 18.3979C185.934 18.3979 186.566 19.0647 186.566 20.0718V20.3149L183.94 20.3219C183.989 21.0373 184.364 21.4332 185.01 21.4332C185.517 21.4332 185.85 21.2248 185.961 20.8358H186.573C186.406 21.5652 185.836 21.975 184.996 21.975ZM184.968 18.9466C184.399 18.9466 184.037 19.287 183.954 19.8843H185.913C185.913 19.3217 185.545 18.9466 184.968 18.9466ZM188.76 21.975C187.76 21.975 187.073 21.2526 187.073 20.1968C187.073 19.1341 187.746 18.3979 188.733 18.3979C189.698 18.3979 190.33 19.0647 190.33 20.0718V20.3149L187.705 20.3219C187.753 21.0373 188.128 21.4332 188.774 21.4332C189.281 21.4332 189.615 21.2248 189.726 20.8358H190.337C190.17 21.5652 189.601 21.975 188.76 21.975ZM188.733 18.9466C188.163 18.9466 187.802 19.287 187.719 19.8843H189.677C189.677 19.3217 189.309 18.9466 188.733 18.9466ZM191.726 21.8916H191.073V16.7795H191.726V20.0927L193.233 18.4951H194.053L192.754 19.8496L194.046 21.8916H193.296L192.303 20.3219L191.726 20.9261V21.8916ZM195.253 21.8916H194.6V16.7795H195.253V21.8916ZM195.888 23.4127V22.8779H196.326C196.638 22.8779 196.888 22.8293 197.048 22.3986L197.166 22.0722L195.798 18.4951H196.485L197.472 21.2318L198.479 18.4951H199.153L197.548 22.6556C197.319 23.2391 196.978 23.4822 196.458 23.4822C196.242 23.4822 196.062 23.4544 195.888 23.4127Z" fill="#64748B"/>
<path d="M206.899 21.052C206.826 21.052 206.765 21.0276 206.704 20.9788L203.896 18.2195C203.786 18.1096 203.786 17.9386 203.896 17.8288C204.006 17.7189 204.176 17.7189 204.286 17.8288L206.899 20.3805L209.512 17.8043C209.622 17.6945 209.793 17.6945 209.903 17.8043C210.013 17.9142 210.013 18.0852 209.903 18.195L207.094 20.9543C207.033 21.0154 206.972 21.052 206.899 21.052Z" fill="#64748B"/>
<rect x="24.7441" y="131.535" width="38.0233" height="16.2093" rx="1.30233" fill="#41B2E9"/>
<g filter="url(#filter0_d_508_2929)">
<path d="M34.9649 142.133L31.5754 142.14V141.619L33.1937 140.223C34.0064 139.521 34.2356 139.181 34.2356 138.646C34.2356 138.014 33.8744 137.639 33.2701 137.639C32.652 137.639 32.2491 138.09 32.2352 138.806H31.5545C31.5754 137.729 32.256 137.028 33.2771 137.028C34.2842 137.028 34.9302 137.639 34.9302 138.604C34.9302 139.32 34.5759 139.827 33.6869 140.598L32.645 141.501H34.9649V142.133ZM35.5914 139.632C35.5914 138.076 36.3971 137.021 37.6612 137.021C38.9184 137.021 39.7241 138.076 39.7241 139.632C39.7241 141.195 38.9531 142.23 37.6612 142.23C36.3623 142.23 35.5914 141.195 35.5914 139.632ZM36.2651 139.632C36.2651 140.869 36.7791 141.619 37.6612 141.619C38.5433 141.619 39.0503 140.869 39.0503 139.632C39.0503 138.382 38.5433 137.632 37.6612 137.632C36.7791 137.632 36.2651 138.382 36.2651 139.632ZM40.7405 142.223C40.4697 142.223 40.2404 142.001 40.2404 141.737C40.2404 141.466 40.4697 141.244 40.7405 141.244C41.0045 141.244 41.2337 141.466 41.2337 141.737C41.2337 142.001 41.0045 142.223 40.7405 142.223ZM44.783 140.549L43.6091 142.14H42.8173L44.0745 140.473C43.9008 140.542 43.7203 140.577 43.5466 140.577C42.5048 140.577 41.8032 139.827 41.8032 138.827C41.8032 137.785 42.595 137.028 43.63 137.028C44.6718 137.028 45.4775 137.812 45.4775 138.833C45.4775 139.424 45.2969 139.848 44.783 140.549ZM44.783 138.827C44.783 138.139 44.3106 137.639 43.63 137.639C42.9632 137.639 42.4909 138.139 42.4909 138.827C42.4909 139.514 42.9632 140 43.63 140C44.3106 140 44.783 139.514 44.783 138.827ZM47.4342 139.542H46.9341V139.09L48.3579 137.722H46.1006V137.118H49.2192V137.667L47.844 138.979C48.6983 139.084 49.3442 139.66 49.3442 140.563C49.3442 141.577 48.5802 142.223 47.5592 142.223C46.5729 142.223 45.8644 141.619 45.8644 140.577H46.5382C46.5382 141.23 46.941 141.612 47.5731 141.612C48.226 141.612 48.6497 141.195 48.6497 140.549C48.6497 139.945 48.2329 139.542 47.4342 139.542ZM52.4306 138.306C52.4306 139.049 51.9028 139.584 51.1596 139.584C50.4233 139.584 49.8954 139.049 49.8954 138.306C49.8954 137.555 50.4233 137.021 51.1596 137.021C51.9028 137.021 52.4306 137.555 52.4306 138.306ZM55.077 137.125L51.2638 142.14H50.597L54.4102 137.125H55.077ZM51.8958 138.306C51.8958 137.854 51.5972 137.542 51.1596 137.542C50.7289 137.542 50.4303 137.854 50.4303 138.306C50.4303 138.75 50.7289 139.063 51.1596 139.063C51.5902 139.063 51.8958 138.75 51.8958 138.306ZM55.7924 140.952C55.7924 141.695 55.2576 142.23 54.5213 142.23C53.7851 142.23 53.2502 141.695 53.2502 140.952C53.2502 140.202 53.7851 139.674 54.5213 139.674C55.2576 139.674 55.7924 140.202 55.7924 140.952ZM55.2506 140.952C55.2506 140.5 54.9589 140.188 54.5213 140.188C54.0907 140.188 53.792 140.5 53.792 140.952C53.792 141.396 54.0907 141.709 54.5213 141.709C54.9519 141.709 55.2506 141.396 55.2506 140.952Z" fill="white"/>
</g>
<circle cx="112" cy="104.186" r="48.8372" stroke="#3C50E0" stroke-width="10.8527"/>
<mask id="path-21-inside-1_508_2929" fill="white">
<path d="M81.808 149.275C88.8508 153.991 96.9003 156.991 105.312 158.036C113.723 159.081 122.262 158.14 130.244 155.291C138.227 152.441 145.431 147.761 151.279 141.626C157.127 135.49 161.456 128.071 163.92 119.961C166.384 111.851 166.914 103.277 165.467 94.9252C164.021 86.5737 160.638 78.6771 155.59 71.8684C150.542 65.0597 143.969 59.5282 136.399 55.7172C128.828 51.9062 120.47 49.9216 111.994 49.9226L111.995 60.7753C118.776 60.7745 125.462 62.3622 131.519 65.411C137.575 68.4598 142.834 72.885 146.872 78.332C150.91 83.7789 153.617 90.0962 154.774 96.7774C155.931 103.459 155.507 110.318 153.536 116.806C151.565 123.294 148.101 129.23 143.423 134.138C138.744 139.046 132.981 142.79 126.595 145.07C120.209 147.35 113.378 148.102 106.649 147.266C99.9203 146.43 93.4806 144.03 87.8464 140.257L81.808 149.275Z"/>
</mask>
<path d="M81.808 149.275C88.8508 153.991 96.9003 156.991 105.312 158.036C113.723 159.081 122.262 158.14 130.244 155.291C138.227 152.441 145.431 147.761 151.279 141.626C157.127 135.49 161.456 128.071 163.92 119.961C166.384 111.851 166.914 103.277 165.467 94.9252C164.021 86.5737 160.638 78.6771 155.59 71.8684C150.542 65.0597 143.969 59.5282 136.399 55.7172C128.828 51.9062 120.47 49.9216 111.994 49.9226L111.995 60.7753C118.776 60.7745 125.462 62.3622 131.519 65.411C137.575 68.4598 142.834 72.885 146.872 78.332C150.91 83.7789 153.617 90.0962 154.774 96.7774C155.931 103.459 155.507 110.318 153.536 116.806C151.565 123.294 148.101 129.23 143.423 134.138C138.744 139.046 132.981 142.79 126.595 145.07C120.209 147.35 113.378 148.102 106.649 147.266C99.9203 146.43 93.4806 144.03 87.8464 140.257L81.808 149.275Z" stroke="#0FADCF" stroke-width="13.0233" mask="url(#path-21-inside-1_508_2929)"/>
<mask id="path-22-inside-2_508_2929" fill="white">
<path d="M59.2244 91.5654C56.6474 102.342 57.431 113.649 61.4699 123.966C65.5089 134.284 72.6095 143.118 81.8175 149.281L87.854 140.262C80.4876 135.332 74.8071 128.265 71.5759 120.01C68.3448 111.756 67.7179 102.711 69.7795 94.0896L59.2244 91.5654Z"/>
</mask>
<path d="M59.2244 91.5654C56.6474 102.342 57.431 113.649 61.4699 123.966C65.5089 134.284 72.6095 143.118 81.8175 149.281L87.854 140.262C80.4876 135.332 74.8071 128.265 71.5759 120.01C68.3448 111.756 67.7179 102.711 69.7795 94.0896L59.2244 91.5654Z" stroke="#80CAEE" stroke-width="13.0233" mask="url(#path-22-inside-2_508_2929)"/>
<path d="M103.528 103.585L97.3653 103.597V102.43L100.27 99.9747C101.474 98.9537 101.875 98.3703 101.875 97.5194C101.875 96.5105 101.328 95.9392 100.392 95.9392C99.4195 95.9392 98.8117 96.6199 98.7996 97.7625H97.2559C97.268 95.8177 98.5079 94.5536 100.392 94.5536C102.288 94.5536 103.467 95.6354 103.467 97.4343C103.467 98.6741 102.786 99.6101 101.437 100.765L99.8328 102.138H103.528V103.585ZM107.443 103.743C105.583 103.743 104.355 102.552 104.355 100.753H105.899C105.899 101.762 106.495 102.357 107.479 102.357C108.525 102.357 109.193 101.676 109.193 100.595C109.193 99.5615 108.573 98.8565 107.504 98.8565C106.823 98.8565 106.203 99.1968 105.887 99.6587L104.513 99.367L105.607 94.7116H110.238V96.1459H106.726L106.252 97.9935C106.677 97.7139 107.212 97.5559 107.82 97.5559C109.594 97.5559 110.773 98.7592 110.773 100.51C110.773 102.43 109.424 103.743 107.443 103.743ZM118.548 101.907H117.466V103.597H115.995V101.907H111.486V100.546L115.509 94.7116H117.466V100.546H118.548V101.907ZM113.139 100.546H115.995V96.389L113.139 100.546ZM119.514 101.081C119.514 100.023 120.109 99.1725 121.033 98.82C120.255 98.4675 119.83 97.799 119.83 96.936C119.83 95.526 121.082 94.5536 122.917 94.5536C124.741 94.5536 125.968 95.5138 125.968 96.9603C125.968 97.8233 125.531 98.4918 124.741 98.82C125.676 99.1482 126.284 100.011 126.284 101.081C126.284 102.685 124.959 103.743 122.893 103.743C120.839 103.743 119.514 102.697 119.514 101.081ZM121.24 97.0697C121.24 97.8111 121.884 98.2852 122.893 98.2852C123.89 98.2852 124.522 97.8233 124.522 97.0818C124.522 96.3404 123.89 95.8785 122.893 95.8785C121.884 95.8785 121.24 96.3404 121.24 97.0697ZM121.033 100.971C121.033 101.834 121.75 102.369 122.905 102.369C124.036 102.369 124.753 101.834 124.753 100.971C124.753 100.108 124.036 99.5736 122.893 99.5736C121.75 99.5736 121.033 100.108 121.033 100.971Z" fill="#212B36"/>
<path d="M101.825 114.357L99.9144 109.335H100.644L101.866 112.544C101.977 112.829 102.075 113.113 102.179 113.488C102.297 113.093 102.415 112.759 102.498 112.537L103.714 109.335H104.422L102.533 114.357H101.825ZM105.283 110.155C105.047 110.155 104.852 109.96 104.852 109.724C104.852 109.481 105.047 109.293 105.283 109.293C105.519 109.293 105.714 109.481 105.714 109.724C105.714 109.96 105.519 110.155 105.283 110.155ZM104.964 114.357V110.96H105.616V114.357H104.964ZM106.287 113.37H106.912C106.912 113.718 107.176 113.926 107.606 113.926C108.065 113.926 108.329 113.739 108.329 113.426C108.329 113.197 108.217 113.058 107.863 112.968L107.266 112.829C106.662 112.683 106.377 112.384 106.377 111.884C106.377 111.259 106.905 110.863 107.655 110.863C108.398 110.863 108.884 111.28 108.898 111.926H108.273C108.259 111.585 108.03 111.37 107.634 111.37C107.224 111.37 106.995 111.551 106.995 111.863C106.995 112.092 107.162 112.245 107.495 112.329L108.092 112.474C108.669 112.613 108.954 112.877 108.954 113.384C108.954 114.03 108.398 114.44 107.592 114.44C106.794 114.44 106.287 114.016 106.287 113.37ZM109.997 110.155C109.761 110.155 109.567 109.96 109.567 109.724C109.567 109.481 109.761 109.293 109.997 109.293C110.233 109.293 110.428 109.481 110.428 109.724C110.428 109.96 110.233 110.155 109.997 110.155ZM109.678 114.357V110.96H110.331V114.357H109.678ZM112.237 114.357H111.584V111.509H110.917V110.96H111.584V109.898H112.237V110.96H112.904V111.509H112.237V114.357ZM113.234 112.655C113.234 111.606 113.984 110.87 115.005 110.87C116.019 110.87 116.769 111.606 116.769 112.655C116.769 113.704 116.019 114.44 115.005 114.44C113.984 114.44 113.234 113.704 113.234 112.655ZM113.893 112.655C113.893 113.363 114.345 113.857 115.005 113.857C115.658 113.857 116.116 113.363 116.116 112.655C116.116 111.947 115.658 111.453 115.005 111.453C114.345 111.453 113.893 111.947 113.893 112.655ZM119.437 110.932V111.53H119.145C118.527 111.53 118.145 111.905 118.145 112.558V114.357H117.492V110.967H118.103L118.145 111.481C118.284 111.127 118.624 110.891 119.089 110.891C119.207 110.891 119.305 110.905 119.437 110.932ZM119.771 113.37H120.396C120.396 113.718 120.66 113.926 121.091 113.926C121.549 113.926 121.813 113.739 121.813 113.426C121.813 113.197 121.702 113.058 121.348 112.968L120.75 112.829C120.146 112.683 119.861 112.384 119.861 111.884C119.861 111.259 120.389 110.863 121.139 110.863C121.883 110.863 122.369 111.28 122.383 111.926H121.758C121.744 111.585 121.514 111.37 121.119 111.37C120.709 111.37 120.48 111.551 120.48 111.863C120.48 112.092 120.646 112.245 120.98 112.329L121.577 112.474C122.153 112.613 122.438 112.877 122.438 113.384C122.438 114.03 121.883 114.44 121.077 114.44C120.278 114.44 119.771 114.016 119.771 113.37Z" fill="#637381"/>
<defs>
<filter id="filter0_d_508_2929" x="31.1203" y="137.021" width="25.1063" height="6.07745" filterUnits="userSpaceOnUse" color-interpolation-filters="sRGB">
<feFlood flood-opacity="0" result="BackgroundImageFix"/>
<feColorMatrix in="SourceAlpha" type="matrix" values="0 0 0 0 0 0 0 0 0 0 0 0 0 0 0 0 0 0 127 0" result="hardAlpha"/>
<feOffset dy="0.434109"/>
<feGaussianBlur stdDeviation="0.217054"/>
<feComposite in2="hardAlpha" operator="out"/>
<feColorMatrix type="matrix" values="0 0 0 0 0 0 0 0 0 0 0 0 0 0 0 0 0 0 0.1 0"/>
<feBlend mode="normal" in2="BackgroundImageFix" result="effect1_dropShadow_508_2929"/>
<feBlend mode="normal" in="SourceGraphic" in2="effect1_dropShadow_508_2929" result="shape"/>
</filter>
</defs>
</svg>
