<svg width="197" height="64" viewBox="0 0 197 64" fill="none" xmlns="http://www.w3.org/2000/svg">
<rect y="0.193848" width="197" height="63" rx="15" fill="white"/>
<path d="M25.9001 21.9852H23.5083V20.266H27.7389V31.1938H25.9001V21.9852ZM29.482 28.0994C29.482 26.7988 30.2145 25.7524 31.3506 25.3188C30.3939 24.8853 29.8707 24.0631 29.8707 23.0017C29.8707 21.2676 31.4104 20.0717 33.6677 20.0717C35.9101 20.0717 37.42 21.2527 37.42 23.0316C37.42 24.093 36.8818 24.9152 35.9101 25.3188C37.0612 25.7225 37.8087 26.7838 37.8087 28.0994C37.8087 30.0727 36.1792 31.3732 33.6378 31.3732C31.1114 31.3732 29.482 30.0876 29.482 28.0994ZM31.6048 23.1662C31.6048 24.0781 32.3971 24.6611 33.6378 24.6611C34.8637 24.6611 35.641 24.093 35.641 23.1811C35.641 22.2692 34.8637 21.7011 33.6378 21.7011C32.3971 21.7011 31.6048 22.2692 31.6048 23.1662ZM31.3506 27.9648C31.3506 29.0262 32.2326 29.684 33.6528 29.684C35.0431 29.684 35.9251 29.0262 35.9251 27.9648C35.9251 26.9034 35.0431 26.2457 33.6378 26.2457C32.2326 26.2457 31.3506 26.9034 31.3506 27.9648ZM40.5109 31.3732C39.8532 31.3732 39.3001 30.8351 39.3001 30.1923C39.3001 29.5345 39.8532 28.9963 40.5109 28.9963C41.1687 28.9963 41.7218 29.5345 41.7218 30.1923C41.7218 30.8351 41.1687 31.3732 40.5109 31.3732ZM44.4387 23.4801L46.8007 20.266H48.9833L46.3672 23.7492C46.6362 23.6744 46.9203 23.6296 47.1894 23.6296C49.4467 23.6296 50.9715 25.2142 50.9715 27.4267C50.9715 29.7587 49.2374 31.3882 46.9053 31.3882C44.5434 31.3882 42.7794 29.6541 42.7794 27.4117C42.7794 26.0962 43.2129 25.1394 44.4387 23.4801ZM44.7377 27.4267C44.7377 28.7571 45.6197 29.684 46.9053 29.684C48.1461 29.684 49.0431 28.7571 49.0431 27.4267C49.0431 26.1111 48.1611 25.1992 46.9053 25.1992C45.6048 25.1992 44.7377 26.1111 44.7377 27.4267ZM54.6358 20.266V26.0065L59.0607 20.266H61.3181L57.7004 24.9302L61.3629 31.1938H59.1504L56.4446 26.5447L54.6358 28.8618V31.1938H52.7223V20.266H54.6358Z" fill="#1C2434"/>
<path d="M23.5905 42.4933V39.0102H24.323V42.4485C24.323 43.3155 24.8014 43.7939 25.6609 43.7939C26.5131 43.7939 26.9839 43.3081 26.9839 42.4485V39.0102H27.7239V42.4933C27.7239 43.7341 26.9316 44.504 25.6609 44.504C24.3828 44.504 23.5905 43.7416 23.5905 42.4933ZM29.5248 44.4143H28.8222V40.7592H29.4576L29.5323 41.3198C29.764 40.9013 30.2274 40.6546 30.7432 40.6546C31.7074 40.6546 32.1484 41.2451 32.1484 42.1794V44.4143H31.4458V42.3364C31.4458 41.5964 31.102 41.2974 30.5638 41.2974C29.906 41.2974 29.5248 41.7683 29.5248 42.4784V44.4143ZM33.4654 39.8922C33.2113 39.8922 33.002 39.6829 33.002 39.4288C33.002 39.1672 33.2113 38.9653 33.4654 38.9653C33.7195 38.9653 33.9288 39.1672 33.9288 39.4288C33.9288 39.6829 33.7195 39.8922 33.4654 39.8922ZM33.1216 44.4143V40.7592H33.8242V44.4143H33.1216ZM34.605 42.5606C34.605 41.4394 35.2628 40.6546 36.3092 40.6546C36.8848 40.6546 37.3856 40.9162 37.6248 41.417L37.6846 40.7592H38.3124V46.0512H37.6173V43.8163C37.3706 44.2648 36.8848 44.5115 36.3018 44.5115C35.2254 44.5115 34.605 43.6743 34.605 42.5606ZM35.3151 42.5905C35.3151 43.338 35.7337 43.8761 36.4513 43.8761C37.1688 43.8761 37.6098 43.338 37.6098 42.5905C37.6098 41.8281 37.1688 41.2974 36.4513 41.2974C35.7337 41.2974 35.3151 41.8356 35.3151 42.5905ZM41.8525 40.7592H42.5476V44.4143H41.9197L41.845 43.8612C41.6357 44.2424 41.1498 44.504 40.6117 44.504C39.7596 44.504 39.2812 43.9285 39.2812 43.0315V40.7592H39.9838V42.7998C39.9838 43.5846 40.3202 43.8836 40.8583 43.8836C41.5012 43.8836 41.8525 43.4725 41.8525 42.6877V40.7592ZM45.0711 44.504C43.9948 44.504 43.2548 43.7266 43.2548 42.5905C43.2548 41.4469 43.9798 40.6546 45.0412 40.6546C46.0802 40.6546 46.7604 41.3722 46.7604 42.456V42.7176L43.935 42.7251C43.9873 43.4949 44.391 43.921 45.0861 43.921C45.6317 43.921 45.9905 43.6967 46.1101 43.2782H46.7679C46.5885 44.063 45.9756 44.504 45.0711 44.504ZM45.0412 41.2451C44.4283 41.2451 44.0396 41.6113 43.95 42.2542H46.0578C46.0578 41.6487 45.6616 41.2451 45.0412 41.2451ZM51.211 44.4143L49.1555 39.0102H49.9403L51.2558 42.4634C51.3754 42.7699 51.4801 43.0764 51.5922 43.48C51.7192 43.0539 51.8463 42.6952 51.936 42.456L53.2441 39.0102H54.0065L51.9734 44.4143H51.211ZM54.9329 39.8922C54.6788 39.8922 54.4695 39.6829 54.4695 39.4288C54.4695 39.1672 54.6788 38.9653 54.9329 38.9653C55.187 38.9653 55.3963 39.1672 55.3963 39.4288C55.3963 39.6829 55.187 39.8922 54.9329 39.8922ZM54.5891 44.4143V40.7592H55.2917V44.4143H54.5891ZM56.0128 43.3529H56.6855C56.6855 43.7266 56.9695 43.9509 57.4329 43.9509C57.9262 43.9509 58.2103 43.7491 58.2103 43.4127C58.2103 43.1661 58.0907 43.0166 57.7095 42.9194L57.0667 42.7699C56.4164 42.6129 56.1099 42.2915 56.1099 41.7534C56.1099 41.0806 56.678 40.6546 57.4852 40.6546C58.285 40.6546 58.8082 41.1031 58.8232 41.7982H58.1505C58.1355 41.432 57.8889 41.2002 57.4628 41.2002C57.0218 41.2002 56.7752 41.3946 56.7752 41.7309C56.7752 41.9776 56.9545 42.142 57.3133 42.2317L57.9561 42.3887C58.5765 42.5382 58.883 42.8222 58.883 43.3679C58.883 44.063 58.285 44.504 57.418 44.504C56.5584 44.504 56.0128 44.0481 56.0128 43.3529ZM60.006 39.8922C59.7518 39.8922 59.5426 39.6829 59.5426 39.4288C59.5426 39.1672 59.7518 38.9653 60.006 38.9653C60.2601 38.9653 60.4694 39.1672 60.4694 39.4288C60.4694 39.6829 60.2601 39.8922 60.006 39.8922ZM59.6622 44.4143V40.7592H60.3648V44.4143H59.6622ZM62.4163 44.4143H61.7137V41.3497H60.9961V40.7592H61.7137V39.6156H62.4163V40.7592H63.1339V41.3497H62.4163V44.4143ZM63.4887 42.583C63.4887 41.4544 64.296 40.6621 65.3947 40.6621C66.486 40.6621 67.2933 41.4544 67.2933 42.583C67.2933 43.7117 66.486 44.504 65.3947 44.504C64.296 44.504 63.4887 43.7117 63.4887 42.583ZM64.1988 42.583C64.1988 43.3454 64.6847 43.8761 65.3947 43.8761C66.0974 43.8761 66.5907 43.3454 66.5907 42.583C66.5907 41.8206 66.0974 41.2899 65.3947 41.2899C64.6847 41.2899 64.1988 41.8206 64.1988 42.583ZM70.1639 40.7293V41.3722H69.85C69.1848 41.3722 68.7737 41.7758 68.7737 42.4784V44.4143H68.071V40.7667H68.7288L68.7737 41.3198C68.9232 40.9386 69.2894 40.6845 69.7902 40.6845C69.9173 40.6845 70.0219 40.6994 70.1639 40.7293ZM70.5239 43.3529H71.1966C71.1966 43.7266 71.4807 43.9509 71.9441 43.9509C72.4374 43.9509 72.7215 43.7491 72.7215 43.4127C72.7215 43.1661 72.6019 43.0166 72.2207 42.9194L71.5779 42.7699C70.9276 42.6129 70.6211 42.2915 70.6211 41.7534C70.6211 41.0806 71.1892 40.6546 71.9964 40.6546C72.7962 40.6546 73.3194 41.1031 73.3344 41.7982H72.6617C72.6467 41.432 72.4001 41.2002 71.974 41.2002C71.533 41.2002 71.2863 41.3946 71.2863 41.7309C71.2863 41.9776 71.4657 42.142 71.8245 42.2317L72.4673 42.3887C73.0877 42.5382 73.3942 42.8222 73.3942 43.3679C73.3942 44.063 72.7962 44.504 71.9292 44.504C71.0696 44.504 70.5239 44.0481 70.5239 43.3529Z" fill="#64748B"/>
<g clip-path="url(#clip0_508_3126)">
<path d="M154.406 24.794L152.257 26.9425L151.691 26.3761L154.806 23.2607L157.922 26.3761L157.355 26.9425L155.207 24.794L155.207 29.6694L154.406 29.6694L154.406 24.794Z" fill="#10B981"/>
</g>
<path d="M163.818 24.7187H162.682V24.061H164.52V29.4651H163.818V24.7187ZM165.465 27.9627C165.465 27.3124 165.846 26.7892 166.444 26.5724C165.936 26.3557 165.659 25.9296 165.659 25.384C165.659 24.5393 166.384 23.9638 167.461 23.9638C168.522 23.9638 169.24 24.5393 169.24 25.3914C169.24 25.9446 168.955 26.3706 168.447 26.5724C169.053 26.7668 169.441 27.3049 169.441 27.9702C169.441 28.9194 168.649 29.5548 167.453 29.5548C166.25 29.5548 165.465 28.9194 165.465 27.9627ZM166.332 25.4288C166.332 25.9595 166.773 26.3033 167.446 26.3033C168.126 26.3033 168.552 25.967 168.552 25.4438C168.552 24.928 168.126 24.5991 167.446 24.5991C166.773 24.5991 166.332 24.928 166.332 25.4288ZM166.182 27.9104C166.182 28.5158 166.683 28.9045 167.453 28.9045C168.215 28.9045 168.716 28.5158 168.716 27.9104C168.716 27.3124 168.223 26.9312 167.446 26.9312C166.676 26.9312 166.182 27.3124 166.182 27.9104ZM172.827 25.3391C172.827 26.1389 172.259 26.7144 171.459 26.7144C170.667 26.7144 170.099 26.1389 170.099 25.3391C170.099 24.5319 170.667 23.9563 171.459 23.9563C172.259 23.9563 172.827 24.5319 172.827 25.3391ZM175.675 24.0684L171.572 29.4651H170.854L174.958 24.0684H175.675ZM172.252 25.3391C172.252 24.8533 171.93 24.5169 171.459 24.5169C170.996 24.5169 170.675 24.8533 170.675 25.3391C170.675 25.8175 170.996 26.1539 171.459 26.1539C171.923 26.1539 172.252 25.8175 172.252 25.3391ZM176.445 28.1869C176.445 28.9867 175.869 29.5623 175.077 29.5623C174.285 29.5623 173.709 28.9867 173.709 28.1869C173.709 27.3797 174.285 26.8116 175.077 26.8116C175.869 26.8116 176.445 27.3797 176.445 28.1869ZM175.862 28.1869C175.862 27.7011 175.548 27.3647 175.077 27.3647C174.614 27.3647 174.292 27.7011 174.292 28.1869C174.292 28.6653 174.614 29.0017 175.077 29.0017C175.541 29.0017 175.862 28.6653 175.862 28.1869Z" fill="#10B981"/>
<defs>
<clipPath id="clip0_508_3126">
<rect width="9.61315" height="9.61315" fill="white" transform="translate(159.613 31.2717) rotate(180)"/>
</clipPath>
</defs>
</svg>
