<svg width="233" height="172" viewBox="0 0 233 172" fill="none" xmlns="http://www.w3.org/2000/svg">
<rect width="233" height="171.177" rx="15" fill="white"/>
<rect x="10" y="63" width="213" height="46" rx="12" fill="white"/>
<circle cx="32.7049" cy="33.7049" r="14.4598" fill="#EFF4FB" stroke="#E2E8F0" stroke-width="0.490164"/>
<g clip-path="url(#clip0_581_2877)">
<path d="M32.7462 31.4162V34.3944C32.7462 35.7817 31.9072 36.6197 30.6354 36.6197C29.3635 36.6197 28.4706 35.7817 28.4706 34.3944V28.8032H26.3328V34.3944C26.3328 36.9357 28.0104 38.5156 30.6354 38.5156C33.2468 38.5156 34.884 36.9357 34.884 34.3944V28.8032H34.8465C33.7191 29.1707 32.878 30.1851 32.7462 31.4162Z" fill="url(#paint0_linear_581_2877)"/>
<path d="M36.7142 28.8032H36.6775V38.4196H38.8154V31.4181C38.7952 30.3495 37.8423 29.171 36.7142 28.8032Z" fill="url(#paint1_linear_581_2877)"/>
<path d="M32.7461 31.4162V34.3944C32.7461 34.3961 32.746 34.3979 32.746 34.3999C32.7465 34.4295 32.7481 34.4589 32.7481 34.4887C32.7481 36.4945 31.2602 38.1465 29.3442 38.3716C29.743 38.4659 30.1743 38.5156 30.6354 38.5156C33.2467 38.5156 34.884 36.9357 34.884 34.3944V28.8032H34.8464C33.719 29.1707 32.8779 30.1851 32.7461 31.4162Z" fill="url(#paint2_linear_581_2877)"/>
</g>
<path d="M56.8525 28.9254V25.2707H57.6211V28.8783C57.6211 29.7881 58.123 30.29 59.0249 30.29C59.9189 30.29 60.413 29.7802 60.413 28.8783V25.2707H61.1894V28.9254C61.1894 30.2272 60.3581 31.035 59.0249 31.035C57.6838 31.035 56.8525 30.2351 56.8525 28.9254ZM62.7026 26.1961C62.4359 26.1961 62.2163 25.9765 62.2163 25.7099C62.2163 25.4354 62.4359 25.2236 62.7026 25.2236C62.9692 25.2236 63.1888 25.4354 63.1888 25.7099C63.1888 25.9765 62.9692 26.1961 62.7026 26.1961ZM62.3418 30.9409V27.1059H63.079V30.9409H62.3418ZM65.6865 31.035C64.5728 31.035 63.8983 30.2037 63.8983 29.0352C63.8983 27.8588 64.5806 26.9961 65.7178 26.9961C66.306 26.9961 66.8001 27.2549 67.0589 27.7254V25.1687H67.7883V30.9409H67.1295L67.0668 30.2429C66.8158 30.7684 66.2982 31.035 65.6865 31.035ZM65.8355 30.3684C66.5884 30.3684 67.0511 29.8116 67.0511 29.0116C67.0511 28.2274 66.5884 27.6627 65.8355 27.6627C65.0826 27.6627 64.6434 28.2274 64.6434 29.0116C64.6434 29.8037 65.0826 30.3684 65.8355 30.3684ZM70.5066 31.035C69.3773 31.035 68.6008 30.2194 68.6008 29.0273C68.6008 27.8274 69.3616 26.9961 70.4752 26.9961C71.5654 26.9961 72.279 27.749 72.279 28.8862V29.1606L69.3145 29.1685C69.3694 29.9763 69.7929 30.4233 70.5223 30.4233C71.0948 30.4233 71.4712 30.188 71.5967 29.7488H72.2869C72.0987 30.5723 71.4556 31.035 70.5066 31.035ZM70.4752 27.6156C69.8321 27.6156 69.4243 27.9999 69.3302 28.6744H71.5418C71.5418 28.0391 71.1262 27.6156 70.4752 27.6156ZM72.8515 29.0273C72.8515 27.8274 73.6122 26.9961 74.7337 26.9961C75.6984 26.9961 76.3728 27.5451 76.5062 28.3999H75.7689C75.6435 27.9137 75.2513 27.6549 74.7572 27.6549C74.0593 27.6549 73.5809 28.1882 73.5809 29.0195C73.5809 29.843 74.0279 30.3762 74.7259 30.3762C75.2513 30.3762 75.6435 30.1018 75.7768 29.6469H76.514C76.365 30.4782 75.6513 31.035 74.7259 31.035C73.5965 31.035 72.8515 30.2351 72.8515 29.0273ZM78.0447 30.9409H77.3075V25.1687H78.0447V28.9097L79.7466 27.1059H80.672L79.2054 28.6352L80.6642 30.9409H79.8171L78.6957 29.1685L78.0447 29.8508V30.9409ZM84.8854 28.6352L82.964 25.2707H83.8267L85.0894 27.5372C85.1678 27.6705 85.2148 27.7803 85.2776 27.9137C85.3482 27.7725 85.3638 27.7254 85.4658 27.5372L86.7206 25.2707H87.5598L85.654 28.6352V30.9409H84.8854V28.6352ZM89.0562 31.035C87.9269 31.035 87.1505 30.2194 87.1505 29.0273C87.1505 27.8274 87.9112 26.9961 89.0249 26.9961C90.115 26.9961 90.8287 27.749 90.8287 28.8862V29.1606L87.8642 29.1685C87.9191 29.9763 88.3426 30.4233 89.0719 30.4233C89.6444 30.4233 90.0209 30.188 90.1464 29.7488H90.8365C90.6483 30.5723 90.0052 31.035 89.0562 31.035ZM89.0249 27.6156C88.3818 27.6156 87.974 27.9999 87.8799 28.6744H90.0915C90.0915 28.0391 89.6758 27.6156 89.0249 27.6156ZM92.7353 31.035C91.9118 31.035 91.4256 30.5723 91.4256 29.8743C91.4256 29.1685 91.951 28.7293 92.8529 28.6587L94.0607 28.5646V28.4548C94.0607 27.8117 93.6764 27.5843 93.1588 27.5843C92.5392 27.5843 92.1863 27.8588 92.1863 28.3215H91.5432C91.5432 27.5215 92.202 26.9961 93.1902 26.9961C94.1391 26.9961 94.7822 27.498 94.7822 28.5332V30.9409H94.1548L94.0764 30.3214C93.8803 30.7605 93.3549 31.035 92.7353 31.035ZM92.947 30.4625C93.645 30.4625 94.0685 30.0076 94.0685 29.2861V29.0822L93.0882 29.1606C92.4373 29.2234 92.1706 29.4743 92.1706 29.8508C92.1706 30.2586 92.4686 30.4625 92.947 30.4625ZM97.9991 27.0745V27.749H97.6697C96.9717 27.749 96.5404 28.1725 96.5404 28.9097V30.9409H95.8032V27.1137H96.4933L96.5404 27.6941C96.6972 27.2941 97.0815 27.0274 97.607 27.0274C97.7403 27.0274 97.8501 27.0431 97.9991 27.0745ZM99.4434 30.9409H98.7062V25.1687H99.4434V30.9409ZM100.16 32.6585V32.0546H100.654C101.007 32.0546 101.289 31.9997 101.47 31.5134L101.603 31.1448L100.058 27.1059H100.835L101.948 30.1959L103.085 27.1059H103.846L102.034 31.8036C101.776 32.4624 101.391 32.7369 100.803 32.7369C100.56 32.7369 100.356 32.7055 100.16 32.6585ZM107.457 30.9409H106.705V25.2707H107.457L109.41 30.039L111.363 25.2707H112.132V30.9409H111.379V28.6979C111.379 27.6392 111.387 27.2549 111.426 26.8549L109.771 30.9409H109.05L107.403 26.8706C107.442 27.1451 107.457 27.7254 107.457 28.5175V30.9409ZM114.981 31.035C113.852 31.035 113.076 30.2194 113.076 29.0273C113.076 27.8274 113.836 26.9961 114.95 26.9961C116.04 26.9961 116.754 27.749 116.754 28.8862V29.1606L113.789 29.1685C113.844 29.9763 114.268 30.4233 114.997 30.4233C115.57 30.4233 115.946 30.188 116.071 29.7488H116.762C116.573 30.5723 115.93 31.035 114.981 31.035ZM114.95 27.6156C114.307 27.6156 113.899 27.9999 113.805 28.6744H116.017C116.017 28.0391 115.601 27.6156 114.95 27.6156ZM119.232 31.035C118.103 31.035 117.326 30.2194 117.326 29.0273C117.326 27.8274 118.087 26.9961 119.201 26.9961C120.291 26.9961 121.004 27.749 121.004 28.8862V29.1606L118.04 29.1685C118.095 29.9763 118.518 30.4233 119.248 30.4233C119.82 30.4233 120.197 30.188 120.322 29.7488H121.012C120.824 30.5723 120.181 31.035 119.232 31.035ZM119.201 27.6156C118.557 27.6156 118.15 27.9999 118.056 28.6744H120.267C120.267 28.0391 119.852 27.6156 119.201 27.6156ZM122.872 30.9409H122.135V27.7254H121.382V27.1059H122.135V25.906H122.872V27.1059H123.625V27.7254H122.872V30.9409ZM124.647 26.1961C124.38 26.1961 124.161 25.9765 124.161 25.7099C124.161 25.4354 124.38 25.2236 124.647 25.2236C124.914 25.2236 125.133 25.4354 125.133 25.7099C125.133 25.9765 124.914 26.1961 124.647 26.1961ZM124.286 30.9409V27.1059H125.023V30.9409H124.286ZM126.831 30.9409H126.094V27.1059H126.76L126.839 27.6941C127.082 27.2549 127.568 26.9961 128.109 26.9961C129.121 26.9961 129.584 27.6156 129.584 28.596V30.9409H128.847V28.7607C128.847 27.9842 128.486 27.6705 127.921 27.6705C127.231 27.6705 126.831 28.1646 126.831 28.9097V30.9409ZM130.362 28.9254C130.362 27.8431 131.06 26.9961 132.173 26.9961C132.793 26.9961 133.271 27.2784 133.514 27.7568L133.569 27.1059H134.228V30.7841C134.228 31.9918 133.483 32.7604 132.307 32.7604C131.264 32.7604 130.55 32.1722 130.409 31.1997H131.146C131.24 31.7644 131.664 32.0938 132.307 32.0938C133.028 32.0938 133.499 31.6232 133.499 30.8939V30.1253C133.248 30.5723 132.746 30.839 132.142 30.839C131.052 30.839 130.362 29.9998 130.362 28.9254ZM131.099 28.9097C131.099 29.6312 131.546 30.1959 132.267 30.1959C133.012 30.1959 133.467 29.6626 133.467 28.9097C133.467 28.1725 133.028 27.6392 132.275 27.6392C131.538 27.6392 131.099 28.2038 131.099 28.9097ZM134.978 29.8273H135.684C135.684 30.2194 135.982 30.4547 136.468 30.4547C136.986 30.4547 137.284 30.2429 137.284 29.89C137.284 29.6312 137.159 29.4743 136.759 29.3724L136.084 29.2155C135.402 29.0508 135.08 28.7136 135.08 28.1489C135.08 27.4431 135.676 26.9961 136.523 26.9961C137.362 26.9961 137.911 27.4666 137.927 28.196H137.221C137.206 27.8117 136.947 27.5686 136.5 27.5686C136.037 27.5686 135.778 27.7725 135.778 28.1254C135.778 28.3842 135.966 28.5568 136.343 28.6509L137.017 28.8156C137.668 28.9724 137.99 29.2704 137.99 29.843C137.99 30.5723 137.362 31.035 136.453 31.035C135.551 31.035 134.978 30.5566 134.978 29.8273Z" fill="#1C2434"/>
<g clip-path="url(#clip1_581_2877)">
<path d="M60.436 39.4113V38.7129H61.0978C61.2448 38.7129 61.3796 38.5903 61.3796 38.431C61.3796 38.2717 61.2571 38.1492 61.0978 38.1492H59.2229C59.0758 38.1492 58.941 38.2717 58.941 38.431C58.941 38.5903 59.0636 38.7129 59.2229 38.7129H59.8846V39.4113C58.3038 39.5584 57.0662 40.8818 57.0662 42.4871C57.0662 44.1904 58.4509 45.5752 60.1542 45.5752C61.8575 45.5752 63.2422 44.1904 63.2422 42.4871C63.2422 40.8818 62.0046 39.5584 60.436 39.4113ZM60.1542 45.0237C58.7572 45.0237 57.6176 43.8841 57.6176 42.4871C57.6176 41.0902 58.7572 39.9505 60.1542 39.9505C61.5512 39.9505 62.6908 41.0902 62.6908 42.4871C62.6908 43.8841 61.5512 45.0237 60.1542 45.0237Z" fill="#64748B"/>
<path d="M61.7104 42.2054H60.436V40.931C60.436 40.784 60.3134 40.6492 60.1541 40.6492C60.0071 40.6492 59.8723 40.7717 59.8723 40.931V42.2177H59.5292C59.3821 42.2177 59.2473 42.3402 59.2473 42.4995C59.2473 42.6588 59.3699 42.7814 59.5292 42.7814H59.8723V43.1245C59.8723 43.2715 59.9948 43.4063 60.1541 43.4063C60.3012 43.4063 60.436 43.2838 60.436 43.1245V42.7814H61.7226C61.8697 42.7814 62.0045 42.6588 62.0045 42.4995C62.0045 42.3402 61.8697 42.2054 61.7104 42.2054Z" fill="#64748B"/>
</g>
<path d="M68.1165 40.1273H67.2225V39.6096H68.6694V43.8623H68.1165V40.1273ZM69.4474 41.7389C69.4474 40.4214 70.1297 39.5273 71.2002 39.5273C72.2648 39.5273 72.9471 40.4214 72.9471 41.7389C72.9471 43.0624 72.2942 43.9388 71.2002 43.9388C70.1003 43.9388 69.4474 43.0624 69.4474 41.7389ZM70.0179 41.7389C70.0179 42.7859 70.4532 43.4212 71.2002 43.4212C71.9472 43.4212 72.3766 42.7859 72.3766 41.7389C72.3766 40.6802 71.9472 40.0449 71.2002 40.0449C70.4532 40.0449 70.0179 40.6802 70.0179 41.7389ZM74.108 41.7272C73.8786 41.7272 73.6845 41.5389 73.6845 41.3213C73.6845 41.0919 73.8786 40.9037 74.108 40.9037C74.3315 40.9037 74.5256 41.0919 74.5256 41.3213C74.5256 41.5389 74.3315 41.7272 74.108 41.7272ZM74.108 43.9329C73.8786 43.9329 73.6845 43.7447 73.6845 43.5212C73.6845 43.2918 73.8786 43.1035 74.108 43.1035C74.3315 43.1035 74.5256 43.2918 74.5256 43.5212C74.5256 43.7447 74.3315 43.9329 74.108 43.9329ZM78.1189 43.8564L75.2485 43.8623V43.4212L76.619 42.2389C77.3072 41.6448 77.5013 41.3566 77.5013 40.9037C77.5013 40.3684 77.1954 40.0508 76.6837 40.0508C76.1602 40.0508 75.8191 40.4331 75.8073 41.039H75.2309C75.2485 40.1273 75.8249 39.5332 76.6896 39.5332C77.5425 39.5332 78.0895 40.0508 78.0895 40.8684C78.0895 41.4742 77.7895 41.9036 77.0366 42.5565L76.1543 43.3212H78.1189V43.8564ZM78.6494 41.7389C78.6494 40.4214 79.3317 39.5273 80.4023 39.5273C81.4669 39.5273 82.1492 40.4214 82.1492 41.7389C82.1492 43.0624 81.4963 43.9388 80.4023 43.9388C79.3023 43.9388 78.6494 43.0624 78.6494 41.7389ZM79.22 41.7389C79.22 42.7859 79.6552 43.4212 80.4023 43.4212C81.1493 43.4212 81.5787 42.7859 81.5787 41.7389C81.5787 40.6802 81.1493 40.0449 80.4023 40.0449C79.6552 40.0449 79.22 40.6802 79.22 41.7389ZM84.7184 43.8623H84.1185L85.6713 39.6096H86.3124L87.8712 43.8623H87.2653L86.883 42.8036H85.0949L84.7184 43.8623ZM85.9183 40.5272L85.2713 42.3036H86.7124L86.0595 40.5272C86.0301 40.4449 86.0007 40.3449 85.9889 40.2802C85.9772 40.339 85.9478 40.439 85.9183 40.5272ZM89.0011 43.8623H88.4365V39.6096H89.0011L90.4658 43.1859L91.9304 39.6096H92.5068V43.8623H91.9421V42.1801C91.9421 41.386 91.948 41.0978 91.9774 40.7978L90.7363 43.8623H90.1952L88.96 40.8096C88.9894 41.0154 89.0011 41.4507 89.0011 42.0448V43.8623ZM94.9819 42.5506V42.0565H96.7759V42.5506H94.9819ZM100.259 41.6624H99.8351V41.2801L101.041 40.1214H99.1292V39.6096H101.77V40.0743L100.606 41.186C101.329 41.2742 101.876 41.7624 101.876 42.5271C101.876 43.3859 101.229 43.9329 100.364 43.9329C99.5292 43.9329 98.9293 43.4212 98.9293 42.5389H99.4998C99.4998 43.0918 99.841 43.4153 100.376 43.4153C100.929 43.4153 101.288 43.0624 101.288 42.5153C101.288 42.0036 100.935 41.6624 100.259 41.6624ZM102.966 41.7272C102.737 41.7272 102.543 41.5389 102.543 41.3213C102.543 41.0919 102.737 40.9037 102.966 40.9037C103.19 40.9037 103.384 41.0919 103.384 41.3213C103.384 41.5389 103.19 41.7272 102.966 41.7272ZM102.966 43.9329C102.737 43.9329 102.543 43.7447 102.543 43.5212C102.543 43.2918 102.737 43.1035 102.966 43.1035C103.19 43.1035 103.384 43.2918 103.384 43.5212C103.384 43.7447 103.19 43.9329 102.966 43.9329ZM104.125 41.7389C104.125 40.4214 104.807 39.5273 105.877 39.5273C106.942 39.5273 107.624 40.4214 107.624 41.7389C107.624 43.0624 106.971 43.9388 105.877 43.9388C104.777 43.9388 104.125 43.0624 104.125 41.7389ZM104.695 41.7389C104.695 42.7859 105.13 43.4212 105.877 43.4212C106.624 43.4212 107.054 42.7859 107.054 41.7389C107.054 40.6802 106.624 40.0449 105.877 40.0449C105.13 40.0449 104.695 40.6802 104.695 41.7389ZM108.203 41.7389C108.203 40.4214 108.885 39.5273 109.956 39.5273C111.02 39.5273 111.703 40.4214 111.703 41.7389C111.703 43.0624 111.05 43.9388 109.956 43.9388C108.856 43.9388 108.203 43.0624 108.203 41.7389ZM108.773 41.7389C108.773 42.7859 109.209 43.4212 109.956 43.4212C110.703 43.4212 111.132 42.7859 111.132 41.7389C111.132 40.6802 110.703 40.0449 109.956 40.0449C109.209 40.0449 108.773 40.6802 108.773 41.7389ZM115.748 42.3448H114.672V43.8623H114.095V39.6096H115.748C116.583 39.6096 117.119 40.1567 117.119 40.9743C117.119 41.7683 116.578 42.3448 115.748 42.3448ZM115.648 40.1273H114.672V41.8271H115.625C116.195 41.8271 116.513 41.4919 116.513 40.9684C116.513 40.4331 116.189 40.1273 115.648 40.1273ZM118.336 43.8623H117.772V39.6096H118.336L119.801 43.1859L121.266 39.6096H121.842V43.8623H121.277V42.1801C121.277 41.386 121.283 41.0978 121.313 40.7978L120.071 43.8623H119.53L118.295 40.8096C118.325 41.0154 118.336 41.4507 118.336 42.0448V43.8623Z" fill="#64748B"/>
<g clip-path="url(#clip2_581_2877)">
<path d="M139.682 39.2399H139.045V38.9703C139.045 38.8233 138.922 38.6885 138.763 38.6885C138.604 38.6885 138.481 38.811 138.481 38.9703V39.2399H134.989V38.9703C134.989 38.8233 134.866 38.6885 134.707 38.6885C134.548 38.6885 134.425 38.811 134.425 38.9703V39.2399H133.8C133.383 39.2399 133.028 39.583 133.028 40.0119V44.2763C133.028 44.693 133.371 45.0484 133.8 45.0484H139.682C140.099 45.0484 140.454 44.7052 140.454 44.2763V39.9997C140.454 39.583 140.099 39.2399 139.682 39.2399ZM133.592 41.5192H134.633V42.7323H133.592V41.5192ZM135.185 41.5192H136.471V42.7323H135.185V41.5192ZM136.471 43.2838V44.4847H135.185V43.2838H136.471V43.2838ZM137.023 43.2838H138.31V44.4847H137.023V43.2838ZM137.023 42.7323V41.5192H138.31V42.7323H137.023ZM138.849 41.5192H139.89V42.7323H138.849V41.5192ZM133.8 39.7913H134.437V40.0487C134.437 40.1957 134.56 40.3305 134.719 40.3305C134.878 40.3305 135.001 40.208 135.001 40.0487V39.7913H138.506V40.0487C138.506 40.1957 138.628 40.3305 138.788 40.3305C138.947 40.3305 139.069 40.208 139.069 40.0487V39.7913H139.682C139.805 39.7913 139.903 39.8894 139.903 40.0119V40.9677H133.592V40.0119C133.592 39.8894 133.678 39.7913 133.8 39.7913ZM133.592 44.2641V43.2715H134.633V44.4724H133.8C133.678 44.4847 133.592 44.3866 133.592 44.2641ZM139.682 44.4847H138.849V43.2838H139.89V44.2763C139.903 44.3866 139.805 44.4847 139.682 44.4847Z" fill="#64748B"/>
</g>
<path d="M144.703 40.1273H143.809V39.6096H145.256V43.8623H144.703V40.1273ZM149.205 43.0035H148.699V43.8623H148.146V43.0035H145.946V42.4918L147.952 39.6096H148.699V42.4918H149.205V43.0035ZM146.57 42.4918H148.146V40.2214L146.57 42.4918ZM153.835 42.0565H152.164V43.8623H151.588V39.6096H154.152V40.139H152.164V41.533H153.835V42.0565ZM155.774 43.9329C154.927 43.9329 154.344 43.3212 154.344 42.4271C154.344 41.5272 154.915 40.9037 155.75 40.9037C156.568 40.9037 157.103 41.4683 157.103 42.3212V42.5271L154.879 42.533C154.921 43.1388 155.238 43.4741 155.785 43.4741C156.215 43.4741 156.497 43.2976 156.591 42.9682H157.109C156.968 43.5859 156.485 43.9329 155.774 43.9329ZM155.75 41.3684C155.268 41.3684 154.962 41.6566 154.891 42.1624H156.55C156.55 41.686 156.238 41.3684 155.75 41.3684ZM158.22 43.8623H157.72V39.5332H158.273V41.4801C158.462 41.1037 158.85 40.9037 159.32 40.9037C160.144 40.9037 160.638 41.5507 160.638 42.4389C160.638 43.3094 160.12 43.9329 159.285 43.9329C158.832 43.9329 158.45 43.7329 158.262 43.3388L158.22 43.8623ZM158.279 42.4153C158.279 43.0153 158.62 43.4329 159.185 43.4329C159.75 43.4329 160.085 43.0094 160.085 42.4153C160.085 41.8271 159.75 41.4036 159.185 41.4036C158.62 41.4036 158.279 41.8271 158.279 42.4153ZM162.894 40.9625V41.4683H162.647C162.124 41.4683 161.8 41.786 161.8 42.3389V43.8623H161.247V40.9919H161.765L161.8 41.4272C161.918 41.1272 162.206 40.9272 162.6 40.9272C162.7 40.9272 162.782 40.939 162.894 40.9625ZM165.401 40.986H165.948V43.8623H165.454L165.395 43.427C165.23 43.727 164.848 43.9329 164.425 43.9329C163.754 43.9329 163.378 43.48 163.378 42.7741V40.986H163.93V42.5918C163.93 43.2094 164.195 43.4447 164.619 43.4447C165.124 43.4447 165.401 43.1212 165.401 42.5036V40.986ZM167.591 43.9329C166.974 43.9329 166.609 43.5859 166.609 43.0624C166.609 42.533 167.003 42.2036 167.68 42.1507L168.585 42.0801V41.9977C168.585 41.5154 168.297 41.3448 167.909 41.3448C167.444 41.3448 167.18 41.5507 167.18 41.8977H166.697C166.697 41.2978 167.191 40.9037 167.932 40.9037C168.644 40.9037 169.126 41.2801 169.126 42.0565V43.8623H168.656L168.597 43.3976C168.45 43.727 168.056 43.9329 167.591 43.9329ZM167.75 43.5035C168.274 43.5035 168.591 43.1624 168.591 42.6212V42.4683L167.856 42.5271C167.368 42.5742 167.168 42.7624 167.168 43.0447C167.168 43.3506 167.391 43.5035 167.75 43.5035ZM171.539 40.9625V41.4683H171.292C170.769 41.4683 170.445 41.786 170.445 42.3389V43.8623H169.892V40.9919H170.41L170.445 41.4272C170.563 41.1272 170.851 40.9272 171.245 40.9272C171.345 40.9272 171.427 40.939 171.539 40.9625ZM171.867 45.1505V44.6975H172.238C172.503 44.6975 172.714 44.6564 172.85 44.2917L172.95 44.0152L171.791 40.986H172.373L173.209 43.3035L174.061 40.986H174.632L173.273 44.5093C173.079 45.0034 172.791 45.2093 172.35 45.2093C172.167 45.2093 172.014 45.1857 171.867 45.1505ZM175.414 43.6329C175.414 44.0564 175.097 44.4093 174.679 44.4623V44.2152C174.92 44.174 175.091 44.0152 175.091 43.8329C175.05 43.8564 175.003 43.8682 174.932 43.8682C174.738 43.8682 174.573 43.727 174.573 43.5094C174.573 43.2741 174.732 43.1035 174.967 43.1035C175.214 43.1035 175.414 43.3094 175.414 43.6329ZM178.952 43.8564L176.081 43.8623V43.4212L177.452 42.2389C178.14 41.6448 178.334 41.3566 178.334 40.9037C178.334 40.3684 178.028 40.0508 177.517 40.0508C176.993 40.0508 176.652 40.4331 176.64 41.039H176.064C176.081 40.1273 176.658 39.5332 177.522 39.5332C178.375 39.5332 178.922 40.0508 178.922 40.8684C178.922 41.4742 178.622 41.9036 177.869 42.5565L176.987 43.3212H178.952V43.8564ZM179.482 41.7389C179.482 40.4214 180.165 39.5273 181.235 39.5273C182.3 39.5273 182.982 40.4214 182.982 41.7389C182.982 43.0624 182.329 43.9388 181.235 43.9388C180.135 43.9388 179.482 43.0624 179.482 41.7389ZM180.053 41.7389C180.053 42.7859 180.488 43.4212 181.235 43.4212C181.982 43.4212 182.411 42.7859 182.411 41.7389C182.411 40.6802 181.982 40.0449 181.235 40.0449C180.488 40.0449 180.053 40.6802 180.053 41.7389ZM186.413 43.8564L183.543 43.8623V43.4212L184.913 42.2389C185.602 41.6448 185.796 41.3566 185.796 40.9037C185.796 40.3684 185.49 40.0508 184.978 40.0508C184.455 40.0508 184.113 40.4331 184.102 41.039H183.525C183.543 40.1273 184.119 39.5332 184.984 39.5332C185.837 39.5332 186.384 40.0508 186.384 40.8684C186.384 41.4742 186.084 41.9036 185.331 42.5565L184.449 43.3212H186.413V43.8564ZM188.333 43.9329C187.462 43.9329 186.898 43.38 186.898 42.533H187.468C187.468 43.08 187.804 43.4153 188.345 43.4153C188.921 43.4153 189.292 43.0329 189.292 42.4565C189.292 41.9095 188.945 41.5036 188.351 41.5036C187.992 41.5036 187.662 41.6742 187.468 41.9154L186.98 41.7919L187.498 39.6096H189.627V40.139H187.915L187.633 41.2684C187.856 41.0978 188.139 41.0096 188.456 41.0096C189.321 41.0096 189.88 41.6154 189.88 42.433C189.88 43.3153 189.251 43.9329 188.333 43.9329Z" fill="#64748B"/>
<circle cx="32.7049" cy="85.7049" r="14.4598" fill="#EFF4FB" stroke="#E2E8F0" stroke-width="0.490164"/>
<g clip-path="url(#clip3_581_2877)">
<path d="M32.7049 78.3833C36.7487 78.3833 40.0206 81.6551 40.0206 85.6929C40.0206 89.7306 36.7487 93.0086 32.7049 93.0086C28.661 93.0086 25.3892 89.7367 25.3892 85.699C25.3892 81.6613 28.661 78.3833 32.7049 78.3833Z" fill="#E74D89"/>
<path d="M32.7049 93.5292C28.3792 93.5292 24.8623 90.0184 24.8623 85.6988C24.8623 81.3731 28.3792 77.8623 32.7049 77.8623C37.0306 77.8623 40.5476 81.3731 40.5476 85.6927C40.5476 90.0122 37.0306 93.5292 32.7049 93.5292ZM39.316 86.7649C39.0893 86.6914 37.2451 86.1461 35.1435 86.4769C36.0197 88.8787 36.375 90.8394 36.4424 91.2438C37.9497 90.2328 39.0219 88.6275 39.316 86.7649ZM35.3212 91.8626C35.2231 91.2744 34.831 89.228 33.8936 86.7894C33.8813 86.7955 33.8629 86.8017 33.8507 86.8017C30.0703 88.119 28.7162 90.7352 28.5937 90.9803C29.7272 91.8626 31.1548 92.3895 32.7049 92.3895C33.6301 92.3957 34.5185 92.2057 35.3212 91.8626ZM27.7298 90.1777C27.8829 89.9203 29.7211 86.8813 33.1767 85.7601C33.2625 85.7294 33.3544 85.7049 33.4402 85.6804C33.2747 85.3005 33.0909 84.9207 32.8949 84.5469C29.5495 85.5456 26.3022 85.5027 26.0081 85.4966C26.0081 85.564 26.0019 85.6314 26.0019 85.6988C26.0081 87.4205 26.6575 88.989 27.7298 90.1777ZM26.149 84.3325C26.4492 84.3386 29.2064 84.3508 32.3434 83.5176C31.2344 81.5447 30.0335 79.8904 29.862 79.6514C27.981 80.5337 26.584 82.2615 26.149 84.3325ZM31.1364 79.198C31.3202 79.4431 32.5395 81.0974 33.6362 83.1132C36.0197 82.2186 37.0245 80.8707 37.147 80.6991C35.9645 79.6514 34.4082 79.0142 32.7049 79.0142C32.1657 79.0142 31.6388 79.0816 31.1364 79.198ZM37.8884 81.4711C37.7475 81.6611 36.6262 83.1009 34.1509 84.1119C34.3041 84.4305 34.4573 84.7552 34.5982 85.08C34.6472 85.1964 34.6962 85.3128 34.7452 85.4231C36.9755 85.1412 39.1873 85.5946 39.4079 85.6375C39.3895 84.0629 38.8258 82.6108 37.8884 81.4711Z" fill="#B2215A"/>
</g>
<path d="M60.4209 82.9333L56.5937 82.9412V82.353L58.421 80.7766C59.3386 79.9845 59.5974 79.6002 59.5974 78.9963C59.5974 78.2826 59.1896 77.8591 58.5073 77.8591C57.8093 77.8591 57.3544 78.3689 57.3387 79.1767H56.5701C56.5937 77.9611 57.3622 77.169 58.5151 77.169C59.6523 77.169 60.3817 77.8591 60.3817 78.9493C60.3817 79.7571 59.9817 80.3296 58.9778 81.2001L57.8014 82.2196H60.4209V82.9333ZM61.1282 80.11C61.1282 78.3532 62.038 77.1611 63.4653 77.1611C64.8849 77.1611 65.7946 78.3532 65.7946 80.11C65.7946 81.8746 64.9241 83.0431 63.4653 83.0431C61.9988 83.0431 61.1282 81.8746 61.1282 80.11ZM61.889 80.11C61.889 81.506 62.4693 82.353 63.4653 82.353C64.4614 82.353 65.0339 81.506 65.0339 80.11C65.0339 78.6983 64.4614 77.8513 63.4653 77.8513C62.4693 77.8513 61.889 78.6983 61.889 80.11ZM70.3697 82.9333L66.5425 82.9412V82.353L68.3698 80.7766C69.2874 79.9845 69.5462 79.6002 69.5462 78.9963C69.5462 78.2826 69.1384 77.8591 68.4561 77.8591C67.7581 77.8591 67.3032 78.3689 67.2875 79.1767H66.5189C66.5425 77.9611 67.311 77.169 68.4639 77.169C69.6011 77.169 70.3305 77.8591 70.3305 78.9493C70.3305 79.7571 69.9305 80.3296 68.9266 81.2001L67.7502 82.2196H70.3697V82.9333ZM72.9292 83.0353C71.7685 83.0353 71.0156 82.2981 71.0156 81.1687H71.7763C71.7763 81.8981 72.2233 82.3451 72.9449 82.3451C73.7134 82.3451 74.2075 81.8354 74.2075 81.0668C74.2075 80.3374 73.7448 79.7963 72.9527 79.7963C72.4743 79.7963 72.0351 80.0237 71.7763 80.3453L71.1254 80.1806L71.8155 77.2709H74.6546V77.9768H72.3724L71.9959 79.4826C72.2939 79.2551 72.6704 79.1375 73.0939 79.1375C74.2467 79.1375 74.9918 79.9453 74.9918 81.0354C74.9918 82.2118 74.1526 83.0353 72.9292 83.0353ZM79.9503 82.9412H78.076V77.2709H79.919C81.613 77.2709 82.758 78.416 82.758 80.11C82.758 81.7961 81.6287 82.9412 79.9503 82.9412ZM79.8641 77.9768H78.8445V82.2275H79.8954C81.1581 82.2275 81.9581 81.4119 81.9581 80.11C81.9581 78.7924 81.1581 77.9768 79.8641 77.9768ZM85.8063 79.0747V79.7492H85.4769C84.7789 79.7492 84.3475 80.1727 84.3475 80.9099V82.9412H83.6103V79.114H84.3005L84.3475 79.6943C84.5044 79.2943 84.8887 79.0277 85.4141 79.0277C85.5475 79.0277 85.6573 79.0434 85.8063 79.0747ZM86.8585 78.1964C86.5918 78.1964 86.3722 77.9768 86.3722 77.7101C86.3722 77.4356 86.5918 77.2239 86.8585 77.2239C87.1251 77.2239 87.3447 77.4356 87.3447 77.7101C87.3447 77.9768 87.1251 78.1964 86.8585 78.1964ZM86.4977 82.9412V79.1061H87.2349V82.9412H86.4977ZM88.9718 82.9412H88.3052V77.169H89.0424V79.7649C89.2934 79.263 89.811 78.9963 90.4384 78.9963C91.5364 78.9963 92.1951 79.859 92.1951 81.0432C92.1951 82.204 91.505 83.0353 90.3913 83.0353C89.7874 83.0353 89.2777 82.7686 89.0267 82.2432L88.9718 82.9412ZM89.0502 81.0119C89.0502 81.8118 89.5051 82.3687 90.258 82.3687C91.0109 82.3687 91.4579 81.804 91.4579 81.0119C91.4579 80.2276 91.0109 79.6629 90.258 79.6629C89.5051 79.6629 89.0502 80.2276 89.0502 81.0119ZM93.6743 82.9412H93.0077V77.169H93.7449V79.7649C93.9959 79.263 94.5135 78.9963 95.1409 78.9963C96.2389 78.9963 96.8976 79.859 96.8976 81.0432C96.8976 82.204 96.2075 83.0353 95.0938 83.0353C94.49 83.0353 93.9802 82.7686 93.7292 82.2432L93.6743 82.9412ZM93.7528 81.0119C93.7528 81.8118 94.2076 82.3687 94.9605 82.3687C95.7134 82.3687 96.1604 81.804 96.1604 81.0119C96.1604 80.2276 95.7134 79.6629 94.9605 79.6629C94.2076 79.6629 93.7528 80.2276 93.7528 81.0119ZM98.3768 82.9412H97.7102V77.169H98.4474V79.7649C98.6984 79.263 99.216 78.9963 99.8434 78.9963C100.941 78.9963 101.6 79.859 101.6 81.0432C101.6 82.204 100.91 83.0353 99.7964 83.0353C99.1925 83.0353 98.6827 82.7686 98.4317 82.2432L98.3768 82.9412ZM98.4553 81.0119C98.4553 81.8118 98.9101 82.3687 99.663 82.3687C100.416 82.3687 100.863 81.804 100.863 81.0119C100.863 80.2276 100.416 79.6629 99.663 79.6629C98.9101 79.6629 98.4553 80.2276 98.4553 81.0119ZM103.166 82.9412H102.428V77.169H103.166V82.9412ZM105.906 83.0353C104.776 83.0353 104 82.2196 104 81.0276C104 79.8276 104.761 78.9963 105.874 78.9963C106.964 78.9963 107.678 79.7492 107.678 80.8864V81.1609L104.714 81.1687C104.768 81.9765 105.192 82.4235 105.921 82.4235C106.494 82.4235 106.87 82.1883 106.996 81.7491H107.686C107.498 82.5726 106.855 83.0353 105.906 83.0353ZM105.874 79.6159C105.231 79.6159 104.823 80.0002 104.729 80.6746H106.941C106.941 80.0394 106.525 79.6159 105.874 79.6159ZM111.524 82.9412H110.771V77.2709H111.524L113.477 82.0393L115.43 77.2709H116.199V82.9412H115.446V80.6982C115.446 79.6394 115.453 79.2551 115.493 78.8552L113.838 82.9412H113.116L111.469 78.8708C111.509 79.1453 111.524 79.7257 111.524 80.5178V82.9412ZM119.048 83.0353C117.919 83.0353 117.142 82.2196 117.142 81.0276C117.142 79.8276 117.903 78.9963 119.017 78.9963C120.107 78.9963 120.821 79.7492 120.821 80.8864V81.1609L117.856 81.1687C117.911 81.9765 118.334 82.4235 119.064 82.4235C119.636 82.4235 120.013 82.1883 120.138 81.7491H120.828C120.64 82.5726 119.997 83.0353 119.048 83.0353ZM119.017 79.6159C118.374 79.6159 117.966 80.0002 117.872 80.6746H120.083C120.083 80.0394 119.668 79.6159 119.017 79.6159ZM123.299 83.0353C122.169 83.0353 121.393 82.2196 121.393 81.0276C121.393 79.8276 122.154 78.9963 123.267 78.9963C124.358 78.9963 125.071 79.7492 125.071 80.8864V81.1609L122.107 81.1687C122.162 81.9765 122.585 82.4235 123.314 82.4235C123.887 82.4235 124.263 82.1883 124.389 81.7491H125.079C124.891 82.5726 124.248 83.0353 123.299 83.0353ZM123.267 79.6159C122.624 79.6159 122.217 80.0002 122.122 80.6746H124.334C124.334 80.0394 123.918 79.6159 123.267 79.6159ZM126.939 82.9412H126.201V79.7257H125.449V79.1061H126.201V77.9062H126.939V79.1061H127.692V79.7257H126.939V82.9412ZM130.584 80.9256V77.2709H131.352V80.8786C131.352 81.7883 131.854 82.2902 132.756 82.2902C133.65 82.2902 134.144 81.7805 134.144 80.8786V77.2709H134.921V80.9256C134.921 82.2275 134.09 83.0353 132.756 83.0353C131.415 83.0353 130.584 82.2353 130.584 80.9256ZM136.073 84.6587V79.1061H136.74L136.795 79.7963C137.054 79.2708 137.571 78.9963 138.183 78.9963C139.281 78.9963 139.963 79.8198 139.963 80.9962C139.963 82.1647 139.32 83.0431 138.183 83.0431C137.571 83.0431 137.061 82.7843 136.81 82.3138V84.6587H136.073ZM136.818 81.0276C136.818 81.8118 137.273 82.3765 138.026 82.3765C138.779 82.3765 139.226 81.8118 139.226 81.0276C139.226 80.2355 138.779 79.6708 138.026 79.6708C137.273 79.6708 136.818 80.2276 136.818 81.0276Z" fill="#1C2434"/>
<g clip-path="url(#clip4_581_2877)">
<path d="M60.436 91.4116V90.7131H61.0978C61.2448 90.7131 61.3796 90.5906 61.3796 90.4313C61.3796 90.272 61.2571 90.1494 61.0978 90.1494H59.2229C59.0758 90.1494 58.941 90.272 58.941 90.4313C58.941 90.5906 59.0636 90.7131 59.2229 90.7131H59.8846V91.4116C58.3038 91.5586 57.0662 92.8821 57.0662 94.4874C57.0662 96.1907 58.4509 97.5754 60.1542 97.5754C61.8575 97.5754 63.2422 96.1907 63.2422 94.4874C63.2422 92.8821 62.0046 91.5586 60.436 91.4116ZM60.1542 97.024C58.7572 97.024 57.6176 95.8843 57.6176 94.4874C57.6176 93.0904 58.7572 91.9508 60.1542 91.9508C61.5512 91.9508 62.6908 93.0904 62.6908 94.4874C62.6908 95.8843 61.5512 97.024 60.1542 97.024Z" fill="#64748B"/>
<path d="M61.7104 94.2057H60.436V92.9313C60.436 92.7842 60.3134 92.6494 60.1541 92.6494C60.0071 92.6494 59.8723 92.772 59.8723 92.9313V94.2179H59.5292C59.3821 94.2179 59.2473 94.3405 59.2473 94.4998C59.2473 94.6591 59.3699 94.7816 59.5292 94.7816H59.8723V95.1247C59.8723 95.2718 59.9948 95.4066 60.1541 95.4066C60.3012 95.4066 60.436 95.284 60.436 95.1247V94.7816H61.7226C61.8697 94.7816 62.0045 94.6591 62.0045 94.4998C62.0045 94.3405 61.8697 94.2057 61.7104 94.2057Z" fill="#64748B"/>
</g>
<path d="M67.3048 93.7392C67.3048 92.4216 67.9871 91.5275 69.0576 91.5275C70.1223 91.5275 70.8046 92.4216 70.8046 93.7392C70.8046 95.0626 70.1517 95.939 69.0576 95.939C67.9577 95.939 67.3048 95.0626 67.3048 93.7392ZM67.8754 93.7392C67.8754 94.7861 68.3106 95.4214 69.0576 95.4214C69.8047 95.4214 70.234 94.7861 70.234 93.7392C70.234 92.6804 69.8047 92.0452 69.0576 92.0452C68.3106 92.0452 67.8754 92.6804 67.8754 93.7392ZM73.8594 94.5156L72.8654 95.8625H72.1948L73.2595 94.4509C73.1124 94.5097 72.9595 94.5391 72.8125 94.5391C71.9302 94.5391 71.3361 93.9039 71.3361 93.0569C71.3361 92.1746 72.0066 91.5334 72.883 91.5334C73.7653 91.5334 74.4476 92.1981 74.4476 93.0627C74.4476 93.5627 74.2947 93.9215 73.8594 94.5156ZM73.8594 93.0569C73.8594 92.4745 73.4595 92.051 72.883 92.051C72.3184 92.051 71.9184 92.4745 71.9184 93.0569C71.9184 93.6392 72.3184 94.0509 72.883 94.0509C73.4595 94.0509 73.8594 93.6392 73.8594 93.0569ZM75.5613 93.7274C75.3319 93.7274 75.1378 93.5392 75.1378 93.3215C75.1378 93.0921 75.3319 92.9039 75.5613 92.9039C75.7848 92.9039 75.9789 93.0921 75.9789 93.3215C75.9789 93.5392 75.7848 93.7274 75.5613 93.7274ZM75.5613 95.9331C75.3319 95.9331 75.1378 95.7449 75.1378 95.5214C75.1378 95.292 75.3319 95.1038 75.5613 95.1038C75.7848 95.1038 75.9789 95.292 75.9789 95.5214C75.9789 95.7449 75.7848 95.9331 75.5613 95.9331ZM77.937 93.6627H77.5135V93.2804L78.7193 92.1216H76.8076V91.6099H79.4486V92.0746L78.284 93.1863C79.0075 93.2745 79.5545 93.7627 79.5545 94.5273C79.5545 95.3861 78.9075 95.9331 78.0429 95.9331C77.2076 95.9331 76.6077 95.4214 76.6077 94.5391H77.1782C77.1782 95.092 77.5194 95.4155 78.0546 95.4155C78.6075 95.4155 78.9663 95.0626 78.9663 94.5156C78.9663 94.0038 78.6134 93.6627 77.937 93.6627ZM80.0625 93.7392C80.0625 92.4216 80.7448 91.5275 81.8153 91.5275C82.8799 91.5275 83.5623 92.4216 83.5623 93.7392C83.5623 95.0626 82.9094 95.939 81.8153 95.939C80.7154 95.939 80.0625 95.0626 80.0625 93.7392ZM80.633 93.7392C80.633 94.7861 81.0683 95.4214 81.8153 95.4214C82.5623 95.4214 82.9917 94.7861 82.9917 93.7392C82.9917 92.6804 82.5623 92.0452 81.8153 92.0452C81.0683 92.0452 80.633 92.6804 80.633 93.7392ZM86.1315 95.8625H85.5315L87.0844 91.6099H87.7255L89.2842 95.8625H88.6784L88.296 94.8038H86.5079L86.1315 95.8625ZM87.3314 92.5275L86.6844 94.3038H88.1255L87.4726 92.5275C87.4432 92.4451 87.4137 92.3451 87.402 92.2804C87.3902 92.3393 87.3608 92.4392 87.3314 92.5275ZM90.4142 95.8625H89.8495V91.6099H90.4142L91.8788 95.1861L93.3434 91.6099H93.9198V95.8625H93.3552V94.1803C93.3552 93.3862 93.3611 93.098 93.3905 92.798L92.1494 95.8625H91.6082L90.373 92.8098C90.4024 93.0157 90.4142 93.4509 90.4142 94.045V95.8625ZM96.3949 94.5509V94.0568H98.1889V94.5509H96.3949ZM101.266 92.1275H100.372V91.6099H101.819V95.8625H101.266V92.1275ZM105.449 95.8567L102.579 95.8625V95.4214L103.949 94.2391C104.638 93.645 104.832 93.3568 104.832 92.9039C104.832 92.3687 104.526 92.051 104.014 92.051C103.491 92.051 103.15 92.4334 103.138 93.0392H102.561C102.579 92.1275 103.155 91.5334 104.02 91.5334C104.873 91.5334 105.42 92.051 105.42 92.8686C105.42 93.4745 105.12 93.9039 104.367 94.5568L103.485 95.3214H105.449V95.8567ZM106.562 93.7274C106.333 93.7274 106.139 93.5392 106.139 93.3215C106.139 93.0921 106.333 92.9039 106.562 92.9039C106.786 92.9039 106.98 93.0921 106.98 93.3215C106.98 93.5392 106.786 93.7274 106.562 93.7274ZM106.562 95.9331C106.333 95.9331 106.139 95.7449 106.139 95.5214C106.139 95.292 106.333 95.1038 106.562 95.1038C106.786 95.1038 106.98 95.292 106.98 95.5214C106.98 95.7449 106.786 95.9331 106.562 95.9331ZM107.72 93.7392C107.72 92.4216 108.403 91.5275 109.473 91.5275C110.538 91.5275 111.22 92.4216 111.22 93.7392C111.22 95.0626 110.567 95.939 109.473 95.939C108.373 95.939 107.72 95.0626 107.72 93.7392ZM108.291 93.7392C108.291 94.7861 108.726 95.4214 109.473 95.4214C110.22 95.4214 110.65 94.7861 110.65 93.7392C110.65 92.6804 110.22 92.0452 109.473 92.0452C108.726 92.0452 108.291 92.6804 108.291 93.7392ZM111.799 93.7392C111.799 92.4216 112.481 91.5275 113.552 91.5275C114.616 91.5275 115.298 92.4216 115.298 93.7392C115.298 95.0626 114.646 95.939 113.552 95.939C112.452 95.939 111.799 95.0626 111.799 93.7392ZM112.369 93.7392C112.369 94.7861 112.805 95.4214 113.552 95.4214C114.299 95.4214 114.728 94.7861 114.728 93.7392C114.728 92.6804 114.299 92.0452 113.552 92.0452C112.805 92.0452 112.369 92.6804 112.369 93.7392ZM117.868 95.8625H117.268L118.821 91.6099H119.462L121.02 95.8625H120.415L120.032 94.8038H118.244L117.868 95.8625ZM119.068 92.5275L118.421 94.3038H119.862L119.209 92.5275C119.179 92.4451 119.15 92.3451 119.138 92.2804C119.126 92.3393 119.097 92.4392 119.068 92.5275ZM122.15 95.8625H121.586V91.6099H122.15L123.615 95.1861L125.08 91.6099H125.656V95.8625H125.091V94.1803C125.091 93.3862 125.097 93.098 125.127 92.798L123.886 95.8625H123.344L122.109 92.8098C122.139 93.0157 122.15 93.4509 122.15 94.045V95.8625Z" fill="#64748B"/>
<g clip-path="url(#clip5_581_2877)">
<path d="M143.682 91.2402H143.045V90.9706C143.045 90.8235 142.922 90.6887 142.763 90.6887C142.604 90.6887 142.481 90.8113 142.481 90.9706V91.2402H138.989V90.9706C138.989 90.8235 138.866 90.6887 138.707 90.6887C138.548 90.6887 138.425 90.8113 138.425 90.9706V91.2402H137.8C137.383 91.2402 137.028 91.5833 137.028 92.0122V96.2766C137.028 96.6932 137.371 97.0486 137.8 97.0486H143.682C144.099 97.0486 144.454 96.7055 144.454 96.2766V91.9999C144.454 91.5833 144.099 91.2402 143.682 91.2402ZM137.592 93.5194H138.633V94.7326H137.592V93.5194ZM139.185 93.5194H140.471V94.7326H139.185V93.5194ZM140.471 95.284V96.4849H139.185V95.284H140.471V95.284ZM141.023 95.284H142.31V96.4849H141.023V95.284ZM141.023 94.7326V93.5194H142.31V94.7326H141.023ZM142.849 93.5194H143.89V94.7326H142.849V93.5194ZM137.8 91.7916H138.437V92.0489C138.437 92.196 138.56 92.3308 138.719 92.3308C138.878 92.3308 139.001 92.2082 139.001 92.0489V91.7916H142.506V92.0489C142.506 92.196 142.628 92.3308 142.788 92.3308C142.947 92.3308 143.069 92.2082 143.069 92.0489V91.7916H143.682C143.805 91.7916 143.903 91.8896 143.903 92.0122V92.968H137.592V92.0122C137.592 91.8896 137.678 91.7916 137.8 91.7916ZM137.592 96.2643V95.2718H138.633V96.4727H137.8C137.678 96.4849 137.592 96.3869 137.592 96.2643ZM143.682 96.4849H142.849V95.284H143.89V96.2766C143.903 96.3869 143.805 96.4849 143.682 96.4849Z" fill="#64748B"/>
</g>
<path d="M148.703 92.1275H147.809V91.6099H149.256V95.8625H148.703V92.1275ZM152.887 95.8567L150.017 95.8625V95.4214L151.387 94.2391C152.075 93.645 152.269 93.3568 152.269 92.9039C152.269 92.3687 151.964 92.051 151.452 92.051C150.928 92.051 150.587 92.4334 150.575 93.0392H149.999C150.017 92.1275 150.593 91.5334 151.458 91.5334C152.311 91.5334 152.858 92.051 152.858 92.8686C152.858 93.4745 152.558 93.9039 151.805 94.5568L150.922 95.3214H152.887V95.8567ZM157.479 94.0568H155.808V95.8625H155.232V91.6099H157.796V92.1393H155.808V93.5333H157.479V94.0568ZM159.417 95.9331C158.57 95.9331 157.988 95.3214 157.988 94.4273C157.988 93.5274 158.559 92.9039 159.394 92.9039C160.211 92.9039 160.747 93.4686 160.747 94.3215V94.5273L158.523 94.5332C158.565 95.1391 158.882 95.4743 159.429 95.4743C159.859 95.4743 160.141 95.2979 160.235 94.9685H160.753C160.611 95.5861 160.129 95.9331 159.417 95.9331ZM159.394 93.3686C158.912 93.3686 158.606 93.6568 158.535 94.1627H160.194C160.194 93.6862 159.882 93.3686 159.394 93.3686ZM161.864 95.8625H161.364V91.5334H161.917V93.4804C162.105 93.1039 162.494 92.9039 162.964 92.9039C163.788 92.9039 164.282 93.5509 164.282 94.4391C164.282 95.3096 163.764 95.9331 162.929 95.9331C162.476 95.9331 162.094 95.7331 161.905 95.3391L161.864 95.8625ZM161.923 94.4156C161.923 95.0155 162.264 95.4332 162.829 95.4332C163.394 95.4332 163.729 95.0097 163.729 94.4156C163.729 93.8274 163.394 93.4039 162.829 93.4039C162.264 93.4039 161.923 93.8274 161.923 94.4156ZM166.538 92.9627V93.4686H166.291C165.768 93.4686 165.444 93.7862 165.444 94.3391V95.8625H164.891V92.9921H165.409L165.444 93.4274C165.562 93.1274 165.85 92.9274 166.244 92.9274C166.344 92.9274 166.426 92.9392 166.538 92.9627ZM169.045 92.9863H169.592V95.8625H169.098L169.039 95.4273C168.874 95.7273 168.492 95.9331 168.068 95.9331C167.398 95.9331 167.021 95.4802 167.021 94.7744V92.9863H167.574V94.592C167.574 95.2097 167.839 95.4449 168.263 95.4449C168.768 95.4449 169.045 95.1214 169.045 94.5038V92.9863ZM171.235 95.9331C170.618 95.9331 170.253 95.5861 170.253 95.0626C170.253 94.5332 170.647 94.2038 171.323 94.1509L172.229 94.0803V93.998C172.229 93.5156 171.941 93.3451 171.553 93.3451C171.088 93.3451 170.823 93.5509 170.823 93.898H170.341C170.341 93.298 170.835 92.9039 171.576 92.9039C172.288 92.9039 172.77 93.2804 172.77 94.0568V95.8625H172.3L172.241 95.3979C172.094 95.7273 171.7 95.9331 171.235 95.9331ZM171.394 95.5037C171.917 95.5037 172.235 95.1626 172.235 94.6215V94.4685L171.5 94.5273C171.012 94.5744 170.812 94.7626 170.812 95.045C170.812 95.3508 171.035 95.5037 171.394 95.5037ZM175.183 92.9627V93.4686H174.936C174.412 93.4686 174.089 93.7862 174.089 94.3391V95.8625H173.536V92.9921H174.054L174.089 93.4274C174.207 93.1274 174.495 92.9274 174.889 92.9274C174.989 92.9274 175.071 92.9392 175.183 92.9627ZM175.511 97.1507V96.6978H175.882C176.147 96.6978 176.358 96.6566 176.494 96.2919L176.594 96.0155L175.435 92.9863H176.017L176.852 95.3038L177.705 92.9863H178.276L176.917 96.5096C176.723 97.0037 176.435 97.2095 175.994 97.2095C175.811 97.2095 175.658 97.186 175.511 97.1507ZM179.058 95.6332C179.058 96.0567 178.741 96.4096 178.323 96.4625V96.2155C178.564 96.1743 178.735 96.0155 178.735 95.8331C178.694 95.8567 178.647 95.8684 178.576 95.8684C178.382 95.8684 178.217 95.7273 178.217 95.5096C178.217 95.2744 178.376 95.1038 178.611 95.1038C178.858 95.1038 179.058 95.3096 179.058 95.6332ZM182.596 95.8567L179.725 95.8625V95.4214L181.096 94.2391C181.784 93.645 181.978 93.3568 181.978 92.9039C181.978 92.3687 181.672 92.051 181.16 92.051C180.637 92.051 180.296 92.4334 180.284 93.0392H179.708C179.725 92.1275 180.302 91.5334 181.166 91.5334C182.019 91.5334 182.566 92.051 182.566 92.8686C182.566 93.4745 182.266 93.9039 181.513 94.5568L180.631 95.3214H182.596V95.8567ZM183.126 93.7392C183.126 92.4216 183.808 91.5275 184.879 91.5275C185.944 91.5275 186.626 92.4216 186.626 93.7392C186.626 95.0626 185.973 95.939 184.879 95.939C183.779 95.939 183.126 95.0626 183.126 93.7392ZM183.697 93.7392C183.697 94.7861 184.132 95.4214 184.879 95.4214C185.626 95.4214 186.055 94.7861 186.055 93.7392C186.055 92.6804 185.626 92.0452 184.879 92.0452C184.132 92.0452 183.697 92.6804 183.697 93.7392ZM190.057 95.8567L187.187 95.8625V95.4214L188.557 94.2391C189.245 93.645 189.44 93.3568 189.44 92.9039C189.44 92.3687 189.134 92.051 188.622 92.051C188.098 92.051 187.757 92.4334 187.746 93.0392H187.169C187.187 92.1275 187.763 91.5334 188.628 91.5334C189.481 91.5334 190.028 92.051 190.028 92.8686C190.028 93.4745 189.728 93.9039 188.975 94.5568L188.093 95.3214H190.057V95.8567ZM191.977 95.9331C191.106 95.9331 190.542 95.3802 190.542 94.5332H191.112C191.112 95.0802 191.447 95.4155 191.989 95.4155C192.565 95.4155 192.936 95.0332 192.936 94.4568C192.936 93.9097 192.589 93.5039 191.994 93.5039C191.636 93.5039 191.306 93.6745 191.112 93.9156L190.624 93.7921L191.142 91.6099H193.271V92.1393H191.559L191.277 93.2686C191.5 93.098 191.783 93.0098 192.1 93.0098C192.965 93.0098 193.524 93.6156 193.524 94.4332C193.524 95.3155 192.894 95.9331 191.977 95.9331Z" fill="#64748B"/>
<circle cx="32.7049" cy="136.705" r="14.4598" fill="#EFF4FB" stroke="#E2E8F0" stroke-width="0.490164"/>
<g clip-path="url(#clip6_581_2877)">
<path d="M37.5762 131.007H27.8525C27.393 131.007 27.0254 131.374 27.0254 131.834V141.576C27.0254 142.017 27.393 142.403 27.8525 142.403H37.5394C37.9989 142.403 38.3666 142.036 38.3666 141.576V131.816C38.4033 131.374 38.0357 131.007 37.5762 131.007ZM30.3891 140.694H28.7165V135.271H30.3891V140.694ZM29.5436 134.518C28.9922 134.518 28.5694 134.076 28.5694 133.543C28.5694 133.01 29.0106 132.569 29.5436 132.569C30.0767 132.569 30.5178 133.01 30.5178 133.543C30.5178 134.076 30.1134 134.518 29.5436 134.518ZM36.7306 140.694H35.058V138.065C35.058 137.44 35.0396 136.613 34.1757 136.613C33.2934 136.613 33.1647 137.312 33.1647 138.01V140.694H31.492V135.271H33.1279V136.025H33.1463C33.3853 135.584 33.9183 135.143 34.7455 135.143C36.4549 135.143 36.7674 136.245 36.7674 137.753V140.694H36.7306Z" fill="#0B65C2"/>
</g>
<path d="M60.4209 133.933L56.5937 133.941V133.353L58.421 131.776C59.3386 130.984 59.5974 130.6 59.5974 129.996C59.5974 129.282 59.1896 128.859 58.5073 128.859C57.8093 128.859 57.3544 129.369 57.3387 130.176H56.5701C56.5937 128.961 57.3622 128.169 58.5151 128.169C59.6523 128.169 60.3817 128.859 60.3817 129.949C60.3817 130.757 59.9817 131.329 58.9778 132.2L57.8014 133.219H60.4209V133.933ZM61.1282 131.11C61.1282 129.353 62.038 128.161 63.4653 128.161C64.8849 128.161 65.7946 129.353 65.7946 131.11C65.7946 132.874 64.9241 134.043 63.4653 134.043C61.9988 134.043 61.1282 132.874 61.1282 131.11ZM61.889 131.11C61.889 132.506 62.4693 133.353 63.4653 133.353C64.4614 133.353 65.0339 132.506 65.0339 131.11C65.0339 129.698 64.4614 128.851 63.4653 128.851C62.4693 128.851 61.889 129.698 61.889 131.11ZM70.3697 133.933L66.5425 133.941V133.353L68.3698 131.776C69.2874 130.984 69.5462 130.6 69.5462 129.996C69.5462 129.282 69.1384 128.859 68.4561 128.859C67.7581 128.859 67.3032 129.369 67.2875 130.176H66.5189C66.5425 128.961 67.311 128.169 68.4639 128.169C69.6011 128.169 70.3305 128.859 70.3305 129.949C70.3305 130.757 69.9305 131.329 68.9266 132.2L67.7502 133.219H70.3697V133.933ZM72.9292 134.035C71.7685 134.035 71.0156 133.298 71.0156 132.168H71.7763C71.7763 132.898 72.2233 133.345 72.9449 133.345C73.7134 133.345 74.2075 132.835 74.2075 132.067C74.2075 131.337 73.7448 130.796 72.9527 130.796C72.4743 130.796 72.0351 131.023 71.7763 131.345L71.1254 131.18L71.8155 128.271H74.6546V128.977H72.3724L71.9959 130.482C72.2939 130.255 72.6704 130.137 73.0939 130.137C74.2467 130.137 74.9918 130.945 74.9918 132.035C74.9918 133.212 74.1526 134.035 72.9292 134.035ZM78.8445 128.271V133.227H81.3385V133.941H78.076V128.271H78.8445ZM82.4087 129.196C82.1421 129.196 81.9225 128.977 81.9225 128.71C81.9225 128.435 82.1421 128.224 82.4087 128.224C82.6754 128.224 82.8949 128.435 82.8949 128.71C82.8949 128.977 82.6754 129.196 82.4087 129.196ZM82.0479 133.941V130.106H82.7852V133.941H82.0479ZM84.5926 133.941H83.8554V130.106H84.522L84.6005 130.694C84.8436 130.255 85.3298 129.996 85.871 129.996C86.8827 129.996 87.3454 130.616 87.3454 131.596V133.941H86.6082V131.761C86.6082 130.984 86.2474 130.671 85.6828 130.671C84.9926 130.671 84.5926 131.165 84.5926 131.91V133.941ZM89.1194 133.941H88.3821V128.169H89.1194V131.91L90.8212 130.106H91.7466L90.2801 131.635L91.7388 133.941H90.8918L89.7703 132.168L89.1194 132.851V133.941ZM93.8583 134.035C92.729 134.035 91.9526 133.219 91.9526 132.027C91.9526 130.827 92.7133 129.996 93.827 129.996C94.9171 129.996 95.6308 130.749 95.6308 131.886V132.161L92.6662 132.168C92.7211 132.976 93.1446 133.423 93.874 133.423C94.4465 133.423 94.823 133.188 94.9484 132.749H95.6386C95.4504 133.572 94.8073 134.035 93.8583 134.035ZM93.827 130.616C93.1839 130.616 92.776 131 92.6819 131.674H94.8935C94.8935 131.039 94.4779 130.616 93.827 130.616ZM97.9913 134.035C96.8777 134.035 96.2032 133.204 96.2032 132.035C96.2032 130.859 96.8855 129.996 98.0227 129.996C98.6109 129.996 99.105 130.255 99.3638 130.725V128.169H100.093V133.941H99.4344L99.3716 133.243C99.1207 133.768 98.603 134.035 97.9913 134.035ZM98.1403 133.368C98.8932 133.368 99.3559 132.812 99.3559 132.012C99.3559 131.227 98.8932 130.663 98.1403 130.663C97.3874 130.663 96.9483 131.227 96.9483 132.012C96.9483 132.804 97.3874 133.368 98.1403 133.368ZM101.517 129.196C101.251 129.196 101.031 128.977 101.031 128.71C101.031 128.435 101.251 128.224 101.517 128.224C101.784 128.224 102.004 128.435 102.004 128.71C102.004 128.977 101.784 129.196 101.517 129.196ZM101.157 133.941V130.106H101.894V133.941H101.157ZM103.701 133.941H102.964V130.106H103.631L103.709 130.694C103.952 130.255 104.439 129.996 104.98 129.996C105.991 129.996 106.454 130.616 106.454 131.596V133.941H105.717V131.761C105.717 130.984 105.356 130.671 104.791 130.671C104.101 130.671 103.701 131.165 103.701 131.91V133.941ZM110.498 133.941H109.745V128.271H110.498L112.451 133.039L114.404 128.271H115.172V133.941H114.419V131.698C114.419 130.639 114.427 130.255 114.466 129.855L112.812 133.941H112.09L110.443 129.871C110.482 130.145 110.498 130.725 110.498 131.518V133.941ZM118.022 134.035C116.893 134.035 116.116 133.219 116.116 132.027C116.116 130.827 116.877 129.996 117.99 129.996C119.081 129.996 119.794 130.749 119.794 131.886V132.161L116.83 132.168C116.885 132.976 117.308 133.423 118.038 133.423C118.61 133.423 118.987 133.188 119.112 132.749H119.802C119.614 133.572 118.971 134.035 118.022 134.035ZM117.99 130.616C117.347 130.616 116.94 131 116.845 131.674H119.057C119.057 131.039 118.641 130.616 117.99 130.616ZM122.273 134.035C121.143 134.035 120.367 133.219 120.367 132.027C120.367 130.827 121.127 129.996 122.241 129.996C123.331 129.996 124.045 130.749 124.045 131.886V132.161L121.08 132.168C121.135 132.976 121.559 133.423 122.288 133.423C122.861 133.423 123.237 133.188 123.363 132.749H124.053C123.865 133.572 123.221 134.035 122.273 134.035ZM122.241 130.616C121.598 130.616 121.19 131 121.096 131.674H123.308C123.308 131.039 122.892 130.616 122.241 130.616ZM125.912 133.941H125.175V130.725H124.422V130.106H125.175V128.906H125.912V130.106H126.665V130.725H125.912V133.941ZM129.558 131.925V128.271H130.326V131.878C130.326 132.788 130.828 133.29 131.73 133.29C132.624 133.29 133.118 132.78 133.118 131.878V128.271H133.895V131.925C133.895 133.227 133.063 134.035 131.73 134.035C130.389 134.035 129.558 133.235 129.558 131.925ZM135.047 135.658V130.106H135.714L135.768 130.796C136.027 130.271 136.545 129.996 137.157 129.996C138.255 129.996 138.937 130.82 138.937 131.996C138.937 133.164 138.294 134.043 137.157 134.043C136.545 134.043 136.035 133.784 135.784 133.314V135.658H135.047ZM135.792 132.027C135.792 132.812 136.247 133.376 137 133.376C137.753 133.376 138.2 132.812 138.2 132.027C138.2 131.235 137.753 130.671 137 130.671C136.247 130.671 135.792 131.227 135.792 132.027Z" fill="#1C2434"/>
<g clip-path="url(#clip7_581_2877)">
<path d="M60.436 142.411V141.713H61.0978C61.2448 141.713 61.3796 141.59 61.3796 141.431C61.3796 141.272 61.2571 141.149 61.0978 141.149H59.2229C59.0758 141.149 58.941 141.272 58.941 141.431C58.941 141.59 59.0636 141.713 59.2229 141.713H59.8846V142.411C58.3038 142.558 57.0662 143.882 57.0662 145.487C57.0662 147.19 58.4509 148.575 60.1542 148.575C61.8575 148.575 63.2422 147.19 63.2422 145.487C63.2422 143.882 62.0046 142.558 60.436 142.411ZM60.1542 148.024C58.7572 148.024 57.6176 146.884 57.6176 145.487C57.6176 144.09 58.7572 142.951 60.1542 142.951C61.5512 142.951 62.6908 144.09 62.6908 145.487C62.6908 146.884 61.5512 148.024 60.1542 148.024Z" fill="#64748B"/>
<path d="M61.7104 145.205H60.436V143.931C60.436 143.784 60.3134 143.649 60.1541 143.649C60.0071 143.649 59.8723 143.772 59.8723 143.931V145.218H59.5292C59.3821 145.218 59.2473 145.34 59.2473 145.5C59.2473 145.659 59.3699 145.781 59.5292 145.781H59.8723V146.124C59.8723 146.272 59.9948 146.406 60.1541 146.406C60.3012 146.406 60.436 146.284 60.436 146.124V145.781H61.7226C61.8697 145.781 62.0045 145.659 62.0045 145.5C62.0045 145.34 61.8697 145.205 61.7104 145.205Z" fill="#64748B"/>
</g>
<path d="M68.1165 143.127H67.2225V142.61H68.6694V146.862H68.1165V143.127ZM69.4474 144.739C69.4474 143.421 70.1297 142.527 71.2002 142.527C72.2648 142.527 72.9471 143.421 72.9471 144.739C72.9471 146.062 72.2942 146.939 71.2002 146.939C70.1003 146.939 69.4474 146.062 69.4474 144.739ZM70.0179 144.739C70.0179 145.786 70.4532 146.421 71.2002 146.421C71.9472 146.421 72.3766 145.786 72.3766 144.739C72.3766 143.68 71.9472 143.045 71.2002 143.045C70.4532 143.045 70.0179 143.68 70.0179 144.739ZM74.108 144.727C73.8786 144.727 73.6845 144.539 73.6845 144.321C73.6845 144.092 73.8786 143.904 74.108 143.904C74.3315 143.904 74.5256 144.092 74.5256 144.321C74.5256 144.539 74.3315 144.727 74.108 144.727ZM74.108 146.933C73.8786 146.933 73.6845 146.745 73.6845 146.521C73.6845 146.292 73.8786 146.104 74.108 146.104C74.3315 146.104 74.5256 146.292 74.5256 146.521C74.5256 146.745 74.3315 146.933 74.108 146.933ZM76.4837 144.662H76.0602V144.28L77.266 143.121H75.3544V142.61H77.9954V143.074L76.8308 144.186C77.5542 144.274 78.1013 144.762 78.1013 145.527C78.1013 146.386 77.4542 146.933 76.5896 146.933C75.7544 146.933 75.1544 146.421 75.1544 145.539H75.7249C75.7249 146.092 76.0661 146.415 76.6014 146.415C77.1543 146.415 77.5131 146.062 77.5131 145.515C77.5131 145.004 77.1601 144.662 76.4837 144.662ZM78.6092 144.739C78.6092 143.421 79.2915 142.527 80.362 142.527C81.4267 142.527 82.109 143.421 82.109 144.739C82.109 146.062 81.4561 146.939 80.362 146.939C79.2621 146.939 78.6092 146.062 78.6092 144.739ZM79.1798 144.739C79.1798 145.786 79.615 146.421 80.362 146.421C81.1091 146.421 81.5384 145.786 81.5384 144.739C81.5384 143.68 81.1091 143.045 80.362 143.045C79.615 143.045 79.1798 143.68 79.1798 144.739ZM84.6782 146.862H84.0783L85.6311 142.61H86.2722L87.831 146.862H87.2251L86.8428 145.804H85.0547L84.6782 146.862ZM85.8781 143.527L85.2311 145.304H86.6722L86.0193 143.527C85.9899 143.445 85.9605 143.345 85.9487 143.28C85.937 143.339 85.9076 143.439 85.8781 143.527ZM88.9609 146.862H88.3963V142.61H88.9609L90.4255 146.186L91.8902 142.61H92.4666V146.862H91.9019V145.18C91.9019 144.386 91.9078 144.098 91.9372 143.798L90.6961 146.862H90.155L88.9198 143.81C88.9492 144.015 88.9609 144.451 88.9609 145.045V146.862ZM94.9417 145.551V145.057H96.7357V145.551H94.9417ZM99.8125 143.127H98.9185V142.61H100.365V146.862H99.8125V143.127ZM101.903 143.127H101.009V142.61H102.456V146.862H101.903V143.127ZM103.817 144.727C103.587 144.727 103.393 144.539 103.393 144.321C103.393 144.092 103.587 143.904 103.817 143.904C104.04 143.904 104.234 144.092 104.234 144.321C104.234 144.539 104.04 144.727 103.817 144.727ZM103.817 146.933C103.587 146.933 103.393 146.745 103.393 146.521C103.393 146.292 103.587 146.104 103.817 146.104C104.04 146.104 104.234 146.292 104.234 146.521C104.234 146.745 104.04 146.933 103.817 146.933ZM104.975 144.739C104.975 143.421 105.657 142.527 106.728 142.527C107.792 142.527 108.474 143.421 108.474 144.739C108.474 146.062 107.822 146.939 106.728 146.939C105.628 146.939 104.975 146.062 104.975 144.739ZM105.545 144.739C105.545 145.786 105.98 146.421 106.728 146.421C107.475 146.421 107.904 145.786 107.904 144.739C107.904 143.68 107.475 143.045 106.728 143.045C105.98 143.045 105.545 143.68 105.545 144.739ZM109.053 144.739C109.053 143.421 109.735 142.527 110.806 142.527C111.87 142.527 112.553 143.421 112.553 144.739C112.553 146.062 111.9 146.939 110.806 146.939C109.706 146.939 109.053 146.062 109.053 144.739ZM109.624 144.739C109.624 145.786 110.059 146.421 110.806 146.421C111.553 146.421 111.982 145.786 111.982 144.739C111.982 143.68 111.553 143.045 110.806 143.045C110.059 143.045 109.624 143.68 109.624 144.739ZM116.598 145.345H115.522V146.862H114.946V142.61H116.598C117.434 142.61 117.969 143.157 117.969 143.974C117.969 144.768 117.428 145.345 116.598 145.345ZM116.498 143.127H115.522V144.827H116.475C117.045 144.827 117.363 144.492 117.363 143.968C117.363 143.433 117.04 143.127 116.498 143.127ZM119.186 146.862H118.622V142.61H119.186L120.651 146.186L122.116 142.61H122.692V146.862H122.127V145.18C122.127 144.386 122.133 144.098 122.163 143.798L120.922 146.862H120.38L119.145 143.81C119.175 144.015 119.186 144.451 119.186 145.045V146.862Z" fill="#64748B"/>
<g clip-path="url(#clip8_581_2877)">
<path d="M140.682 142.24H140.045V141.97C140.045 141.823 139.922 141.688 139.763 141.688C139.604 141.688 139.481 141.811 139.481 141.97V142.24H135.989V141.97C135.989 141.823 135.866 141.688 135.707 141.688C135.548 141.688 135.425 141.811 135.425 141.97V142.24H134.8C134.383 142.24 134.028 142.583 134.028 143.012V147.276C134.028 147.693 134.371 148.048 134.8 148.048H140.682C141.099 148.048 141.454 147.705 141.454 147.276V143C141.454 142.583 141.099 142.24 140.682 142.24ZM134.592 144.519H135.633V145.732H134.592V144.519ZM136.185 144.519H137.471V145.732H136.185V144.519ZM137.471 146.284V147.485H136.185V146.284H137.471V146.284ZM138.023 146.284H139.31V147.485H138.023V146.284ZM138.023 145.732V144.519H139.31V145.732H138.023ZM139.849 144.519H140.89V145.732H139.849V144.519ZM134.8 142.791H135.437V143.049C135.437 143.196 135.56 143.331 135.719 143.331C135.878 143.331 136.001 143.208 136.001 143.049V142.791H139.506V143.049C139.506 143.196 139.628 143.331 139.788 143.331C139.947 143.331 140.069 143.208 140.069 143.049V142.791H140.682C140.805 142.791 140.903 142.889 140.903 143.012V143.968H134.592V143.012C134.592 142.889 134.678 142.791 134.8 142.791ZM134.592 147.264V146.272H135.633V147.472H134.8C134.678 147.485 134.592 147.387 134.592 147.264ZM140.682 147.485H139.849V146.284H140.89V147.276C140.903 147.387 140.805 147.485 140.682 147.485Z" fill="#64748B"/>
</g>
<path d="M144.892 144.739C144.892 143.421 145.574 142.527 146.645 142.527C147.709 142.527 148.392 143.421 148.392 144.739C148.392 146.062 147.739 146.939 146.645 146.939C145.545 146.939 144.892 146.062 144.892 144.739ZM145.462 144.739C145.462 145.786 145.898 146.421 146.645 146.421C147.392 146.421 147.821 145.786 147.821 144.739C147.821 143.68 147.392 143.045 146.645 143.045C145.898 143.045 145.462 143.68 145.462 144.739ZM150.399 146.933C149.529 146.933 148.964 146.38 148.964 145.533H149.535C149.535 146.08 149.87 146.415 150.411 146.415C150.988 146.415 151.358 146.033 151.358 145.457C151.358 144.909 151.011 144.504 150.417 144.504C150.058 144.504 149.729 144.674 149.535 144.915L149.047 144.792L149.564 142.61H151.693V143.139H149.982L149.699 144.268C149.923 144.098 150.205 144.01 150.523 144.01C151.388 144.01 151.946 144.615 151.946 145.433C151.946 146.315 151.317 146.933 150.399 146.933ZM156.506 145.057H154.836V146.862H154.259V142.61H156.824V143.139H154.836V144.533H156.506V145.057ZM158.445 146.933C157.598 146.933 157.016 146.321 157.016 145.427C157.016 144.527 157.586 143.904 158.422 143.904C159.239 143.904 159.774 144.468 159.774 145.321V145.527L157.551 145.533C157.592 146.139 157.91 146.474 158.457 146.474C158.886 146.474 159.169 146.298 159.263 145.968H159.78C159.639 146.586 159.157 146.933 158.445 146.933ZM158.422 144.368C157.939 144.368 157.633 144.657 157.563 145.162H159.221C159.221 144.686 158.91 144.368 158.422 144.368ZM160.892 146.862H160.392V142.533H160.945V144.48C161.133 144.104 161.521 143.904 161.992 143.904C162.815 143.904 163.309 144.551 163.309 145.439C163.309 146.309 162.792 146.933 161.957 146.933C161.504 146.933 161.121 146.733 160.933 146.339L160.892 146.862ZM160.951 145.415C160.951 146.015 161.292 146.433 161.857 146.433C162.421 146.433 162.757 146.009 162.757 145.415C162.757 144.827 162.421 144.404 161.857 144.404C161.292 144.404 160.951 144.827 160.951 145.415ZM165.566 143.962V144.468H165.319C164.795 144.468 164.472 144.786 164.472 145.339V146.862H163.919V143.992H164.436L164.472 144.427C164.589 144.127 164.878 143.927 165.272 143.927C165.372 143.927 165.454 143.939 165.566 143.962ZM168.072 143.986H168.619V146.862H168.125L168.067 146.427C167.902 146.727 167.52 146.933 167.096 146.933C166.426 146.933 166.049 146.48 166.049 145.774V143.986H166.602V145.592C166.602 146.209 166.867 146.445 167.29 146.445C167.796 146.445 168.072 146.121 168.072 145.504V143.986ZM170.263 146.933C169.645 146.933 169.281 146.586 169.281 146.062C169.281 145.533 169.675 145.204 170.351 145.151L171.257 145.08V144.998C171.257 144.515 170.969 144.345 170.58 144.345C170.116 144.345 169.851 144.551 169.851 144.898H169.369C169.369 144.298 169.863 143.904 170.604 143.904C171.316 143.904 171.798 144.28 171.798 145.057V146.862H171.327L171.269 146.398C171.122 146.727 170.727 146.933 170.263 146.933ZM170.422 146.504C170.945 146.504 171.263 146.162 171.263 145.621V145.468L170.528 145.527C170.039 145.574 169.839 145.762 169.839 146.045C169.839 146.351 170.063 146.504 170.422 146.504ZM174.211 143.962V144.468H173.964C173.44 144.468 173.117 144.786 173.117 145.339V146.862H172.564V143.992H173.081L173.117 144.427C173.234 144.127 173.522 143.927 173.917 143.927C174.017 143.927 174.099 143.939 174.211 143.962ZM174.539 148.15V147.698H174.91C175.174 147.698 175.386 147.656 175.521 147.292L175.621 147.015L174.462 143.986H175.045L175.88 146.304L176.733 143.986H177.303L175.945 147.509C175.751 148.003 175.462 148.209 175.021 148.209C174.839 148.209 174.686 148.186 174.539 148.15ZM178.086 146.633C178.086 147.056 177.768 147.409 177.351 147.462V147.215C177.592 147.174 177.763 147.015 177.763 146.833C177.721 146.856 177.674 146.868 177.604 146.868C177.41 146.868 177.245 146.727 177.245 146.509C177.245 146.274 177.404 146.104 177.639 146.104C177.886 146.104 178.086 146.309 178.086 146.633ZM181.623 146.856L178.753 146.862V146.421L180.123 145.239C180.812 144.645 181.006 144.357 181.006 143.904C181.006 143.368 180.7 143.051 180.188 143.051C179.665 143.051 179.323 143.433 179.312 144.039H178.735C178.753 143.127 179.329 142.533 180.194 142.533C181.047 142.533 181.594 143.051 181.594 143.868C181.594 144.474 181.294 144.904 180.541 145.557L179.659 146.321H181.623V146.856ZM182.154 144.739C182.154 143.421 182.836 142.527 183.907 142.527C184.971 142.527 185.654 143.421 185.654 144.739C185.654 146.062 185.001 146.939 183.907 146.939C182.807 146.939 182.154 146.062 182.154 144.739ZM182.724 144.739C182.724 145.786 183.16 146.421 183.907 146.421C184.654 146.421 185.083 145.786 185.083 144.739C185.083 143.68 184.654 143.045 183.907 143.045C183.16 143.045 182.724 143.68 182.724 144.739ZM189.085 146.856L186.214 146.862V146.421L187.585 145.239C188.273 144.645 188.467 144.357 188.467 143.904C188.467 143.368 188.161 143.051 187.65 143.051C187.126 143.051 186.785 143.433 186.773 144.039H186.197C186.214 143.127 186.791 142.533 187.656 142.533C188.508 142.533 189.055 143.051 189.055 143.868C189.055 144.474 188.755 144.904 188.003 145.557L187.12 146.321H189.085V146.856ZM191.004 146.933C190.134 146.933 189.569 146.38 189.569 145.533H190.14C190.14 146.08 190.475 146.415 191.016 146.415C191.593 146.415 191.963 146.033 191.963 145.457C191.963 144.909 191.616 144.504 191.022 144.504C190.663 144.504 190.334 144.674 190.14 144.915L189.652 144.792L190.169 142.61H192.299V143.139H190.587L190.305 144.268C190.528 144.098 190.81 144.01 191.128 144.01C191.993 144.01 192.551 144.615 192.551 145.433C192.551 146.315 191.922 146.933 191.004 146.933Z" fill="#64748B"/>
<defs>
<linearGradient id="paint0_linear_581_2877" x1="33.649" y1="37.5768" x2="27.9504" y2="27.855" gradientUnits="userSpaceOnUse">
<stop stop-color="#2535C5"/>
<stop offset="0.169697" stop-color="#36409B"/>
<stop offset="0.575758" stop-color="#475BC6"/>
<stop offset="1" stop-color="#7075E4"/>
</linearGradient>
<linearGradient id="paint1_linear_581_2877" x1="37.7464" y1="28.8032" x2="37.7464" y2="38.4196" gradientUnits="userSpaceOnUse">
<stop stop-color="#375AD8"/>
<stop offset="0.472727" stop-color="#3C56DD"/>
<stop offset="1" stop-color="#2A1A8F"/>
</linearGradient>
<linearGradient id="paint2_linear_581_2877" x1="32.1141" y1="28.8032" x2="32.1141" y2="38.5156" gradientUnits="userSpaceOnUse">
<stop stop-color="#233593"/>
<stop offset="0.472727" stop-color="#4957D7"/>
<stop offset="0.890909" stop-color="#5465FF"/>
<stop offset="1" stop-color="#6A67FF"/>
</linearGradient>
<clipPath id="clip0_581_2877">
<rect width="12.6311" height="9.80328" fill="white" transform="translate(26.3328 28.8032)"/>
</clipPath>
<clipPath id="clip1_581_2877">
<rect width="7.84262" height="7.84262" fill="white" transform="translate(56.2329 37.9409)"/>
</clipPath>
<clipPath id="clip2_581_2877">
<rect width="7.84262" height="7.84262" fill="white" transform="translate(132.82 37.9409)"/>
</clipPath>
<clipPath id="clip3_581_2877">
<rect width="15.6852" height="15.6852" fill="white" transform="translate(24.8623 77.8623)"/>
</clipPath>
<clipPath id="clip4_581_2877">
<rect width="7.84262" height="7.84262" fill="white" transform="translate(56.2329 89.9412)"/>
</clipPath>
<clipPath id="clip5_581_2877">
<rect width="7.84262" height="7.84262" fill="white" transform="translate(136.82 89.9412)"/>
</clipPath>
<clipPath id="clip6_581_2877">
<rect width="11.7639" height="11.7639" fill="white" transform="translate(26.823 130.823)"/>
</clipPath>
<clipPath id="clip7_581_2877">
<rect width="7.84262" height="7.84262" fill="white" transform="translate(56.2329 140.941)"/>
</clipPath>
<clipPath id="clip8_581_2877">
<rect width="7.84262" height="7.84262" fill="white" transform="translate(133.82 140.941)"/>
</clipPath>
</defs>
</svg>
