<svg width="233" height="172" viewBox="0 0 233 172" fill="none" xmlns="http://www.w3.org/2000/svg">
<rect width="233" height="171.177" rx="15" fill="white"/>
<line x1="20.8147" y1="123.49" x2="219.641" y2="123.49" stroke="#E2E8F0" stroke-width="0.310667"/>
<line x1="20.8147" y1="107.025" x2="219.641" y2="107.025" stroke="#F2F6FA" stroke-width="0.310667"/>
<line x1="20.8147" y1="90.5595" x2="219.641" y2="90.5595" stroke="#F2F6FA" stroke-width="0.310667"/>
<line x1="20.8147" y1="73.7834" x2="219.641" y2="73.7834" stroke="#F2F6FA" stroke-width="0.310667"/>
<line x1="20.8147" y1="57.3181" x2="219.641" y2="57.3181" stroke="#F2F6FA" stroke-width="0.310667"/>
<line x1="20.8147" y1="40.8527" x2="219.641" y2="40.8527" stroke="#F2F6FA" stroke-width="0.310667"/>
<path d="M11.8489 14.5977H10.7485V16.3201H9.87368V11.3239H11.8489C12.8536 11.3239 13.5029 11.9801 13.5029 12.9574C13.5029 13.9211 12.8468 14.5977 11.8489 14.5977ZM11.678 12.1031H10.7485V13.8186H11.6644C12.2658 13.8186 12.587 13.4974 12.587 12.9506C12.587 12.4038 12.259 12.1031 11.678 12.1031ZM14.987 16.4089C14.2693 16.4089 13.8319 15.992 13.8319 15.3564C13.8319 14.7344 14.283 14.3448 15.0827 14.2833L16.0942 14.2082V14.133C16.0942 13.6751 15.8208 13.4905 15.397 13.4905C14.905 13.4905 14.6316 13.6956 14.6316 14.051H13.9208C13.9208 13.3196 14.5222 12.8412 15.4381 12.8412C16.3471 12.8412 16.9075 13.3333 16.9075 14.2697V16.3201H16.1762L16.1147 15.8211C15.9712 16.1697 15.5132 16.4089 14.987 16.4089ZM15.2604 15.7801C15.773 15.7801 16.101 15.4726 16.101 14.9531V14.7754L15.397 14.8301C14.8776 14.878 14.6794 15.0488 14.6794 15.3222C14.6794 15.6298 14.8844 15.7801 15.2604 15.7801ZM17.3393 17.8852V17.1881H17.8383C18.1663 17.1881 18.3714 17.1129 18.5149 16.7165L18.6106 16.4636L17.2505 12.9437H18.1321L19.0001 15.4042L19.916 12.9437H20.7772L19.1232 17.0719C18.8703 17.7007 18.5149 17.9604 17.9613 17.9604C17.7289 17.9604 17.5239 17.933 17.3393 17.8852ZM22.0846 16.3201H21.2508V12.9437H22.0163L22.0846 13.3402C22.2555 13.0599 22.5972 12.8412 23.0825 12.8412C23.5951 12.8412 23.9505 13.0941 24.1282 13.4837C24.299 13.0941 24.6955 12.8412 25.2081 12.8412C26.0282 12.8412 26.4793 13.3333 26.4793 14.1125V16.3201H25.6523V14.3312C25.6523 13.8459 25.3926 13.593 24.9962 13.593C24.5929 13.593 24.2854 13.8528 24.2854 14.4064V16.3201H23.4515V14.3243C23.4515 13.8528 23.1987 13.5999 22.8022 13.5999C22.4058 13.5999 22.0846 13.8596 22.0846 14.4064V16.3201ZM28.8083 16.4089C27.8036 16.4089 27.0997 15.6776 27.0997 14.6319C27.0997 13.5725 27.79 12.8412 28.781 12.8412C29.7925 12.8412 30.435 13.5179 30.435 14.5704V14.8233L27.8925 14.8301C27.954 15.4247 28.2684 15.7255 28.822 15.7255C29.2799 15.7255 29.5806 15.5478 29.6763 15.2265H30.4486C30.3051 15.9647 29.69 16.4089 28.8083 16.4089ZM28.7878 13.5247C28.2957 13.5247 27.995 13.7912 27.913 14.297H29.608C29.608 13.8322 29.2867 13.5247 28.7878 13.5247ZM31.9361 16.3201H31.1023V12.9437H31.8746L31.943 13.3812C32.1548 13.0394 32.5649 12.8412 33.0229 12.8412C33.8704 12.8412 34.3078 13.3675 34.3078 14.2423V16.3201H33.4739V14.4405C33.4739 13.8733 33.1937 13.5999 32.7631 13.5999C32.2505 13.5999 31.9361 13.9553 31.9361 14.502V16.3201ZM36.2752 16.3201H35.4414V13.6409H34.7921V12.9437H35.4414V11.8912H36.2752V12.9437H36.9314V13.6409H36.2752V16.3201ZM37.19 15.2949H37.9828C37.9897 15.5888 38.2084 15.7733 38.5911 15.7733C38.9807 15.7733 39.1926 15.6161 39.1926 15.37C39.1926 15.1992 39.1037 15.0762 38.803 15.0078L38.1947 14.8643C37.5864 14.7276 37.2925 14.4405 37.2925 13.9006C37.2925 13.2376 37.853 12.8412 38.6321 12.8412C39.3908 12.8412 39.9034 13.2786 39.9102 13.9348H39.1174C39.1106 13.6477 38.9192 13.4632 38.598 13.4632C38.2699 13.4632 38.0785 13.6135 38.0785 13.8664C38.0785 14.0578 38.2289 14.1808 38.5159 14.2492L39.1242 14.3927C39.6915 14.5226 39.9786 14.7823 39.9786 15.3017C39.9786 15.9852 39.3976 16.4089 38.5638 16.4089C37.7231 16.4089 37.19 15.9578 37.19 15.2949ZM47.1373 13.8186C47.1373 15.3359 46.1395 16.4021 44.7042 16.4021C43.2758 16.4021 42.2916 15.3427 42.2916 13.8186C42.2916 12.3013 43.2826 11.2351 44.711 11.2351C46.1395 11.2351 47.1373 12.2944 47.1373 13.8186ZM46.2147 13.8186C46.2147 12.7524 45.6269 12.0757 44.711 12.0757C43.7952 12.0757 43.2074 12.7524 43.2074 13.8186C43.2074 14.8848 43.7952 15.5614 44.711 15.5614C45.6269 15.5614 46.2147 14.8711 46.2147 13.8186ZM48.7854 16.3201L47.4458 12.9437H48.3343L48.9221 14.4952C49.0656 14.8985 49.1818 15.247 49.2228 15.4316C49.2707 15.2197 49.3937 14.8643 49.5372 14.4952L50.1523 12.9437H51.0135L49.6056 16.3201H48.7854ZM52.8364 16.4089C51.8317 16.4089 51.1278 15.6776 51.1278 14.6319C51.1278 13.5725 51.8181 12.8412 52.8091 12.8412C53.8206 12.8412 54.4631 13.5179 54.4631 14.5704V14.8233L51.9206 14.8301C51.9821 15.4247 52.2965 15.7255 52.8501 15.7255C53.308 15.7255 53.6088 15.5478 53.7044 15.2265H54.4768C54.3332 15.9647 53.7181 16.4089 52.8364 16.4089ZM52.8159 13.5247C52.3238 13.5247 52.0231 13.7912 51.9411 14.297H53.6361C53.6361 13.8322 53.3149 13.5247 52.8159 13.5247ZM57.2492 12.9301V13.7024H56.9416C56.3402 13.7024 55.9643 14.0236 55.9643 14.6797V16.3201H55.1304V12.9506H55.9164L55.9643 13.4427C56.1078 13.1078 56.429 12.8822 56.8801 12.8822C56.9963 12.8822 57.1125 12.8959 57.2492 12.9301ZM58.8705 16.3201L57.531 12.9437H58.4195L59.0072 14.4952C59.1508 14.8985 59.267 15.247 59.308 15.4316C59.3558 15.2197 59.4788 14.8643 59.6224 14.4952L60.2375 12.9437H61.0986L59.6907 16.3201H58.8705ZM61.9949 12.2671C61.7078 12.2671 61.4823 12.0416 61.4823 11.7613C61.4823 11.4811 61.7078 11.2624 61.9949 11.2624C62.2683 11.2624 62.4938 11.4811 62.4938 11.7613C62.4938 12.0416 62.2683 12.2671 61.9949 12.2671ZM61.578 16.3201V12.9437H62.4118V16.3201H61.578ZM64.7838 16.4089C63.7791 16.4089 63.0751 15.6776 63.0751 14.6319C63.0751 13.5725 63.7654 12.8412 64.7564 12.8412C65.7679 12.8412 66.4104 13.5179 66.4104 14.5704V14.8233L63.8679 14.8301C63.9294 15.4247 64.2438 15.7255 64.7974 15.7255C65.2553 15.7255 65.5561 15.5478 65.6518 15.2265H66.4241C66.2805 15.9647 65.6654 16.4089 64.7838 16.4089ZM64.7633 13.5247C64.2712 13.5247 63.9704 13.7912 63.8884 14.297H65.5834C65.5834 13.8322 65.2622 13.5247 64.7633 13.5247ZM67.6759 16.3201L66.5823 12.9437H67.4503L67.8946 14.3927C67.9698 14.6592 68.0381 14.9531 68.0996 15.2675C68.1612 14.9395 68.2227 14.7276 68.332 14.3927L68.7968 12.9437H69.6443L70.0954 14.3927C70.1364 14.5294 70.2731 15.0352 70.3141 15.2607C70.3687 15.0078 70.4781 14.6046 70.5396 14.3927L70.9907 12.9437H71.8724L70.7036 16.3201H69.9245L69.4597 14.8574C69.323 14.4132 69.2479 14.092 69.2205 13.9211C69.1864 14.0783 69.1248 14.3175 68.954 14.8711L68.4892 16.3201H67.6759Z" fill="#212B36"/>
<path d="M169.211 12.6956C169.211 12.0792 169.709 11.6617 170.449 11.6617C171.135 11.6617 171.577 12.0444 171.617 12.6657H171.125C171.1 12.3078 170.847 12.0991 170.444 12.0991C169.992 12.0991 169.699 12.3277 169.699 12.6806C169.699 12.9689 169.863 13.1429 170.201 13.2224L170.792 13.3616C171.379 13.4958 171.677 13.814 171.677 14.321C171.677 14.9672 171.175 15.3797 170.409 15.3797C169.679 15.3797 169.192 14.997 169.162 14.3806H169.659C169.669 14.7236 169.957 14.9423 170.409 14.9423C170.887 14.9423 171.19 14.7186 171.19 14.3607C171.19 14.0774 171.036 13.8985 170.693 13.8189L170.101 13.6847C169.515 13.5505 169.211 13.2125 169.211 12.6956ZM172.776 15.3201H172.289V11.7263H172.776V13.2722H174.556V11.7263H175.043V15.3201H174.556V13.7245H172.776V15.3201ZM179.117 13.5207C179.117 14.6142 178.401 15.3797 177.382 15.3797C176.368 15.3797 175.663 14.6142 175.663 13.5207C175.663 12.4321 176.373 11.6617 177.387 11.6617C178.406 11.6617 179.117 12.4271 179.117 13.5207ZM178.605 13.5207C178.605 12.6856 178.118 12.1339 177.387 12.1339C176.657 12.1339 176.175 12.6856 176.175 13.5207C176.175 14.3558 176.657 14.9125 177.387 14.9125C178.118 14.9125 178.605 14.3508 178.605 13.5207ZM180.227 15.3201H179.74V11.7263H181.097C181.868 11.7263 182.325 12.1339 182.325 12.8049C182.325 13.302 182.076 13.6599 181.629 13.804L182.36 15.3201H181.818L181.147 13.8985H180.227V15.3201ZM180.227 12.1637V13.466H181.102C181.554 13.466 181.813 13.2224 181.813 12.8099C181.813 12.3923 181.545 12.1637 181.097 12.1637H180.227ZM182.596 12.1736V11.7263H185.245V12.1736H184.167V15.3201H183.68V12.1736H182.596ZM187.094 15.3201V11.7263H188.466C189.167 11.7263 189.594 12.0842 189.594 12.6757C189.594 13.0882 189.416 13.3666 189.058 13.5157C189.455 13.645 189.659 13.9333 189.659 14.3607C189.659 14.9572 189.227 15.3201 188.516 15.3201H187.094ZM188.436 12.1587H187.581V13.3119H188.466C188.869 13.3119 189.097 13.0932 189.097 12.7204C189.097 12.3625 188.859 12.1587 188.436 12.1587ZM188.506 13.7344H187.581V14.8876H188.506C188.923 14.8876 189.157 14.6739 189.157 14.3011C189.157 13.9432 188.918 13.7344 188.506 13.7344ZM190.997 13.8587L189.78 11.7263H190.326L191.127 13.1628C191.176 13.2473 191.206 13.3169 191.246 13.4014C191.291 13.3119 191.301 13.2821 191.365 13.1628L192.161 11.7263H192.692L191.485 13.8587V15.3201H190.997V13.8587ZM193.135 13.5157C192.942 13.5157 192.778 13.3567 192.778 13.1727C192.778 12.9789 192.942 12.8198 193.135 12.8198C193.324 12.8198 193.488 12.9789 193.488 13.1727C193.488 13.3567 193.324 13.5157 193.135 13.5157ZM193.135 15.3797C192.942 15.3797 192.778 15.2207 192.778 15.0318C192.778 14.8379 192.942 14.6789 193.135 14.6789C193.324 14.6789 193.488 14.8379 193.488 15.0318C193.488 15.2207 193.324 15.3797 193.135 15.3797Z" fill="#1C2434"/>
<path d="M198.004 15.3201H197.527V11.7263H198.004L199.242 14.7484L200.479 11.7263H200.967V15.3201H200.489V13.8985C200.489 13.2274 200.494 12.9839 200.519 12.7304L199.47 15.3201H199.013L197.969 12.7403C197.994 12.9143 198.004 13.2821 198.004 13.7841V15.3201ZM201.565 14.1023C201.565 13.3517 202.102 12.8248 202.832 12.8248C203.558 12.8248 204.095 13.3517 204.095 14.1023C204.095 14.8528 203.558 15.3797 202.832 15.3797C202.102 15.3797 201.565 14.8528 201.565 14.1023ZM202.037 14.1023C202.037 14.6093 202.36 14.9622 202.832 14.9622C203.3 14.9622 203.628 14.6093 203.628 14.1023C203.628 13.5952 203.3 13.2423 202.832 13.2423C202.36 13.2423 202.037 13.5952 202.037 14.1023ZM205.079 15.3201H204.612V12.8894H205.035L205.084 13.2622C205.238 12.9839 205.547 12.8198 205.89 12.8198C206.531 12.8198 206.824 13.2125 206.824 13.8338V15.3201H206.357V13.9382C206.357 13.4461 206.128 13.2473 205.77 13.2473C205.333 13.2473 205.079 13.5605 205.079 14.0327V15.3201ZM208.157 15.3201H207.69V13.2821H207.213V12.8894H207.69V12.1289H208.157V12.8894H208.634V13.2821H208.157V15.3201ZM209.521 15.3151H209.054V11.6617H209.521V13.2622C209.675 12.9988 209.968 12.8198 210.346 12.8198C210.967 12.8198 211.266 13.2125 211.266 13.8338V15.3201H210.798V13.9382C210.798 13.4461 210.565 13.2473 210.217 13.2473C209.764 13.2473 209.521 13.5754 209.521 13.9929V15.3151ZM212.39 15.3201H211.923V11.6617H212.39V15.3201ZM212.844 16.4086V16.0259H213.157C213.381 16.0259 213.56 15.9911 213.674 15.6829L213.759 15.4493L212.78 12.8894H213.272L213.977 14.8479L214.698 12.8894H215.18L214.032 15.8668C213.868 16.2844 213.625 16.4584 213.252 16.4584C213.098 16.4584 212.968 16.4385 212.844 16.4086Z" fill="#64748B"/>
<path d="M221.391 14.5084C221.338 14.5084 221.295 14.4909 221.251 14.456L219.241 12.4813C219.163 12.4027 219.163 12.2803 219.241 12.2017C219.32 12.1231 219.442 12.1231 219.521 12.2017L221.391 14.0278L223.261 12.1842C223.339 12.1056 223.462 12.1056 223.54 12.1842C223.619 12.2629 223.619 12.3852 223.54 12.4638L221.531 14.4385C221.487 14.4822 221.443 14.5084 221.391 14.5084Z" fill="#64748B"/>
<path d="M13.4733 108.073H11.7137V107.861L12.5674 107.115C13.0595 106.686 13.1862 106.5 13.1862 106.183C13.1862 105.822 12.97 105.602 12.6159 105.602C12.2468 105.602 12.0045 105.87 11.9933 106.284H11.7249C11.7398 105.725 12.0939 105.356 12.6196 105.356C13.1229 105.356 13.4584 105.68 13.4584 106.168C13.4584 106.556 13.2832 106.813 12.7501 107.279L12.1275 107.823H13.4733V108.073ZM13.8443 106.739C13.8443 105.911 14.2507 105.352 14.9143 105.352C15.5741 105.352 15.9805 105.911 15.9805 106.739C15.9805 107.57 15.5816 108.122 14.9143 108.122C14.2432 108.122 13.8443 107.57 13.8443 106.739ZM14.109 106.739C14.109 107.432 14.4035 107.879 14.9143 107.879C15.425 107.879 15.7195 107.432 15.7195 106.739C15.7195 106.041 15.425 105.598 14.9143 105.598C14.4035 105.598 14.109 106.041 14.109 106.739Z" fill="#64748B"/>
<path d="M13.7083 123.204C13.7083 122.376 14.1147 121.817 14.7783 121.817C15.4381 121.817 15.8445 122.376 15.8445 123.204C15.8445 124.035 15.4456 124.587 14.7783 124.587C14.1072 124.587 13.7083 124.035 13.7083 123.204ZM13.973 123.204C13.973 123.897 14.2675 124.345 14.7783 124.345C15.289 124.345 15.5835 123.897 15.5835 123.204C15.5835 122.507 15.289 122.063 14.7783 122.063C14.2675 122.063 13.973 122.507 13.973 123.204Z" fill="#64748B"/>
<path d="M13.1162 91.0413H12.803V91.6079H12.5421V91.0413H11.1403V90.8027L12.4451 88.9387H12.803V90.8027H13.1162V91.0413ZM11.4311 90.8027H12.5421V89.2145L11.4311 90.8027ZM13.5335 90.2733C13.5335 89.4457 13.9399 88.8865 14.6035 88.8865C15.2633 88.8865 15.6697 89.4457 15.6697 90.2733C15.6697 91.1046 15.2708 91.6564 14.6035 91.6564C13.9324 91.6564 13.5335 91.1046 13.5335 90.2733ZM13.7982 90.2733C13.7982 90.9667 14.0927 91.4141 14.6035 91.4141C15.1142 91.4141 15.4087 90.9667 15.4087 90.2733C15.4087 89.5762 15.1142 89.1325 14.6035 89.1325C14.0927 89.1325 13.7982 89.5762 13.7982 90.2733Z" fill="#64748B"/>
<path d="M11.5892 73.3718L12.2565 72.4733H12.5697L11.8688 73.4016C11.9956 73.3382 12.1112 73.3121 12.2342 73.3121C12.7897 73.3121 13.1587 73.7185 13.1587 74.2404C13.1587 74.7884 12.7449 75.1873 12.2118 75.1873C11.675 75.1873 11.2537 74.7735 11.2537 74.2404C11.2537 73.931 11.3395 73.7148 11.5892 73.3718ZM11.5259 74.2441C11.5259 74.6505 11.8055 74.945 12.2118 74.945C12.607 74.945 12.8903 74.6505 12.8903 74.2441C12.8903 73.8378 12.607 73.547 12.2118 73.547C11.8055 73.547 11.5259 73.8378 11.5259 74.2441ZM13.5335 73.808C13.5335 72.9803 13.9399 72.4211 14.6035 72.4211C15.2633 72.4211 15.6697 72.9803 15.6697 73.808C15.6697 74.6393 15.2708 75.191 14.6035 75.191C13.9324 75.191 13.5335 74.6393 13.5335 73.808ZM13.7982 73.808C13.7982 74.5014 14.0927 74.9487 14.6035 74.9487C15.1142 74.9487 15.4087 74.5014 15.4087 73.808C15.4087 73.1108 15.1142 72.6672 14.6035 72.6672C14.0927 72.6672 13.7982 73.1108 13.7982 73.808Z" fill="#64748B"/>
<path d="M11.236 57.9503C11.236 57.6222 11.4335 57.3613 11.7504 57.2532C11.482 57.145 11.3292 56.9251 11.3292 56.6492C11.3292 56.2391 11.6796 55.9595 12.1903 55.9595C12.6973 55.9595 13.0366 56.2391 13.0366 56.6529C13.0366 56.9325 12.8875 57.1525 12.6228 57.2532C12.9322 57.3501 13.1372 57.6185 13.1372 57.954C13.1372 58.4088 12.7532 58.722 12.1866 58.722C11.6199 58.722 11.236 58.4088 11.236 57.9503ZM11.5827 56.6567C11.5827 56.9512 11.8212 57.1488 12.1866 57.1488C12.5482 57.1488 12.7831 56.9586 12.7831 56.6641C12.7831 56.3771 12.5482 56.1981 12.1866 56.1981C11.8212 56.1981 11.5827 56.3771 11.5827 56.6567ZM11.5006 57.9279C11.5006 58.2597 11.7765 58.4797 12.1903 58.4797C12.5967 58.4797 12.8725 58.2597 12.8725 57.9279C12.8725 57.5999 12.6041 57.3874 12.1829 57.3874C11.7691 57.3874 11.5006 57.5999 11.5006 57.9279ZM13.5335 57.3426C13.5335 56.515 13.9399 55.9558 14.6035 55.9558C15.2633 55.9558 15.6697 56.515 15.6697 57.3426C15.6697 58.174 15.2708 58.7257 14.6035 58.7257C13.9324 58.7257 13.5335 58.174 13.5335 57.3426ZM13.7982 57.3426C13.7982 58.036 14.0927 58.4834 14.6035 58.4834C15.1142 58.4834 15.4087 58.036 15.4087 57.3426C15.4087 56.6455 15.1142 56.2019 14.6035 56.2019C14.0927 56.2019 13.7982 56.6455 13.7982 57.3426Z" fill="#64748B"/>
<path d="M10.6601 39.785H10.1159V39.5427H10.9174V42.2119H10.6601V39.785ZM11.4355 40.8773C11.4355 40.0497 11.8419 39.4905 12.5055 39.4905C13.1653 39.4905 13.5717 40.0497 13.5717 40.8773C13.5717 41.7086 13.1728 42.2604 12.5055 42.2604C11.8344 42.2604 11.4355 41.7086 11.4355 40.8773ZM11.7002 40.8773C11.7002 41.5707 11.9947 42.0181 12.5055 42.0181C13.0162 42.0181 13.3107 41.5707 13.3107 40.8773C13.3107 40.1802 13.0162 39.7365 12.5055 39.7365C11.9947 39.7365 11.7002 40.1802 11.7002 40.8773ZM13.9803 40.8773C13.9803 40.0497 14.3867 39.4905 15.0502 39.4905C15.7101 39.4905 16.1165 40.0497 16.1165 40.8773C16.1165 41.7086 15.7176 42.2604 15.0502 42.2604C14.3792 42.2604 13.9803 41.7086 13.9803 40.8773ZM14.245 40.8773C14.245 41.5707 14.5395 42.0181 15.0502 42.0181C15.561 42.0181 15.8555 41.5707 15.8555 40.8773C15.8555 40.1802 15.561 39.7365 15.0502 39.7365C14.5395 39.7365 14.245 40.1802 14.245 40.8773Z" fill="#64748B"/>
<path d="M20.3278 132.252C20.3278 131.712 20.7627 131.347 21.4108 131.347C22.011 131.347 22.3981 131.682 22.4329 132.226H22.0023C21.9805 131.912 21.7587 131.73 21.4064 131.73C21.0106 131.73 20.754 131.93 20.754 132.239C20.754 132.491 20.8975 132.643 21.1933 132.713L21.7109 132.834C22.2241 132.952 22.485 133.23 22.485 133.674C22.485 134.239 22.0458 134.6 21.376 134.6C20.7366 134.6 20.3104 134.265 20.2843 133.726H20.7192C20.7279 134.026 20.9802 134.218 21.376 134.218C21.7935 134.218 22.0588 134.022 22.0588 133.709C22.0588 133.461 21.924 133.304 21.6239 133.235L21.1063 133.117C20.5931 133 20.3278 132.704 20.3278 132.252ZM23.8688 134.6C23.2425 134.6 22.8119 134.148 22.8119 133.487C22.8119 132.821 23.2338 132.36 23.8514 132.36C24.4559 132.36 24.8517 132.778 24.8517 133.409V133.561L23.2077 133.565C23.2381 134.013 23.473 134.261 23.8775 134.261C24.195 134.261 24.4037 134.131 24.4733 133.887H24.8561C24.7517 134.344 24.395 134.6 23.8688 134.6ZM23.8514 132.704C23.4947 132.704 23.2686 132.917 23.2164 133.291H24.4429C24.4429 132.939 24.2124 132.704 23.8514 132.704ZM25.3084 135.501V132.421H25.6781L25.7085 132.804C25.852 132.513 26.1391 132.36 26.4783 132.36C27.0873 132.36 27.4656 132.817 27.4656 133.469C27.4656 134.118 27.109 134.605 26.4783 134.605C26.1391 134.605 25.8564 134.461 25.7172 134.2V135.501H25.3084ZM25.7216 133.487C25.7216 133.922 25.9738 134.235 26.3914 134.235C26.8089 134.235 27.0568 133.922 27.0568 133.487C27.0568 133.048 26.8089 132.734 26.3914 132.734C25.9738 132.734 25.7216 133.043 25.7216 133.487Z" fill="#637381"/>
<path d="M41.4186 132.974C41.4186 133.93 40.7923 134.6 39.9007 134.6C39.0134 134.6 38.3958 133.93 38.3958 132.974C38.3958 132.021 39.0178 131.347 39.9051 131.347C40.7967 131.347 41.4186 132.017 41.4186 132.974ZM40.9706 132.974C40.9706 132.243 40.5444 131.76 39.9051 131.76C39.2657 131.76 38.8438 132.243 38.8438 132.974C38.8438 133.704 39.2657 134.191 39.9051 134.191C40.5444 134.191 40.9706 133.7 40.9706 132.974ZM41.755 133.487C41.755 132.821 42.1769 132.36 42.7989 132.36C43.3338 132.36 43.7079 132.665 43.7818 133.139H43.373C43.3034 132.869 43.0859 132.726 42.8119 132.726C42.4248 132.726 42.1595 133.021 42.1595 133.483C42.1595 133.939 42.4074 134.235 42.7945 134.235C43.0859 134.235 43.3034 134.083 43.3773 133.83H43.7862C43.7035 134.291 43.3077 134.6 42.7945 134.6C42.1682 134.6 41.755 134.157 41.755 133.487ZM44.8177 134.548H44.4089V132.765H43.9914V132.421H44.4089V131.756H44.8177V132.421H45.2353V132.765H44.8177V134.548Z" fill="#637381"/>
<path d="M56.0325 134.548H55.6063V131.404H56.0325L57.6418 133.835V131.404H58.068V134.548H57.6418L56.0325 132.117V134.548ZM58.5916 133.483C58.5916 132.826 59.0613 132.365 59.7007 132.365C60.3357 132.365 60.8054 132.826 60.8054 133.483C60.8054 134.139 60.3357 134.6 59.7007 134.6C59.0613 134.6 58.5916 134.139 58.5916 133.483ZM59.0048 133.483C59.0048 133.926 59.2875 134.235 59.7007 134.235C60.1095 134.235 60.3965 133.926 60.3965 133.483C60.3965 133.039 60.1095 132.73 59.7007 132.73C59.2875 132.73 59.0048 133.039 59.0048 133.483ZM61.7561 134.548L60.8993 132.421H61.3342L61.7996 133.609C61.8736 133.809 61.9344 133.987 61.9692 134.118C62.004 133.978 62.0736 133.796 62.1476 133.609L62.6216 132.421H63.0479L62.1606 134.548H61.7561Z" fill="#637381"/>
<path d="M74.9836 134.548H73.9441V131.404H74.9662C75.9057 131.404 76.5407 132.039 76.5407 132.978C76.5407 133.913 75.9144 134.548 74.9836 134.548ZM74.9358 131.795H74.3704V134.152H74.9532C75.6534 134.152 76.0971 133.7 76.0971 132.978C76.0971 132.247 75.6534 131.795 74.9358 131.795ZM77.9311 134.6C77.3048 134.6 76.8742 134.148 76.8742 133.487C76.8742 132.821 77.2961 132.36 77.9137 132.36C78.5182 132.36 78.914 132.778 78.914 133.409V133.561L77.27 133.565C77.3004 134.013 77.5353 134.261 77.9398 134.261C78.2573 134.261 78.4661 134.131 78.5356 133.887H78.9184C78.814 134.344 78.4574 134.6 77.9311 134.6ZM77.9137 132.704C77.557 132.704 77.3309 132.917 77.2787 133.291H78.5052C78.5052 132.939 78.2747 132.704 77.9137 132.704ZM79.2315 133.487C79.2315 132.821 79.6534 132.36 80.2753 132.36C80.8103 132.36 81.1844 132.665 81.2583 133.139H80.8495C80.7799 132.869 80.5624 132.726 80.2884 132.726C79.9013 132.726 79.636 133.021 79.636 133.483C79.636 133.939 79.8839 134.235 80.271 134.235C80.5624 134.235 80.7799 134.083 80.8538 133.83H81.2626C81.18 134.291 80.7842 134.6 80.271 134.6C79.6447 134.6 79.2315 134.157 79.2315 133.487Z" fill="#637381"/>
<path d="M128.494 134.548H128.077V131.404H128.494L129.577 134.048L130.66 131.404H131.086V134.548H130.669V133.304C130.669 132.717 130.673 132.504 130.695 132.282L129.777 134.548H129.377L128.464 132.291C128.486 132.443 128.494 132.765 128.494 133.204V134.548ZM132.371 134.6C131.914 134.6 131.645 134.344 131.645 133.957C131.645 133.565 131.936 133.322 132.436 133.282L133.106 133.23V133.169C133.106 132.813 132.893 132.687 132.606 132.687C132.262 132.687 132.067 132.839 132.067 133.095H131.71C131.71 132.652 132.075 132.36 132.623 132.36C133.15 132.36 133.506 132.639 133.506 133.213V134.548H133.158L133.115 134.204C133.006 134.448 132.715 134.6 132.371 134.6ZM132.489 134.283C132.876 134.283 133.11 134.031 133.11 133.63V133.517L132.567 133.561C132.206 133.596 132.058 133.735 132.058 133.944C132.058 134.17 132.223 134.283 132.489 134.283ZM135.29 132.404V132.778H135.108C134.72 132.778 134.481 133.013 134.481 133.422V134.548H134.072V132.426H134.455L134.481 132.747C134.568 132.526 134.781 132.378 135.073 132.378C135.147 132.378 135.208 132.386 135.29 132.404Z" fill="#637381"/>
<path d="M92.6521 133.674V133.517H93.0653V133.674C93.0653 133.983 93.2349 134.204 93.5828 134.204C93.9395 134.204 94.0961 133.987 94.0961 133.661V131.404H94.5223V133.678C94.5223 134.244 94.1439 134.6 93.5828 134.6C92.9826 134.6 92.6521 134.218 92.6521 133.674ZM95.7849 134.6C95.3282 134.6 95.0586 134.344 95.0586 133.957C95.0586 133.565 95.35 133.322 95.8501 133.282L96.5199 133.23V133.169C96.5199 132.813 96.3068 132.687 96.0198 132.687C95.6762 132.687 95.4804 132.839 95.4804 133.095H95.1238C95.1238 132.652 95.4891 132.36 96.0372 132.36C96.5634 132.36 96.9201 132.639 96.9201 133.213V134.548H96.5721L96.5286 134.204C96.4199 134.448 96.1285 134.6 95.7849 134.6ZM95.9023 134.283C96.2894 134.283 96.5243 134.031 96.5243 133.63V133.517L95.9806 133.561C95.6196 133.596 95.4717 133.735 95.4717 133.944C95.4717 134.17 95.637 134.283 95.9023 134.283ZM97.8951 134.548H97.4863V132.421H97.856L97.8995 132.747C98.0343 132.504 98.3039 132.36 98.604 132.36C99.1651 132.36 99.4217 132.704 99.4217 133.248V134.548H99.0129V133.339C99.0129 132.908 98.8128 132.734 98.4997 132.734C98.1169 132.734 97.8951 133.008 97.8951 133.422V134.548Z" fill="#637381"/>
<path d="M146.515 134.548H146.071L147.219 131.404H147.693L148.846 134.548H148.398L148.115 133.765H146.793L146.515 134.548ZM147.402 132.082L146.923 133.396H147.989L147.506 132.082C147.485 132.021 147.463 131.947 147.454 131.899C147.445 131.943 147.424 132.017 147.402 132.082ZM149.194 135.501V132.421H149.564L149.594 132.804C149.738 132.513 150.025 132.36 150.364 132.36C150.973 132.36 151.352 132.817 151.352 133.469C151.352 134.118 150.995 134.605 150.364 134.605C150.025 134.605 149.742 134.461 149.603 134.2V135.501H149.194ZM149.607 133.487C149.607 133.922 149.86 134.235 150.277 134.235C150.695 134.235 150.943 133.922 150.943 133.487C150.943 133.048 150.695 132.734 150.277 132.734C149.86 132.734 149.607 133.043 149.607 133.487ZM153.02 132.404V132.778H152.837C152.45 132.778 152.211 133.013 152.211 133.422V134.548H151.802V132.426H152.185L152.211 132.747C152.298 132.526 152.511 132.378 152.803 132.378C152.876 132.378 152.937 132.386 153.02 132.404Z" fill="#637381"/>
<path d="M111.947 133.213H110.711V134.548H110.285V131.404H112.181V131.795H110.711V132.826H111.947V133.213ZM113.38 134.6C112.754 134.6 112.323 134.148 112.323 133.487C112.323 132.821 112.745 132.36 113.363 132.36C113.967 132.36 114.363 132.778 114.363 133.409V133.561L112.719 133.565C112.75 134.013 112.984 134.261 113.389 134.261C113.706 134.261 113.915 134.131 113.985 133.887H114.367C114.263 134.344 113.906 134.6 113.38 134.6ZM113.363 132.704C113.006 132.704 112.78 132.917 112.728 133.291H113.954C113.954 132.939 113.724 132.704 113.363 132.704ZM115.189 134.548H114.82V131.347H115.229V132.787C115.368 132.508 115.655 132.36 116.003 132.36C116.612 132.36 116.977 132.839 116.977 133.496C116.977 134.139 116.594 134.6 115.977 134.6C115.642 134.6 115.359 134.452 115.22 134.161L115.189 134.548ZM115.233 133.478C115.233 133.922 115.485 134.231 115.903 134.231C116.32 134.231 116.568 133.917 116.568 133.478C116.568 133.043 116.32 132.73 115.903 132.73C115.485 132.73 115.233 133.043 115.233 133.478Z" fill="#637381"/>
<path d="M164.381 134.548H163.973V132.421H164.338L164.377 132.7C164.486 132.5 164.712 132.36 165.012 132.36C165.343 132.36 165.577 132.526 165.686 132.791C165.786 132.526 166.043 132.36 166.373 132.36C166.86 132.36 167.156 132.665 167.156 133.156V134.548H166.756V133.256C166.756 132.921 166.569 132.73 166.282 132.73C165.973 132.73 165.769 132.948 165.769 133.287V134.548H165.364V133.252C165.364 132.917 165.182 132.734 164.895 132.734C164.586 132.734 164.381 132.948 164.381 133.287V134.548ZM168.345 134.6C167.888 134.6 167.619 134.344 167.619 133.957C167.619 133.565 167.91 133.322 168.41 133.282L169.08 133.23V133.169C169.08 132.813 168.867 132.687 168.58 132.687C168.236 132.687 168.04 132.839 168.04 133.095H167.684C167.684 132.652 168.049 132.36 168.597 132.36C169.123 132.36 169.48 132.639 169.48 133.213V134.548H169.132L169.089 134.204C168.98 134.448 168.689 134.6 168.345 134.6ZM168.462 134.283C168.849 134.283 169.084 134.031 169.084 133.63V133.517L168.541 133.561C168.18 133.596 168.032 133.735 168.032 133.944C168.032 134.17 168.197 134.283 168.462 134.283ZM169.791 135.501V135.166H170.065C170.261 135.166 170.417 135.135 170.517 134.866L170.591 134.661L169.734 132.421H170.165L170.783 134.135L171.413 132.421H171.835L170.83 135.027C170.687 135.392 170.474 135.544 170.148 135.544C170.013 135.544 169.9 135.527 169.791 135.501Z" fill="#637381"/>
<path d="M182.052 133.674V133.517H182.465V133.674C182.465 133.983 182.635 134.204 182.983 134.204C183.339 134.204 183.496 133.987 183.496 133.661V131.404H183.922V133.678C183.922 134.244 183.544 134.6 182.983 134.6C182.382 134.6 182.052 134.218 182.052 133.674ZM186.033 132.421H186.437V134.548H186.072L186.028 134.226C185.907 134.448 185.624 134.6 185.311 134.6C184.815 134.6 184.537 134.265 184.537 133.743V132.421H184.945V133.609C184.945 134.065 185.141 134.239 185.454 134.239C185.828 134.239 186.033 134 186.033 133.543V132.421ZM187.439 134.548H187.03V132.421H187.4L187.444 132.747C187.578 132.504 187.848 132.36 188.148 132.36C188.709 132.36 188.966 132.704 188.966 133.248V134.548H188.557V133.339C188.557 132.908 188.357 132.734 188.044 132.734C187.661 132.734 187.439 133.008 187.439 133.422V134.548Z" fill="#637381"/>
<path d="M199.812 133.674V133.517H200.225V133.674C200.225 133.983 200.395 134.204 200.743 134.204C201.099 134.204 201.256 133.987 201.256 133.661V131.404H201.682V133.678C201.682 134.244 201.304 134.6 200.743 134.6C200.142 134.6 199.812 134.218 199.812 133.674ZM203.793 132.421H204.197V134.548H203.832L203.788 134.226C203.667 134.448 203.384 134.6 203.071 134.6C202.575 134.6 202.297 134.265 202.297 133.743V132.421H202.705V133.609C202.705 134.065 202.901 134.239 203.214 134.239C203.588 134.239 203.793 134 203.793 133.543V132.421ZM205.208 134.548H204.799V131.347H205.208V134.548Z" fill="#637381"/>
<path d="M216.015 134.548H215.572L216.72 131.404H217.194L218.347 134.548H217.899L217.616 133.765H216.294L216.015 134.548ZM216.903 132.082L216.424 133.396H217.49L217.007 132.082C216.985 132.021 216.964 131.947 216.955 131.899C216.946 131.943 216.925 132.017 216.903 132.082ZM220.106 132.421H220.51V134.548H220.145L220.101 134.226C219.98 134.448 219.697 134.6 219.384 134.6C218.888 134.6 218.61 134.265 218.61 133.743V132.421H219.018V133.609C219.018 134.065 219.214 134.239 219.527 134.239C219.901 134.239 220.106 134 220.106 133.543V132.421ZM220.969 133.43C220.969 132.83 221.356 132.36 221.973 132.36C222.317 132.36 222.582 132.517 222.717 132.782L222.747 132.421H223.113V134.461C223.113 135.131 222.7 135.557 222.047 135.557C221.469 135.557 221.073 135.231 220.995 134.692H221.404C221.456 135.005 221.691 135.187 222.047 135.187C222.447 135.187 222.708 134.926 222.708 134.522V134.096C222.569 134.344 222.291 134.492 221.956 134.492C221.351 134.492 220.969 134.026 220.969 133.43ZM221.377 133.422C221.377 133.822 221.625 134.135 222.025 134.135C222.439 134.135 222.691 133.839 222.691 133.422C222.691 133.013 222.447 132.717 222.03 132.717C221.621 132.717 221.377 133.03 221.377 133.422Z" fill="#637381"/>
<path opacity="0.1" d="M25.6264 120.043C23.6397 122.525 21.7978 122.835 21.1252 122.68V123.645H218.709V60.0056C215.139 60.0056 211.88 62.6429 206.448 69.0035C201.015 75.364 199.463 74.7435 191.547 65.9008C183.631 57.0581 179.441 60.3159 176.957 61.7121C174.474 63.1083 171.059 68.0727 166.403 67.9175C161.747 67.7624 161.747 69.0035 152.434 77.5359C143.121 86.0683 141.104 76.9154 133.964 70.3997C126.824 63.884 116.425 75.2089 114.252 76.45C112.079 77.691 109.906 77.0705 108.354 77.5359C106.802 78.0013 101.68 85.2927 97.7996 90.5673C93.9193 95.8419 89.263 94.2905 81.9681 88.0851C74.6731 81.8797 69.396 86.844 66.6022 88.5505C63.8084 90.257 63.8084 93.67 58.2207 93.2046C52.6331 92.7392 45.6486 102.358 43.7861 104.064C41.9236 105.771 41.9236 105.77 38.6641 106.081C35.4047 106.391 28.1098 116.94 25.6264 120.043Z" fill="url(#paint0_linear_508_3310)"/>
<path d="M21.1252 122.68C21.7978 122.835 23.6397 122.525 25.6264 120.043C28.1098 116.94 35.4047 106.391 38.6641 106.081C41.9236 105.771 41.9236 105.771 43.7861 104.064C45.6486 102.358 52.6331 92.7392 58.2207 93.2046C63.8084 93.67 63.8084 90.257 66.6022 88.5505C69.396 86.844 74.6731 81.8797 81.9681 88.0851C89.263 94.2905 93.9194 95.8419 97.7996 90.5673C101.68 85.2927 106.802 78.0013 108.354 77.5359C109.906 77.0705 112.079 77.6911 114.252 76.45C116.425 75.2089 126.824 63.884 133.964 70.3997C141.104 76.9154 143.121 86.0684 152.434 77.5359C161.747 69.0035 161.747 67.7624 166.403 67.9175C171.059 68.0727 174.474 63.1083 176.957 61.7121C179.441 60.3159 183.631 57.0581 191.547 65.9008C199.463 74.7435 201.015 75.364 206.448 69.0035C211.88 62.6429 215.139 60.0056 218.709 60.0056" stroke="#3C50E0" stroke-width="1.24267"/>
<path d="M21.1252 110.632C21.953 110.476 24.3536 110.476 27.3337 111.722C31.0588 113.278 37.5776 117.948 44.5622 114.057C51.5467 110.165 55.1165 109.076 57.7551 108.609C60.3937 108.142 63.8084 105.34 66.4469 102.071C69.0855 98.8021 74.2075 93.5098 83.0546 98.1795C91.9016 102.849 94.6954 104.406 98.2653 95.222C101.835 86.0382 106.491 71.4064 107.888 69.2272C109.285 67.048 110.217 65.9584 113.321 65.3358C116.425 64.7132 118.443 63.1566 120.305 60.9774C122.168 58.7982 126.359 50.704 136.137 59.2652C145.915 67.8263 147.467 67.982 152.589 62.534C157.711 57.086 160.195 52.4163 166.093 52.4163C171.991 52.4163 169.662 50.8597 173.543 48.3692C177.423 45.8786 180.993 39.0297 188.288 47.9022C195.583 56.7747 196.359 61.1331 202.102 60.9774C207.844 60.8218 206.603 63.9349 210.638 66.7367C214.674 69.5386 212.966 71.0951 218.709 71.0951" stroke="#C7D2E2" stroke-width="1.24267"/>
<path d="M54.0287 151.082H53.5416V147.488H54.8986C55.669 147.488 56.1263 147.895 56.1263 148.566C56.1263 149.063 55.8778 149.421 55.4304 149.565L56.1611 151.082H55.6193L54.9483 149.66H54.0287V151.082ZM54.0287 147.925V149.227H54.9035C55.3559 149.227 55.6143 148.984 55.6143 148.571C55.6143 148.154 55.3459 147.925 54.8986 147.925H54.0287ZM57.5884 151.141C56.8726 151.141 56.3805 150.624 56.3805 149.869C56.3805 149.108 56.8627 148.581 57.5685 148.581C58.2594 148.581 58.7118 149.058 58.7118 149.779V149.953L56.8328 149.958C56.8676 150.47 57.1361 150.753 57.5983 150.753C57.9612 150.753 58.1998 150.604 58.2793 150.326H58.7167C58.5974 150.848 58.1898 151.141 57.5884 151.141ZM57.5685 148.974C57.1609 148.974 56.9024 149.218 56.8428 149.645H58.2445C58.2445 149.242 57.9811 148.974 57.5685 148.974ZM59.0746 149.869C59.0746 149.108 59.5567 148.581 60.2675 148.581C60.8789 148.581 61.3064 148.929 61.3909 149.471H60.9237C60.8441 149.163 60.5956 148.999 60.2824 148.999C59.8401 148.999 59.5368 149.337 59.5368 149.864C59.5368 150.386 59.8202 150.724 60.2626 150.724C60.5956 150.724 60.8441 150.55 60.9286 150.261H61.3959C61.3014 150.788 60.8491 151.141 60.2626 151.141C59.5468 151.141 59.0746 150.634 59.0746 149.869ZM62.9377 151.141C62.2219 151.141 61.7298 150.624 61.7298 149.869C61.7298 149.108 62.212 148.581 62.9178 148.581C63.6087 148.581 64.061 149.058 64.061 149.779V149.953L62.1821 149.958C62.2169 150.47 62.4853 150.753 62.9476 150.753C63.3105 150.753 63.5491 150.604 63.6286 150.326H64.066C63.9467 150.848 63.5391 151.141 62.9377 151.141ZM62.9178 148.974C62.5102 148.974 62.2517 149.218 62.1921 149.645H63.5938C63.5938 149.242 63.3304 148.974 62.9178 148.974ZM64.8116 148.074C64.6426 148.074 64.5034 147.935 64.5034 147.766C64.5034 147.592 64.6426 147.458 64.8116 147.458C64.9806 147.458 65.1198 147.592 65.1198 147.766C65.1198 147.935 64.9806 148.074 64.8116 148.074ZM64.5829 151.082V148.651H65.0502V151.082H64.5829ZM66.4095 151.082L65.4303 148.651H65.9273L66.4592 150.008C66.5437 150.237 66.6133 150.44 66.6531 150.589C66.6928 150.43 66.7723 150.222 66.8568 150.008L67.3987 148.651H67.8858L66.8718 151.082H66.4095ZM69.1947 151.141C68.4789 151.141 67.9868 150.624 67.9868 149.869C67.9868 149.108 68.469 148.581 69.1748 148.581C69.8657 148.581 70.3181 149.058 70.3181 149.779V149.953L68.4392 149.958C68.4739 150.47 68.7424 150.753 69.2046 150.753C69.5675 150.753 69.8061 150.604 69.8856 150.326H70.323C70.2037 150.848 69.7961 151.141 69.1947 151.141ZM69.1748 148.974C68.7672 148.974 68.5087 149.218 68.4491 149.645H69.8508C69.8508 149.242 69.5874 148.974 69.1748 148.974ZM71.8142 151.141C71.1084 151.141 70.6809 150.614 70.6809 149.874C70.6809 149.128 71.1133 148.581 71.8341 148.581C72.2069 148.581 72.52 148.745 72.6841 149.044V147.423H73.1463V151.082H72.7288L72.689 150.639C72.53 150.972 72.2019 151.141 71.8142 151.141ZM71.9086 150.719C72.3858 150.719 72.6791 150.366 72.6791 149.859C72.6791 149.362 72.3858 149.004 71.9086 149.004C71.4315 149.004 71.1531 149.362 71.1531 149.859C71.1531 150.361 71.4315 150.719 71.9086 150.719ZM75.4082 151.082H74.9012L76.2135 147.488H76.7553L78.0725 151.082H77.5605L77.2374 150.187H75.7263L75.4082 151.082ZM76.4222 148.263L75.8755 149.764H77.0933L76.5415 148.263C76.5167 148.194 76.4918 148.109 76.4819 148.054C76.4719 148.104 76.4471 148.189 76.4222 148.263ZM78.9379 151.082H78.4707V148.651H78.8882L78.933 148.969C79.0572 148.74 79.3157 148.581 79.6587 148.581C80.0365 148.581 80.3049 148.77 80.4291 149.073C80.5435 148.77 80.8367 148.581 81.2145 148.581C81.7712 148.581 82.1092 148.929 82.1092 149.491V151.082H81.6519V149.605C81.6519 149.223 81.4382 149.004 81.1101 149.004C80.7572 149.004 80.5236 149.252 80.5236 149.64V151.082H80.0613V149.6C80.0613 149.218 79.8525 149.009 79.5245 149.009C79.1716 149.009 78.9379 149.252 78.9379 149.64V151.082ZM82.5979 149.864C82.5979 149.113 83.1347 148.586 83.8654 148.586C84.5911 148.586 85.1279 149.113 85.1279 149.864C85.1279 150.614 84.5911 151.141 83.8654 151.141C83.1347 151.141 82.5979 150.614 82.5979 149.864ZM83.0701 149.864C83.0701 150.371 83.3932 150.724 83.8654 150.724C84.3326 150.724 84.6607 150.371 84.6607 149.864C84.6607 149.357 84.3326 149.004 83.8654 149.004C83.3932 149.004 83.0701 149.357 83.0701 149.864ZM87.267 148.651H87.7293V151.082H87.3117L87.262 150.714C87.1228 150.967 86.7997 151.141 86.4419 151.141C85.8752 151.141 85.5571 150.758 85.5571 150.162V148.651H86.0243V150.008C86.0243 150.53 86.248 150.729 86.6059 150.729C87.0334 150.729 87.267 150.455 87.267 149.933V148.651ZM88.8744 151.082H88.4072V148.651H88.8297L88.8794 149.024C89.0335 148.745 89.3417 148.581 89.6846 148.581C90.3259 148.581 90.6191 148.974 90.6191 149.595V151.082H90.1519V149.7C90.1519 149.208 89.9232 149.009 89.5653 149.009C89.1279 149.009 88.8744 149.322 88.8744 149.794V151.082ZM91.9522 151.082H91.485V149.044H91.0078V148.651H91.485V147.89H91.9522V148.651H92.4294V149.044H91.9522V151.082Z" fill="#64748B"/>
<path d="M57.2395 160.914V160.399C56.3758 160.337 55.8229 159.833 55.8042 159.075H56.5995C56.6057 159.429 56.8356 159.653 57.2395 159.703V158.379L57.0407 158.336C56.2578 158.168 55.8663 157.733 55.8663 157.05C55.8663 156.323 56.4131 155.801 57.2395 155.714V155.186H57.7179V155.714C58.5008 155.795 58.9854 156.286 59.0103 157.031H58.2398C58.2274 156.696 58.041 156.478 57.7179 156.41V157.746L57.9292 157.795C58.7245 157.969 59.0849 158.355 59.0849 159.013C59.0849 159.771 58.5505 160.293 57.7179 160.386V160.914H57.2395ZM57.2146 157.634L57.2395 157.64V156.404C56.8667 156.466 56.643 156.689 56.643 157.025C56.643 157.354 56.817 157.547 57.2146 157.634ZM57.7614 158.491L57.7179 158.479V159.69C58.0907 159.616 58.3144 159.398 58.3144 159.082C58.3144 158.765 58.1342 158.572 57.7614 158.491ZM63.085 159.461H62.532V160.324H61.7802V159.461H59.475V158.765L61.5316 155.782H62.532V158.765H63.085V159.461ZM60.32 158.765H61.7802V156.64L60.32 158.765ZM65.1144 160.399C64.1638 160.399 63.5362 159.79 63.5362 158.87H64.3253C64.3253 159.386 64.6298 159.69 65.133 159.69C65.6674 159.69 66.0091 159.343 66.0091 158.79C66.0091 158.261 65.6922 157.901 65.1455 157.901C64.7975 157.901 64.4806 158.075 64.3191 158.311L63.617 158.162L64.1762 155.782H66.5435V156.515H64.7478L64.5055 157.46C64.723 157.317 64.9964 157.236 65.307 157.236C66.2142 157.236 66.8169 157.851 66.8169 158.746C66.8169 159.728 66.1272 160.399 65.1144 160.399ZM68.3142 160.051C68.3142 160.567 67.9414 160.977 67.4381 161.039V160.734C67.7177 160.685 67.9289 160.517 67.9289 160.299C67.8792 160.324 67.8233 160.337 67.7488 160.337C67.5064 160.337 67.3076 160.156 67.3076 159.908C67.3076 159.61 67.5002 159.411 67.7798 159.411C68.0905 159.411 68.3142 159.666 68.3142 160.051ZM68.7608 158.063C68.7608 156.652 69.5188 155.695 70.6807 155.695C71.8426 155.695 72.6069 156.652 72.6069 158.063C72.6069 159.467 71.8861 160.405 70.6807 160.405C69.4753 160.405 68.7608 159.467 68.7608 158.063ZM69.5437 158.063C69.5437 159.113 69.9662 159.703 70.6807 159.703C71.4015 159.703 71.824 159.113 71.824 158.063C71.824 156.988 71.4015 156.397 70.6807 156.397C69.9662 156.397 69.5437 156.988 69.5437 158.063ZM72.8391 155.782H76.1011V156.515L74.4546 160.324H73.6282L75.3058 156.515H72.8391V155.782ZM76.3272 158.063C76.3272 156.652 77.0853 155.695 78.2472 155.695C79.4091 155.695 80.1733 156.652 80.1733 158.063C80.1733 159.467 79.4525 160.405 78.2472 160.405C77.0418 160.405 76.3272 159.467 76.3272 158.063ZM77.1101 158.063C77.1101 159.113 77.5326 159.703 78.2472 159.703C78.9679 159.703 79.3904 159.113 79.3904 158.063C79.3904 156.988 78.9679 156.397 78.2472 156.397C77.5326 156.397 77.1101 156.988 77.1101 158.063ZM81.1174 160.399C80.844 160.399 80.6141 160.175 80.6141 159.908C80.6141 159.635 80.844 159.411 81.1174 159.411C81.3908 159.411 81.6207 159.635 81.6207 159.908C81.6207 160.175 81.3908 160.399 81.1174 160.399ZM82.0673 158.063C82.0673 156.652 82.8253 155.695 83.9872 155.695C85.1491 155.695 85.9133 156.652 85.9133 158.063C85.9133 159.467 85.1926 160.405 83.9872 160.405C82.7818 160.405 82.0673 159.467 82.0673 158.063ZM82.8502 158.063C82.8502 159.113 83.2727 159.703 83.9872 159.703C84.708 159.703 85.1305 159.113 85.1305 158.063C85.1305 156.988 84.708 156.397 83.9872 156.397C83.2727 156.397 82.8502 156.988 82.8502 158.063ZM86.4482 158.063C86.4482 156.652 87.2062 155.695 88.3681 155.695C89.53 155.695 90.2942 156.652 90.2942 158.063C90.2942 159.467 89.5735 160.405 88.3681 160.405C87.1627 160.405 86.4482 159.467 86.4482 158.063ZM87.2311 158.063C87.2311 159.113 87.6536 159.703 88.3681 159.703C89.0888 159.703 89.5113 159.113 89.5113 158.063C89.5113 156.988 89.0888 156.397 88.3681 156.397C87.6536 156.397 87.2311 156.988 87.2311 158.063Z" fill="#1C2434"/>
<line x1="124.346" y1="147.99" x2="124.346" y2="160.416" stroke="#E2E8F0" stroke-width="0.310667"/>
<path d="M160.363 151.082H159.175V147.488H160.343C161.417 147.488 162.142 148.213 162.142 149.287C162.142 150.356 161.427 151.082 160.363 151.082ZM160.308 147.935H159.662V150.629H160.328C161.128 150.629 161.635 150.112 161.635 149.287C161.635 148.452 161.128 147.935 160.308 147.935ZM164.363 148.651H164.825V151.082H164.407L164.358 150.714C164.218 150.967 163.895 151.141 163.538 151.141C162.971 151.141 162.653 150.758 162.653 150.162V148.651H163.12V150.008C163.12 150.53 163.344 150.729 163.702 150.729C164.129 150.729 164.363 150.455 164.363 149.933V148.651ZM166.503 151.141C165.787 151.141 165.295 150.624 165.295 149.869C165.295 149.108 165.777 148.581 166.483 148.581C167.174 148.581 167.626 149.058 167.626 149.779V149.953L165.748 149.958C165.782 150.47 166.051 150.753 166.513 150.753C166.876 150.753 167.114 150.604 167.194 150.326H167.631C167.512 150.848 167.105 151.141 166.503 151.141ZM166.483 148.974C166.076 148.974 165.817 149.218 165.757 149.645H167.159C167.159 149.242 166.896 148.974 166.483 148.974ZM169.736 151.082H169.229L170.541 147.488H171.083L172.4 151.082H171.888L171.565 150.187H170.054L169.736 151.082ZM170.75 148.263L170.203 149.764H171.421L170.869 148.263C170.845 148.194 170.82 148.109 170.81 148.054C170.8 148.104 170.775 148.189 170.75 148.263ZM173.266 151.082H172.799V148.651H173.216L173.261 148.969C173.385 148.74 173.644 148.581 173.987 148.581C174.364 148.581 174.633 148.77 174.757 149.073C174.871 148.77 175.165 148.581 175.542 148.581C176.099 148.581 176.437 148.929 176.437 149.491V151.082H175.98V149.605C175.98 149.223 175.766 149.004 175.438 149.004C175.085 149.004 174.852 149.252 174.852 149.64V151.082H174.389V149.6C174.389 149.218 174.18 149.009 173.852 149.009C173.5 149.009 173.266 149.252 173.266 149.64V151.082ZM176.926 149.864C176.926 149.113 177.463 148.586 178.193 148.586C178.919 148.586 179.456 149.113 179.456 149.864C179.456 150.614 178.919 151.141 178.193 151.141C177.463 151.141 176.926 150.614 176.926 149.864ZM177.398 149.864C177.398 150.371 177.721 150.724 178.193 150.724C178.661 150.724 178.989 150.371 178.989 149.864C178.989 149.357 178.661 149.004 178.193 149.004C177.721 149.004 177.398 149.357 177.398 149.864ZM181.595 148.651H182.057V151.082H181.64L181.59 150.714C181.451 150.967 181.128 151.141 180.77 151.141C180.203 151.141 179.885 150.758 179.885 150.162V148.651H180.352V150.008C180.352 150.53 180.576 150.729 180.934 150.729C181.361 150.729 181.595 150.455 181.595 149.933V148.651ZM183.202 151.082H182.735V148.651H183.158L183.207 149.024C183.361 148.745 183.67 148.581 184.013 148.581C184.654 148.581 184.947 148.974 184.947 149.595V151.082H184.48V149.7C184.48 149.208 184.251 149.009 183.893 149.009C183.456 149.009 183.202 149.322 183.202 149.794V151.082ZM186.28 151.082H185.813V149.044H185.336V148.651H185.813V147.89H186.28V148.651H186.757V149.044H186.28V151.082Z" fill="#64748B"/>
<path d="M156.873 160.914V160.399C156.009 160.337 155.456 159.833 155.438 159.075H156.233C156.239 159.429 156.469 159.653 156.873 159.703V158.379L156.674 158.336C155.891 158.168 155.5 157.733 155.5 157.05C155.5 156.323 156.046 155.801 156.873 155.714V155.186H157.351V155.714C158.134 155.795 158.619 156.286 158.644 157.031H157.873C157.861 156.696 157.674 156.478 157.351 156.41V157.746L157.562 157.795C158.358 157.969 158.718 158.355 158.718 159.013C158.718 159.771 158.184 160.293 157.351 160.386V160.914H156.873ZM156.848 157.634L156.873 157.64V156.404C156.5 156.466 156.276 156.689 156.276 157.025C156.276 157.354 156.45 157.547 156.848 157.634ZM157.395 158.491L157.351 158.479V159.69C157.724 159.616 157.948 159.398 157.948 159.082C157.948 158.765 157.768 158.572 157.395 158.491ZM160.544 158.075H159.991V157.559L161.159 156.484H159.27V155.782H162.153V156.416L161.047 157.435C161.743 157.572 162.283 158.081 162.283 158.883C162.283 159.815 161.556 160.405 160.637 160.405C159.748 160.405 159.059 159.858 159.059 158.877H159.842C159.842 159.398 160.165 159.697 160.649 159.697C161.146 159.697 161.476 159.374 161.476 158.87C161.476 158.411 161.177 158.075 160.544 158.075ZM165.829 160.318L162.679 160.324V159.728L164.164 158.473C164.779 157.951 164.984 157.652 164.984 157.218C164.984 156.702 164.704 156.41 164.226 156.41C163.729 156.41 163.418 156.758 163.412 157.342H162.623C162.629 156.348 163.263 155.701 164.226 155.701C165.195 155.701 165.798 156.254 165.798 157.174C165.798 157.808 165.45 158.286 164.76 158.877L163.94 159.579H165.829V160.318ZM167.541 160.051C167.541 160.567 167.168 160.977 166.665 161.039V160.734C166.944 160.685 167.156 160.517 167.156 160.299C167.106 160.324 167.05 160.337 166.976 160.337C166.733 160.337 166.534 160.156 166.534 159.908C166.534 159.61 166.727 159.411 167.007 159.411C167.317 159.411 167.541 159.666 167.541 160.051ZM171.674 159.461H171.121V160.324H170.369V159.461H168.064V158.765L170.121 155.782H171.121V158.765H171.674V159.461ZM168.909 158.765H170.369V156.64L168.909 158.765ZM172.174 158.063C172.174 156.652 172.932 155.695 174.094 155.695C175.256 155.695 176.02 156.652 176.02 158.063C176.02 159.467 175.3 160.405 174.094 160.405C172.889 160.405 172.174 159.467 172.174 158.063ZM172.957 158.063C172.957 159.113 173.38 159.703 174.094 159.703C174.815 159.703 175.237 159.113 175.237 158.063C175.237 156.988 174.815 156.397 174.094 156.397C173.38 156.397 172.957 156.988 172.957 158.063ZM176.555 158.063C176.555 156.652 177.313 155.695 178.475 155.695C179.637 155.695 180.401 156.652 180.401 158.063C180.401 159.467 179.68 160.405 178.475 160.405C177.27 160.405 176.555 159.467 176.555 158.063ZM177.338 158.063C177.338 159.113 177.761 159.703 178.475 159.703C179.196 159.703 179.618 159.113 179.618 158.063C179.618 156.988 179.196 156.397 178.475 156.397C177.761 156.397 177.338 156.988 177.338 158.063ZM181.345 160.399C181.072 160.399 180.842 160.175 180.842 159.908C180.842 159.635 181.072 159.411 181.345 159.411C181.619 159.411 181.849 159.635 181.849 159.908C181.849 160.175 181.619 160.399 181.345 160.399ZM182.295 158.063C182.295 156.652 183.053 155.695 184.215 155.695C185.377 155.695 186.141 156.652 186.141 158.063C186.141 159.467 185.421 160.405 184.215 160.405C183.01 160.405 182.295 159.467 182.295 158.063ZM183.078 158.063C183.078 159.113 183.501 159.703 184.215 159.703C184.936 159.703 185.358 159.113 185.358 158.063C185.358 156.988 184.936 156.397 184.215 156.397C183.501 156.397 183.078 156.988 183.078 158.063ZM186.676 158.063C186.676 156.652 187.434 155.695 188.596 155.695C189.758 155.695 190.522 156.652 190.522 158.063C190.522 159.467 189.801 160.405 188.596 160.405C187.391 160.405 186.676 159.467 186.676 158.063ZM187.459 158.063C187.459 159.113 187.881 159.703 188.596 159.703C189.317 159.703 189.739 159.113 189.739 158.063C189.739 156.988 189.317 156.397 188.596 156.397C187.881 156.397 187.459 156.988 187.459 158.063Z" fill="#1C2434"/>
<line x1="131.878" y1="41.0081" x2="131.878" y2="123.645" stroke="#8A99AF" stroke-width="0.310667" stroke-dasharray="0.93 0.93"/>
<circle cx="131.723" cy="69.2788" r="1.864" fill="white" stroke="#3C50E0" stroke-width="1.24267"/>
<circle cx="131.723" cy="56.5412" r="1.864" fill="white" stroke="#C7D2E2" stroke-width="1.24267"/>
<g filter="url(#filter0_d_508_3310)">
<rect x="135.451" y="52.8132" width="16.32" height="22.8347" rx="2.17467" fill="white" shape-rendering="crispEdges"/>
<path d="M140.344 60.2997C140.344 59.8673 140.598 59.5193 140.995 59.3752C140.657 59.231 140.473 58.9477 140.473 58.5848C140.473 58.0232 140.956 57.6404 141.671 57.6404C142.377 57.6404 142.854 58.0232 142.854 58.5898C142.854 58.9576 142.666 59.241 142.328 59.3752C142.73 59.5044 142.989 59.8623 142.989 60.3047C142.989 60.936 142.462 61.3585 141.666 61.3585C140.866 61.3585 140.344 60.936 140.344 60.2997ZM140.921 58.6147C140.921 58.9676 141.214 59.1962 141.661 59.1962C142.114 59.1962 142.397 58.9726 142.397 58.6246C142.397 58.2816 142.114 58.0629 141.661 58.0629C141.214 58.0629 140.921 58.2816 140.921 58.6147ZM140.821 60.2649C140.821 60.6676 141.154 60.926 141.666 60.926C142.173 60.926 142.506 60.6676 142.506 60.2649C142.506 59.8673 142.178 59.6138 141.661 59.6138C141.149 59.6138 140.821 59.8673 140.821 60.2649ZM143.461 59.5044C143.461 58.391 144.037 57.6354 144.942 57.6354C145.842 57.6354 146.418 58.391 146.418 59.5044C146.418 60.6228 145.867 61.3634 144.942 61.3634C144.013 61.3634 143.461 60.6228 143.461 59.5044ZM143.943 59.5044C143.943 60.3892 144.311 60.926 144.942 60.926C145.573 60.926 145.936 60.3892 145.936 59.5044C145.936 58.6097 145.573 58.0729 144.942 58.0729C144.311 58.0729 143.943 58.6097 143.943 59.5044Z" fill="#1C2434"/>
<path d="M140.811 68.7071L141.652 67.5688H142.218L141.318 68.7618C141.443 68.7121 141.572 68.6872 141.696 68.6872C142.442 68.6872 142.944 69.224 142.944 69.9348C142.944 70.6854 142.377 71.2222 141.637 71.2222C140.891 71.2222 140.314 70.6606 140.314 69.9348C140.314 69.5074 140.444 69.2091 140.811 68.7071ZM140.811 69.9398C140.811 70.4319 141.149 70.7848 141.637 70.7848C142.114 70.7848 142.452 70.4319 142.452 69.9398C142.452 69.4477 142.114 69.0998 141.637 69.0998C141.149 69.0998 140.811 69.4477 140.811 69.9398ZM145.736 71.1576L143.31 71.1626V70.7898L144.468 69.7907C145.05 69.2887 145.214 69.0451 145.214 68.6624C145.214 68.21 144.955 67.9416 144.523 67.9416C144.08 67.9416 143.792 68.2647 143.782 68.7767H143.295C143.31 68.0062 143.797 67.5042 144.528 67.5042C145.249 67.5042 145.711 67.9416 145.711 68.6325C145.711 69.1445 145.457 69.5074 144.821 70.0591L144.075 70.7053H145.736V71.1576Z" fill="#1C2434"/>
<rect x="135.606" y="52.9686" width="16.0093" height="22.524" rx="2.01933" stroke="#E2E8F0" stroke-width="0.310667" shape-rendering="crispEdges"/>
</g>
<defs>
<filter id="filter0_d_508_3310" x="132.344" y="52.1919" width="22.5334" height="29.048" filterUnits="userSpaceOnUse" color-interpolation-filters="sRGB">
<feFlood flood-opacity="0" result="BackgroundImageFix"/>
<feColorMatrix in="SourceAlpha" type="matrix" values="0 0 0 0 0 0 0 0 0 0 0 0 0 0 0 0 0 0 127 0" result="hardAlpha"/>
<feMorphology radius="0.932" operator="erode" in="SourceAlpha" result="effect1_dropShadow_508_3310"/>
<feOffset dy="2.48533"/>
<feGaussianBlur stdDeviation="2.01933"/>
<feComposite in2="hardAlpha" operator="out"/>
<feColorMatrix type="matrix" values="0 0 0 0 0 0 0 0 0 0 0 0 0 0 0 0 0 0 0.07 0"/>
<feBlend mode="normal" in2="BackgroundImageFix" result="effect1_dropShadow_508_3310"/>
<feBlend mode="normal" in="SourceGraphic" in2="effect1_dropShadow_508_3310" result="shape"/>
</filter>
<linearGradient id="paint0_linear_508_3310" x1="119.917" y1="59.9587" x2="119.917" y2="123.645" gradientUnits="userSpaceOnUse">
<stop stop-color="#3C50E0"/>
<stop offset="1" stop-color="#3C50E0" stop-opacity="0"/>
</linearGradient>
</defs>
</svg>
