<svg width="283" height="180" viewBox="0 0 283 180" fill="none" xmlns="http://www.w3.org/2000/svg">
<path d="M0 15.5073C0 7.22304 6.71573 0.507324 15 0.507324H268C276.284 0.507324 283 7.22305 283 15.5073V164.994C283 173.278 276.284 179.994 268 179.994H15C6.71573 179.994 0 173.278 0 164.994V15.5073Z" fill="white"/>
<path d="M16.47 151.881C16.47 150.392 17.2411 149.381 18.451 149.381C19.6542 149.381 20.4254 150.392 20.4254 151.881C20.4254 153.377 19.6875 154.367 18.451 154.367C17.2079 154.367 16.47 153.377 16.47 151.881ZM17.1148 151.881C17.1148 153.064 17.6068 153.782 18.451 153.782C19.2953 153.782 19.7806 153.064 19.7806 151.881C19.7806 150.684 19.2953 149.966 18.451 149.966C17.6068 149.966 17.1148 150.684 17.1148 151.881Z" fill="#64748B"/>
<line x1="31.3389" y1="151.266" x2="268.755" y2="151.266" stroke="#E7E7E7" stroke-width="0.474832" stroke-dasharray="2.37 2.37"/>
<path d="M15.9628 125.843H14.9524V125.258H16.5877V130.064H15.9628V125.843ZM17.4669 127.665C17.4669 126.176 18.238 125.165 19.4479 125.165C20.6511 125.165 21.4223 126.176 21.4223 127.665C21.4223 129.16 20.6844 130.151 19.4479 130.151C18.2048 130.151 17.4669 129.16 17.4669 127.665ZM18.1117 127.665C18.1117 128.848 18.6037 129.566 19.4479 129.566C20.2922 129.566 20.7775 128.848 20.7775 127.665C20.7775 126.468 20.2922 125.75 19.4479 125.75C18.6037 125.75 18.1117 126.468 18.1117 127.665ZM22.0761 127.665C22.0761 126.176 22.8473 125.165 24.0571 125.165C25.2604 125.165 26.0315 126.176 26.0315 127.665C26.0315 129.16 25.2936 130.151 24.0571 130.151C22.814 130.151 22.0761 129.16 22.0761 127.665ZM22.721 127.665C22.721 128.848 23.2129 129.566 24.0571 129.566C24.9014 129.566 25.3867 128.848 25.3867 127.665C25.3867 126.468 24.9014 125.75 24.0571 125.75C23.2129 125.75 22.721 126.468 22.721 127.665Z" fill="#64748B"/>
<line x1="31.3386" y1="127.05" x2="268.755" y2="127.05" stroke="#E7E7E7" stroke-width="0.474832" stroke-dasharray="2.37 2.37"/>
<path d="M18.6285 104.877H18.0568V105.848H17.432V104.877H14.9457V104.299L17.2126 101.042H18.0568V104.299H18.6285V104.877ZM15.6504 104.299H17.432V101.733L15.6504 104.299ZM19.2717 103.448C19.2717 101.959 20.0428 100.949 21.2527 100.949C22.4559 100.949 23.227 101.959 23.227 103.448C23.227 104.944 22.4891 105.934 21.2527 105.934C20.0095 105.934 19.2717 104.944 19.2717 103.448ZM19.9165 103.448C19.9165 104.631 20.4084 105.349 21.2527 105.349C22.0969 105.349 22.5822 104.631 22.5822 103.448C22.5822 102.252 22.0969 101.534 21.2527 101.534C20.4084 101.534 19.9165 102.252 19.9165 103.448ZM23.8809 103.448C23.8809 101.959 24.652 100.949 25.8619 100.949C27.0651 100.949 27.8362 101.959 27.8362 103.448C27.8362 104.944 27.0983 105.934 25.8619 105.934C24.6188 105.934 23.8809 104.944 23.8809 103.448ZM24.5257 103.448C24.5257 104.631 25.0176 105.349 25.8619 105.349C26.7061 105.349 27.1914 104.631 27.1914 103.448C27.1914 102.252 26.7061 101.534 25.8619 101.534C25.0176 101.534 24.5257 102.252 24.5257 103.448Z" fill="#64748B"/>
<line x1="31.3386" y1="102.834" x2="268.755" y2="102.834" stroke="#E7E7E7" stroke-width="0.474832" stroke-dasharray="2.37 2.37"/>
<path d="M14.5573 80.2954C14.5573 79.7171 14.8963 79.2517 15.4282 79.059C14.9761 78.8662 14.7302 78.4873 14.7302 78.002C14.7302 77.2508 15.375 76.7389 16.3322 76.7389C17.2762 76.7389 17.9144 77.2508 17.9144 78.0086C17.9144 78.5005 17.6618 78.8795 17.2097 79.059C17.7482 79.2318 18.0939 79.7104 18.0939 80.3021C18.0939 81.1463 17.3892 81.7114 16.3256 81.7114C15.2553 81.7114 14.5573 81.1463 14.5573 80.2954ZM15.3284 78.0419C15.3284 78.5138 15.7207 78.8196 16.3189 78.8196C16.9239 78.8196 17.3028 78.5205 17.3028 78.0552C17.3028 77.5965 16.9239 77.304 16.3189 77.304C15.7207 77.304 15.3284 77.5965 15.3284 78.0419ZM15.1955 80.2489C15.1955 80.7873 15.6409 81.133 16.3256 81.133C17.0036 81.133 17.449 80.7873 17.449 80.2489C17.449 79.7171 17.0103 79.378 16.3189 79.378C15.6342 79.378 15.1955 79.7171 15.1955 80.2489ZM18.7254 79.2318C18.7254 77.7427 19.4965 76.7323 20.7064 76.7323C21.9096 76.7323 22.6807 77.7427 22.6807 79.2318C22.6807 80.7275 21.9429 81.718 20.7064 81.718C19.4633 81.718 18.7254 80.7275 18.7254 79.2318ZM19.3702 79.2318C19.3702 80.4151 19.8621 81.133 20.7064 81.133C21.5506 81.133 22.0359 80.4151 22.0359 79.2318C22.0359 78.0352 21.5506 77.3173 20.7064 77.3173C19.8621 77.3173 19.3702 78.0352 19.3702 79.2318ZM23.3346 79.2318C23.3346 77.7427 24.1057 76.7323 25.3156 76.7323C26.5188 76.7323 27.29 77.7427 27.29 79.2318C27.29 80.7275 26.5521 81.718 25.3156 81.718C24.0725 81.718 23.3346 80.7275 23.3346 79.2318ZM23.9794 79.2318C23.9794 80.4151 24.4713 81.133 25.3156 81.133C26.1599 81.133 26.6451 80.4151 26.6451 79.2318C26.6451 78.0352 26.1599 77.3173 25.3156 77.3173C24.4713 77.3173 23.9794 78.0352 23.9794 79.2318Z" fill="#64748B"/>
<line x1="31.3389" y1="78.6173" x2="268.755" y2="78.6173" stroke="#E7E7E7" stroke-width="0.474832" stroke-dasharray="2.37 2.37"/>
<path d="M13.5888 53.1938H12.5784V52.6088H14.2137V57.415H13.5888V53.1938ZM15.0929 55.0152C15.0929 53.5262 15.864 52.5157 17.0739 52.5157C18.2771 52.5157 19.0482 53.5262 19.0482 55.0152C19.0482 56.511 18.3104 57.5015 17.0739 57.5015C15.8308 57.5015 15.0929 56.511 15.0929 55.0152ZM15.7377 55.0152C15.7377 56.1985 16.2296 56.9165 17.0739 56.9165C17.9181 56.9165 18.4034 56.1985 18.4034 55.0152C18.4034 53.8187 17.9181 53.1007 17.0739 53.1007C16.2296 53.1007 15.7377 53.8187 15.7377 55.0152ZM19.7021 55.0152C19.7021 53.5262 20.4732 52.5157 21.6831 52.5157C22.8863 52.5157 23.6575 53.5262 23.6575 55.0152C23.6575 56.511 22.9196 57.5015 21.6831 57.5015C20.44 57.5015 19.7021 56.511 19.7021 55.0152ZM20.3469 55.0152C20.3469 56.1985 20.8389 56.9165 21.6831 56.9165C22.5274 56.9165 23.0126 56.1985 23.0126 55.0152C23.0126 53.8187 22.5274 53.1007 21.6831 53.1007C20.8389 53.1007 20.3469 53.8187 20.3469 55.0152ZM24.3113 55.0152C24.3113 53.5262 25.0824 52.5157 26.2923 52.5157C27.4955 52.5157 28.2667 53.5262 28.2667 55.0152C28.2667 56.511 27.5288 57.5015 26.2923 57.5015C25.0492 57.5015 24.3113 56.511 24.3113 55.0152ZM24.9561 55.0152C24.9561 56.1985 25.4481 56.9165 26.2923 56.9165C27.1366 56.9165 27.6219 56.1985 27.6219 55.0152C27.6219 53.8187 27.1366 53.1007 26.2923 53.1007C25.4481 53.1007 24.9561 53.8187 24.9561 55.0152Z" fill="#64748B"/>
<line x1="31.3389" y1="54.4008" x2="268.755" y2="54.4008" stroke="#E7E7E7" stroke-width="0.474832" stroke-dasharray="2.37 2.37"/>
<path d="M45.0217 164.252H44.3836V159.446H45.0217L46.677 163.488L48.3323 159.446H48.9837V164.252H48.3456V162.351C48.3456 161.454 48.3522 161.128 48.3854 160.789L46.9828 164.252H46.3712L44.9752 160.802C45.0084 161.035 45.0217 161.527 45.0217 162.198V164.252Z" fill="#64748B"/>
<rect x="40.8357" y="54.1633" width="4.74832" height="97.3406" fill="#3C50E0"/>
<rect x="47.4834" y="71.7322" width="4.74832" height="79.7718" fill="#80CAEE"/>
<g filter="url(#filter0_d_508_3231)">
<rect x="53.6562" y="68.8831" width="45.245" height="16.698" rx="3.32383" fill="white" shape-rendering="crispEdges"/>
<path d="M61.9754 79.7322H61.3372V74.9259H61.9754L63.6307 78.9677L65.2859 74.9259H65.9374V79.7322H65.2992V77.8309C65.2992 76.9335 65.3059 76.6078 65.3391 76.2688L63.9364 79.7322H63.3249L61.9289 76.282C61.9621 76.5147 61.9754 77.0066 61.9754 77.6781V79.7322ZM66.7374 78.1035C66.7374 77.0997 67.4554 76.3951 68.4326 76.3951C69.4031 76.3951 70.1211 77.0997 70.1211 78.1035C70.1211 79.1073 69.4031 79.8119 68.4326 79.8119C67.4554 79.8119 66.7374 79.1073 66.7374 78.1035ZM67.369 78.1035C67.369 78.7816 67.8011 79.2535 68.4326 79.2535C69.0575 79.2535 69.4962 78.7816 69.4962 78.1035C69.4962 77.4254 69.0575 76.9535 68.4326 76.9535C67.8011 76.9535 67.369 77.4254 67.369 78.1035ZM71.4377 79.7322H70.8128V76.4815H71.3779L71.4443 76.98C71.6504 76.6078 72.0626 76.3884 72.5213 76.3884C73.3788 76.3884 73.771 76.9136 73.771 77.7445V79.7322H73.1461V77.8841C73.1461 77.226 72.8403 76.9601 72.3617 76.9601C71.7767 76.9601 71.4377 77.3789 71.4377 78.0104V79.7322ZM75.1683 77.3191C74.9091 77.3191 74.6897 77.1064 74.6897 76.8604C74.6897 76.6011 74.9091 76.3884 75.1683 76.3884C75.4209 76.3884 75.6403 76.6011 75.6403 76.8604C75.6403 77.1064 75.4209 77.3191 75.1683 77.3191ZM75.1683 79.8119C74.9091 79.8119 74.6897 79.5992 74.6897 79.3466C74.6897 79.0874 74.9091 78.8746 75.1683 78.8746C75.4209 78.8746 75.6403 79.0874 75.6403 79.3466C75.6403 79.5992 75.4209 79.8119 75.1683 79.8119ZM78.2817 78.396C78.2817 77.8177 78.6207 77.3523 79.1525 77.1595C78.7005 76.9668 78.4545 76.5878 78.4545 76.1026C78.4545 75.3514 79.0993 74.8395 80.0566 74.8395C81.0005 74.8395 81.6387 75.3514 81.6387 76.1092C81.6387 76.6011 81.3861 76.98 80.9341 77.1595C81.4725 77.3324 81.8182 77.811 81.8182 78.4026C81.8182 79.2469 81.1136 79.8119 80.0499 79.8119C78.9797 79.8119 78.2817 79.2469 78.2817 78.396ZM79.0528 76.1424C79.0528 76.6144 79.445 76.9202 80.0433 76.9202C80.6482 76.9202 81.0271 76.6211 81.0271 76.1557C81.0271 75.6971 80.6482 75.4046 80.0433 75.4046C79.445 75.4046 79.0528 75.6971 79.0528 76.1424ZM78.9198 78.3495C78.9198 78.8879 79.3652 79.2336 80.0499 79.2336C80.728 79.2336 81.1734 78.8879 81.1734 78.3495C81.1734 77.8177 80.7346 77.4786 80.0433 77.4786C79.3586 77.4786 78.9198 77.8177 78.9198 78.3495ZM82.4497 77.3324C82.4497 75.8433 83.2209 74.8329 84.4307 74.8329C85.634 74.8329 86.4051 75.8433 86.4051 77.3324C86.4051 78.8281 85.6672 79.8186 84.4307 79.8186C83.1876 79.8186 82.4497 78.8281 82.4497 77.3324ZM83.0946 77.3324C83.0946 78.5157 83.5865 79.2336 84.4307 79.2336C85.275 79.2336 85.7603 78.5157 85.7603 77.3324C85.7603 76.1358 85.275 75.4179 84.4307 75.4179C83.5865 75.4179 83.0946 76.1358 83.0946 77.3324ZM87.0589 77.3324C87.0589 75.8433 87.8301 74.8329 89.0399 74.8329C90.2432 74.8329 91.0143 75.8433 91.0143 77.3324C91.0143 78.8281 90.2764 79.8186 89.0399 79.8186C87.7968 79.8186 87.0589 78.8281 87.0589 77.3324ZM87.7038 77.3324C87.7038 78.5157 88.1957 79.2336 89.0399 79.2336C89.8842 79.2336 90.3695 78.5157 90.3695 77.3324C90.3695 76.1358 89.8842 75.4179 89.0399 75.4179C88.1957 75.4179 87.7038 76.1358 87.7038 77.3324Z" fill="#1C2434"/>
<rect x="53.8937" y="69.1205" width="44.7701" height="16.2232" rx="3.08641" stroke="#E2E8F0" stroke-width="0.474832" shape-rendering="crispEdges"/>
</g>
<path d="M79.9986 160.044V159.446H83.5418V160.044H82.0993V164.252H81.4478V160.044H79.9986Z" fill="#64748B"/>
<rect x="75.9731" y="115.417" width="4.74832" height="36.0872" fill="#3C50E0"/>
<rect x="82.6208" y="94.5239" width="4.74832" height="56.9799" fill="#80CAEE"/>
<path d="M115.174 164.252L113.745 159.446H114.423L115.3 162.384C115.367 162.637 115.433 162.889 115.5 163.255C115.579 162.869 115.652 162.637 115.726 162.384L116.636 159.446H117.341L118.245 162.384C118.325 162.643 118.391 162.896 118.464 163.255C118.544 162.85 118.611 162.604 118.677 162.391L119.561 159.446H120.226L118.777 164.252H118.152L116.989 160.45L115.812 164.252H115.174Z" fill="#64748B"/>
<rect x="111.111" y="83.1282" width="4.74832" height="68.3758" fill="#3C50E0"/>
<rect x="117.758" y="98.3228" width="4.74832" height="53.1812" fill="#80CAEE"/>
<path d="M150.274 160.044V159.446H153.817V160.044H152.374V164.252H151.723V160.044H150.274Z" fill="#64748B"/>
<rect x="146.248" y="93.5745" width="4.74832" height="57.9295" fill="#3C50E0"/>
<rect x="152.896" y="71.7322" width="4.74832" height="79.7718" fill="#80CAEE"/>
<path d="M188.439 162.211H186.551V164.252H185.9V159.446H188.798V160.044H186.551V161.62H188.439V162.211Z" fill="#64748B"/>
<rect x="181.386" y="98.3228" width="4.74832" height="53.1812" fill="#3C50E0"/>
<rect x="188.034" y="115.417" width="4.74832" height="36.0872" fill="#80CAEE"/>
<path d="M220.683 160.742C220.683 159.918 221.348 159.36 222.338 159.36C223.256 159.36 223.847 159.871 223.9 160.702H223.242C223.209 160.224 222.87 159.945 222.331 159.945C221.727 159.945 221.334 160.25 221.334 160.722C221.334 161.108 221.554 161.341 222.006 161.447L222.797 161.633C223.581 161.813 223.98 162.238 223.98 162.916C223.98 163.78 223.309 164.332 222.285 164.332C221.308 164.332 220.656 163.82 220.616 162.996H221.281C221.294 163.454 221.68 163.747 222.285 163.747C222.923 163.747 223.329 163.448 223.329 162.969C223.329 162.59 223.123 162.351 222.664 162.245L221.873 162.065C221.088 161.886 220.683 161.434 220.683 160.742Z" fill="#64748B"/>
<rect x="216.523" y="90.7253" width="4.74832" height="60.7785" fill="#3C50E0"/>
<rect x="223.171" y="74.5811" width="4.74832" height="76.9228" fill="#80CAEE"/>
<path d="M255.821 160.742C255.821 159.918 256.486 159.36 257.476 159.36C258.393 159.36 258.985 159.871 259.038 160.702H258.38C258.347 160.224 258.008 159.945 257.469 159.945C256.865 159.945 256.472 160.25 256.472 160.722C256.472 161.108 256.692 161.341 257.144 161.447L257.935 161.633C258.719 161.813 259.118 162.238 259.118 162.916C259.118 163.78 258.447 164.332 257.423 164.332C256.446 164.332 255.794 163.82 255.754 162.996H256.419C256.432 163.454 256.818 163.747 257.423 163.747C258.061 163.747 258.467 163.448 258.467 162.969C258.467 162.59 258.261 162.351 257.802 162.245L257.011 162.065C256.226 161.886 255.821 161.434 255.821 160.742Z" fill="#64748B"/>
<rect x="251.661" y="62.2356" width="4.74832" height="89.2685" fill="#3C50E0"/>
<rect x="258.309" y="103.546" width="4.74832" height="47.9581" fill="#80CAEE"/>
<path d="M18.3189 23.5035C16.0939 23.5035 14.6523 21.9575 14.6523 19.5653C14.6523 17.194 16.1461 15.6166 18.3816 15.6166C20.1888 15.6166 21.5364 16.6716 21.7976 18.3117H20.3873C20.1261 17.4238 19.3636 16.9015 18.3503 16.9015C16.94 16.9015 16.0521 17.9252 16.0521 19.5548C16.0521 21.174 16.9505 22.2186 18.3503 22.2186C19.3845 22.2186 20.1784 21.6754 20.4291 20.8293H21.8184C21.526 22.438 20.1261 23.5035 18.3189 23.5035ZM24.2631 23.514C23.1663 23.514 22.4977 22.8768 22.4977 21.9052C22.4977 20.9546 23.1872 20.3592 24.4094 20.2652L25.9554 20.1503V20.0354C25.9554 19.3355 25.5376 19.0534 24.8899 19.0534C24.1378 19.0534 23.7199 19.3668 23.7199 19.91H22.6335C22.6335 18.7922 23.5528 18.061 24.9526 18.061C26.3419 18.061 27.1985 18.8131 27.1985 20.2443V23.3782H26.0808L25.9868 22.6156C25.7674 23.1484 25.0675 23.514 24.2631 23.514ZM24.681 22.5529C25.4645 22.5529 25.9659 22.0828 25.9659 21.2889V21.0173L24.8899 21.1009C24.096 21.174 23.793 21.4352 23.793 21.853C23.793 22.3231 24.1064 22.5529 24.681 22.5529ZM29.725 23.3782H28.4505V18.2177H29.6205L29.725 18.8236C29.9862 18.3953 30.5085 18.061 31.2502 18.061C32.0336 18.061 32.5768 18.4475 32.8484 19.043C33.1096 18.4475 33.7155 18.061 34.499 18.061C35.7525 18.061 36.442 18.8131 36.442 20.004V23.3782H35.178V20.3383C35.178 19.5966 34.781 19.2101 34.1751 19.2101C33.5588 19.2101 33.0887 19.6071 33.0887 20.4532V23.3782H31.8143V20.3279C31.8143 19.6071 31.4277 19.2205 30.8219 19.2205C30.216 19.2205 29.725 19.6175 29.725 20.4532V23.3782ZM37.6931 25.7704V18.2177H38.8735L38.9571 19.0012C39.2705 18.4057 39.9495 18.061 40.733 18.061C42.185 18.061 43.1461 19.1161 43.1461 20.7353C43.1461 22.344 42.2686 23.514 40.733 23.514C39.9599 23.514 39.2914 23.211 38.9675 22.6887V25.7704H37.6931ZM38.978 20.7979C38.978 21.7277 39.5525 22.3649 40.43 22.3649C41.3284 22.3649 41.8612 21.7172 41.8612 20.7979C41.8612 19.8787 41.3284 19.2205 40.43 19.2205C39.5525 19.2205 38.978 19.8682 38.978 20.7979ZM45.6964 23.514C44.5996 23.514 43.931 22.8768 43.931 21.9052C43.931 20.9546 44.6205 20.3592 45.8427 20.2652L47.3887 20.1503V20.0354C47.3887 19.3355 46.9709 19.0534 46.3232 19.0534C45.5711 19.0534 45.1532 19.3668 45.1532 19.91H44.0668C44.0668 18.7922 44.9861 18.061 46.3859 18.061C47.7752 18.061 48.6318 18.8131 48.6318 20.2443V23.3782H47.5141L47.4201 22.6156C47.2007 23.1484 46.5008 23.514 45.6964 23.514ZM46.1143 22.5529C46.8978 22.5529 47.3992 22.0828 47.3992 21.2889V21.0173L46.3232 21.1009C45.5293 21.174 45.2263 21.4352 45.2263 21.853C45.2263 22.3231 45.5397 22.5529 46.1143 22.5529ZM50.5211 17.1835C50.0823 17.1835 49.7376 16.8388 49.7376 16.4105C49.7376 15.9822 50.0823 15.6479 50.5211 15.6479C50.9389 15.6479 51.2837 15.9822 51.2837 16.4105C51.2837 16.8388 50.9389 17.1835 50.5211 17.1835ZM49.8838 23.3782V18.2177H51.1583V23.3782H49.8838ZM52.1825 20.683C52.1825 19.1788 53.1645 18.0506 54.6374 18.0506C55.4104 18.0506 56.0163 18.3744 56.3193 18.928L56.3924 18.2177H57.5728V23.117C57.5728 24.8407 56.5386 25.9166 54.8672 25.9166C53.3838 25.9166 52.3706 25.0705 52.2139 23.6916H53.4883C53.5719 24.3601 54.0838 24.7571 54.8672 24.7571C55.7447 24.7571 56.3088 24.2034 56.3088 23.3468V22.4902C55.985 22.9708 55.3478 23.2737 54.6061 23.2737C53.1436 23.2737 52.1825 22.1768 52.1825 20.683ZM53.4674 20.6517C53.4674 21.5187 54.0211 22.1664 54.8568 22.1664C55.7343 22.1664 56.2775 21.5501 56.2775 20.6517C56.2775 19.7742 55.7447 19.1683 54.8568 19.1683C54.0106 19.1683 53.4674 19.8055 53.4674 20.6517ZM60.1662 23.3782H58.8917V18.2177H60.0722L60.1766 18.8863C60.5005 18.3639 61.1273 18.061 61.8272 18.061C63.1225 18.061 63.7911 18.8654 63.7911 20.2025V23.3782H62.5166V20.5054C62.5166 19.6384 62.0883 19.2205 61.4302 19.2205C60.6467 19.2205 60.1662 19.7638 60.1662 20.5995V23.3782ZM64.5851 21.8112H65.7968C65.8073 22.2604 66.1416 22.5425 66.7266 22.5425C67.322 22.5425 67.6458 22.3022 67.6458 21.9261C67.6458 21.665 67.51 21.4769 67.0504 21.3725L66.1207 21.1531C65.191 20.9442 64.7418 20.5054 64.7418 19.6802C64.7418 18.6669 65.5984 18.061 66.7892 18.061C67.9488 18.061 68.7323 18.7296 68.7427 19.7324H67.5309C67.5205 19.2937 67.228 19.0116 66.737 19.0116C66.2356 19.0116 65.9431 19.2414 65.9431 19.6279C65.9431 19.9204 66.1729 20.1085 66.6117 20.2129L67.5414 20.4323C68.4084 20.6308 68.8472 21.0278 68.8472 21.8217C68.8472 22.8663 67.9592 23.514 66.6848 23.514C65.3999 23.514 64.5851 22.8245 64.5851 21.8112Z" fill="#212B36"/>
<path d="M185.978 17.3668C185.978 16.4247 186.738 15.7865 187.87 15.7865C188.918 15.7865 189.595 16.3715 189.655 17.3212H188.903C188.865 16.7742 188.478 16.4551 187.862 16.4551C187.171 16.4551 186.723 16.8046 186.723 17.344C186.723 17.7846 186.974 18.0505 187.49 18.1721L188.394 18.3848C189.291 18.59 189.747 19.0762 189.747 19.8511C189.747 20.8388 188.979 21.4693 187.809 21.4693C186.692 21.4693 185.948 20.8843 185.902 19.9423H186.662C186.677 20.4665 187.118 20.8008 187.809 20.8008C188.539 20.8008 189.002 20.4589 189.002 19.9119C189.002 19.4788 188.766 19.2053 188.242 19.0838L187.338 18.8787C186.442 18.6735 185.978 18.1569 185.978 17.3668ZM191.427 21.3782H190.682V15.8853H191.427V18.2481H194.147V15.8853H194.891V21.3782H194.147V18.9394H191.427V21.3782ZM201.118 18.6279C201.118 20.2994 200.024 21.4693 198.467 21.4693C196.917 21.4693 195.838 20.2994 195.838 18.6279C195.838 16.9641 196.925 15.7865 198.475 15.7865C200.032 15.7865 201.118 16.9565 201.118 18.6279ZM200.336 18.6279C200.336 17.3516 199.591 16.5083 198.475 16.5083C197.358 16.5083 196.621 17.3516 196.621 18.6279C196.621 19.9043 197.358 20.7552 198.475 20.7552C199.591 20.7552 200.336 19.8967 200.336 18.6279ZM202.815 21.3782H202.071V15.8853H204.145C205.322 15.8853 206.021 16.5083 206.021 17.5339C206.021 18.2937 205.641 18.8407 204.958 19.061L206.074 21.3782H205.246L204.221 19.2053H202.815V21.3782ZM202.815 16.5539V18.5444H204.152C204.844 18.5444 205.239 18.1721 205.239 17.5415C205.239 16.9034 204.829 16.5539 204.145 16.5539H202.815ZM206.436 16.5691V15.8853H210.485V16.5691H208.836V21.3782H208.092V16.5691H206.436ZM213.311 21.3782V15.8853H215.408C216.479 15.8853 217.132 16.4323 217.132 17.3364C217.132 17.967 216.859 18.3924 216.312 18.6203C216.92 18.8179 217.231 19.2585 217.231 19.9119C217.231 20.8236 216.57 21.3782 215.484 21.3782H213.311ZM215.362 16.5463H214.055V18.3089H215.408C216.023 18.3089 216.373 17.9746 216.373 17.4048C216.373 16.8578 216.008 16.5463 215.362 16.5463ZM215.468 18.9546H214.055V20.7172H215.468C216.107 20.7172 216.464 20.3905 216.464 19.8207C216.464 19.2737 216.099 18.9546 215.468 18.9546ZM219.277 19.1446L217.415 15.8853H218.251L219.474 18.0809C219.55 18.2101 219.596 18.3165 219.657 18.4456C219.725 18.3089 219.74 18.2633 219.839 18.0809L221.054 15.8853H221.867L220.021 19.1446V21.3782H219.277V19.1446ZM222.544 18.6203C222.248 18.6203 221.997 18.3772 221.997 18.0961C221.997 17.7998 222.248 17.5567 222.544 17.5567C222.833 17.5567 223.084 17.7998 223.084 18.0961C223.084 18.3772 222.833 18.6203 222.544 18.6203ZM222.544 21.4693C222.248 21.4693 221.997 21.2262 221.997 20.9375C221.997 20.6412 222.248 20.3981 222.544 20.3981C222.833 20.3981 223.084 20.6412 223.084 20.9375C223.084 21.2262 222.833 21.4693 222.544 21.4693Z" fill="#1C2434"/>
<path d="M231.155 21.3782L229.521 15.8853H230.296L231.299 19.2433C231.375 19.532 231.451 19.8207 231.527 20.2386C231.618 19.7979 231.702 19.532 231.785 19.2433L232.826 15.8853H233.632L234.665 19.2433C234.756 19.5396 234.832 19.8283 234.916 20.2386C235.007 19.7751 235.083 19.494 235.159 19.2509L236.169 15.8853H236.929L235.273 21.3782H234.558L233.229 17.0325L231.884 21.3782H231.155ZM238.679 21.4693C237.585 21.4693 236.833 20.6792 236.833 19.5244C236.833 18.362 237.57 17.5567 238.649 17.5567C239.705 17.5567 240.396 18.2861 240.396 19.3877V19.6536L237.524 19.6612C237.578 20.4437 237.988 20.8768 238.694 20.8768C239.249 20.8768 239.614 20.6488 239.735 20.2234H240.404C240.222 21.0211 239.599 21.4693 238.679 21.4693ZM238.649 18.1569C238.026 18.1569 237.631 18.5292 237.54 19.1825H239.682C239.682 18.5672 239.279 18.1569 238.649 18.1569ZM242.797 21.4693C241.703 21.4693 240.951 20.6792 240.951 19.5244C240.951 18.362 241.688 17.5567 242.767 17.5567C243.823 17.5567 244.514 18.2861 244.514 19.3877V19.6536L241.642 19.6612C241.695 20.4437 242.106 20.8768 242.812 20.8768C243.367 20.8768 243.731 20.6488 243.853 20.2234H244.522C244.339 21.0211 243.716 21.4693 242.797 21.4693ZM242.767 18.1569C242.144 18.1569 241.749 18.5292 241.657 19.1825H243.8C243.8 18.5672 243.397 18.1569 242.767 18.1569ZM246.041 21.3782H245.327V15.7865H246.041V19.4105L247.69 17.6631H248.586L247.165 19.1446L248.578 21.3782H247.758L246.672 19.6612L246.041 20.3221V21.3782ZM249.899 21.3782H249.185V15.7865H249.899V21.3782ZM250.593 23.042V22.457H251.072C251.414 22.457 251.687 22.4038 251.862 21.9328L251.991 21.5757L250.494 17.6631H251.247L252.325 20.6564L253.427 17.6631H254.164L252.409 22.2139C252.158 22.8521 251.786 23.118 251.216 23.118C250.981 23.118 250.783 23.0876 250.593 23.042Z" fill="#64748B"/>
<path d="M262.48 20.1945C262.4 20.1945 262.333 20.1678 262.266 20.1144L259.194 17.0962C259.074 16.976 259.074 16.789 259.194 16.6689C259.315 16.5487 259.502 16.5487 259.622 16.6689L262.48 19.46L265.338 16.6421C265.458 16.522 265.645 16.522 265.765 16.6421C265.885 16.7623 265.885 16.9493 265.765 17.0695L262.693 20.0876C262.627 20.1544 262.56 20.1945 262.48 20.1945Z" fill="#64748B"/>
<line x1="-2.07556e-08" y1="37.307" x2="283" y2="37.307" stroke="#E2E8F0" stroke-width="0.474832"/>
<defs>
<filter id="filter0_d_508_3231" x="48.9079" y="67.9334" width="54.7415" height="26.1946" filterUnits="userSpaceOnUse" color-interpolation-filters="sRGB">
<feFlood flood-opacity="0" result="BackgroundImageFix"/>
<feColorMatrix in="SourceAlpha" type="matrix" values="0 0 0 0 0 0 0 0 0 0 0 0 0 0 0 0 0 0 127 0" result="hardAlpha"/>
<feMorphology radius="1.4245" operator="erode" in="SourceAlpha" result="effect1_dropShadow_508_3231"/>
<feOffset dy="3.79866"/>
<feGaussianBlur stdDeviation="3.08641"/>
<feComposite in2="hardAlpha" operator="out"/>
<feColorMatrix type="matrix" values="0 0 0 0 0 0 0 0 0 0 0 0 0 0 0 0 0 0 0.07 0"/>
<feBlend mode="normal" in2="BackgroundImageFix" result="effect1_dropShadow_508_3231"/>
<feBlend mode="normal" in="SourceGraphic" in2="effect1_dropShadow_508_3231" result="shape"/>
</filter>
</defs>
</svg>
