<svg width="242" height="97" viewBox="0 0 242 97" fill="none" xmlns="http://www.w3.org/2000/svg">
<rect y="0.177246" width="242" height="96.3301" rx="15" fill="white"/>
<path d="M21.2302 57.6835C19.2942 57.6835 18.0067 56.2925 18.0067 54.1874C18.0067 52.0916 19.3318 50.6725 21.2772 50.6725C22.8091 50.6725 23.9838 51.5841 24.2376 52.975H23.2508C22.997 52.0916 22.2358 51.5559 21.249 51.5559C19.8769 51.5559 18.9747 52.5897 18.9747 54.178C18.9747 55.7663 19.8769 56.8 21.249 56.8C22.2452 56.8 23.0346 56.2644 23.2884 55.4279H24.2658C23.9744 56.7812 22.7621 57.6835 21.2302 57.6835ZM26.101 57.5801H25.2176V50.6631H26.101V57.5801ZM27.8338 51.8943C27.5143 51.8943 27.2511 51.6311 27.2511 51.3116C27.2511 50.9826 27.5143 50.7289 27.8338 50.7289C28.1533 50.7289 28.4165 50.9826 28.4165 51.3116C28.4165 51.6311 28.1533 51.8943 27.8338 51.8943ZM27.4015 57.5801V52.9844H28.2849V57.5801H27.4015ZM31.5504 57.6929C30.1971 57.6929 29.2667 56.7155 29.2667 55.287C29.2667 53.849 30.1783 52.8529 31.5128 52.8529C32.8192 52.8529 33.6744 53.7551 33.6744 55.1178V55.4467L30.1219 55.4561C30.1877 56.4241 30.6952 56.9598 31.5692 56.9598C32.2553 56.9598 32.7064 56.6779 32.8568 56.1516H33.6838C33.4582 57.1384 32.6876 57.6929 31.5504 57.6929ZM31.5128 53.5953C30.7422 53.5953 30.2535 54.0558 30.1407 54.864H32.791C32.791 54.1028 32.2929 53.5953 31.5128 53.5953ZM35.5445 57.5801H34.6611V52.9844H35.46L35.5539 53.6893C35.8453 53.163 36.428 52.8529 37.0764 52.8529C38.2888 52.8529 38.8433 53.5953 38.8433 54.7701V57.5801H37.9598V54.9674C37.9598 54.037 37.5275 53.6611 36.8509 53.6611C36.0238 53.6611 35.5445 54.2532 35.5445 55.146V57.5801ZM41.3638 57.5801H40.4804V53.7269H39.5781V52.9844H40.4804V51.5465H41.3638V52.9844H42.266V53.7269H41.3638V57.5801ZM42.6829 56.2456H43.5287C43.5287 56.7155 43.8858 56.9974 44.4685 56.9974C45.0888 56.9974 45.4459 56.7437 45.4459 56.3207C45.4459 56.0106 45.2955 55.8226 44.8162 55.7005L44.008 55.5125C43.1904 55.3151 42.805 54.911 42.805 54.2344C42.805 53.3885 43.5193 52.8529 44.5343 52.8529C45.5399 52.8529 46.1977 53.4167 46.2165 54.2908H45.3707C45.3519 53.8303 45.0418 53.5389 44.5061 53.5389C43.9516 53.5389 43.6415 53.7833 43.6415 54.2062C43.6415 54.5163 43.867 54.7231 44.3181 54.8358L45.1264 55.0332C45.9064 55.2212 46.2917 55.5783 46.2917 56.2644C46.2917 57.1384 45.5399 57.6929 44.4497 57.6929C43.3689 57.6929 42.6829 57.1196 42.6829 56.2456ZM50.2735 57.5801H49.3149L51.796 50.7853H52.8204L55.3109 57.5801H54.3429L53.732 55.8884H50.875L50.2735 57.5801ZM52.1907 52.2514L51.1569 55.0896H53.4594L52.4163 52.2514C52.3693 52.1198 52.3223 51.96 52.3035 51.8567C52.2847 51.9506 52.2377 52.1104 52.1907 52.2514ZM57.7314 57.6929C56.3968 57.6929 55.5886 56.6967 55.5886 55.2963C55.5886 53.8866 56.4062 52.8529 57.769 52.8529C58.4738 52.8529 59.0659 53.163 59.376 53.7269V50.6631H60.25V57.5801H59.4606L59.3854 56.7437C59.0847 57.3733 58.4644 57.6929 57.7314 57.6929ZM57.9099 56.894C58.8121 56.894 59.3666 56.2268 59.3666 55.2682C59.3666 54.3283 58.8121 53.6517 57.9099 53.6517C57.0077 53.6517 56.4814 54.3283 56.4814 55.2682C56.4814 56.2174 57.0077 56.894 57.9099 56.894ZM63.3665 57.6929C62.032 57.6929 61.2238 56.6967 61.2238 55.2963C61.2238 53.8866 62.0414 52.8529 63.4041 52.8529C64.109 52.8529 64.7011 53.163 65.0112 53.7269V50.6631H65.8852V57.5801H65.0958L65.0206 56.7437C64.7199 57.3733 64.0996 57.6929 63.3665 57.6929ZM63.5451 56.894C64.4473 56.894 65.0018 56.2268 65.0018 55.2682C65.0018 54.3283 64.4473 53.6517 63.5451 53.6517C62.6429 53.6517 62.1166 54.3283 62.1166 55.2682C62.1166 56.2174 62.6429 56.894 63.5451 56.894ZM69.1427 57.6929C67.7893 57.6929 66.8589 56.7155 66.8589 55.287C66.8589 53.849 67.7705 52.8529 69.1051 52.8529C70.4114 52.8529 71.2666 53.7551 71.2666 55.1178V55.4467L67.7142 55.4561C67.7799 56.4241 68.2874 56.9598 69.1615 56.9598C69.8475 56.9598 70.2986 56.6779 70.449 56.1516H71.276C71.0505 57.1384 70.2798 57.6929 69.1427 57.6929ZM69.1051 53.5953C68.3344 53.5953 67.8457 54.0558 67.733 54.864H70.3832C70.3832 54.1028 69.8851 53.5953 69.1051 53.5953ZM74.0954 57.6929C72.7608 57.6929 71.9526 56.6967 71.9526 55.2963C71.9526 53.8866 72.7702 52.8529 74.133 52.8529C74.8378 52.8529 75.4299 53.163 75.74 53.7269V50.6631H76.614V57.5801H75.8246L75.7494 56.7437C75.4487 57.3733 74.8284 57.6929 74.0954 57.6929ZM74.2739 56.894C75.1761 56.894 75.7306 56.2268 75.7306 55.2682C75.7306 54.3283 75.1761 53.6517 74.2739 53.6517C73.3717 53.6517 72.8454 54.3283 72.8454 55.2682C72.8454 56.2174 73.3717 56.894 74.2739 56.894Z" fill="#64748B"/>
<rect x="17.6213" y="66.2791" width="37.8592" height="13.699" rx="2.93689" fill="#10B981"/>
<g clip-path="url(#clip0_508_3178)">
<path d="M28.2034 71.8049H26.1347C25.9805 71.8049 25.852 71.9334 25.852 72.0876C25.852 72.2418 25.9805 72.3703 26.1347 72.3703H27.4068L25.7621 73.4753C25.6979 73.5267 25.6079 73.5267 25.5308 73.4753L23.8348 72.3574C23.5649 72.1775 23.2309 72.1775 22.961 72.3574L20.9823 73.6809C20.8538 73.7708 20.8153 73.9507 20.9052 74.0792C20.9566 74.1563 21.0466 74.2077 21.1493 74.2077C21.2007 74.2077 21.265 74.1948 21.3035 74.1563L23.2951 72.8328C23.3594 72.7814 23.4493 72.7814 23.5264 72.8328L25.2225 73.9635C25.4923 74.1434 25.8264 74.1434 26.0962 73.9635L27.9079 72.7429V74.1691C27.9079 74.3233 28.0364 74.4518 28.1905 74.4518C28.3447 74.4518 28.4732 74.3233 28.4732 74.1691V72.0876C28.4989 71.9334 28.3576 71.8049 28.2034 71.8049Z" fill="white"/>
</g>
<path d="M31.1076 72.9714H32.5878V71.4912H33.1517V72.9714H34.6319V73.5352H33.1517V75.0225H32.5878V73.5352H31.1076V72.9714ZM38.9608 75.6216L35.5211 75.6287V75.1L37.1634 73.6833C37.9881 72.9714 38.2207 72.626 38.2207 72.0832C38.2207 71.4418 37.8541 71.0612 37.2409 71.0612C36.6136 71.0612 36.2048 71.5194 36.1907 72.2454H35.4999C35.5211 71.1528 36.2118 70.4409 37.248 70.4409C38.27 70.4409 38.9255 71.0612 38.9255 72.041C38.9255 72.767 38.566 73.2815 37.6638 74.0639L36.6065 74.9802H38.9608V75.6216ZM40.2858 75.7132C40.0109 75.7132 39.7783 75.4877 39.7783 75.2198C39.7783 74.945 40.0109 74.7194 40.2858 74.7194C40.5536 74.7194 40.7862 74.945 40.7862 75.2198C40.7862 75.4877 40.5536 75.7132 40.2858 75.7132ZM43.1678 75.7132C42.1246 75.7132 41.448 75.0507 41.448 74.0357H42.1317C42.1317 74.6912 42.5334 75.093 43.1819 75.093C43.8727 75.093 44.3167 74.6348 44.3167 73.9441C44.3167 73.2885 43.9009 72.8022 43.189 72.8022C42.759 72.8022 42.3643 73.0066 42.1317 73.2956L41.5466 73.1476L42.1669 70.5326H44.7185V71.1669H42.6674L42.329 72.5203C42.5969 72.3158 42.9352 72.2101 43.3158 72.2101C44.352 72.2101 45.0216 72.9361 45.0216 73.9159C45.0216 74.9731 44.2674 75.7132 43.1678 75.7132ZM48.1428 71.7379C48.1428 72.4921 47.6071 73.0348 46.8529 73.0348C46.1058 73.0348 45.5701 72.4921 45.5701 71.7379C45.5701 70.9766 46.1058 70.4339 46.8529 70.4339C47.6071 70.4339 48.1428 70.9766 48.1428 71.7379ZM50.8283 70.5396L46.9587 75.6287H46.282L50.1516 70.5396H50.8283ZM47.6001 71.7379C47.6001 71.2797 47.297 70.9625 46.8529 70.9625C46.4159 70.9625 46.1128 71.2797 46.1128 71.7379C46.1128 72.189 46.4159 72.5062 46.8529 72.5062C47.2899 72.5062 47.6001 72.189 47.6001 71.7379ZM51.5543 74.4234C51.5543 75.1776 51.0116 75.7203 50.2644 75.7203C49.5173 75.7203 48.9745 75.1776 48.9745 74.4234C48.9745 73.6621 49.5173 73.1264 50.2644 73.1264C51.0116 73.1264 51.5543 73.6621 51.5543 74.4234ZM51.0045 74.4234C51.0045 73.9652 50.7085 73.648 50.2644 73.648C49.8274 73.648 49.5243 73.9652 49.5243 74.4234C49.5243 74.8745 49.8274 75.1917 50.2644 75.1917C50.7014 75.1917 51.0045 74.8745 51.0045 74.4234Z" fill="white"/>
<path d="M60.5251 72.2868C60.5251 71.2671 61.3474 70.5763 62.5727 70.5763C63.7075 70.5763 64.4394 71.2095 64.5051 72.2374H63.691C63.6499 71.6453 63.2305 71.3 62.5644 71.3C61.8161 71.3 61.3309 71.6782 61.3309 72.2621C61.3309 72.739 61.6023 73.0269 62.1615 73.1584L63.1401 73.3887C64.1104 73.6107 64.6038 74.137 64.6038 74.9758C64.6038 76.0448 63.7733 76.7273 62.5069 76.7273C61.2981 76.7273 60.4922 76.0941 60.4428 75.0745H61.2652C61.2816 75.6419 61.7586 76.0037 62.5069 76.0037C63.2963 76.0037 63.7979 75.6336 63.7979 75.0416C63.7979 74.5728 63.543 74.2768 62.9756 74.1452L61.997 73.9232C61.0267 73.7012 60.5251 73.142 60.5251 72.2868ZM65.8632 71.6536C65.5836 71.6536 65.3534 71.4233 65.3534 71.1437C65.3534 70.8559 65.5836 70.6339 65.8632 70.6339C66.1428 70.6339 66.3731 70.8559 66.3731 71.1437C66.3731 71.4233 66.1428 71.6536 65.8632 71.6536ZM65.4849 76.6287V72.6075H66.2579V76.6287H65.4849ZM68.1531 76.6287H67.3802V72.6075H68.0791L68.1614 73.2242C68.4163 72.7637 68.9261 72.4923 69.4935 72.4923C70.5543 72.4923 71.0395 73.142 71.0395 74.1699V76.6287H70.2665V74.3426C70.2665 73.5285 69.8883 73.1995 69.2962 73.1995C68.5725 73.1995 68.1531 73.7176 68.1531 74.4988V76.6287ZM71.847 74.6222C71.847 73.364 72.6447 72.4923 73.8206 72.4923C74.8321 72.4923 75.5393 73.068 75.6791 73.9643H74.9061C74.7745 73.4545 74.3633 73.1831 73.8453 73.1831C73.1134 73.1831 72.6118 73.7423 72.6118 74.614C72.6118 75.4774 73.0805 76.0366 73.8124 76.0366C74.3633 76.0366 74.7745 75.7488 74.9143 75.2718H75.6873C75.531 76.1435 74.7827 76.7273 73.8124 76.7273C72.6282 76.7273 71.847 75.8886 71.847 74.6222ZM78.238 76.7273C77.0538 76.7273 76.2397 75.8721 76.2397 74.6222C76.2397 73.364 77.0374 72.4923 78.2051 72.4923C79.3481 72.4923 80.0965 73.2818 80.0965 74.4742V74.762L76.9881 74.7702C77.0456 75.6172 77.4897 76.0859 78.2544 76.0859C78.8547 76.0859 79.2495 75.8392 79.381 75.3787H80.1047C79.9073 76.2422 79.233 76.7273 78.238 76.7273ZM78.2051 73.142C77.5308 73.142 77.1032 73.5449 77.0045 74.2521H79.3235C79.3235 73.586 78.8876 73.142 78.2051 73.142ZM83.9978 76.6287H83.2248V70.5763H83.9978V76.6287ZM86.3117 76.7273C85.4482 76.7273 84.9384 76.2422 84.9384 75.5103C84.9384 74.7702 85.4893 74.3097 86.435 74.2357L87.7014 74.137V74.0219C87.7014 73.3476 87.2985 73.1091 86.7557 73.1091C86.1061 73.1091 85.736 73.3969 85.736 73.8821H85.0617C85.0617 73.0433 85.7525 72.4923 86.7886 72.4923C87.7836 72.4923 88.4579 73.0186 88.4579 74.1041V76.6287H87.8001L87.7179 75.979C87.5123 76.4395 86.9613 76.7273 86.3117 76.7273ZM86.5337 76.127C87.2656 76.127 87.7096 75.6501 87.7096 74.8935V74.6797L86.6817 74.762C85.9992 74.8278 85.7196 75.0909 85.7196 75.4856C85.7196 75.9132 86.0321 76.127 86.5337 76.127ZM89.1995 75.461H89.9396C89.9396 75.8721 90.2521 76.1188 90.762 76.1188C91.3047 76.1188 91.6172 75.8968 91.6172 75.5267C91.6172 75.2554 91.4856 75.0909 91.0662 74.984L90.359 74.8195C89.6436 74.6468 89.3064 74.2932 89.3064 73.7012C89.3064 72.9611 89.9314 72.4923 90.8195 72.4923C91.6994 72.4923 92.275 72.9857 92.2915 73.7505H91.5514C91.5349 73.3476 91.2636 73.0926 90.7948 73.0926C90.3097 73.0926 90.0383 73.3064 90.0383 73.6765C90.0383 73.9479 90.2357 74.1288 90.6304 74.2275L91.3376 74.4001C92.0201 74.5646 92.3573 74.8771 92.3573 75.4774C92.3573 76.2422 91.6994 76.7273 90.7455 76.7273C89.7998 76.7273 89.1995 76.2257 89.1995 75.461ZM94.3493 76.6287H93.5763V73.2571H92.7869V72.6075H93.5763V71.3493H94.3493V72.6075H95.1387V73.2571H94.3493V76.6287ZM98.9445 76.6287L97.6287 72.6075H98.4264L99.0925 74.6962C99.1829 74.9922 99.2652 75.2965 99.3392 75.6501C99.405 75.2965 99.5119 74.9593 99.6023 74.6962L100.277 72.6075H101.066L101.732 74.6962C101.798 74.8935 101.93 75.3623 101.995 75.6501C102.061 75.3294 102.135 75.0498 102.25 74.6962L102.925 72.6075H103.73L102.357 76.6287H101.625L100.926 74.4742C100.795 74.0712 100.712 73.7587 100.671 73.5367C100.63 73.7341 100.556 73.9972 100.408 74.4824L99.7092 76.6287H98.9445ZM105.943 76.7273C104.759 76.7273 103.945 75.8721 103.945 74.6222C103.945 73.364 104.743 72.4923 105.911 72.4923C107.054 72.4923 107.802 73.2818 107.802 74.4742V74.762L104.694 74.7702C104.751 75.6172 105.195 76.0859 105.96 76.0859C106.56 76.0859 106.955 75.8392 107.086 75.3787H107.81C107.613 76.2422 106.938 76.7273 105.943 76.7273ZM105.911 73.142C105.236 73.142 104.809 73.5449 104.71 74.2521H107.029C107.029 73.586 106.593 73.142 105.911 73.142ZM110.4 76.7273C109.216 76.7273 108.402 75.8721 108.402 74.6222C108.402 73.364 109.2 72.4923 110.368 72.4923C111.511 72.4923 112.259 73.2818 112.259 74.4742V74.762L109.15 74.7702C109.208 75.6172 109.652 76.0859 110.417 76.0859C111.017 76.0859 111.412 75.8392 111.543 75.3787H112.267C112.07 76.2422 111.395 76.7273 110.4 76.7273ZM110.368 73.142C109.693 73.142 109.266 73.5449 109.167 74.2521H111.486C111.486 73.586 111.05 73.142 110.368 73.142ZM113.912 76.6287H113.139V70.5763H113.912V74.4988L115.696 72.6075H116.667L115.129 74.211L116.658 76.6287H115.77L114.594 74.7702L113.912 75.4856V76.6287Z" fill="#64748B"/>
<path d="M20.812 23.6675H18.1805V21.7761H22.8349V33.7986H20.812V23.6675ZM31.9535 30.2626L29.355 33.7986H26.9538L29.8319 29.9665C29.5359 30.0488 29.2234 30.0981 28.9273 30.0981C26.4439 30.0981 24.7664 28.3548 24.7664 25.9207C24.7664 23.355 26.6742 21.5623 29.2398 21.5623C31.8384 21.5623 33.7791 23.4701 33.7791 25.9371C33.7791 27.3844 33.3021 28.437 31.9535 30.2626ZM31.6246 25.9207C31.6246 24.4569 30.6542 23.4372 29.2398 23.4372C27.8583 23.4372 26.888 24.4569 26.888 25.9207C26.888 27.368 27.8583 28.3712 29.2398 28.3712C30.6707 28.3712 31.6246 27.368 31.6246 25.9207ZM34.3919 21.7761H43.0263V23.7168L38.668 33.7986H36.4806L40.9212 23.7168H34.3919V21.7761Z" fill="black"/>
<circle cx="203.82" cy="58.3278" r="17.6214" stroke="#E2E8F0" stroke-width="5.87379"/>
<mask id="path-9-inside-1_508_3178" fill="white">
<path d="M189.391 68.4526C188.066 69.3825 187.732 71.2283 188.841 72.4079C190.649 74.3318 192.818 75.8963 195.234 77.0068C198.54 78.5271 202.192 79.1421 205.814 78.7891C209.437 78.4361 212.901 77.1278 215.852 74.9977C218.803 72.8677 221.136 69.9923 222.612 66.6654C224.088 63.3385 224.655 59.6794 224.253 56.0619C223.852 52.4445 222.498 48.9983 220.329 46.0757C218.16 43.153 215.254 40.8586 211.907 39.4269C209.463 38.381 206.848 37.8229 204.208 37.7732C202.589 37.7427 201.445 39.2291 201.645 40.8356C201.845 42.4421 203.318 43.5518 204.932 43.6742C206.534 43.7958 208.112 44.1797 209.601 44.8168C211.993 45.8403 214.071 47.4804 215.621 49.5696C217.172 51.6588 218.14 54.1222 218.427 56.7081C218.713 59.294 218.308 61.9096 217.253 64.2878C216.198 66.6659 214.531 68.7214 212.421 70.244C210.311 71.7666 207.835 72.7019 205.246 72.9542C202.656 73.2065 200.046 72.7668 197.682 71.6801C196.211 71.0036 194.867 70.0913 193.702 68.9852C192.528 67.8705 190.717 67.5227 189.391 68.4526Z"/>
</mask>
<path d="M189.391 68.4526C188.066 69.3825 187.732 71.2283 188.841 72.4079C190.649 74.3318 192.818 75.8963 195.234 77.0068C198.54 78.5271 202.192 79.1421 205.814 78.7891C209.437 78.4361 212.901 77.1278 215.852 74.9977C218.803 72.8677 221.136 69.9923 222.612 66.6654C224.088 63.3385 224.655 59.6794 224.253 56.0619C223.852 52.4445 222.498 48.9983 220.329 46.0757C218.16 43.153 215.254 40.8586 211.907 39.4269C209.463 38.381 206.848 37.8229 204.208 37.7732C202.589 37.7427 201.445 39.2291 201.645 40.8356C201.845 42.4421 203.318 43.5518 204.932 43.6742C206.534 43.7958 208.112 44.1797 209.601 44.8168C211.993 45.8403 214.071 47.4804 215.621 49.5696C217.172 51.6588 218.14 54.1222 218.427 56.7081C218.713 59.294 218.308 61.9096 217.253 64.2878C216.198 66.6659 214.531 68.7214 212.421 70.244C210.311 71.7666 207.835 72.7019 205.246 72.9542C202.656 73.2065 200.046 72.7668 197.682 71.6801C196.211 71.0036 194.867 70.0913 193.702 68.9852C192.528 67.8705 190.717 67.5227 189.391 68.4526Z" stroke="#3C50E0" stroke-width="11.7476" mask="url(#path-9-inside-1_508_3178)"/>
<defs>
<clipPath id="clip0_508_3178">
<rect width="8.2233" height="8.2233" fill="white" transform="translate(20.5583 69.0168)"/>
</clipPath>
</defs>
</svg>
