<svg width="171" height="63" viewBox="0 0 171 63" fill="none" xmlns="http://www.w3.org/2000/svg">
<rect width="171" height="63" rx="15" fill="white"/>
<path d="M27.41 31.1794C25.1228 31.1794 23.6129 29.7144 23.6129 27.5019H25.5115C25.5115 28.7427 26.244 29.4752 27.4548 29.4752C28.7405 29.4752 29.5627 28.638 29.5627 27.3076C29.5627 26.0369 28.8003 25.1698 27.4847 25.1698C26.6476 25.1698 25.8852 25.5884 25.4965 26.1565L23.8073 25.7977L25.1527 20.0722H30.8483V21.8362H26.528L25.945 24.1084C26.4682 23.7646 27.126 23.5703 27.8734 23.5703C30.056 23.5703 31.5061 25.0502 31.5061 27.2029C31.5061 29.5649 29.8467 31.1794 27.41 31.1794ZM41.0677 28.9221H39.7372V31H37.9284V28.9221H32.3822V27.2478L37.3304 20.0722H39.7372V27.2478H41.0677V28.9221ZM34.4153 27.2478H37.9284V22.1352L34.4153 27.2478ZM47.8469 22.7331C47.8469 24.4224 46.651 25.6034 44.9916 25.6034C43.3322 25.6034 42.1363 24.4224 42.1363 22.7331C42.1363 21.0588 43.3322 19.8629 44.9916 19.8629C46.651 19.8629 47.8469 21.0588 47.8469 22.7331ZM53.8415 20.0871L45.5447 31H43.7209L52.0177 20.0871H53.8415ZM46.3968 22.7331C46.3968 21.8661 45.8288 21.2681 44.9916 21.2681C44.1545 21.2681 43.6013 21.8661 43.6013 22.7331C43.6013 23.6002 44.1694 24.1981 44.9916 24.1981C45.8288 24.1981 46.3968 23.6002 46.3968 22.7331ZM55.4411 28.3241C55.4411 29.9984 54.2601 31.1943 52.6007 31.1943C50.9264 31.1943 49.7454 29.9984 49.7454 28.3241C49.7454 26.6498 50.9264 25.4539 52.6007 25.4539C54.2601 25.4539 55.4411 26.6498 55.4411 28.3241ZM53.991 28.3241C53.991 27.4571 53.4229 26.8591 52.6007 26.8591C51.7636 26.8591 51.1955 27.4571 51.1955 28.3241C51.1955 29.1912 51.7636 29.7891 52.6007 29.7891C53.4229 29.7891 53.991 29.1912 53.991 28.3241Z" fill="#1C2434"/>
<path d="M23.6279 44.2205V38.8163H25.6908C26.7448 38.8163 27.3876 39.3545 27.3876 40.244C27.3876 40.8644 27.1185 41.283 26.5803 41.5072C27.1783 41.7015 27.4847 42.1351 27.4847 42.7779C27.4847 43.6748 26.8345 44.2205 25.7656 44.2205H23.6279ZM25.646 39.4666H24.3604V41.2007H25.6908C26.2963 41.2007 26.6401 40.8718 26.6401 40.3113C26.6401 39.7731 26.2813 39.4666 25.646 39.4666ZM25.7506 41.8361H24.3604V43.5702H25.7506C26.3785 43.5702 26.7298 43.2488 26.7298 42.6882C26.7298 42.15 26.371 41.8361 25.7506 41.8361ZM28.0429 42.3892C28.0429 41.2605 28.8501 40.4682 29.9489 40.4682C31.0402 40.4682 31.8474 41.2605 31.8474 42.3892C31.8474 43.5178 31.0402 44.3102 29.9489 44.3102C28.8501 44.3102 28.0429 43.5178 28.0429 42.3892ZM28.753 42.3892C28.753 43.1516 29.2388 43.6823 29.9489 43.6823C30.6515 43.6823 31.1448 43.1516 31.1448 42.3892C31.1448 41.6268 30.6515 41.0961 29.9489 41.0961C29.2388 41.0961 28.753 41.6268 28.753 42.3892ZM35.064 40.5654H35.7592V44.2205H35.1313L35.0565 43.6673C34.8473 44.0485 34.3614 44.3102 33.8232 44.3102C32.9711 44.3102 32.4928 43.7346 32.4928 42.8377V40.5654H33.1954V42.606C33.1954 43.3908 33.5317 43.6898 34.0699 43.6898C34.7127 43.6898 35.064 43.2787 35.064 42.4938V40.5654ZM37.4812 44.2205H36.7786V40.5654H37.4139L37.4886 41.126C37.7204 40.7074 38.1838 40.4607 38.6995 40.4607C39.6637 40.4607 40.1047 41.0512 40.1047 41.9856V44.2205H39.4021V42.1425C39.4021 41.4025 39.0583 41.1036 38.5201 41.1036C37.8624 41.1036 37.4812 41.5745 37.4812 42.2845V44.2205ZM40.8387 42.3967C40.8387 41.2531 41.5638 40.4607 42.6326 40.4607C43.552 40.4607 44.1948 40.984 44.3219 41.7987H43.6193C43.4997 41.3353 43.1259 41.0886 42.655 41.0886C41.9898 41.0886 41.5339 41.5969 41.5339 42.3892C41.5339 43.174 41.9599 43.6823 42.6251 43.6823C43.1259 43.6823 43.4997 43.4207 43.6267 42.9872H44.3293C44.1873 43.7795 43.5071 44.3102 42.6251 44.3102C41.5488 44.3102 40.8387 43.5477 40.8387 42.3967ZM46.6478 44.3102C45.5715 44.3102 44.8315 43.5328 44.8315 42.3967C44.8315 41.2531 45.5565 40.4607 46.6179 40.4607C47.6569 40.4607 48.3371 41.1783 48.3371 42.2621V42.5237L45.5117 42.5312C45.564 43.3011 45.9676 43.7271 46.6628 43.7271C47.2084 43.7271 47.5672 43.5029 47.6868 43.0843H48.3445C48.1651 43.8692 47.5522 44.3102 46.6478 44.3102ZM46.6179 41.0512C46.005 41.0512 45.6163 41.4175 45.5266 42.0603H47.6344C47.6344 41.4549 47.2383 41.0512 46.6179 41.0512ZM52.0178 44.2205H51.2853V38.8163H53.3258C54.4844 38.8163 55.172 39.4293 55.172 40.4383C55.172 41.1858 54.7983 41.724 54.1256 41.9407L55.2244 44.2205H54.4096L53.4006 42.0827H52.0178V44.2205ZM52.0178 39.4741V41.4324H53.3333C54.0135 41.4324 54.4022 41.0662 54.4022 40.4458C54.4022 39.8179 53.9985 39.4741 53.3258 39.4741H52.0178ZM56.9791 44.3102C56.1943 44.3102 55.7309 43.8692 55.7309 43.2039C55.7309 42.5312 56.2317 42.1126 57.0913 42.0454L58.2423 41.9557V41.851C58.2423 41.2381 57.8761 41.0213 57.3828 41.0213C56.7923 41.0213 56.4559 41.283 56.4559 41.724H55.843C55.843 40.9615 56.4709 40.4607 57.4127 40.4607C58.3171 40.4607 58.93 40.9391 58.93 41.9258V44.2205H58.332L58.2573 43.63C58.0704 44.0485 57.5696 44.3102 56.9791 44.3102ZM57.1809 43.7645C57.8462 43.7645 58.2498 43.331 58.2498 42.6433V42.449L57.3155 42.5237C56.6951 42.5835 56.441 42.8227 56.441 43.1815C56.441 43.5702 56.725 43.7645 57.1809 43.7645ZM60.8761 44.2205H60.1735V41.1559H59.456V40.5654H60.1735V39.4218H60.8761V40.5654H61.5937V41.1559H60.8761V44.2205ZM63.7649 44.3102C62.6885 44.3102 61.9486 43.5328 61.9486 42.3967C61.9486 41.2531 62.6736 40.4607 63.735 40.4607C64.7739 40.4607 65.4541 41.1783 65.4541 42.2621V42.5237L62.6287 42.5312C62.6811 43.3011 63.0847 43.7271 63.7798 43.7271C64.3255 43.7271 64.6842 43.5029 64.8038 43.0843H65.4616C65.2822 43.8692 64.6693 44.3102 63.7649 44.3102ZM63.735 41.0512C63.1221 41.0512 62.7334 41.4175 62.6437 42.0603H64.7515C64.7515 41.4549 64.3554 41.0512 63.735 41.0512Z" fill="#64748B"/>
<g clip-path="url(#clip0_508_3362)">
<path d="M129.207 27.9421L131.356 25.7936L131.922 26.36L128.807 29.4754L125.691 26.36L126.258 25.7936L128.406 27.9421L128.406 23.0666L129.207 23.0666L129.207 27.9421Z" fill="#F59E0B"/>
</g>
<path d="M135.962 23.8671H139.736V24.5398L137.688 29.2712H136.926L138.996 24.5398H135.962V23.8671ZM142.827 25.1453C142.827 25.9451 142.259 26.5206 141.459 26.5206C140.667 26.5206 140.099 25.9451 140.099 25.1453C140.099 24.338 140.667 23.7625 141.459 23.7625C142.259 23.7625 142.827 24.338 142.827 25.1453ZM145.675 23.8746L141.572 29.2712H140.854L144.958 23.8746H145.675ZM142.252 25.1453C142.252 24.6594 141.93 24.3231 141.459 24.3231C140.996 24.3231 140.675 24.6594 140.675 25.1453C140.675 25.6236 140.996 25.96 141.459 25.96C141.923 25.96 142.252 25.6236 142.252 25.1453ZM146.445 27.9931C146.445 28.7929 145.869 29.3684 145.077 29.3684C144.285 29.3684 143.709 28.7929 143.709 27.9931C143.709 27.1858 144.285 26.6178 145.077 26.6178C145.869 26.6178 146.445 27.1858 146.445 27.9931ZM145.862 27.9931C145.862 27.5072 145.548 27.1709 145.077 27.1709C144.614 27.1709 144.292 27.5072 144.292 27.9931C144.292 28.4715 144.614 28.8078 145.077 28.8078C145.541 28.8078 145.862 28.4715 145.862 27.9931Z" fill="#F59E0B"/>
<defs>
<clipPath id="clip0_508_3362">
<rect width="9.61315" height="9.61315" fill="white" transform="translate(124 21.4644)"/>
</clipPath>
</defs>
</svg>
