<svg width="218" height="190" viewBox="0 0 218 190" fill="none" xmlns="http://www.w3.org/2000/svg">
<rect width="218" height="190" rx="15" fill="white"/>
<path d="M160.702 45.6059V44.7434C159.257 44.6394 158.333 43.7977 158.301 42.5299H159.632C159.642 43.1222 160.026 43.4963 160.702 43.5795V41.366L160.369 41.2933C159.06 41.0127 158.405 40.2853 158.405 39.1422C158.405 37.9264 159.32 37.0535 160.702 36.908V36.0247H161.502V36.908C162.811 37.0431 163.622 37.864 163.664 39.111H162.375C162.354 38.5499 162.042 38.1862 161.502 38.0718V40.3061L161.855 40.3892C163.185 40.6802 163.788 41.3245 163.788 42.426C163.788 43.6938 162.895 44.5667 161.502 44.7226V45.6059H160.702ZM160.66 40.119L160.702 40.1294V38.0615C160.078 38.1654 159.704 38.5395 159.704 39.1006C159.704 39.6514 159.995 39.9735 160.66 40.119ZM161.575 41.5531L161.502 41.5323V43.5587C162.126 43.434 162.5 43.0703 162.5 42.5403C162.5 42.0103 162.198 41.6882 161.575 41.5531ZM166.166 38.2173H164.503V37.0223H167.444V44.6187H166.166V38.2173ZM170.982 40.8568H170.057V39.9943L172.011 38.1965H168.851V37.0223H173.673V38.0822L171.823 39.7865C172.987 40.0151 173.891 40.8672 173.891 42.2078C173.891 43.7665 172.676 44.7537 171.138 44.7537C169.652 44.7537 168.498 43.8393 168.498 42.1974H169.807C169.807 43.0703 170.348 43.5691 171.158 43.5691C171.99 43.5691 172.54 43.0287 172.54 42.187C172.54 41.418 172.042 40.8568 170.982 40.8568ZM175.622 44.7434C175.165 44.7434 174.78 44.3693 174.78 43.9224C174.78 43.4652 175.165 43.0911 175.622 43.0911C176.079 43.0911 176.464 43.4652 176.464 43.9224C176.464 44.3693 176.079 44.7434 175.622 44.7434ZM182.886 44.6083L177.618 44.6187V43.621L180.101 41.5219C181.13 40.649 181.473 40.1502 181.473 39.4228C181.473 38.5603 181.005 38.0718 180.205 38.0718C179.374 38.0718 178.854 38.6538 178.844 39.6306H177.524C177.534 37.9679 178.594 36.8872 180.205 36.8872C181.826 36.8872 182.834 37.8121 182.834 39.35C182.834 40.41 182.252 41.2102 181.099 42.1974L179.727 43.3716H182.886V44.6083ZM183.706 40.8361C183.706 38.4771 184.974 36.8768 186.917 36.8768C188.86 36.8768 190.138 38.4771 190.138 40.8361C190.138 43.1846 188.933 44.7537 186.917 44.7537C184.901 44.7537 183.706 43.1846 183.706 40.8361ZM185.015 40.8361C185.015 42.5923 185.722 43.5795 186.917 43.5795C188.122 43.5795 188.829 42.5923 188.829 40.8361C188.829 39.0383 188.122 38.0511 186.917 38.0511C185.722 38.0511 185.015 39.0383 185.015 40.8361ZM195.501 42.3844L193.859 44.6187H192.342L194.161 42.1974C193.974 42.2493 193.776 42.2805 193.589 42.2805C192.02 42.2805 190.96 41.179 190.96 39.641C190.96 38.0199 192.165 36.8872 193.787 36.8872C195.428 36.8872 196.655 38.0926 196.655 39.6514C196.655 40.5659 196.353 41.2309 195.501 42.3844ZM195.293 39.641C195.293 38.7161 194.68 38.0718 193.787 38.0718C192.914 38.0718 192.301 38.7161 192.301 39.641C192.301 40.5555 192.914 41.1894 193.787 41.1894C194.691 41.1894 195.293 40.5555 195.293 39.641Z" fill="#1C2434"/>
<path d="M23.5245 23.5995H21.9909V26H20.7716V19.0367H23.5245C24.9248 19.0367 25.8298 19.9511 25.8298 21.3133C25.8298 22.6565 24.9153 23.5995 23.5245 23.5995ZM23.2864 20.1226H21.9909V22.5136H23.2673C24.1056 22.5136 24.5533 22.0659 24.5533 21.3038C24.5533 20.5417 24.0961 20.1226 23.2864 20.1226ZM29.637 21.2752V22.3516H29.2083C28.37 22.3516 27.8461 22.7993 27.8461 23.7138V26H26.684V21.3038H27.7794L27.8461 21.9896C28.0462 21.5229 28.4939 21.2085 29.1226 21.2085C29.2845 21.2085 29.4464 21.2276 29.637 21.2752ZM29.9892 23.6376C29.9892 22.1706 31.0466 21.1609 32.504 21.1609C33.9614 21.1609 35.0188 22.1706 35.0188 23.6376C35.0188 25.1046 33.9614 26.1143 32.504 26.1143C31.0466 26.1143 29.9892 25.1046 29.9892 23.6376ZM31.1513 23.6376C31.1513 24.4949 31.7038 25.076 32.504 25.076C33.3042 25.076 33.8567 24.4949 33.8567 23.6376C33.8567 22.7803 33.3042 22.1992 32.504 22.1992C31.7038 22.1992 31.1513 22.7803 31.1513 23.6376ZM39.2078 26V22.2659H37.2836V26H36.1309V22.2659H35.4546V21.2943H36.1309V20.7227C36.1309 19.4463 36.7977 18.9128 37.7503 18.9128C37.9313 18.9128 38.1504 18.9223 38.3504 18.9605V19.9511H37.9408C37.4169 19.9511 37.2836 20.256 37.2836 20.7227V21.2943H40.3699V26H39.2078ZM39.7888 20.3322C39.3983 20.3322 39.0934 20.0273 39.0934 19.6368C39.0934 19.2558 39.3983 18.9509 39.7888 18.9509C40.1699 18.9509 40.4747 19.2558 40.4747 19.6368C40.4747 20.0273 40.1699 20.3322 39.7888 20.3322ZM43.1683 26H42.0062V22.2659H41.1012V21.2943H42.0062V19.8273H43.1683V21.2943H44.0828V22.2659H43.1683V26ZM48.9731 26H47.8109V22.2659H46.906V21.2943H47.8109V19.8273H48.9731V21.2943H49.8876V22.2659H48.9731V26ZM51.7722 26H50.61V18.9128H51.7817V21.9039C52.077 21.4467 52.6295 21.1514 53.3058 21.1514C54.468 21.1514 55.0776 21.8849 55.0776 23.1042V26H53.9155V23.3804C53.9155 22.5898 53.5249 22.2087 52.9343 22.2087C52.2008 22.2087 51.7722 22.7231 51.7722 23.428V26ZM56.8005 20.3512C56.4004 20.3512 56.0861 20.0369 56.0861 19.6463C56.0861 19.2558 56.4004 18.9509 56.8005 18.9509C57.1816 18.9509 57.4959 19.2558 57.4959 19.6463C57.4959 20.0369 57.1816 20.3512 56.8005 20.3512ZM56.2195 26V21.2943H57.3816V26H56.2195ZM58.2203 24.5711H59.3253C59.3348 24.9807 59.6397 25.2379 60.1731 25.2379C60.7161 25.2379 61.0114 25.0188 61.0114 24.6759C61.0114 24.4378 60.8875 24.2663 60.4684 24.1711L59.6206 23.971C58.7728 23.7805 58.3632 23.3804 58.3632 22.6279C58.3632 21.7039 59.1443 21.1514 60.2302 21.1514C61.2876 21.1514 62.002 21.761 62.0116 22.6755H60.9066C60.8971 22.2754 60.6303 22.0182 60.1826 22.0182C59.7254 22.0182 59.4587 22.2278 59.4587 22.5802C59.4587 22.847 59.6682 23.0184 60.0683 23.1137L60.9161 23.3137C61.7067 23.4947 62.1068 23.8567 62.1068 24.5807C62.1068 25.5332 61.2971 26.1238 60.135 26.1238C58.9633 26.1238 58.2203 25.4951 58.2203 24.5711ZM66.5975 26L65.0734 21.2943H66.2831L66.9023 23.3137C67.0071 23.6852 67.1024 24.0948 67.1881 24.533C67.2738 24.0758 67.3595 23.7805 67.512 23.3137L68.1597 21.2943H69.3409L69.9696 23.3137C70.0268 23.5042 70.2173 24.2092 70.2744 24.5235C70.3506 24.1711 70.5031 23.609 70.5888 23.3137L71.2175 21.2943H72.4463L70.8174 26H69.7315L69.0837 23.9615C68.8932 23.3423 68.7884 22.8946 68.7503 22.6565C68.7027 22.8755 68.617 23.2089 68.3788 23.9805L67.7311 26H66.5975ZM75.0227 26.1238C73.6224 26.1238 72.6412 25.1046 72.6412 23.6471C72.6412 22.1706 73.6033 21.1514 74.9846 21.1514C76.3944 21.1514 77.2898 22.0944 77.2898 23.5614V23.9139L73.7462 23.9234C73.8319 24.7521 74.2701 25.1713 75.0417 25.1713C75.6799 25.1713 76.0991 24.9236 76.2324 24.4759H77.3089C77.1088 25.5047 76.2515 26.1238 75.0227 26.1238ZM74.9941 22.104C74.3082 22.104 73.8891 22.4755 73.7748 23.1804H76.1372C76.1372 22.5326 75.6895 22.104 74.9941 22.104ZM80.3251 26.1238C78.9248 26.1238 77.9437 25.1046 77.9437 23.6471C77.9437 22.1706 78.9058 21.1514 80.287 21.1514C81.6968 21.1514 82.5922 22.0944 82.5922 23.5614V23.9139L79.0486 23.9234C79.1344 24.7521 79.5726 25.1713 80.3441 25.1713C80.9824 25.1713 81.4015 24.9236 81.5349 24.4759H82.6113C82.4112 25.5047 81.5539 26.1238 80.3251 26.1238ZM80.2965 22.104C79.6107 22.104 79.1915 22.4755 79.0772 23.1804H81.4396C81.4396 22.5326 80.9919 22.104 80.2965 22.104ZM84.694 26H83.5414V18.9128H84.694V23.2661L86.523 21.2943H87.9804L86.1896 23.1613L87.9423 26H86.6087L85.3799 24.0186L84.694 24.7331V26Z" fill="#1C2434"/>
<path d="M163.338 20.4619V19.9163H166.569V20.4619H165.254V24.2991H164.66V20.4619H163.338ZM167.639 24.293H167.07V19.8375H167.639V21.7895C167.827 21.4682 168.185 21.25 168.646 21.25C169.403 21.25 169.767 21.7288 169.767 22.4866V24.2991H169.197V22.6139C169.197 22.0138 168.912 21.7713 168.488 21.7713C167.936 21.7713 167.639 22.1714 167.639 22.6806V24.293ZM170.835 20.6316C170.629 20.6316 170.459 20.4619 170.459 20.2558C170.459 20.0436 170.629 19.88 170.835 19.88C171.041 19.88 171.211 20.0436 171.211 20.2558C171.211 20.4619 171.041 20.6316 170.835 20.6316ZM170.556 24.2991V21.3348H171.126V24.2991H170.556ZM171.711 23.4383H172.257C172.257 23.7414 172.487 23.9232 172.863 23.9232C173.263 23.9232 173.493 23.7596 173.493 23.4868C173.493 23.2867 173.396 23.1655 173.087 23.0867L172.566 22.9655C172.038 22.8382 171.79 22.5775 171.79 22.1411C171.79 21.5955 172.25 21.25 172.905 21.25C173.554 21.25 173.978 21.6137 173.99 22.1774H173.445C173.433 21.8804 173.232 21.6925 172.887 21.6925C172.529 21.6925 172.329 21.8501 172.329 22.1229C172.329 22.3229 172.475 22.4563 172.766 22.529L173.287 22.6563C173.79 22.7775 174.039 23.0079 174.039 23.4504C174.039 24.0142 173.554 24.3718 172.851 24.3718C172.153 24.3718 171.711 24.002 171.711 23.4383ZM177.31 24.2991L176.007 19.9163H176.625L177.425 22.5957C177.486 22.826 177.547 23.0564 177.607 23.3898C177.68 23.0382 177.747 22.826 177.813 22.5957L178.644 19.9163H179.286L180.111 22.5957C180.183 22.8321 180.244 23.0625 180.311 23.3898C180.384 23.02 180.444 22.7957 180.505 22.6018L181.311 19.9163H181.917L180.596 24.2991H180.026L178.965 20.8317L177.892 24.2991H177.31ZM183.314 24.3718C182.441 24.3718 181.841 23.7414 181.841 22.82C181.841 21.8925 182.429 21.25 183.29 21.25C184.132 21.25 184.684 21.8319 184.684 22.7109V22.923L182.392 22.9291C182.435 23.5535 182.762 23.899 183.326 23.899C183.769 23.899 184.059 23.7171 184.156 23.3777H184.69C184.544 24.0142 184.047 24.3718 183.314 24.3718ZM183.29 21.7288C182.793 21.7288 182.477 22.0259 182.405 22.5472H184.114C184.114 22.0562 183.793 21.7288 183.29 21.7288ZM186.599 24.3718C185.726 24.3718 185.126 23.7414 185.126 22.82C185.126 21.8925 185.714 21.25 186.575 21.25C187.418 21.25 187.969 21.8319 187.969 22.7109V22.923L185.678 22.9291C185.72 23.5535 186.048 23.899 186.611 23.899C187.054 23.899 187.345 23.7171 187.442 23.3777H187.975C187.83 24.0142 187.333 24.3718 186.599 24.3718ZM186.575 21.7288C186.078 21.7288 185.763 22.0259 185.69 22.5472H187.4C187.4 22.0562 187.078 21.7288 186.575 21.7288ZM189.188 24.2991H188.618V19.8375H189.188V22.7291L190.503 21.3348H191.218L190.085 22.5169L191.212 24.2991H190.558L189.691 22.9291L189.188 23.4565V24.2991Z" fill="#64748B"/>
<path d="M195.441 21.0802C195.441 21.0547 195.453 21.0229 195.472 21.0038C195.517 20.9592 195.587 20.9592 195.632 20.9974L197.339 22.6024C197.37 22.6343 197.428 22.6343 197.466 22.6024L199.173 20.9974C199.218 20.9528 199.288 20.9592 199.332 21.0038C199.377 21.0483 199.37 21.1184 199.326 21.163L197.619 22.7681C197.498 22.8763 197.307 22.8763 197.192 22.7681L195.479 21.163C195.453 21.1375 195.441 21.112 195.441 21.0802Z" fill="#64748B"/>
<path fill-rule="evenodd" clip-rule="evenodd" d="M195.768 20.8457L197.402 22.3826L199.032 20.8506C199.17 20.7149 199.368 20.7517 199.476 20.8596C199.615 20.9985 199.579 21.1984 199.47 21.3071L199.466 21.3115L197.755 22.92C197.559 23.0955 197.248 23.1006 197.053 22.9165C197.052 22.9164 197.053 22.9166 197.053 22.9165L195.335 21.3072C195.281 21.2538 195.237 21.1792 195.237 21.0802C195.237 21.0013 195.271 20.9174 195.328 20.8596C195.451 20.737 195.642 20.7377 195.764 20.8426L195.768 20.8457ZM197.192 22.7681C197.307 22.8763 197.498 22.8763 197.619 22.7681L199.326 21.163C199.37 21.1184 199.377 21.0483 199.332 21.0038C199.288 20.9592 199.218 20.9528 199.173 20.9974L197.466 22.6024C197.428 22.6343 197.37 22.6343 197.339 22.6024L195.632 20.9974C195.587 20.9592 195.517 20.9592 195.472 21.0038C195.453 21.0229 195.441 21.0547 195.441 21.0802C195.441 21.112 195.453 21.1375 195.479 21.163L197.192 22.7681Z" fill="#64748B"/>
<path d="M30.6464 41.0161C30.6464 40.2645 31.2526 39.7553 32.1558 39.7553C32.9924 39.7553 33.5319 40.222 33.5804 40.9798H32.9803C32.9499 40.5433 32.6408 40.2887 32.1498 40.2887C31.5982 40.2887 31.2405 40.5676 31.2405 40.998C31.2405 41.3495 31.4405 41.5617 31.8528 41.6587L32.5741 41.8284C33.2894 41.9921 33.6531 42.3801 33.6531 42.9984C33.6531 43.7864 33.0409 44.2895 32.1074 44.2895C31.2163 44.2895 30.6222 43.8228 30.5858 43.0711H31.192C31.2041 43.4894 31.5557 43.7561 32.1074 43.7561C32.6893 43.7561 33.0591 43.4833 33.0591 43.0469C33.0591 42.7013 32.8711 42.4831 32.4529 42.3861L31.7315 42.2224C31.0162 42.0588 30.6464 41.6466 30.6464 41.0161ZM35.1695 44.2895C34.533 44.2895 34.1572 43.9319 34.1572 43.3924C34.1572 42.8468 34.5633 42.5074 35.2604 42.4528L36.1939 42.3801V42.2952C36.1939 41.7981 35.8969 41.6223 35.4968 41.6223C35.0179 41.6223 34.7452 41.8345 34.7452 42.1921H34.2481C34.2481 41.5738 34.7573 41.1677 35.5211 41.1677C36.2546 41.1677 36.7516 41.5556 36.7516 42.3558V44.2168H36.2667L36.2061 43.7379C36.0545 44.0774 35.6484 44.2895 35.1695 44.2895ZM35.3332 43.847C35.8727 43.847 36.2 43.4954 36.2 42.9377V42.7801L35.4423 42.8408C34.9391 42.8893 34.733 43.0832 34.733 43.3742C34.733 43.6894 34.9634 43.847 35.3332 43.847ZM38.1227 44.2168H37.5529V39.7553H38.1227V44.2168ZM40.2406 44.2895C39.3677 44.2895 38.7675 43.6591 38.7675 42.7377C38.7675 41.8102 39.3555 41.1677 40.2163 41.1677C41.0589 41.1677 41.6105 41.7496 41.6105 42.6286V42.8408L39.3192 42.8468C39.3616 43.4712 39.6889 43.8167 40.2527 43.8167C40.6952 43.8167 40.9862 43.6349 41.0832 43.2954H41.6166C41.4711 43.9319 40.974 44.2895 40.2406 44.2895ZM40.2163 41.6466C39.7192 41.6466 39.404 41.9436 39.3313 42.4649H41.0407C41.0407 41.9739 40.7194 41.6466 40.2163 41.6466ZM42.0045 43.356H42.5501C42.5501 43.6591 42.7804 43.841 43.1563 43.841C43.5564 43.841 43.7867 43.6773 43.7867 43.4045C43.7867 43.2045 43.6897 43.0832 43.3806 43.0044L42.8592 42.8832C42.3319 42.7559 42.0833 42.4952 42.0833 42.0588C42.0833 41.5132 42.544 41.1677 43.1987 41.1677C43.8473 41.1677 44.2716 41.5314 44.2838 42.0951H43.7382C43.7261 41.7981 43.526 41.6102 43.1805 41.6102C42.8229 41.6102 42.6228 41.7678 42.6228 42.0406C42.6228 42.2406 42.7683 42.374 43.0593 42.4467L43.5806 42.574C44.0837 42.6953 44.3323 42.9256 44.3323 43.3681C44.3323 43.9319 43.8473 44.2895 43.1441 44.2895C42.447 44.2895 42.0045 43.9198 42.0045 43.356Z" fill="#64748B"/>
<circle cx="23.4639" cy="41.9795" r="2.59794" fill="white" stroke="#3C50E0" stroke-width="1.73196"/>
<path d="M67.0002 44.2168H66.4062V39.8341H68.0611C69.0006 39.8341 69.5583 40.3311 69.5583 41.1495C69.5583 41.7557 69.2552 42.1921 68.7097 42.3679L69.6008 44.2168H68.94L68.1217 42.4831H67.0002V44.2168ZM67.0002 40.3675V41.9557H68.0671C68.6187 41.9557 68.934 41.6587 68.934 41.1556C68.934 40.6464 68.6066 40.3675 68.0611 40.3675H67.0002ZM71.3414 44.2895C70.4685 44.2895 69.8683 43.6591 69.8683 42.7377C69.8683 41.8102 70.4563 41.1677 71.3171 41.1677C72.1597 41.1677 72.7114 41.7496 72.7114 42.6286V42.8408L70.42 42.8468C70.4624 43.4712 70.7897 43.8167 71.3535 43.8167C71.796 43.8167 72.087 43.6349 72.184 43.2954H72.7174C72.5719 43.9319 72.0749 44.2895 71.3414 44.2895ZM71.3171 41.6466C70.8201 41.6466 70.5048 41.9436 70.4321 42.4649H72.1415C72.1415 41.9739 71.8203 41.6466 71.3171 41.6466ZM74.0776 44.2168L72.8835 41.2525H73.4896L74.1383 42.9074C74.2413 43.1863 74.3262 43.4348 74.3747 43.6167C74.4232 43.4227 74.5202 43.1681 74.6232 42.9074L75.2839 41.2525H75.878L74.6414 44.2168H74.0776ZM77.4743 44.2895C76.6014 44.2895 76.0012 43.6591 76.0012 42.7377C76.0012 41.8102 76.5892 41.1677 77.45 41.1677C78.2926 41.1677 78.8442 41.7496 78.8442 42.6286V42.8408L76.5529 42.8468C76.5953 43.4712 76.9226 43.8167 77.4864 43.8167C77.9289 43.8167 78.2199 43.6349 78.3169 43.2954H78.8503C78.7048 43.9319 78.2078 44.2895 77.4743 44.2895ZM77.45 41.6466C76.9529 41.6466 76.6377 41.9436 76.565 42.4649H78.2744C78.2744 41.9739 77.9532 41.6466 77.45 41.6466ZM80.0505 44.2168H79.4807V41.2525H79.996L80.0566 41.7072C80.2445 41.3677 80.6203 41.1677 81.0386 41.1677C81.8206 41.1677 82.1782 41.6466 82.1782 42.4043V44.2168H81.6084V42.5316C81.6084 41.9315 81.3296 41.689 80.8931 41.689C80.3597 41.689 80.0505 42.0709 80.0505 42.6468V44.2168ZM85.0164 41.2525H85.5801V44.2168H85.0709L85.0103 43.7682C84.8406 44.0774 84.4465 44.2895 84.0101 44.2895C83.319 44.2895 82.9311 43.8228 82.9311 43.0954V41.2525H83.5009V42.9074C83.5009 43.5439 83.7737 43.7864 84.2101 43.7864C84.7314 43.7864 85.0164 43.453 85.0164 42.8165V41.2525ZM87.6267 44.2895C86.7538 44.2895 86.1537 43.6591 86.1537 42.7377C86.1537 41.8102 86.7417 41.1677 87.6024 41.1677C88.445 41.1677 88.9967 41.7496 88.9967 42.6286V42.8408L86.7053 42.8468C86.7477 43.4712 87.0751 43.8167 87.6388 43.8167C88.0813 43.8167 88.3723 43.6349 88.4693 43.2954H89.0027C88.8572 43.9319 88.3602 44.2895 87.6267 44.2895ZM87.6024 41.6466C87.1054 41.6466 86.7902 41.9436 86.7174 42.4649H88.4269C88.4269 41.9739 88.1056 41.6466 87.6024 41.6466Z" fill="#64748B"/>
<circle cx="58.969" cy="41.9795" r="2.59794" fill="white" stroke="#80CAEE" stroke-width="1.73196"/>
<path d="M22.0653 159.82C22.0653 158.474 22.7261 157.565 23.8051 157.565C24.878 157.565 25.5388 158.474 25.5388 159.82C25.5388 161.172 24.8902 162.069 23.8051 162.069C22.714 162.069 22.0653 161.172 22.0653 159.82ZM22.4957 159.82C22.4957 160.947 22.9746 161.675 23.8051 161.675C24.6356 161.675 25.1144 160.947 25.1144 159.82C25.1144 158.686 24.6356 157.965 23.8051 157.965C22.9746 157.965 22.4957 158.686 22.4957 159.82Z" fill="#64748B"/>
<line x1="37" y1="159.784" x2="201" y2="159.784" stroke="#E7E7E7" stroke-width="0.43299" stroke-dasharray="2.16 2.16"/>
<path d="M21.5301 131.198H20.645V130.804H21.9483V135.144H21.5301V131.198ZM22.7908 132.974C22.7908 131.628 23.4516 130.719 24.5306 130.719C25.6035 130.719 26.2643 131.628 26.2643 132.974C26.2643 134.326 25.6157 135.223 24.5306 135.223C23.4394 135.223 22.7908 134.326 22.7908 132.974ZM23.2212 132.974C23.2212 134.102 23.7001 134.829 24.5306 134.829C25.3611 134.829 25.8399 134.102 25.8399 132.974C25.8399 131.841 25.3611 131.119 24.5306 131.119C23.7001 131.119 23.2212 131.841 23.2212 132.974ZM26.9288 132.974C26.9288 131.628 27.5895 130.719 28.6685 130.719C29.7415 130.719 30.4022 131.628 30.4022 132.974C30.4022 134.326 29.7536 135.223 28.6685 135.223C27.5774 135.223 26.9288 134.326 26.9288 132.974ZM27.3591 132.974C27.3591 134.102 27.838 134.829 28.6685 134.829C29.499 134.829 29.9779 134.102 29.9779 132.974C29.9779 131.841 29.499 131.119 28.6685 131.119C27.838 131.119 27.3591 131.841 27.3591 132.974Z" fill="#64748B"/>
<line x1="37" y1="132.784" x2="201" y2="132.784" stroke="#E7E7E7" stroke-width="0.43299" stroke-dasharray="2.16 2.16"/>
<path d="M23.5668 108.299H20.7056V107.954L22.0938 106.741C22.894 106.044 23.1001 105.741 23.1001 105.226C23.1001 104.638 22.7485 104.28 22.1726 104.28C21.5725 104.28 21.1785 104.717 21.1603 105.389H20.7238C20.7481 104.48 21.324 103.88 22.1787 103.88C22.997 103.88 23.5426 104.407 23.5426 105.201C23.5426 105.832 23.2577 106.25 22.3908 107.008L21.3785 107.893H23.5668V108.299ZM24.1701 106.129C24.1701 104.783 24.8309 103.874 25.9099 103.874C26.9828 103.874 27.6436 104.783 27.6436 106.129C27.6436 107.481 26.995 108.378 25.9099 108.378C24.8188 108.378 24.1701 107.481 24.1701 106.129ZM24.6005 106.129C24.6005 107.256 25.0794 107.984 25.9099 107.984C26.7404 107.984 27.2193 107.256 27.2193 106.129C27.2193 104.995 26.7404 104.274 25.9099 104.274C25.0794 104.274 24.6005 104.995 24.6005 106.129ZM28.3081 106.129C28.3081 104.783 28.9688 103.874 30.0478 103.874C31.1208 103.874 31.7815 104.783 31.7815 106.129C31.7815 107.481 31.1329 108.378 30.0478 108.378C28.9567 108.378 28.3081 107.481 28.3081 106.129ZM28.7385 106.129C28.7385 107.256 29.2173 107.984 30.0478 107.984C30.8783 107.984 31.3572 107.256 31.3572 106.129C31.3572 104.995 30.8783 104.274 30.0478 104.274C29.2173 104.274 28.7385 104.995 28.7385 106.129Z" fill="#64748B"/>
<line x1="37" y1="105.784" x2="201" y2="105.784" stroke="#E7E7E7" stroke-width="0.43299" stroke-dasharray="2.16 2.16"/>
<path d="M21.5336 79.1261H21.1881V78.823L22.5278 77.5015H20.4486V77.1136H23.0794V77.4652L21.7822 78.7563C22.5945 78.7988 23.1764 79.314 23.1764 80.1021C23.1764 80.9628 22.546 81.5266 21.667 81.5266C20.8123 81.5266 20.2364 80.9992 20.2364 80.1324H20.6668C20.6668 80.7567 21.0548 81.1326 21.667 81.1326C22.3156 81.1326 22.7339 80.7204 22.7339 80.0899C22.7339 79.4959 22.3096 79.1261 21.5336 79.1261ZM23.7787 79.2837C23.7787 77.938 24.4395 77.0287 25.5185 77.0287C26.5914 77.0287 27.2522 77.938 27.2522 79.2837C27.2522 80.6355 26.6035 81.5327 25.5185 81.5327C24.4273 81.5327 23.7787 80.6355 23.7787 79.2837ZM24.2091 79.2837C24.2091 80.4112 24.688 81.1386 25.5185 81.1386C26.3489 81.1386 26.8278 80.4112 26.8278 79.2837C26.8278 78.1501 26.3489 77.4288 25.5185 77.4288C24.688 77.4288 24.2091 78.1501 24.2091 79.2837ZM27.9166 79.2837C27.9166 77.938 28.5774 77.0287 29.6564 77.0287C30.7293 77.0287 31.3901 77.938 31.3901 79.2837C31.3901 80.6355 30.7415 81.5327 29.6564 81.5327C28.5653 81.5327 27.9166 80.6355 27.9166 79.2837ZM28.347 79.2837C28.347 80.4112 28.8259 81.1386 29.6564 81.1386C30.4869 81.1386 30.9658 80.4112 30.9658 79.2837C30.9658 78.1501 30.4869 77.4288 29.6564 77.4288C28.8259 77.4288 28.347 78.1501 28.347 79.2837Z" fill="#64748B"/>
<line x1="37" y1="78.7835" x2="201" y2="78.7835" stroke="#E7E7E7" stroke-width="0.43299" stroke-dasharray="2.16 2.16"/>
<path d="M48.2361 171.083H47.8057V166.742H48.2361L49.8182 170.567L51.4004 166.742H51.8368V171.083H51.4064V169.021C51.4064 168.264 51.4186 167.93 51.4428 167.633L50.0304 171.083H49.6121L48.1997 167.652C48.224 167.815 48.2361 168.294 48.2361 168.955V171.083Z" fill="#64748B"/>
<rect x="47.2783" y="74.8867" width="6.06186" height="84.866" fill="#80CAEE"/>
<rect x="47.2783" y="93.9382" width="6.06186" height="65.8144" fill="#3C50E0"/>
<path d="M69.0005 167.142V166.742H72.1102V167.142H70.7705V171.083H70.3341V167.142H69.0005Z" fill="#64748B"/>
<rect x="68.0618" y="130.31" width="6.06186" height="29.4433" fill="#80CAEE"/>
<rect x="68.0618" y="144.165" width="6.06186" height="15.5876" fill="#3C50E0"/>
<path d="M90.2273 171.083L88.9361 166.742H89.3908L90.2698 169.725C90.3304 169.937 90.3849 170.155 90.4395 170.44C90.5122 170.125 90.5728 169.937 90.6395 169.725L91.5852 166.742H92.0398L92.9855 169.725C93.0521 169.943 93.1128 170.161 93.1794 170.44C93.2461 170.107 93.3007 169.894 93.3492 169.731L94.2463 166.742H94.6888L93.3855 171.083H92.9733L91.8095 167.397L90.6456 171.083H90.2273Z" fill="#64748B"/>
<rect x="88.8452" y="98.2683" width="6.06186" height="61.4845" fill="#80CAEE"/>
<rect x="88.8452" y="112.99" width="6.06186" height="46.7629" fill="#3C50E0"/>
<path d="M111 167.142V166.742H114.11V167.142H112.771V171.083H112.334V167.142H111Z" fill="#64748B"/>
<rect x="110.062" y="91.3403" width="6.06186" height="68.4124" fill="#80CAEE"/>
<rect x="110.062" y="119.918" width="6.06186" height="39.8351" fill="#3C50E0"/>
<path d="M134.884 169.173H133.108V171.083H132.672V166.742H135.23V167.142H133.108V168.779H134.884V169.173Z" fill="#64748B"/>
<rect x="131.278" y="128.144" width="6.06186" height="31.6083" fill="#80CAEE"/>
<rect x="131.278" y="139.402" width="6.06186" height="20.3505" fill="#3C50E0"/>
<path d="M153.194 167.87C153.194 167.142 153.776 166.663 154.649 166.663C155.431 166.663 155.947 167.1 156.013 167.827H155.571C155.522 167.336 155.189 167.057 154.643 167.057C154.031 167.057 153.631 167.373 153.631 167.864C153.631 168.246 153.855 168.488 154.31 168.603L155.055 168.785C155.734 168.949 156.086 169.337 156.086 169.925C156.086 170.676 155.504 171.155 154.607 171.155C153.764 171.155 153.194 170.713 153.14 170.004H153.588C153.613 170.458 154.013 170.755 154.607 170.755C155.243 170.755 155.65 170.446 155.65 169.949C155.65 169.561 155.431 169.306 154.965 169.197L154.231 169.015C153.552 168.852 153.194 168.464 153.194 167.87Z" fill="#64748B"/>
<rect x="152.062" y="83.5466" width="6.06186" height="76.2062" fill="#80CAEE"/>
<rect x="152.062" y="118.186" width="6.06186" height="41.567" fill="#3C50E0"/>
<path d="M173.978 167.87C173.978 167.142 174.56 166.663 175.433 166.663C176.215 166.663 176.73 167.1 176.797 167.827H176.354C176.306 167.336 175.972 167.057 175.427 167.057C174.814 167.057 174.414 167.373 174.414 167.864C174.414 168.246 174.639 168.488 175.093 168.603L175.839 168.785C176.518 168.949 176.869 169.337 176.869 169.925C176.869 170.676 176.287 171.155 175.39 171.155C174.548 171.155 173.978 170.713 173.923 170.004H174.372C174.396 170.458 174.796 170.755 175.39 170.755C176.027 170.755 176.433 170.446 176.433 169.949C176.433 169.561 176.215 169.306 175.748 169.197L175.014 169.015C174.336 168.852 173.978 168.464 173.978 167.87Z" fill="#64748B"/>
<rect x="172.845" y="98.2683" width="6.06186" height="61.4845" fill="#80CAEE"/>
<rect x="172.845" y="112.99" width="6.06186" height="46.7629" fill="#3C50E0"/>
</svg>
