<svg width="173" height="23" viewBox="0 0 173 23" fill="none" xmlns="http://www.w3.org/2000/svg">
<g clip-path="url(#clip0_7_8)">
<path d="M25.8407 16.9777C28.1427 13.6973 32.1713 8.8054 31.9987 5.58251C31.826 1.32369 27.4521 -0.0575453 23.0782 6.22176e-06C20.028 0.0575578 16.9777 0.920831 14.9634 1.669C7.82704 4.25882 3.62577 8.46009 1.20861 13.0642C-1.38121 17.6683 0.115128 22.0423 6.61845 22.1574C11.0499 21.9847 13.9851 20.8912 16.8051 19.4524C16.9777 19.3949 16.8626 19.1647 16.69 19.1647C14.1002 19.8553 7.99969 21.0639 5.17967 19.5675C4.7768 19.3373 4.37394 19.1071 4.20129 18.3014C4.02864 16.69 6.5609 14.9634 7.99969 14.4454L7.71193 11.6254C8.86297 12.0858 10.1291 12.316 11.3952 12.316C13.8124 12.316 15.9418 11.4528 17.4957 10.014C17.6108 10.2442 17.6684 10.5319 17.7259 10.8197H18.4165C18.4165 10.0715 17.9561 9.49601 17.9561 9.49601C17.2079 8.51764 16.172 8.51764 16.172 8.51764C16.172 8.51764 16.69 8.74784 17.1504 9.32336C13.4671 12.5462 8.92052 10.9348 8.92052 10.9348L10.8197 8.86295L10.014 7.2515C14.3304 5.69761 18.0137 4.48903 24.0566 3.39555L22.5602 2.24452L23.2509 1.7841C27.0493 2.82003 29.5815 3.62575 29.6966 5.58251C29.6966 5.92782 29.5815 6.27313 29.4664 6.73354C28.6032 8.86295 25.7831 12.4311 24.6321 13.9275C23.8839 14.9059 23.1358 15.8842 22.6178 16.8051C22.0998 17.7259 21.8121 18.5892 21.8696 19.4524C21.8121 24.2868 30.5024 20.2582 34.4159 17.6108C34.531 17.5532 34.4734 17.323 34.3008 17.3806C23.2509 21.0063 25.8407 16.9777 25.8407 16.9777Z" fill="#FF5A00"/>
<path d="M123.506 14.9634C123.506 17.0928 122.412 18.1288 120.283 18.1288C118.902 18.1288 118.211 17.6108 118.211 16.6324C118.211 15.7116 118.959 15.1361 120.398 14.9059C120.916 14.7908 121.952 14.7908 123.506 14.7908V14.9634ZM129.549 12.0283C129.549 8.34501 126.786 6.61846 121.319 6.50336C115.621 6.38826 113.262 7.8846 112.744 10.9924H118.614C118.902 9.95645 119.592 9.43849 120.973 9.43849C122.355 9.49604 123.391 10.1867 123.448 12.0283C120.283 12.0859 117.923 12.2585 116.369 12.6614C113.262 13.4095 111.765 15.0785 111.765 17.3806C111.765 18.9345 112.456 20.028 113.837 20.7761C114.873 21.2941 116.197 21.6394 117.808 21.5819C120.513 21.4668 122.412 20.7186 123.621 19.1647V21.2941H129.549V12.0283Z" fill="#FF5A00"/>
<path d="M166.957 15.0785C166.957 17.2079 165.864 18.2438 163.734 18.2438C162.353 18.2438 161.662 17.7259 161.662 16.7475C161.662 15.8267 162.411 15.2511 163.849 15.0209C164.367 14.9058 165.403 14.9058 166.957 14.9058V15.0785ZM173 12.2009C173 8.51762 170.238 6.79107 164.77 6.67597C159.073 6.56086 156.713 8.0572 156.195 11.165H162.065C162.353 10.1291 163.044 9.6111 164.425 9.6111C165.806 9.66865 166.842 10.3593 166.9 12.2009C163.734 12.2585 161.375 12.4311 159.821 12.834C156.713 13.5822 155.217 15.2511 155.217 17.5532C155.217 19.1071 155.907 20.2006 157.288 20.9488C158.324 21.4667 159.648 21.812 161.26 21.7545C163.964 21.6394 165.864 20.8912 167.072 19.3373V21.4667H173V12.2009Z" fill="#FF5A00"/>
<path d="M49.8973 13.2369L53.2352 5.75516L56.4006 13.2369H49.8973ZM49.8973 0.863281L39.6531 21.4092H46.3291L47.9405 17.7259H58.1847L59.681 21.4092H67.0476L57.2639 0.863281H49.8973Z" fill="#FF5A00"/>
<path d="M75.4502 0.863281H69.0044V21.4092H75.4502V0.863281Z" fill="#FF5A00"/>
<path d="M85.9821 0.863281H79.5363V4.94944H85.9821V0.863281Z" fill="#FF5A00"/>
<path d="M85.9821 7.19397H79.5363V21.4092H85.9821V7.19397Z" fill="#FF5A00"/>
<path d="M102.212 16.5173C101.003 18.1288 99.5642 18.5316 97.7801 17.6108C97.665 17.5532 97.6075 17.4957 97.4924 17.4381C96.9169 16.9202 96.5716 16.2871 96.4565 15.5389C96.2262 14.4455 96.2838 13.352 96.5716 12.2585C96.8018 11.5103 97.2046 10.9348 97.7801 10.5319C98.4708 10.1291 99.2189 9.95643 100.025 10.0715C101.118 10.2442 101.924 10.8773 102.384 11.9132C102.672 12.6038 102.787 13.352 102.787 14.1001C102.787 14.9634 102.614 15.7691 102.212 16.5173ZM90.0107 21.3516H96.2838V18.8194V18.7618C97.9528 20.8912 100.082 21.7545 102.614 21.6969C104.053 21.6394 105.377 21.1214 106.528 20.3157C108.139 19.0496 109.003 17.323 109.118 15.2512C109.29 13.0642 108.772 11.1075 107.564 9.38091C106.355 7.88457 104.859 7.0213 102.96 6.84864C100.37 6.50333 98.1254 7.36661 96.2838 9.32336V0.863281H89.9531L90.0107 21.3516Z" fill="#FF5A00"/>
<path d="M145.548 16.5749C144.339 18.1863 142.901 18.5892 141.116 17.6683C141.001 17.6108 140.944 17.5532 140.829 17.4957C140.253 16.9777 139.908 16.3447 139.793 15.5965C139.563 14.503 139.62 13.4095 139.908 12.316C140.138 11.5679 140.541 10.9924 141.116 10.5895C141.807 10.1866 142.555 10.014 143.361 10.1291C144.454 10.3017 145.26 10.9348 145.721 11.9707C146.008 12.6614 146.123 13.4095 146.123 14.1577C146.123 15.021 145.951 15.8267 145.548 16.5749ZM133.347 21.4092H139.62V18.8769V18.8194C141.289 20.9488 143.419 21.8121 145.951 21.7545C147.39 21.697 148.713 21.179 149.864 20.3733C151.476 19.1071 152.339 17.3806 152.454 15.3087C152.627 13.1218 152.109 11.165 150.9 9.43847C149.692 7.94213 148.195 7.07885 146.296 6.9062C143.706 6.56089 141.462 7.42416 139.62 9.38092V0.920837H133.289L133.347 21.4092Z" fill="#FF5A00"/>
</g>
<defs>
<clipPath id="clip0_7_8">
<rect width="173" height="22.2149" fill="white"/>
</clipPath>
</defs>
</svg>
