<svg width="173" height="32" viewBox="0 0 173 32" fill="none" xmlns="http://www.w3.org/2000/svg">
<g clip-path="url(#clip0_7_20)">
<mask id="mask0_7_20" style="mask-type:luminance" maskUnits="userSpaceOnUse" x="0" y="0" width="173" height="32">
<path d="M173 0H0V31.2481H173V0Z" fill="white"/>
</mask>
<g mask="url(#mask0_7_20)">
<path d="M60.0178 25.3258V2.85303H64.483V25.3258H60.0178Z" fill="#001A52"/>
<path d="M68.5495 25.3258V2.85303H78.1389C80.0858 2.85303 81.7075 3.21071 82.9995 3.93013C84.2916 4.64955 85.2585 5.58032 85.9044 6.72245C86.5505 7.86865 86.8713 9.05549 86.8713 10.2911C86.8713 11.5267 86.5505 12.7176 85.9044 13.8598C85.2585 15.0019 84.2916 15.9408 82.9995 16.6683C81.7075 17.3959 80.0858 17.7617 78.1389 17.7617H73.0146V25.3217H68.5495V25.3258ZM78.1038 6.43794H73.0146V14.1809H78.1038C79.0662 14.1809 79.8661 13.9939 80.4989 13.62C81.1318 13.246 81.6108 12.7583 81.9273 12.1608C82.2436 11.5633 82.4018 10.9496 82.4018 10.3236C82.4018 9.69769 82.2436 9.05956 81.9273 8.4702C81.6108 7.88491 81.1318 7.39717 80.4989 7.01104C79.8616 6.62491 79.0662 6.43387 78.1038 6.43387V6.43794Z" fill="#001A52"/>
<path d="M89.7944 25.3258V2.85303H99.2519C101.001 2.85303 102.495 3.1538 103.735 3.74722C104.97 4.34471 105.914 5.15355 106.56 6.17781C107.206 7.20207 107.527 8.34826 107.527 9.62453C107.527 11.0634 107.11 12.3437 106.279 13.4655C105.449 14.5873 104.244 15.4043 102.667 15.9083L108.248 25.3217H103.291L98.1005 16.392H94.2595V25.3217H89.7944V25.3258ZM99.1861 6.43794H94.2595V13.0265H99.1861C100.434 13.0265 101.388 12.6973 102.043 12.0389C102.697 11.3804 103.027 10.6081 103.027 9.71394C103.027 8.81975 102.697 8.05562 102.043 7.40529C101.388 6.75903 100.434 6.43387 99.1861 6.43387V6.43794Z" fill="#001A52"/>
<path d="M118.728 25.6307C116.825 25.6307 115.203 25.2364 113.867 24.4479C112.531 23.6594 111.52 22.631 110.83 21.367C110.14 20.1029 109.798 18.7413 109.798 17.2821C109.798 15.823 110.14 14.4613 110.83 13.1973C111.52 11.9332 112.531 10.9049 113.867 10.1164C115.203 9.32785 116.825 8.93359 118.728 8.93359C120.631 8.93359 122.279 9.32785 123.602 10.1164C124.924 10.9049 125.931 11.9332 126.621 13.1973C127.311 14.4613 127.653 15.823 127.653 17.2821C127.653 18.7413 127.311 20.1029 126.621 21.367C125.931 22.631 124.924 23.6594 123.602 24.4479C122.279 25.2364 120.652 25.6307 118.728 25.6307ZM118.728 22.2612C119.712 22.2612 120.539 22.0295 121.206 21.5621C121.874 21.0947 122.385 20.485 122.732 19.7249C123.083 18.9648 123.259 18.1519 123.259 17.2821C123.259 16.4123 123.083 15.571 122.732 14.8231C122.38 14.0752 121.874 13.4655 121.206 13.0022C120.539 12.5348 119.712 12.3031 118.728 12.3031C117.744 12.3031 116.944 12.5348 116.267 13.0022C115.586 13.4696 115.071 14.0752 114.724 14.8231C114.372 15.571 114.196 16.392 114.196 17.2821C114.196 18.1723 114.372 18.9689 114.724 19.7249C115.075 20.485 115.59 21.0987 116.267 21.5621C116.944 22.0295 117.765 22.2612 118.728 22.2612Z" fill="#001A52"/>
<path d="M130.972 31.2478C130.401 31.2478 129.759 31.2072 129.034 31.1259V27.8174C129.688 27.8783 130.238 27.9068 130.678 27.9068C131.794 27.9068 132.717 27.7402 133.45 27.4069C134.184 27.0736 134.804 26.4517 135.305 25.5412L128.77 9.23438H133.205L137.573 20.7126L141.875 9.23438H146.309L139.942 24.9356C139.067 27.0817 137.937 28.6709 136.558 29.7033C135.178 30.7357 133.319 31.2519 130.976 31.2519L130.972 31.2478Z" fill="#001A52"/>
<path d="M154.944 8.92578C156.061 8.92578 156.979 9.09243 157.705 9.42572C158.425 9.75901 158.997 10.1248 159.41 10.5191C159.827 10.9133 160.108 11.2344 160.262 11.4742H160.46V9.22656H164.828V25.3261H160.46V23.0785H160.262C160.108 23.3223 159.823 23.6434 159.41 24.0499C158.992 24.4563 158.425 24.8181 157.705 25.1432C156.983 25.4684 156.061 25.631 154.944 25.631C153.652 25.631 152.528 25.3912 151.561 24.9156C150.599 24.4401 149.794 23.8019 149.148 23.0012C148.502 22.2005 148.019 21.3063 147.702 20.3146C147.385 19.3228 147.227 18.3108 147.227 17.2784C147.227 16.246 147.385 15.2339 147.702 14.2422C148.019 13.2504 148.502 12.3562 149.148 11.5555C149.794 10.7548 150.599 10.1167 151.561 9.64114C152.523 9.16559 153.652 8.92578 154.944 8.92578ZM156.096 12.2343C155.112 12.2343 154.286 12.4822 153.617 12.9781C152.949 13.474 152.453 14.108 152.123 14.8762C151.793 15.6444 151.631 16.4452 151.631 17.2743C151.631 18.1035 151.793 18.9042 152.123 19.6724C152.453 20.4406 152.949 21.0746 153.617 21.5705C154.286 22.0664 155.112 22.3143 156.096 22.3143C157.081 22.3143 157.902 22.0664 158.557 21.5705C159.212 21.0746 159.704 20.4406 160.034 19.6724C160.363 18.9042 160.526 18.1035 160.526 17.2743C160.526 16.4452 160.363 15.6444 160.034 14.8762C159.704 14.108 159.212 13.474 158.557 12.9781C157.898 12.4822 157.081 12.2343 156.096 12.2343Z" fill="#001A52"/>
<path d="M168.641 25.3259L168.676 2.24756H173.01V25.3259H168.641Z" fill="#001A52"/>
<path d="M24.3873 25.3263L40.9643 4.73131C41.4478 4.12976 42.4761 4.4468 42.4761 5.19467V25.3263H24.3873Z" fill="#27D9E5" fill-opacity="0.65"/>
<path d="M18.0889 25.3263L1.5118 4.73131C1.02838 4.12976 0 4.4468 0 5.19467V25.3263H18.0889Z" fill="#27D9E5" fill-opacity="0.65"/>
<path d="M21.2399 21.4281L24.3778 25.326H42.4798L22.5847 0.625897C21.9123 -0.20733 20.5631 -0.20733 19.8907 0.625897L0 25.326H18.1021L21.2399 21.4281Z" fill="#27D9E5" fill-opacity="0.9"/>
</g>
</g>
<defs>
<clipPath id="clip0_7_20">
<rect width="173" height="32" fill="white"/>
</clipPath>
</defs>
</svg>
