<svg width="173" height="32" viewBox="0 0 173 32" fill="none" xmlns="http://www.w3.org/2000/svg">
<g clip-path="url(#clip0_7_3)">
<path d="M170.756 25.5749V25.1024H171.051C171.199 25.1024 171.435 25.132 171.435 25.3091C171.435 25.4863 171.317 25.5749 171.11 25.5749H170.756ZM170.756 25.8998H170.962L171.435 26.7267H171.937L171.405 25.8703C171.671 25.8998 171.878 25.6931 171.907 25.4273V25.3682C171.907 24.8957 171.582 24.7776 171.051 24.7776H170.283V26.7562H170.726V25.8998M173 25.7521C173 24.5708 172.085 23.8916 171.08 23.8916C170.076 23.8916 169.161 24.5708 169.161 25.7521C169.161 26.9334 170.076 27.6127 171.08 27.6127C172.085 27.6127 173 26.9334 173 25.7521ZM172.439 25.7521C172.468 26.4904 171.878 27.1402 171.139 27.1697H171.08C170.313 27.1992 169.633 26.579 169.604 25.8112C169.574 25.0434 170.194 24.3641 170.962 24.3346C171.73 24.3051 172.409 24.9252 172.439 25.6931C172.439 25.7226 172.439 25.7226 172.439 25.7521Z" fill="black"/>
<path d="M102.625 6.02459V26.963H108.531V6.02459H102.625ZM56.1113 5.99506V26.963H62.0768V10.6907L66.7134 10.7202C68.2491 10.7202 69.3123 11.1041 70.021 11.872C70.9661 12.8761 71.3204 14.4708 71.3204 17.424V26.9925H77.1088V15.3863C77.1088 7.11728 71.852 5.99506 66.6839 5.99506C66.7429 5.99506 56.1113 5.99506 56.1113 5.99506ZM112.164 6.02459V26.963H121.762C126.871 26.963 128.554 26.1065 130.326 24.2165C131.596 22.8875 132.423 19.9343 132.423 16.7153C132.423 13.762 131.743 11.1337 130.503 9.5094C128.347 6.5857 125.187 6.02459 120.462 6.02459C120.433 6.02459 112.164 6.02459 112.164 6.02459ZM118.011 10.5726H120.551C124.242 10.5726 126.634 12.2264 126.634 16.5085C126.634 20.7907 124.242 22.4741 120.551 22.4741H118.011V10.5726ZM94.1194 6.02459L89.1875 22.6217L84.4623 6.02459H78.0833L84.8167 26.963H93.322L100.144 6.02459C100.144 6.02459 94.1194 6.02459 94.1194 6.02459ZM135.169 26.9925H141.076V6.02459H135.169V26.9925ZM151.766 6.02459L143.527 26.963H149.345L150.644 23.2419H160.419L161.66 26.9334H168.009L159.681 6.02459H151.766ZM155.576 9.86378L159.179 19.639H151.914C151.884 19.639 155.576 9.86378 155.576 9.86378Z" fill="black"/>
<path d="M17.9852 9.50939V6.64476C18.2805 6.61523 18.5463 6.61523 18.8416 6.61523C26.7267 6.37897 31.8948 13.4076 31.8948 13.4076C31.8948 13.4076 26.3132 21.1156 20.3182 21.1156C19.5208 21.1156 18.753 20.9974 17.9852 20.7316V12.0196C21.0565 12.4036 21.6767 13.7325 23.5077 16.8039L27.6127 13.3486C27.6127 13.3486 24.6004 9.42079 19.5799 9.42079C19.0483 9.42079 18.5167 9.45033 17.9852 9.50939ZM17.9852 0V4.28218L18.8416 4.22311C29.7981 3.83919 36.9449 13.2009 36.9449 13.2009C36.9449 13.2009 28.7349 23.2124 20.2001 23.2124C19.4618 23.2124 18.7235 23.1533 17.9852 23.0056V25.6635C18.5758 25.7226 19.196 25.7817 19.8161 25.7817C27.7603 25.7817 33.5191 21.7062 39.1007 16.922C40.0162 17.6603 43.7963 19.4618 44.5937 20.2296C39.3074 24.6594 26.963 28.2328 19.9638 28.2328C19.2846 28.2328 18.6644 28.2033 18.0147 28.1147V31.8948H48.2262V0C48.2262 0 17.9852 0 17.9852 0ZM17.9852 20.7612V23.0352C10.6316 21.7062 8.59389 14.0574 8.59389 14.0574C8.59389 14.0574 12.1378 10.1591 17.9852 9.50939V11.9901H17.9556C14.8843 11.6062 12.4626 14.5003 12.4626 14.5003C12.4626 14.5003 13.8506 19.3436 17.9852 20.7612ZM4.93189 13.7325C4.93189 13.7325 9.27313 7.29447 17.9852 6.64476V4.31171C8.3281 5.07955 0 13.2305 0 13.2305C0 13.2305 4.72516 26.9039 17.9852 28.1443V25.6635C8.2395 24.4527 4.93189 13.7325 4.93189 13.7325Z" fill="#76B900"/>
</g>
<defs>
<clipPath id="clip0_7_3">
<rect width="173" height="31.8948" fill="white"/>
</clipPath>
</defs>
</svg>
