<svg width="154" height="36" viewBox="0 0 154 36" fill="none" xmlns="http://www.w3.org/2000/svg">
<g clip-path="url(#clip0_376_2852)">
<path d="M26.6291 6.9678V3.16029C26.6291 3.04416 26.5829 2.93279 26.5008 2.85068C26.4187 2.76856 26.3073 2.72243 26.1912 2.72243H1.29012C1.22748 2.72189 1.16545 2.7348 1.10823 2.76029C1.05101 2.78577 0.99992 2.82324 0.958416 2.87016C0.916912 2.91708 0.885957 2.97235 0.867643 3.03226C0.849329 3.09216 0.844081 3.1553 0.852254 3.2174V7.02491C0.852254 7.14104 0.898385 7.25241 0.980501 7.33453C1.06262 7.41664 1.17399 7.46278 1.29012 7.46278H11.1516V33.1254C11.1515 33.1845 11.1634 33.2431 11.1866 33.2975C11.2098 33.3519 11.2438 33.401 11.2865 33.4419C11.3292 33.4828 11.3797 33.5147 11.435 33.5355C11.4904 33.5564 11.5494 33.5658 11.6085 33.5632H15.8919C16.008 33.5632 16.1194 33.5171 16.2015 33.435C16.2836 33.3529 16.3298 33.2415 16.3298 33.1254V7.40566H26.1912C26.3073 7.40566 26.4187 7.35953 26.5008 7.27742C26.5829 7.1953 26.6291 7.08393 26.6291 6.9678Z" fill="#FF1499"/>
<path d="M39.0225 11.4226C38.1836 11.1656 37.3107 11.0372 36.4334 11.0418C35.2965 10.9515 34.1573 11.1842 33.1468 11.7129C32.1364 12.2417 31.2959 13.0452 30.7221 14.0307V11.8224C30.7175 11.763 30.7007 11.7052 30.673 11.6525C30.6452 11.5998 30.607 11.5533 30.5607 11.5159C30.5144 11.4785 30.4609 11.4509 30.4035 11.4349C30.3462 11.4188 30.2861 11.4146 30.2271 11.4226H26.2292C26.1131 11.4226 26.0017 11.4687 25.9196 11.5508C25.8375 11.633 25.7914 11.7443 25.7914 11.8605V33.1254C25.7914 33.2415 25.8375 33.3529 25.9196 33.435C26.0017 33.5171 26.1131 33.5633 26.2292 33.5633H30.3223C30.3814 33.5658 30.4404 33.5564 30.4957 33.5356C30.5511 33.5147 30.6016 33.4829 30.6443 33.442C30.687 33.401 30.721 33.3519 30.7442 33.2975C30.7673 33.2431 30.7793 33.1845 30.7792 33.1254V21.3031C30.72 20.5813 30.8039 19.8549 31.026 19.1656C31.2482 18.4762 31.6042 17.8376 32.0738 17.2862C32.5116 16.8481 33.0352 16.5053 33.6118 16.2792C34.1884 16.0532 34.8055 15.9488 35.4244 15.9726C36.2447 15.9796 37.0594 16.1079 37.8421 16.3533C37.8995 16.3737 37.9606 16.382 38.0213 16.3775C38.0821 16.3729 38.1412 16.3558 38.195 16.3271C38.2487 16.2985 38.2959 16.2589 38.3335 16.211C38.3711 16.163 38.3982 16.1078 38.4133 16.0487L39.3271 11.9937C39.3447 11.9362 39.3508 11.8758 39.345 11.816C39.3392 11.7561 39.3216 11.698 39.2933 11.6449C39.265 11.5919 39.2265 11.5449 39.1801 11.5068C39.1336 11.4686 39.08 11.44 39.0225 11.4226Z" fill="#FF1499"/>
<path d="M87.1116 11.4226H75.0989V9.61404C75.0643 9.15759 75.1206 8.69882 75.2643 8.26422C75.4081 7.82963 75.6366 7.42783 75.9365 7.08205C76.2313 6.79827 76.5809 6.57762 76.9639 6.43359C77.3469 6.28956 77.7552 6.22518 78.1639 6.2444C79.0981 6.23919 80.015 6.49644 80.8102 6.98686C80.8625 7.01734 80.9205 7.03709 80.9805 7.04497C81.0406 7.05285 81.1017 7.04869 81.1602 7.03275C81.2186 7.0168 81.2733 6.98938 81.3211 6.95209C81.3689 6.9148 81.4087 6.86837 81.4384 6.81552L82.9995 3.80759C83.0478 3.70331 83.055 3.58465 83.0197 3.47527C82.9844 3.36589 82.9092 3.27383 82.8091 3.21743C81.2867 2.35886 79.569 1.90649 77.8213 1.90384C75.8412 1.85624 73.9118 2.5332 72.3956 3.80759C71.6365 4.50291 71.0438 5.36029 70.6615 6.31607C70.2792 7.27184 70.1171 8.30147 70.1872 9.32848V11.4226H66.2274C66.1113 11.4226 65.9999 11.4687 65.9178 11.5509C65.8357 11.633 65.7896 11.7443 65.7896 11.8605V15.4776C65.7896 15.5937 65.8357 15.7051 65.9178 15.7872C65.9999 15.8693 66.1113 15.9155 66.2274 15.9155H70.1872V33.1254C70.1872 33.1845 70.1991 33.2431 70.2223 33.2975C70.2455 33.3519 70.2794 33.401 70.3221 33.4419C70.3648 33.4829 70.4154 33.5147 70.4707 33.5356C70.526 33.5564 70.585 33.5658 70.6441 33.5633H74.7372C74.8397 33.5452 74.9324 33.4912 74.9987 33.4109C75.065 33.3307 75.1005 33.2295 75.0989 33.1254V15.8774H82.5045V33.1254C82.5045 33.2415 82.5506 33.3529 82.6327 33.435C82.7149 33.5171 82.8262 33.5633 82.9424 33.5633H87.0354C87.0945 33.5658 87.1535 33.5564 87.2088 33.5356C87.2642 33.5147 87.3147 33.4829 87.3574 33.4419C87.4001 33.401 87.4341 33.3519 87.4573 33.2975C87.4805 33.2431 87.4924 33.1845 87.4923 33.1254V11.8224C87.4844 11.7222 87.4422 11.6277 87.3729 11.5549C87.3036 11.4821 87.2113 11.4354 87.1116 11.4226Z" fill="#FF1499"/>
<path d="M62.6672 11.4225H58.6693C58.5532 11.4225 58.4418 11.4686 58.3597 11.5507C58.2776 11.6328 58.2314 11.7442 58.2314 11.8603V13.9545C57.3623 12.8933 56.2526 12.0548 54.9944 11.5085C53.7363 10.9621 52.3659 10.7238 50.9972 10.8133C48.0319 10.7723 45.1637 11.8692 42.9824 13.8783C41.826 14.977 40.9223 16.3139 40.3339 17.7964C39.7455 19.2789 39.4864 20.8717 39.5747 22.4643C39.481 24.0187 39.7137 25.5756 40.258 27.0346C40.8023 28.4937 41.646 29.8227 42.7349 30.936C44.764 32.9329 47.5031 34.0422 50.3499 34.0201C53.2354 34.0668 56.0242 32.98 58.1172 30.9931V33.2205C58.1172 33.3366 58.1633 33.448 58.2455 33.5301C58.3276 33.6122 58.4389 33.6584 58.5551 33.6584H62.553C62.6691 33.6584 62.7805 33.6122 62.8626 33.5301C62.9447 33.448 62.9908 33.3366 62.9908 33.2205V11.8223C62.986 11.73 62.952 11.6417 62.8939 11.5698C62.8358 11.498 62.7564 11.4465 62.6672 11.4225ZM56.0612 27.6615C54.7595 28.9028 53.0241 29.586 51.2256 29.5653C50.3519 29.576 49.4847 29.4132 48.6742 29.0864C47.8638 28.7597 47.1263 28.2753 46.5043 27.6615C45.836 26.9488 45.322 26.1058 44.9945 25.1853C44.6669 24.2648 44.5328 23.2866 44.6006 22.312C44.5537 21.362 44.7018 20.4125 45.0357 19.522C45.3697 18.6314 45.8824 17.8186 46.5424 17.1338C47.8022 15.8993 49.5 15.2147 51.2637 15.23C53.048 15.2251 54.7657 15.9068 56.0612 17.1338C56.7587 17.8195 57.3014 18.6465 57.6527 19.5594C58.0041 20.4723 58.156 21.4498 58.0982 22.4262C58.1477 23.3932 57.9918 24.3598 57.6407 25.2622C57.2896 26.1645 56.7513 26.9823 56.0612 27.6615Z" fill="#FF1499"/>
<path d="M152.81 16.6198C152.706 16.4155 152.578 16.2238 152.429 16.0487L148.051 10.9466L140.264 1.90379C140.184 1.83022 140.078 1.78943 139.969 1.78943C139.86 1.78943 139.755 1.83022 139.674 1.90379L135.181 5.53997C135.109 5.6175 135.069 5.71954 135.069 5.82553C135.069 5.93151 135.109 6.03356 135.181 6.11109L145.347 18.0096L135.124 29.889C135.051 29.9696 135.01 30.0749 135.01 30.1841C135.01 30.2932 135.051 30.3985 135.124 30.4792L139.617 34.1534C139.679 34.1714 139.745 34.1714 139.807 34.1534C139.88 34.173 139.956 34.1708 140.028 34.1471C140.099 34.1234 140.161 34.0792 140.207 34.0201L152.372 19.8943C152.755 19.4496 153 18.9034 153.077 18.322C153.155 17.7407 153.062 17.1494 152.81 16.6198Z" fill="#FF1499"/>
<path d="M112.66 4.78739e-05H106.834C106.718 4.78739e-05 106.607 0.0461798 106.525 0.128295C106.443 0.21041 106.397 0.321783 106.397 0.437911V35.5812C106.402 35.694 106.45 35.8005 106.531 35.8786C106.613 35.9566 106.722 36.0001 106.834 36H112.66C112.717 36.0026 112.775 35.9938 112.829 35.9741C112.883 35.9544 112.933 35.9243 112.975 35.8854C113.018 35.8465 113.052 35.7996 113.076 35.7474C113.101 35.6952 113.114 35.6387 113.117 35.5812V0.437911C113.117 0.378773 113.105 0.320235 113.082 0.265831C113.059 0.211427 113.025 0.162283 112.982 0.121365C112.939 0.0804466 112.889 0.0486016 112.833 0.027751C112.778 0.00690049 112.719 -0.0025234 112.66 4.78739e-05Z" fill="#FF1499"/>
<path d="M131.697 15.0397L129.108 8.11003L128.842 7.3866L126.5 1.16133C126.48 1.10111 126.445 1.04693 126.398 1.0037C126.352 0.960474 126.295 0.929581 126.234 0.913838C126.147 0.886142 126.054 0.886142 125.967 0.913838L123.53 1.90379L120.484 2.98893C120.402 3.01001 120.329 3.05668 120.275 3.12219C120.247 3.18193 120.233 3.24686 120.233 3.31257C120.233 3.37828 120.247 3.44321 120.275 3.50294L125.72 18.1047L120.218 32.5923C120.2 32.6448 120.193 32.7003 120.196 32.7556C120.2 32.8109 120.215 32.8649 120.24 32.9145C120.264 32.9641 120.299 33.0083 120.341 33.0445C120.383 33.0807 120.432 33.1082 120.484 33.1254L121.398 33.449L125.986 35.0862H126.157C126.231 35.0772 126.301 35.0498 126.361 35.0066C126.421 34.9633 126.469 34.9056 126.5 34.8387L127.909 31.0312L129.223 27.4902L132.421 19.0376C132.514 18.7866 132.572 18.5239 132.592 18.257V18.0096C132.594 17.6534 132.536 17.2994 132.421 16.9625L131.697 15.0397Z" fill="#FF1499"/>
</g>
<defs>
<clipPath id="clip0_376_2852">
<rect width="152.3" height="36" fill="white" transform="translate(0.852295)"/>
</clipPath>
</defs>
</svg>
