<svg width="160" height="44" viewBox="0 0 160 44" fill="none" xmlns="http://www.w3.org/2000/svg">
<g clip-path="url(#clip0_8_63)">
<path d="M20.2432 21.5495V36.2981H24.2108V17.043C23.482 17.4527 21.6197 18.6817 20.2432 21.5495Z" fill="#001A52"/>
<path d="M36.9229 20.7297C32.7124 20.7297 30.3642 22.8601 30.3642 26.7111V36.2977H26.4775V26.7111C26.4775 20.5659 30.4452 16.7148 36.9229 16.7148V20.7297Z" fill="#001A52"/>
<path d="M47.7733 36.7066C42.1053 36.7066 39.1094 33.6749 39.1094 28.6768V12.6172H43.077V17.1237H47.8543V21.1386H43.077V28.5949C43.077 31.2988 44.5345 32.8556 47.8543 32.8556V36.7066H47.7733Z" fill="#001A52"/>
<path d="M96.1943 9.42188H92.3076V36.2972H96.1943V9.42188Z" fill="#001A52"/>
<path d="M58.9474 36.7079C53.8462 36.7079 50.0405 32.4472 50.0405 26.7116V17.125H54.0081V26.7116C54.0081 30.2349 56.0324 32.693 58.8664 32.693C61.7004 32.693 63.7247 30.071 63.7247 26.7116V17.125H67.6114V26.7116C67.6923 32.4472 63.9677 36.7079 58.9474 36.7079Z" fill="#001A52"/>
<path d="M85.1016 33.5118C83.5631 35.4783 81.3769 36.6254 78.8668 36.6254C73.7655 36.6254 69.8789 32.2827 69.8789 26.6291C69.8789 20.8116 73.9275 16.6328 79.4336 16.6328C85.1826 16.6328 88.9882 20.8935 88.9882 26.6291V36.2157H85.0206V33.5118H85.1016ZM73.9275 26.711C73.9275 29.9885 76.2757 32.6924 79.5145 32.6924C82.7534 32.6924 85.1825 30.1524 85.1825 26.711C85.1825 23.5974 83.2392 20.7297 79.5145 20.7297C75.9518 20.7297 73.9275 23.5974 73.9275 26.711Z" fill="#001A52"/>
<path d="M99.3525 43.9998V26.7111C99.3525 21.0575 103.158 16.7148 108.907 16.7148C114.494 16.7148 118.462 20.8936 118.462 26.7111C118.462 32.5286 114.737 36.7074 109.555 36.7074C106.883 36.7074 104.778 35.5603 103.239 33.6758V43.9998H99.3525ZM103.239 26.7111C103.239 30.1525 105.668 32.6925 108.907 32.6925C112.227 32.6925 114.575 29.9886 114.575 26.7111C114.575 23.5975 112.47 20.7297 108.907 20.7297C105.263 20.7297 103.239 23.5156 103.239 26.7111Z" fill="#F59E24"/>
<path d="M135.789 33.5118C134.251 35.4783 132.064 36.6254 129.554 36.6254C124.453 36.6254 120.566 32.2827 120.566 26.6291C120.566 20.8116 124.615 16.6328 130.121 16.6328C135.87 16.6328 139.676 20.8935 139.676 26.6291V36.2157H135.708V33.5118H135.789ZM124.534 26.711C124.534 29.9885 126.882 32.6924 130.121 32.6924C133.36 32.6924 135.789 30.1524 135.789 26.711C135.789 23.5974 133.846 20.7297 130.121 20.7297C126.558 20.7297 124.534 23.5155 124.534 26.711Z" fill="#F59E24"/>
<path d="M159.919 17.125H155.789H155.708L149.797 31.1362L143.886 17.125H139.676L147.773 36.0524L144.453 44.0003H148.664L160 17.125H159.919Z" fill="#F59E24"/>
<path d="M9.39271 29.4155L4.21053 17.125H0L8.09717 36.2982H8.98785C8.98785 35.7247 8.90688 35.1511 8.90688 34.6595C8.98785 32.8569 9.06882 31.1362 9.39271 29.4155Z" fill="#001A52"/>
<path d="M43.2388 0C26.0728 0 11.9028 12.7821 9.39265 29.4153C9.14974 31.136 8.98779 32.8567 8.98779 34.6593C8.98779 35.2328 8.98779 35.8064 9.06877 36.298H13.9271C14.6558 18.108 28.34 3.35941 47.6113 3.60522C55.0607 3.68716 62.0242 6.06332 67.6113 10.2421C61.3765 3.93297 52.7125 0 43.2388 0Z" fill="#F59E24"/>
</g>
<defs>
<clipPath id="clip0_8_63">
<rect width="160" height="44" fill="white"/>
</clipPath>
</defs>
</svg>
